<?xml version="1.0" encoding="UTF-8" standalone="no"?>
<!DOCTYPE svg PUBLIC "-//W3C//DTD SVG 1.1//EN"
 "http://www.w3.org/Graphics/SVG/1.1/DTD/svg11.dtd">
<!-- Generated by graphviz version 2.40.1 (20161225.0304)
 -->
<!-- Title: /home/daniel/projects/tracer/src/tracer/AbstractTracer.cpp Pages: 1 -->
<svg width="173pt" height="218pt"
 viewBox="0.00 0.00 172.50 218.00" xmlns="http://www.w3.org/2000/svg" xmlns:xlink="http://www.w3.org/1999/xlink">
<g id="graph0" class="graph" transform="scale(1 1) rotate(0) translate(4 214)">
<title>/home/daniel/projects/tracer/src/tracer/AbstractTracer.cpp</title>
<!-- Node0 -->
<g id="node1" class="node">
<title>Node0</title>
<polygon fill="#bfbfbf" stroke="#000000" points="0,-168.5 0,-209.5 140,-209.5 140,-168.5 0,-168.5"/>
<text text-anchor="start" x="8" y="-197.5" font-family="Helvetica,sans-Serif" font-size="10.00" fill="#000000">/home/daniel/projects</text>
<text text-anchor="start" x="8" y="-186.5" font-family="Helvetica,sans-Serif" font-size="10.00" fill="#000000">/tracer/src/tracer/Abstract</text>
<text text-anchor="middle" x="70" y="-175.5" font-family="Helvetica,sans-Serif" font-size="10.00" fill="#000000">Tracer.cpp</text>
</g>
<!-- Node1 -->
<g id="node2" class="node">
<title>Node1</title>
<polygon fill="none" stroke="#bfbfbf" points="30.5,-.5 30.5,-19.5 103.5,-19.5 103.5,-.5 30.5,-.5"/>
<text text-anchor="middle" x="67" y="-7.5" font-family="Helvetica,sans-Serif" font-size="10.00" fill="#000000">defines.hpp</text>
</g>
<!-- Node0&#45;&gt;Node1 -->
<g id="edge1" class="edge">
<title>Node0&#45;&gt;Node1</title>
<path fill="none" stroke="#191970" d="M59.9438,-168.4266C55.3108,-157.82 50.3311,-144.5135 48,-132 41.2595,-95.8164 52.1082,-53.2878 59.9837,-29.2031"/>
<polygon fill="#191970" stroke="#191970" points="63.3701,-30.1187 63.3191,-19.524 56.7521,-27.8381 63.3701,-30.1187"/>
</g>
<!-- Node2 -->
<g id="node3" class="node">
<title>Node2</title>
<g id="a_node3"><a xlink:href="_abstract_tracer_8hpp.html" target="_top" xlink:title="AbstractTracer.hpp">
<polygon fill="none" stroke="#000000" points="57.5,-112.5 57.5,-131.5 164.5,-131.5 164.5,-112.5 57.5,-112.5"/>
<text text-anchor="middle" x="111" y="-119.5" font-family="Helvetica,sans-Serif" font-size="10.00" fill="#000000">AbstractTracer.hpp</text>
</a>
</g>
</g>
<!-- Node0&#45;&gt;Node2 -->
<g id="edge2" class="edge">
<title>Node0&#45;&gt;Node2</title>
<path fill="none" stroke="#191970" d="M82.7479,-168.168C88.203,-159.2536 94.517,-148.9356 99.7907,-140.3177"/>
<polygon fill="#191970" stroke="#191970" points="102.7806,-142.137 105.0149,-131.7805 96.8099,-138.4833 102.7806,-142.137"/>
</g>
<!-- Node2&#45;&gt;Node1 -->
<g id="edge3" class="edge">
<title>Node2&#45;&gt;Node1</title>
<path fill="none" stroke="#191970" d="M104.9982,-112.4322C99.4854,-103.3313 91.3785,-89.1197 86,-76 79.781,-60.8302 74.7613,-42.916 71.4467,-29.5817"/>
<polygon fill="#191970" stroke="#191970" points="74.7958,-28.5363 69.0746,-19.6189 67.9861,-30.1577 74.7958,-28.5363"/>
</g>
<!-- Node3 -->
<g id="node4" class="node">
<title>Node3</title>
<g id="a_node4"><a xlink:href="_frame_8hpp.html" target="_top" xlink:title="Frame.hpp">
<polygon fill="none" stroke="#000000" points="95,-56.5 95,-75.5 163,-75.5 163,-56.5 95,-56.5"/>
<text text-anchor="middle" x="129" y="-63.5" font-family="Helvetica,sans-Serif" font-size="10.00" fill="#000000">Frame.hpp</text>
</a>
</g>
</g>
<!-- Node2&#45;&gt;Node3 -->
<g id="edge4" class="edge">
<title>Node2&#45;&gt;Node3</title>
<path fill="none" stroke="#191970" d="M114.1354,-112.2455C116.51,-104.8579 119.8493,-94.4689 122.7615,-85.4087"/>
<polygon fill="#191970" stroke="#191970" points="126.1725,-86.234 125.9006,-75.6427 119.5083,-84.0919 126.1725,-86.234"/>
</g>
<!-- Node3&#45;&gt;Node1 -->
<g id="edge5" class="edge">
<title>Node3&#45;&gt;Node1</title>
<path fill="none" stroke="#191970" d="M118.2004,-56.2455C109.1322,-48.0549 95.9794,-36.1749 85.2755,-26.5069"/>
<polygon fill="#191970" stroke="#191970" points="87.4429,-23.7482 77.6758,-19.6427 82.7509,-28.9429 87.4429,-23.7482"/>
</g>
</g>
</svg>
