<?xml version="1.0" encoding="UTF-8" standalone="no"?>
<!DOCTYPE svg PUBLIC "-//W3C//DTD SVG 1.1//EN"
 "http://www.w3.org/Graphics/SVG/1.1/DTD/svg11.dtd">
<!-- Generated by graphviz version 2.40.1 (20161225.0304)
 -->
<!-- Title: /home/daniel/projects/tracer/src/debugInfo/AbstractDebugInfo.hpp Pages: 1 -->
<!--zoomable 362 -->
<svg id="main" version="1.1" xmlns="http://www.w3.org/2000/svg" xmlns:xlink="http://www.w3.org/1999/xlink" xml:space="preserve" onload="init(evt)">
<style type="text/css"><![CDATA[
.edge:hover path { stroke: red; }
.edge:hover polygon { stroke: red; fill: red; }
]]></style>
<script type="text/javascript"><![CDATA[
var edges = document.getElementsByTagName('g');
if (edges && edges.length) {
  for (var i=0;i<edges.length;i++) {
    if (edges[i].id.substr(0,4)=='edge') {
      edges[i].setAttribute('class','edge');
    }
  }
}
]]></script>
        <defs>
                <circle id="rim" cx="0" cy="0" r="7"/>
                <circle id="rim2" cx="0" cy="0" r="3.5"/>
                <g id="zoomPlus">
                        <use xlink:href="#rim" fill="#404040">
                                <set attributeName="fill" to="#808080" begin="zoomplus.mouseover" end="zoomplus.mouseout"/>
                        </use>
                        <path d="M-4,0h8M0,-4v8" fill="none" stroke="white" stroke-width="1.5" pointer-events="none"/>
                </g>
                <g id="zoomMin">
                        <use xlink:href="#rim" fill="#404040">
                                <set attributeName="fill" to="#808080" begin="zoomminus.mouseover" end="zoomminus.mouseout"/>
                        </use>
                        <path d="M-4,0h8" fill="none" stroke="white" stroke-width="1.5" pointer-events="none"/>
                </g>
                <g id="dirArrow">
                        <path fill="none" stroke="white" stroke-width="1.5" d="M0,-3.0v7 M-2.5,-0.5L0,-3.0L2.5,-0.5"/>
                </g>
               <g id="resetDef">
                       <use xlink:href="#rim2" fill="#404040">
                               <set attributeName="fill" to="#808080" begin="reset.mouseover" end="reset.mouseout"/>
                       </use>
               </g>
        </defs>

<script type="text/javascript">
var viewWidth = 1788;
var viewHeight = 362;
var sectionId = 'dynsection-1';
</script>
<script xlink:href="svgpan.js"/>
<svg id="graph" class="graph">
<g id="viewport">
<title>/home/daniel/projects/tracer/src/debugInfo/AbstractDebugInfo.hpp</title>
<!-- Node3 -->
<g id="node1" class="node">
<title>Node3</title>
<polygon fill="#bfbfbf" stroke="#000000" points="532,-312.5 532,-353.5 663,-353.5 663,-312.5 532,-312.5"/>
<text text-anchor="start" x="540" y="-341.5" font-family="Helvetica,sans-Serif" font-size="10.00" fill="#000000">/home/daniel/projects</text>
<text text-anchor="start" x="540" y="-330.5" font-family="Helvetica,sans-Serif" font-size="10.00" fill="#000000">/tracer/src/debugInfo</text>
<text text-anchor="middle" x="597.5" y="-319.5" font-family="Helvetica,sans-Serif" font-size="10.00" fill="#000000">/AbstractDebugInfo.hpp</text>
</g>
<!-- Node4 -->
<g id="node2" class="node">
<title>Node4</title>
<g id="a_node2"><a xlink:href="_abstract_debug_info_8cpp.html" target="_top" xlink:title="/home/daniel/projects\l/tracer/src/debugInfo\l/AbstractDebugInfo.cpp">
<polygon fill="none" stroke="#000000" points="0,-229 0,-270 131,-270 131,-229 0,-229"/>
<text text-anchor="start" x="8" y="-258" font-family="Helvetica,sans-Serif" font-size="10.00" fill="#000000">/home/daniel/projects</text>
<text text-anchor="start" x="8" y="-247" font-family="Helvetica,sans-Serif" font-size="10.00" fill="#000000">/tracer/src/debugInfo</text>
<text text-anchor="middle" x="65.5" y="-236" font-family="Helvetica,sans-Serif" font-size="10.00" fill="#000000">/AbstractDebugInfo.cpp</text>
</a>
</g>
</g>
<!-- Node3&#45;&gt;Node4 -->
<g id="edge1" class="edge">
<title>Node3&#45;&gt;Node4</title>
<path fill="none" stroke="#191970" d="M521.6358,-328.5574C430.2388,-322.0582 272.5066,-307.1681 140.5,-276 133.5111,-274.3499 126.267,-272.2767 119.1596,-270.0205"/>
<polygon fill="#191970" stroke="#191970" points="521.4109,-332.0501 531.6299,-329.2534 521.8973,-325.067 521.4109,-332.0501"/>
</g>
<!-- Node5 -->
<g id="node3" class="node">
<title>Node5</title>
<g id="a_node3"><a xlink:href="_debug_info_dummy_8hpp.html" target="_top" xlink:title="/home/daniel/projects\l/tracer/src/debugInfo\l/dummy/DebugInfoDummy.hpp">
<polygon fill="none" stroke="#000000" points="879,-229 879,-270 1048,-270 1048,-229 879,-229"/>
<text text-anchor="start" x="887" y="-258" font-family="Helvetica,sans-Serif" font-size="10.00" fill="#000000">/home/daniel/projects</text>
<text text-anchor="start" x="887" y="-247" font-family="Helvetica,sans-Serif" font-size="10.00" fill="#000000">/tracer/src/debugInfo</text>
<text text-anchor="middle" x="963.5" y="-236" font-family="Helvetica,sans-Serif" font-size="10.00" fill="#000000">/dummy/DebugInfoDummy.hpp</text>
</a>
</g>
</g>
<!-- Node3&#45;&gt;Node5 -->
<g id="edge2" class="edge">
<title>Node3&#45;&gt;Node5</title>
<path fill="none" stroke="#191970" d="M673.1769,-318.7142C728.1565,-307.9677 804.2269,-292.3384 870.5,-276 877.9982,-274.1515 885.8045,-272.1116 893.5661,-270.0089"/>
<polygon fill="#191970" stroke="#191970" points="672.3108,-315.317 663.1636,-320.663 673.6481,-322.1881 672.3108,-315.317"/>
</g>
<!-- Node8 -->
<g id="node6" class="node">
<title>Node8</title>
<g id="a_node6"><a xlink:href="_debug_info_external_fallback_8hpp.html" target="_top" xlink:title="/home/daniel/projects\l/tracer/src/debugInfo\l/externalFallback/DebugInfoExternal\lFallback.hpp">
<polygon fill="none" stroke="#000000" points="149.5,-223.5 149.5,-275.5 343.5,-275.5 343.5,-223.5 149.5,-223.5"/>
<text text-anchor="start" x="157.5" y="-263.5" font-family="Helvetica,sans-Serif" font-size="10.00" fill="#000000">/home/daniel/projects</text>
<text text-anchor="start" x="157.5" y="-252.5" font-family="Helvetica,sans-Serif" font-size="10.00" fill="#000000">/tracer/src/debugInfo</text>
<text text-anchor="start" x="157.5" y="-241.5" font-family="Helvetica,sans-Serif" font-size="10.00" fill="#000000">/externalFallback/DebugInfoExternal</text>
<text text-anchor="middle" x="246.5" y="-230.5" font-family="Helvetica,sans-Serif" font-size="10.00" fill="#000000">Fallback.hpp</text>
</a>
</g>
</g>
<!-- Node3&#45;&gt;Node8 -->
<g id="edge5" class="edge">
<title>Node3&#45;&gt;Node8</title>
<path fill="none" stroke="#191970" d="M522.1298,-315.801C473.6376,-304.6525 409.2939,-289.7049 352.5,-276 349.5496,-275.288 346.554,-274.5616 343.5303,-273.8252"/>
<polygon fill="#191970" stroke="#191970" points="521.389,-319.222 531.9188,-318.0495 522.9561,-312.3996 521.389,-319.222"/>
</g>
<!-- Node10 -->
<g id="node8" class="node">
<title>Node10</title>
<g id="a_node8"><a xlink:href="_debug_info_b_f_d_8hpp.html" target="_top" xlink:title="/home/daniel/projects\l/tracer/src/debugInfo\l/libbfd/DebugInfoBFD.hpp">
<polygon fill="none" stroke="#000000" points="362,-229 362,-270 503,-270 503,-229 362,-229"/>
<text text-anchor="start" x="370" y="-258" font-family="Helvetica,sans-Serif" font-size="10.00" fill="#000000">/home/daniel/projects</text>
<text text-anchor="start" x="370" y="-247" font-family="Helvetica,sans-Serif" font-size="10.00" fill="#000000">/tracer/src/debugInfo</text>
<text text-anchor="middle" x="432.5" y="-236" font-family="Helvetica,sans-Serif" font-size="10.00" fill="#000000">/libbfd/DebugInfoBFD.hpp</text>
</a>
</g>
</g>
<!-- Node3&#45;&gt;Node10 -->
<g id="edge7" class="edge">
<title>Node3&#45;&gt;Node10</title>
<path fill="none" stroke="#191970" d="M547.482,-307.6878C523.6721,-295.6386 495.5667,-281.4156 473.103,-270.0476"/>
<polygon fill="#191970" stroke="#191970" points="546.2105,-310.967 556.7135,-312.3595 549.3713,-304.7213 546.2105,-310.967"/>
</g>
<!-- Node12 -->
<g id="node10" class="node">
<title>Node12</title>
<g id="a_node10"><a xlink:href="_debug_info_d_w_l_f_8hpp.html" target="_top" xlink:title="/home/daniel/projects\l/tracer/src/debugInfo\l/libdwlf/DebugInfoDWLF.hpp">
<polygon fill="none" stroke="#000000" points="521,-229 521,-270 674,-270 674,-229 521,-229"/>
<text text-anchor="start" x="529" y="-258" font-family="Helvetica,sans-Serif" font-size="10.00" fill="#000000">/home/daniel/projects</text>
<text text-anchor="start" x="529" y="-247" font-family="Helvetica,sans-Serif" font-size="10.00" fill="#000000">/tracer/src/debugInfo</text>
<text text-anchor="middle" x="597.5" y="-236" font-family="Helvetica,sans-Serif" font-size="10.00" fill="#000000">/libdwlf/DebugInfoDWLF.hpp</text>
</a>
</g>
</g>
<!-- Node3&#45;&gt;Node12 -->
<g id="edge9" class="edge">
<title>Node3&#45;&gt;Node12</title>
<path fill="none" stroke="#191970" d="M597.5,-302.1593C597.5,-291.5064 597.5,-279.8344 597.5,-270.1924"/>
<polygon fill="#191970" stroke="#191970" points="594.0001,-302.3595 597.5,-312.3595 601.0001,-302.3596 594.0001,-302.3595"/>
</g>
<!-- Node14 -->
<g id="node12" class="node">
<title>Node14</title>
<g id="a_node12"><a xlink:href="_debug_info_w_i_n32_8hpp.html" target="_top" xlink:title="/home/daniel/projects\l/tracer/src/debugInfo\l/windows/DebugInfoWIN32.hpp">
<polygon fill="none" stroke="#000000" points="692,-229 692,-270 861,-270 861,-229 692,-229"/>
<text text-anchor="start" x="700" y="-258" font-family="Helvetica,sans-Serif" font-size="10.00" fill="#000000">/home/daniel/projects</text>
<text text-anchor="start" x="700" y="-247" font-family="Helvetica,sans-Serif" font-size="10.00" fill="#000000">/tracer/src/debugInfo</text>
<text text-anchor="middle" x="776.5" y="-236" font-family="Helvetica,sans-Serif" font-size="10.00" fill="#000000">/windows/DebugInfoWIN32.hpp</text>
</a>
</g>
</g>
<!-- Node3&#45;&gt;Node14 -->
<g id="edge11" class="edge">
<title>Node3&#45;&gt;Node14</title>
<path fill="none" stroke="#191970" d="M651.0773,-308.0072C677.052,-295.8906 707.8665,-281.5162 732.4519,-270.0476"/>
<polygon fill="#191970" stroke="#191970" points="649.3301,-304.9602 641.7472,-312.3595 652.2893,-311.3039 649.3301,-304.9602"/>
</g>
<!-- Node16 -->
<g id="node14" class="node">
<title>Node16</title>
<g id="a_node14"><a xlink:href="_tracer_8hpp.html" target="_top" xlink:title="/home/daniel/projects\l/tracer/src/Tracer.hpp">
<polygon fill="none" stroke="#000000" points="1281.5,-234.5 1281.5,-264.5 1403.5,-264.5 1403.5,-234.5 1281.5,-234.5"/>
<text text-anchor="start" x="1289.5" y="-252.5" font-family="Helvetica,sans-Serif" font-size="10.00" fill="#000000">/home/daniel/projects</text>
<text text-anchor="middle" x="1342.5" y="-241.5" font-family="Helvetica,sans-Serif" font-size="10.00" fill="#000000">/tracer/src/Tracer.hpp</text>
</a>
</g>
</g>
<!-- Node3&#45;&gt;Node16 -->
<g id="edge13" class="edge">
<title>Node3&#45;&gt;Node16</title>
<path fill="none" stroke="#191970" d="M673.6463,-324.4655C821.8266,-307.8574 1146.2499,-271.4958 1281.4543,-256.342"/>
<polygon fill="#191970" stroke="#191970" points="672.8349,-321.0344 663.287,-325.6266 673.6146,-327.9909 672.8349,-321.0344"/>
</g>
<!-- Node6 -->
<g id="node4" class="node">
<title>Node6</title>
<g id="a_node4"><a xlink:href="_debug_info_dummy_8cpp.html" target="_top" xlink:title="/home/daniel/projects\l/tracer/src/debugInfo\l/dummy/DebugInfoDummy.cpp">
<polygon fill="none" stroke="#000000" points="877.5,-140 877.5,-181 1045.5,-181 1045.5,-140 877.5,-140"/>
<text text-anchor="start" x="885.5" y="-169" font-family="Helvetica,sans-Serif" font-size="10.00" fill="#000000">/home/daniel/projects</text>
<text text-anchor="start" x="885.5" y="-158" font-family="Helvetica,sans-Serif" font-size="10.00" fill="#000000">/tracer/src/debugInfo</text>
<text text-anchor="middle" x="961.5" y="-147" font-family="Helvetica,sans-Serif" font-size="10.00" fill="#000000">/dummy/DebugInfoDummy.cpp</text>
</a>
</g>
</g>
<!-- Node5&#45;&gt;Node6 -->
<g id="edge3" class="edge">
<title>Node5&#45;&gt;Node6</title>
<path fill="none" stroke="#191970" d="M962.8111,-218.844C962.5304,-206.3522 962.2133,-192.2439 961.9614,-181.0301"/>
<polygon fill="#191970" stroke="#191970" points="959.3123,-218.9391 963.0361,-228.8579 966.3105,-218.7818 959.3123,-218.9391"/>
</g>
<!-- Node7 -->
<g id="node5" class="node">
<title>Node7</title>
<g id="a_node5"><a xlink:href="_tracer_8cpp.html" target="_top" xlink:title="/home/daniel/projects\l/tracer/src/Tracer.cpp">
<polygon fill="none" stroke="#000000" points="1063.5,-145.5 1063.5,-175.5 1185.5,-175.5 1185.5,-145.5 1063.5,-145.5"/>
<text text-anchor="start" x="1071.5" y="-163.5" font-family="Helvetica,sans-Serif" font-size="10.00" fill="#000000">/home/daniel/projects</text>
<text text-anchor="middle" x="1124.5" y="-152.5" font-family="Helvetica,sans-Serif" font-size="10.00" fill="#000000">/tracer/src/Tracer.cpp</text>
</a>
</g>
</g>
<!-- Node5&#45;&gt;Node7 -->
<g id="edge4" class="edge">
<title>Node5&#45;&gt;Node7</title>
<path fill="none" stroke="#191970" d="M1009.7582,-223.9287C1038.0437,-208.2926 1073.2614,-188.8244 1097.1658,-175.6102"/>
<polygon fill="#191970" stroke="#191970" points="1007.8998,-220.9568 1000.8413,-228.8579 1011.2864,-227.083 1007.8998,-220.9568"/>
</g>
<!-- Node9 -->
<g id="node7" class="node">
<title>Node9</title>
<g id="a_node7"><a xlink:href="_debug_info_external_fallback_8cpp.html" target="_top" xlink:title="/home/daniel/projects\l/tracer/src/debugInfo\l/externalFallback/DebugInfoExternal\lFallback.cpp">
<polygon fill="none" stroke="#000000" points="149.5,-134.5 149.5,-186.5 343.5,-186.5 343.5,-134.5 149.5,-134.5"/>
<text text-anchor="start" x="157.5" y="-174.5" font-family="Helvetica,sans-Serif" font-size="10.00" fill="#000000">/home/daniel/projects</text>
<text text-anchor="start" x="157.5" y="-163.5" font-family="Helvetica,sans-Serif" font-size="10.00" fill="#000000">/tracer/src/debugInfo</text>
<text text-anchor="start" x="157.5" y="-152.5" font-family="Helvetica,sans-Serif" font-size="10.00" fill="#000000">/externalFallback/DebugInfoExternal</text>
<text text-anchor="middle" x="246.5" y="-141.5" font-family="Helvetica,sans-Serif" font-size="10.00" fill="#000000">Fallback.cpp</text>
</a>
</g>
</g>
<!-- Node8&#45;&gt;Node9 -->
<g id="edge6" class="edge">
<title>Node8&#45;&gt;Node9</title>
<path fill="none" stroke="#191970" d="M246.5,-213.1155C246.5,-204.2061 246.5,-194.8475 246.5,-186.5341"/>
<polygon fill="#191970" stroke="#191970" points="243.0001,-213.2784 246.5,-223.2784 250.0001,-213.2785 243.0001,-213.2784"/>
</g>
<!-- Node11 -->
<g id="node9" class="node">
<title>Node11</title>
<g id="a_node9"><a xlink:href="_debug_info_b_f_d_8cpp.html" target="_top" xlink:title="/home/daniel/projects\l/tracer/src/debugInfo\l/libbfd/DebugInfoBFD.cpp">
<polygon fill="none" stroke="#000000" points="362.5,-140 362.5,-181 502.5,-181 502.5,-140 362.5,-140"/>
<text text-anchor="start" x="370.5" y="-169" font-family="Helvetica,sans-Serif" font-size="10.00" fill="#000000">/home/daniel/projects</text>
<text text-anchor="start" x="370.5" y="-158" font-family="Helvetica,sans-Serif" font-size="10.00" fill="#000000">/tracer/src/debugInfo</text>
<text text-anchor="middle" x="432.5" y="-147" font-family="Helvetica,sans-Serif" font-size="10.00" fill="#000000">/libbfd/DebugInfoBFD.cpp</text>
</a>
</g>
</g>
<!-- Node10&#45;&gt;Node11 -->
<g id="edge8" class="edge">
<title>Node10&#45;&gt;Node11</title>
<path fill="none" stroke="#191970" d="M432.5,-218.844C432.5,-206.3522 432.5,-192.2439 432.5,-181.0301"/>
<polygon fill="#191970" stroke="#191970" points="429.0001,-218.8579 432.5,-228.8579 436.0001,-218.8579 429.0001,-218.8579"/>
</g>
<!-- Node13 -->
<g id="node11" class="node">
<title>Node13</title>
<g id="a_node11"><a xlink:href="_debug_info_d_w_l_f_8cpp.html" target="_top" xlink:title="/home/daniel/projects\l/tracer/src/debugInfo\l/libdwlf/DebugInfoDWLF.cpp">
<polygon fill="none" stroke="#000000" points="521.5,-140 521.5,-181 673.5,-181 673.5,-140 521.5,-140"/>
<text text-anchor="start" x="529.5" y="-169" font-family="Helvetica,sans-Serif" font-size="10.00" fill="#000000">/home/daniel/projects</text>
<text text-anchor="start" x="529.5" y="-158" font-family="Helvetica,sans-Serif" font-size="10.00" fill="#000000">/tracer/src/debugInfo</text>
<text text-anchor="middle" x="597.5" y="-147" font-family="Helvetica,sans-Serif" font-size="10.00" fill="#000000">/libdwlf/DebugInfoDWLF.cpp</text>
</a>
</g>
</g>
<!-- Node12&#45;&gt;Node13 -->
<g id="edge10" class="edge">
<title>Node12&#45;&gt;Node13</title>
<path fill="none" stroke="#191970" d="M597.5,-218.844C597.5,-206.3522 597.5,-192.2439 597.5,-181.0301"/>
<polygon fill="#191970" stroke="#191970" points="594.0001,-218.8579 597.5,-228.8579 601.0001,-218.8579 594.0001,-218.8579"/>
</g>
<!-- Node15 -->
<g id="node13" class="node">
<title>Node15</title>
<g id="a_node13"><a xlink:href="_debug_info_w_i_n32_8cpp.html" target="_top" xlink:title="/home/daniel/projects\l/tracer/src/debugInfo\l/windows/DebugInfoWIN32.cpp">
<polygon fill="none" stroke="#000000" points="691.5,-140 691.5,-181 859.5,-181 859.5,-140 691.5,-140"/>
<text text-anchor="start" x="699.5" y="-169" font-family="Helvetica,sans-Serif" font-size="10.00" fill="#000000">/home/daniel/projects</text>
<text text-anchor="start" x="699.5" y="-158" font-family="Helvetica,sans-Serif" font-size="10.00" fill="#000000">/tracer/src/debugInfo</text>
<text text-anchor="middle" x="775.5" y="-147" font-family="Helvetica,sans-Serif" font-size="10.00" fill="#000000">/windows/DebugInfoWIN32.cpp</text>
</a>
</g>
</g>
<!-- Node14&#45;&gt;Node15 -->
<g id="edge12" class="edge">
<title>Node14&#45;&gt;Node15</title>
<path fill="none" stroke="#191970" d="M776.1556,-218.844C776.0152,-206.3522 775.8567,-192.2439 775.7307,-181.0301"/>
<polygon fill="#191970" stroke="#191970" points="772.6558,-218.8979 776.2681,-228.8579 779.6554,-218.8192 772.6558,-218.8979"/>
</g>
<!-- Node16&#45;&gt;Node7 -->
<g id="edge17" class="edge">
<title>Node16&#45;&gt;Node7</title>
<path fill="none" stroke="#191970" d="M1296.1948,-230.5956C1255.9595,-214.1693 1198.4558,-190.693 1161.2977,-175.5229"/>
<polygon fill="#191970" stroke="#191970" points="1294.9382,-233.863 1305.5193,-234.4024 1297.584,-227.3822 1294.9382,-233.863"/>
</g>
<!-- Node17 -->
<g id="node15" class="node">
<title>Node17</title>
<g id="a_node15"><a xlink:href="_abstract_printer_8cpp.html" target="_top" xlink:title="/home/daniel/projects\l/tracer/src/printers\l/AbstractPrinter.cpp">
<polygon fill="none" stroke="#000000" points="1517.5,-140 1517.5,-181 1639.5,-181 1639.5,-140 1517.5,-140"/>
<text text-anchor="start" x="1525.5" y="-169" font-family="Helvetica,sans-Serif" font-size="10.00" fill="#000000">/home/daniel/projects</text>
<text text-anchor="start" x="1525.5" y="-158" font-family="Helvetica,sans-Serif" font-size="10.00" fill="#000000">/tracer/src/printers</text>
<text text-anchor="middle" x="1578.5" y="-147" font-family="Helvetica,sans-Serif" font-size="10.00" fill="#000000">/AbstractPrinter.cpp</text>
</a>
</g>
</g>
<!-- Node16&#45;&gt;Node17 -->
<g id="edge14" class="edge">
<title>Node16&#45;&gt;Node17</title>
<path fill="none" stroke="#191970" d="M1391.8517,-230.9454C1424.8735,-218.5238 1469.2992,-201.7998 1508.5,-187 1513.6059,-185.0723 1518.9206,-183.0639 1524.2381,-181.0531"/>
<polygon fill="#191970" stroke="#191970" points="1390.5497,-227.6957 1382.4221,-234.4922 1393.0141,-234.2476 1390.5497,-227.6957"/>
</g>
<!-- Node18 -->
<g id="node16" class="node">
<title>Node18</title>
<g id="a_node16"><a xlink:href="_default_printer_8cpp.html" target="_top" xlink:title="/home/daniel/projects\l/tracer/src/printers\l/DefaultPrinter.cpp">
<polygon fill="none" stroke="#000000" points="1657.5,-140 1657.5,-181 1779.5,-181 1779.5,-140 1657.5,-140"/>
<text text-anchor="start" x="1665.5" y="-169" font-family="Helvetica,sans-Serif" font-size="10.00" fill="#000000">/home/daniel/projects</text>
<text text-anchor="start" x="1665.5" y="-158" font-family="Helvetica,sans-Serif" font-size="10.00" fill="#000000">/tracer/src/printers</text>
<text text-anchor="middle" x="1718.5" y="-147" font-family="Helvetica,sans-Serif" font-size="10.00" fill="#000000">/DefaultPrinter.cpp</text>
</a>
</g>
</g>
<!-- Node16&#45;&gt;Node18 -->
<g id="edge15" class="edge">
<title>Node16&#45;&gt;Node18</title>
<path fill="none" stroke="#191970" d="M1413.7306,-238.2868C1476.2541,-227.6566 1569.3123,-209.9155 1648.5,-187 1654.4915,-185.2662 1660.6972,-183.2509 1666.826,-181.1206"/>
<polygon fill="#191970" stroke="#191970" points="1412.8602,-234.884 1403.58,-239.9957 1414.0224,-241.7869 1412.8602,-234.884"/>
</g>
<!-- Node19 -->
<g id="node17" class="node">
<title>Node19</title>
<g id="a_node17"><a xlink:href="_file_printer_8cpp.html" target="_top" xlink:title="/home/daniel/projects\l/tracer/src/printers\l/FilePrinter.cpp">
<polygon fill="none" stroke="#000000" points="1203.5,-140 1203.5,-181 1325.5,-181 1325.5,-140 1203.5,-140"/>
<text text-anchor="start" x="1211.5" y="-169" font-family="Helvetica,sans-Serif" font-size="10.00" fill="#000000">/home/daniel/projects</text>
<text text-anchor="start" x="1211.5" y="-158" font-family="Helvetica,sans-Serif" font-size="10.00" fill="#000000">/tracer/src/printers</text>
<text text-anchor="middle" x="1264.5" y="-147" font-family="Helvetica,sans-Serif" font-size="10.00" fill="#000000">/FilePrinter.cpp</text>
</a>
</g>
</g>
<!-- Node16&#45;&gt;Node19 -->
<g id="edge16" class="edge">
<title>Node16&#45;&gt;Node19</title>
<path fill="none" stroke="#191970" d="M1322.4429,-226.6143C1310.1037,-212.535 1294.423,-194.643 1282.4866,-181.0232"/>
<polygon fill="#191970" stroke="#191970" points="1320.0451,-229.1887 1329.2684,-234.4024 1325.3095,-224.5749 1320.0451,-229.1887"/>
</g>
<!-- Node20 -->
<g id="node18" class="node">
<title>Node20</title>
<g id="a_node18"><a xlink:href="_tracer_handler_8hpp.html" target="_top" xlink:title="/home/daniel/projects\l/tracer/src/TracerHandler.hpp">
<polygon fill="none" stroke="#000000" points="1343.5,-145.5 1343.5,-175.5 1499.5,-175.5 1499.5,-145.5 1343.5,-145.5"/>
<text text-anchor="start" x="1351.5" y="-163.5" font-family="Helvetica,sans-Serif" font-size="10.00" fill="#000000">/home/daniel/projects</text>
<text text-anchor="middle" x="1421.5" y="-152.5" font-family="Helvetica,sans-Serif" font-size="10.00" fill="#000000">/tracer/src/TracerHandler.hpp</text>
</a>
</g>
</g>
<!-- Node16&#45;&gt;Node20 -->
<g id="edge18" class="edge">
<title>Node16&#45;&gt;Node20</title>
<path fill="none" stroke="#191970" d="M1362.8782,-226.5423C1377.0846,-210.5376 1395.6404,-189.633 1408.033,-175.6717"/>
<polygon fill="#191970" stroke="#191970" points="1359.9222,-224.6002 1355.9013,-234.4024 1365.1573,-229.2471 1359.9222,-224.6002"/>
</g>
<!-- Node21 -->
<g id="node19" class="node">
<title>Node21</title>
<g id="a_node19"><a xlink:href="tracer_internal_8hpp.html" target="_top" xlink:title="/home/daniel/projects\l/tracer/src/c&#45;API/tracerInternal.hpp">
<polygon fill="none" stroke="#000000" points="1236,-67.5 1236,-97.5 1419,-97.5 1419,-67.5 1236,-67.5"/>
<text text-anchor="start" x="1244" y="-85.5" font-family="Helvetica,sans-Serif" font-size="10.00" fill="#000000">/home/daniel/projects</text>
<text text-anchor="middle" x="1327.5" y="-74.5" font-family="Helvetica,sans-Serif" font-size="10.00" fill="#000000">/tracer/src/c&#45;API/tracerInternal.hpp</text>
</a>
</g>
</g>
<!-- Node20&#45;&gt;Node21 -->
<g id="edge19" class="edge">
<title>Node20&#45;&gt;Node21</title>
<path fill="none" stroke="#191970" d="M1395.5469,-138.9644C1379.785,-125.8854 1360.0432,-109.5039 1345.8892,-97.7592"/>
<polygon fill="#191970" stroke="#191970" points="1393.4452,-141.7685 1403.3759,-145.4608 1397.9152,-136.3816 1393.4452,-141.7685"/>
</g>
<!-- Node26 -->
<g id="node24" class="node">
<title>Node26</title>
<g id="a_node24"><a xlink:href="_tracer_handler_8cpp.html" target="_top" xlink:title="/home/daniel/projects\l/tracer/src/TracerHandler.cpp">
<polygon fill="none" stroke="#000000" points="1437,-67.5 1437,-97.5 1592,-97.5 1592,-67.5 1437,-67.5"/>
<text text-anchor="start" x="1445" y="-85.5" font-family="Helvetica,sans-Serif" font-size="10.00" fill="#000000">/home/daniel/projects</text>
<text text-anchor="middle" x="1514.5" y="-74.5" font-family="Helvetica,sans-Serif" font-size="10.00" fill="#000000">/tracer/src/TracerHandler.cpp</text>
</a>
</g>
</g>
<!-- Node20&#45;&gt;Node26 -->
<g id="edge24" class="edge">
<title>Node20&#45;&gt;Node26</title>
<path fill="none" stroke="#191970" d="M1447.177,-138.9644C1462.7712,-125.8854 1482.303,-109.5039 1496.3064,-97.7592"/>
<polygon fill="#191970" stroke="#191970" points="1444.8441,-136.353 1439.4313,-145.4608 1449.3424,-141.7163 1444.8441,-136.353"/>
</g>
<!-- Node22 -->
<g id="node20" class="node">
<title>Node22</title>
<g id="a_node20"><a xlink:href="c_printer_container_8cpp.html" target="_top" xlink:title="/home/daniel/projects\l/tracer/src/c&#45;API/cPrinterContainer.cpp">
<polygon fill="none" stroke="#000000" points="943.5,-.5 943.5,-30.5 1143.5,-30.5 1143.5,-.5 943.5,-.5"/>
<text text-anchor="start" x="951.5" y="-18.5" font-family="Helvetica,sans-Serif" font-size="10.00" fill="#000000">/home/daniel/projects</text>
<text text-anchor="middle" x="1043.5" y="-7.5" font-family="Helvetica,sans-Serif" font-size="10.00" fill="#000000">/tracer/src/c&#45;API/cPrinterContainer.cpp</text>
</a>
</g>
</g>
<!-- Node21&#45;&gt;Node22 -->
<g id="edge20" class="edge">
<title>Node21&#45;&gt;Node22</title>
<path fill="none" stroke="#191970" d="M1253.9875,-65.1573C1208.623,-54.4551 1150.9964,-40.8601 1107.5131,-30.6017"/>
<polygon fill="#191970" stroke="#191970" points="1253.2284,-68.5742 1263.7649,-67.4639 1254.8357,-61.7612 1253.2284,-68.5742"/>
</g>
<!-- Node23 -->
<g id="node21" class="node">
<title>Node23</title>
<g id="a_node21"><a xlink:href="c_printers_8cpp.html" target="_top" xlink:title="/home/daniel/projects\l/tracer/src/c&#45;API/cPrinters.cpp">
<polygon fill="none" stroke="#000000" points="1162,-.5 1162,-30.5 1321,-30.5 1321,-.5 1162,-.5"/>
<text text-anchor="start" x="1170" y="-18.5" font-family="Helvetica,sans-Serif" font-size="10.00" fill="#000000">/home/daniel/projects</text>
<text text-anchor="middle" x="1241.5" y="-7.5" font-family="Helvetica,sans-Serif" font-size="10.00" fill="#000000">/tracer/src/c&#45;API/cPrinters.cpp</text>
</a>
</g>
</g>
<!-- Node21&#45;&gt;Node23 -->
<g id="edge21" class="edge">
<title>Node21&#45;&gt;Node23</title>
<path fill="none" stroke="#191970" d="M1299.9855,-61.0643C1287.2696,-51.1577 1272.4684,-39.6265 1260.9375,-30.6432"/>
<polygon fill="#191970" stroke="#191970" points="1297.9456,-63.9119 1307.9853,-67.2967 1302.2477,-58.3899 1297.9456,-63.9119"/>
</g>
<!-- Node24 -->
<g id="node22" class="node">
<title>Node24</title>
<g id="a_node22"><a xlink:href="c_tracer_8cpp.html" target="_top" xlink:title="/home/daniel/projects\l/tracer/src/c&#45;API/cTracer.cpp">
<polygon fill="none" stroke="#000000" points="1338.5,-.5 1338.5,-30.5 1488.5,-30.5 1488.5,-.5 1338.5,-.5"/>
<text text-anchor="start" x="1346.5" y="-18.5" font-family="Helvetica,sans-Serif" font-size="10.00" fill="#000000">/home/daniel/projects</text>
<text text-anchor="middle" x="1413.5" y="-7.5" font-family="Helvetica,sans-Serif" font-size="10.00" fill="#000000">/tracer/src/c&#45;API/cTracer.cpp</text>
</a>
</g>
</g>
<!-- Node21&#45;&gt;Node24 -->
<g id="edge22" class="edge">
<title>Node21&#45;&gt;Node24</title>
<path fill="none" stroke="#191970" d="M1355.0145,-61.0643C1367.7304,-51.1577 1382.5316,-39.6265 1394.0625,-30.6432"/>
<polygon fill="#191970" stroke="#191970" points="1352.7523,-58.3899 1347.0147,-67.2967 1357.0544,-63.9119 1352.7523,-58.3899"/>
</g>
<!-- Node25 -->
<g id="node23" class="node">
<title>Node25</title>
<g id="a_node23"><a xlink:href="c_tracer_handler_8cpp.html" target="_top" xlink:title="/home/daniel/projects\l/tracer/src/c&#45;API/cTracerHandler.cpp">
<polygon fill="none" stroke="#000000" points="1506.5,-.5 1506.5,-30.5 1694.5,-30.5 1694.5,-.5 1506.5,-.5"/>
<text text-anchor="start" x="1514.5" y="-18.5" font-family="Helvetica,sans-Serif" font-size="10.00" fill="#000000">/home/daniel/projects</text>
<text text-anchor="middle" x="1600.5" y="-7.5" font-family="Helvetica,sans-Serif" font-size="10.00" fill="#000000">/tracer/src/c&#45;API/cTracerHandler.cpp</text>
</a>
</g>
</g>
<!-- Node21&#45;&gt;Node25 -->
<g id="edge23" class="edge">
<title>Node21&#45;&gt;Node25</title>
<path fill="none" stroke="#191970" d="M1398.7144,-65.0225C1442.2369,-54.3411 1497.3425,-40.8171 1538.9663,-30.6017"/>
<polygon fill="#191970" stroke="#191970" points="1397.6441,-61.6812 1388.7665,-67.4639 1399.3126,-68.4795 1397.6441,-61.6812"/>
</g>
</g>
</svg>
        <g id="navigator" transform="translate(0 0)" fill="#404254">
                <rect fill="#f2f5e9" fill-opacity="0.5" stroke="#606060" stroke-width=".5" x="0" y="0" width="60" height="60"/>
                <use id="zoomplus" xlink:href="#zoomPlus" x="17" y="9" onmousedown="handleZoom(evt,'in')"/>
                <use id="zoomminus" xlink:href="#zoomMin" x="42" y="9" onmousedown="handleZoom(evt,'out')"/>
                <use id="reset" xlink:href="#resetDef" x="30" y="36" onmousedown="handleReset()"/>
                <g id="arrowUp" xlink:href="#dirArrow" transform="translate(30 24)" onmousedown="handlePan(0,-1)">
                  <use xlink:href="#rim" fill="#404040">
                        <set attributeName="fill" to="#808080" begin="arrowUp.mouseover" end="arrowUp.mouseout"/>
                  </use>
                  <path fill="none" stroke="white" stroke-width="1.5" d="M0,-3.0v7 M-2.5,-0.5L0,-3.0L2.5,-0.5"/>
                </g>
                <g id="arrowRight" xlink:href="#dirArrow" transform="rotate(90) translate(36 -43)" onmousedown="handlePan(1,0)">
                  <use xlink:href="#rim" fill="#404040">
                        <set attributeName="fill" to="#808080" begin="arrowRight.mouseover" end="arrowRight.mouseout"/>
                  </use>
                  <path fill="none" stroke="white" stroke-width="1.5" d="M0,-3.0v7 M-2.5,-0.5L0,-3.0L2.5,-0.5"/>
                </g>
                <g id="arrowDown" xlink:href="#dirArrow" transform="rotate(180) translate(-30 -48)" onmousedown="handlePan(0,1)">
                  <use xlink:href="#rim" fill="#404040">
                        <set attributeName="fill" to="#808080" begin="arrowDown.mouseover" end="arrowDown.mouseout"/>
                  </use>
                  <path fill="none" stroke="white" stroke-width="1.5" d="M0,-3.0v7 M-2.5,-0.5L0,-3.0L2.5,-0.5"/>
                </g>
                <g id="arrowLeft" xlink:href="#dirArrow" transform="rotate(270) translate(-36 17)" onmousedown="handlePan(-1,0)">
                  <use xlink:href="#rim" fill="#404040">
                        <set attributeName="fill" to="#808080" begin="arrowLeft.mouseover" end="arrowLeft.mouseout"/>
                  </use>
                  <path fill="none" stroke="white" stroke-width="1.5" d="M0,-3.0v7 M-2.5,-0.5L0,-3.0L2.5,-0.5"/>
                </g>
        </g>
        <svg viewBox="0 0 15 15" width="100%" height="30px" preserveAspectRatio="xMaxYMin meet">
         <g id="arrow_out" transform="scale(0.3 0.3)">
          <a xlink:href="_abstract_debug_info_8hpp__dep__incl_org.svg" target="_base">
           <rect id="button" ry="5" rx="5" y="6" x="6" height="38" width="38"
                fill="#f2f5e9" fill-opacity="0.5" stroke="#606060" stroke-width="1.0"/>
           <path id="arrow"
             d="M 11.500037,31.436501 C 11.940474,20.09759 22.043105,11.32322 32.158766,21.979434 L 37.068811,17.246167 C 37.068811,17.246167 37.088388,32 37.088388,32 L 22.160133,31.978069 C 22.160133,31.978069 26.997745,27.140456 26.997745,27.140456 C 18.528582,18.264221 13.291696,25.230495 11.500037,31.436501 z"
             style="fill:#404040;"/>
          </a>
         </g>
        </svg>
</svg>
