<?xml version="1.0" encoding="UTF-8" standalone="no"?>
<!DOCTYPE svg PUBLIC "-//W3C//DTD SVG 1.1//EN"
 "http://www.w3.org/Graphics/SVG/1.1/DTD/svg11.dtd">
<!-- Generated by graphviz version 2.40.1 (20161225.0304)
 -->
<!-- Title: /home/daniel/projects/tracer/src/printers/AbstractPrinter.cpp Pages: 1 -->
<svg width="434pt" height="274pt"
 viewBox="0.00 0.00 433.89 274.00" xmlns="http://www.w3.org/2000/svg" xmlns:xlink="http://www.w3.org/1999/xlink">
<g id="graph0" class="graph" transform="scale(1 1) rotate(0) translate(4 270)">
<title>/home/daniel/projects/tracer/src/printers/AbstractPrinter.cpp</title>
<!-- Node0 -->
<g id="node1" class="node">
<title>Node0</title>
<polygon fill="#bfbfbf" stroke="#000000" points="122.3933,-224.5 122.3933,-265.5 244.3933,-265.5 244.3933,-224.5 122.3933,-224.5"/>
<text text-anchor="start" x="130.3933" y="-253.5" font-family="Helvetica,sans-Serif" font-size="10.00" fill="#000000">/home/daniel/projects</text>
<text text-anchor="start" x="130.3933" y="-242.5" font-family="Helvetica,sans-Serif" font-size="10.00" fill="#000000">/tracer/src/printers</text>
<text text-anchor="middle" x="183.3933" y="-231.5" font-family="Helvetica,sans-Serif" font-size="10.00" fill="#000000">/AbstractPrinter.cpp</text>
</g>
<!-- Node1 -->
<g id="node2" class="node">
<title>Node1</title>
<polygon fill="none" stroke="#bfbfbf" points="132.8933,-.5 132.8933,-19.5 205.8933,-19.5 205.8933,-.5 132.8933,-.5"/>
<text text-anchor="middle" x="169.3933" y="-7.5" font-family="Helvetica,sans-Serif" font-size="10.00" fill="#000000">defines.hpp</text>
</g>
<!-- Node0&#45;&gt;Node1 -->
<g id="edge1" class="edge">
<title>Node0&#45;&gt;Node1</title>
<path fill="none" stroke="#191970" d="M140.8167,-224.4261C123.2151,-214.7702 103.2594,-202.2433 87.3933,-188 41.0914,-146.4339 23.0697,-135.0292 3.3933,-76 .5824,-67.5673 -1.9878,-63.075 3.3933,-56 17.8376,-37.0087 78.7709,-23.8204 122.626,-16.5795"/>
<polygon fill="#191970" stroke="#191970" points="123.2113,-20.0305 132.5334,-14.9958 122.1062,-13.1183 123.2113,-20.0305"/>
</g>
<!-- Node2 -->
<g id="node3" class="node">
<title>Node2</title>
<g id="a_node3"><a xlink:href="_abstract_printer_8hpp.html" target="_top" xlink:title="AbstractPrinter.hpp">
<polygon fill="none" stroke="#000000" points="12.3933,-56.5 12.3933,-75.5 122.3933,-75.5 122.3933,-56.5 12.3933,-56.5"/>
<text text-anchor="middle" x="67.3933" y="-63.5" font-family="Helvetica,sans-Serif" font-size="10.00" fill="#000000">AbstractPrinter.hpp</text>
</a>
</g>
</g>
<!-- Node0&#45;&gt;Node2 -->
<g id="edge2" class="edge">
<title>Node0&#45;&gt;Node2</title>
<path fill="none" stroke="#191970" d="M143.0211,-224.2552C128.3692,-214.9429 112.8617,-202.7106 102.3933,-188 80.1353,-156.7223 71.9625,-111.5134 69.0122,-85.8207"/>
<polygon fill="#191970" stroke="#191970" points="72.4888,-85.4099 68.0169,-75.8051 65.5231,-86.1022 72.4888,-85.4099"/>
</g>
<!-- Node3 -->
<g id="node4" class="node">
<title>Node3</title>
<g id="a_node4"><a xlink:href="_tracer_8hpp.html" target="_top" xlink:title="Tracer.hpp">
<polygon fill="none" stroke="#000000" points="111.3933,-168.5 111.3933,-187.5 177.3933,-187.5 177.3933,-168.5 111.3933,-168.5"/>
<text text-anchor="middle" x="144.3933" y="-175.5" font-family="Helvetica,sans-Serif" font-size="10.00" fill="#000000">Tracer.hpp</text>
</a>
</g>
</g>
<!-- Node0&#45;&gt;Node3 -->
<g id="edge4" class="edge">
<title>Node0&#45;&gt;Node3</title>
<path fill="none" stroke="#191970" d="M171.2672,-224.168C166.1334,-215.3484 160.1999,-205.155 155.2162,-196.5933"/>
<polygon fill="#191970" stroke="#191970" points="158.142,-194.6622 150.0864,-187.7805 152.0923,-198.1837 158.142,-194.6622"/>
</g>
<!-- Node7 -->
<g id="node8" class="node">
<title>Node7</title>
<polygon fill="none" stroke="#bfbfbf" points="195.8933,-168.5 195.8933,-187.5 250.8933,-187.5 250.8933,-168.5 195.8933,-168.5"/>
<text text-anchor="middle" x="223.3933" y="-175.5" font-family="Helvetica,sans-Serif" font-size="10.00" fill="#000000">fstream</text>
</g>
<!-- Node0&#45;&gt;Node7 -->
<g id="edge13" class="edge">
<title>Node0&#45;&gt;Node7</title>
<path fill="none" stroke="#191970" d="M195.8303,-224.168C201.0957,-215.3484 207.1814,-205.155 212.2928,-196.5933"/>
<polygon fill="#191970" stroke="#191970" points="215.4332,-198.1609 217.5542,-187.7805 209.4229,-194.5725 215.4332,-198.1609"/>
</g>
<!-- Node8 -->
<g id="node9" class="node">
<title>Node8</title>
<polygon fill="none" stroke="#bfbfbf" points="269.3933,-168.5 269.3933,-187.5 329.3933,-187.5 329.3933,-168.5 269.3933,-168.5"/>
<text text-anchor="middle" x="299.3933" y="-175.5" font-family="Helvetica,sans-Serif" font-size="10.00" fill="#000000">iostream</text>
</g>
<!-- Node0&#45;&gt;Node8 -->
<g id="edge14" class="edge">
<title>Node0&#45;&gt;Node8</title>
<path fill="none" stroke="#191970" d="M219.1436,-224.3511C236.8397,-214.1301 257.7927,-202.0279 273.8505,-192.7532"/>
<polygon fill="#191970" stroke="#191970" points="275.769,-195.687 282.6778,-187.6546 272.2679,-189.6254 275.769,-195.687"/>
</g>
<!-- Node9 -->
<g id="node10" class="node">
<title>Node9</title>
<polygon fill="none" stroke="#bfbfbf" points="347.3933,-168.5 347.3933,-187.5 391.3933,-187.5 391.3933,-168.5 347.3933,-168.5"/>
<text text-anchor="middle" x="369.3933" y="-175.5" font-family="Helvetica,sans-Serif" font-size="10.00" fill="#000000">regex</text>
</g>
<!-- Node0&#45;&gt;Node9 -->
<g id="edge15" class="edge">
<title>Node0&#45;&gt;Node9</title>
<path fill="none" stroke="#191970" d="M240.4635,-224.4425C272.469,-212.9136 311.1835,-198.968 337.7854,-189.3856"/>
<polygon fill="#191970" stroke="#191970" points="339.1264,-192.6228 347.3485,-185.9409 336.7541,-186.037 339.1264,-192.6228"/>
</g>
<!-- Node2&#45;&gt;Node1 -->
<g id="edge3" class="edge">
<title>Node2&#45;&gt;Node1</title>
<path fill="none" stroke="#191970" d="M85.1603,-56.2455C101.1028,-47.4928 124.7192,-34.527 142.8922,-24.5496"/>
<polygon fill="#191970" stroke="#191970" points="144.7485,-27.5233 151.8298,-19.6427 141.3796,-21.3873 144.7485,-27.5233"/>
</g>
<!-- Node3&#45;&gt;Node1 -->
<g id="edge5" class="edge">
<title>Node3&#45;&gt;Node1</title>
<path fill="none" stroke="#191970" d="M145.809,-168.4862C149.7609,-141.9293 160.9758,-66.5651 166.3925,-30.1655"/>
<polygon fill="#191970" stroke="#191970" points="169.9207,-30.2342 167.9308,-19.8279 162.9969,-29.2038 169.9207,-30.2342"/>
</g>
<!-- Node4 -->
<g id="node5" class="node">
<title>Node4</title>
<g id="a_node5"><a xlink:href="_abstract_debug_info_8hpp.html" target="_top" xlink:title="AbstractDebugInfo.hpp">
<polygon fill="none" stroke="#000000" points="172.3933,-112.5 172.3933,-131.5 300.3933,-131.5 300.3933,-112.5 172.3933,-112.5"/>
<text text-anchor="middle" x="236.3933" y="-119.5" font-family="Helvetica,sans-Serif" font-size="10.00" fill="#000000">AbstractDebugInfo.hpp</text>
</a>
</g>
</g>
<!-- Node3&#45;&gt;Node4 -->
<g id="edge6" class="edge">
<title>Node3&#45;&gt;Node4</title>
<path fill="none" stroke="#191970" d="M160.4185,-168.2455C174.5341,-159.6534 195.3196,-147.0014 211.5832,-137.1018"/>
<polygon fill="#191970" stroke="#191970" points="213.8296,-139.8319 220.5517,-131.6427 210.1899,-133.8525 213.8296,-139.8319"/>
</g>
<!-- Node6 -->
<g id="node7" class="node">
<title>Node6</title>
<g id="a_node7"><a xlink:href="_abstract_tracer_8hpp.html" target="_top" xlink:title="AbstractTracer.hpp">
<polygon fill="none" stroke="#000000" points="318.8933,-112.5 318.8933,-131.5 425.8933,-131.5 425.8933,-112.5 318.8933,-112.5"/>
<text text-anchor="middle" x="372.3933" y="-119.5" font-family="Helvetica,sans-Serif" font-size="10.00" fill="#000000">AbstractTracer.hpp</text>
</a>
</g>
</g>
<!-- Node3&#45;&gt;Node6 -->
<g id="edge10" class="edge">
<title>Node3&#45;&gt;Node6</title>
<path fill="none" stroke="#191970" d="M177.5464,-169.8571C215.9311,-160.4293 279.5101,-144.8134 323.5534,-133.9958"/>
<polygon fill="#191970" stroke="#191970" points="324.5924,-137.3447 333.4689,-131.5604 322.9226,-130.5467 324.5924,-137.3447"/>
</g>
<!-- Node4&#45;&gt;Node1 -->
<g id="edge7" class="edge">
<title>Node4&#45;&gt;Node1</title>
<path fill="none" stroke="#191970" d="M230.0555,-112.2004C224.1018,-102.9357 214.9961,-88.6133 207.3933,-76 197.9292,-60.2989 187.5694,-42.2443 180.0607,-28.9918"/>
<polygon fill="#191970" stroke="#191970" points="182.8995,-26.9007 174.9364,-19.9121 176.8033,-30.3411 182.8995,-26.9007"/>
</g>
<!-- Node5 -->
<g id="node6" class="node">
<title>Node5</title>
<g id="a_node6"><a xlink:href="_frame_8hpp.html" target="_top" xlink:title="Frame.hpp">
<polygon fill="none" stroke="#000000" points="216.3933,-56.5 216.3933,-75.5 284.3933,-75.5 284.3933,-56.5 216.3933,-56.5"/>
<text text-anchor="middle" x="250.3933" y="-63.5" font-family="Helvetica,sans-Serif" font-size="10.00" fill="#000000">Frame.hpp</text>
</a>
</g>
</g>
<!-- Node4&#45;&gt;Node5 -->
<g id="edge8" class="edge">
<title>Node4&#45;&gt;Node5</title>
<path fill="none" stroke="#191970" d="M238.8319,-112.2455C240.6788,-104.8579 243.2761,-94.4689 245.5411,-85.4087"/>
<polygon fill="#191970" stroke="#191970" points="248.9527,-86.193 247.9826,-75.6427 242.1617,-84.4952 248.9527,-86.193"/>
</g>
<!-- Node5&#45;&gt;Node1 -->
<g id="edge9" class="edge">
<title>Node5&#45;&gt;Node1</title>
<path fill="none" stroke="#191970" d="M236.2842,-56.2455C223.9724,-47.7337 205.8975,-35.2375 191.6395,-25.3801"/>
<polygon fill="#191970" stroke="#191970" points="193.5567,-22.4506 183.3407,-19.6427 189.5759,-28.2085 193.5567,-22.4506"/>
</g>
<!-- Node6&#45;&gt;Node1 -->
<g id="edge11" class="edge">
<title>Node6&#45;&gt;Node1</title>
<path fill="none" stroke="#191970" d="M362.997,-112.2707C348.972,-98.2128 321.2204,-72.1405 293.3933,-56 268.6046,-41.6218 238.5142,-30.3299 214.183,-22.5323"/>
<polygon fill="#191970" stroke="#191970" points="215.0716,-19.1432 204.4831,-19.5094 212.9888,-25.8262 215.0716,-19.1432"/>
</g>
<!-- Node6&#45;&gt;Node5 -->
<g id="edge12" class="edge">
<title>Node6&#45;&gt;Node5</title>
<path fill="none" stroke="#191970" d="M351.4207,-112.3733C331.8366,-103.3838 302.3972,-89.8706 280.3423,-79.7471"/>
<polygon fill="#191970" stroke="#191970" points="281.6406,-76.4919 271.0922,-75.5011 278.7204,-82.8538 281.6406,-76.4919"/>
</g>
</g>
</svg>
