<?xml version="1.0" encoding="UTF-8" standalone="no"?>
<!DOCTYPE svg PUBLIC "-//W3C//DTD SVG 1.1//EN"
 "http://www.w3.org/Graphics/SVG/1.1/DTD/svg11.dtd">
<!-- Generated by graphviz version 2.40.1 (20161225.0304)
 -->
<!-- Title: /home/daniel/projects/tracer/src/tracer/AbstractTracer.hpp Pages: 1 -->
<svg width="1560pt" height="340pt"
 viewBox="0.00 0.00 1560.00 340.00" xmlns="http://www.w3.org/2000/svg" xmlns:xlink="http://www.w3.org/1999/xlink">
<g id="graph0" class="graph" transform="scale(1 1) rotate(0) translate(4 336)">
<title>/home/daniel/projects/tracer/src/tracer/AbstractTracer.hpp</title>
<!-- Node3 -->
<g id="node1" class="node">
<title>Node3</title>
<polygon fill="#bfbfbf" stroke="#000000" points="384,-290.5 384,-331.5 524,-331.5 524,-290.5 384,-290.5"/>
<text text-anchor="start" x="392" y="-319.5" font-family="Helvetica,sans-Serif" font-size="10.00" fill="#000000">/home/daniel/projects</text>
<text text-anchor="start" x="392" y="-308.5" font-family="Helvetica,sans-Serif" font-size="10.00" fill="#000000">/tracer/src/tracer/Abstract</text>
<text text-anchor="middle" x="454" y="-297.5" font-family="Helvetica,sans-Serif" font-size="10.00" fill="#000000">Tracer.hpp</text>
</g>
<!-- Node4 -->
<g id="node2" class="node">
<title>Node4</title>
<g id="a_node2"><a xlink:href="_abstract_tracer_8cpp.html" target="_top" xlink:title="/home/daniel/projects\l/tracer/src/tracer/Abstract\lTracer.cpp">
<polygon fill="none" stroke="#000000" points="0,-212.5 0,-253.5 140,-253.5 140,-212.5 0,-212.5"/>
<text text-anchor="start" x="8" y="-241.5" font-family="Helvetica,sans-Serif" font-size="10.00" fill="#000000">/home/daniel/projects</text>
<text text-anchor="start" x="8" y="-230.5" font-family="Helvetica,sans-Serif" font-size="10.00" fill="#000000">/tracer/src/tracer/Abstract</text>
<text text-anchor="middle" x="70" y="-219.5" font-family="Helvetica,sans-Serif" font-size="10.00" fill="#000000">Tracer.cpp</text>
</a>
</g>
</g>
<!-- Node3&#45;&gt;Node4 -->
<g id="edge1" class="edge">
<title>Node3&#45;&gt;Node4</title>
<path fill="none" stroke="#191970" d="M373.6752,-297.6846C311.9753,-287.0473 224.7778,-271.1272 149,-254 146.0931,-253.343 143.1315,-252.6524 140.1438,-251.9383"/>
<polygon fill="#191970" stroke="#191970" points="373.2884,-301.1693 383.7363,-299.4113 374.4725,-294.2702 373.2884,-301.1693"/>
</g>
<!-- Node5 -->
<g id="node3" class="node">
<title>Node5</title>
<g id="a_node3"><a xlink:href="_dummy_tracer_8hpp.html" target="_top" xlink:title="/home/daniel/projects\l/tracer/src/tracer/dummy\l/DummyTracer.hpp">
<polygon fill="none" stroke="#000000" points="625.5,-212.5 625.5,-253.5 762.5,-253.5 762.5,-212.5 625.5,-212.5"/>
<text text-anchor="start" x="633.5" y="-241.5" font-family="Helvetica,sans-Serif" font-size="10.00" fill="#000000">/home/daniel/projects</text>
<text text-anchor="start" x="633.5" y="-230.5" font-family="Helvetica,sans-Serif" font-size="10.00" fill="#000000">/tracer/src/tracer/dummy</text>
<text text-anchor="middle" x="694" y="-219.5" font-family="Helvetica,sans-Serif" font-size="10.00" fill="#000000">/DummyTracer.hpp</text>
</a>
</g>
</g>
<!-- Node3&#45;&gt;Node5 -->
<g id="edge2" class="edge">
<title>Node3&#45;&gt;Node5</title>
<path fill="none" stroke="#191970" d="M526.9937,-287.277C560.0875,-276.5216 598.8464,-263.9249 630.6902,-253.5757"/>
<polygon fill="#191970" stroke="#191970" points="525.7996,-283.9848 517.3711,-290.4044 527.9633,-290.6421 525.7996,-283.9848"/>
</g>
<!-- Node8 -->
<g id="node6" class="node">
<title>Node8</title>
<g id="a_node6"><a xlink:href="_glib_c_tracer_8hpp.html" target="_top" xlink:title="/home/daniel/projects\l/tracer/src/tracer/glibc\l/GlibCTracer.hpp">
<polygon fill="none" stroke="#000000" points="158.5,-212.5 158.5,-253.5 281.5,-253.5 281.5,-212.5 158.5,-212.5"/>
<text text-anchor="start" x="166.5" y="-241.5" font-family="Helvetica,sans-Serif" font-size="10.00" fill="#000000">/home/daniel/projects</text>
<text text-anchor="start" x="166.5" y="-230.5" font-family="Helvetica,sans-Serif" font-size="10.00" fill="#000000">/tracer/src/tracer/glibc</text>
<text text-anchor="middle" x="220" y="-219.5" font-family="Helvetica,sans-Serif" font-size="10.00" fill="#000000">/GlibCTracer.hpp</text>
</a>
</g>
</g>
<!-- Node3&#45;&gt;Node8 -->
<g id="edge5" class="edge">
<title>Node3&#45;&gt;Node8</title>
<path fill="none" stroke="#191970" d="M382.4154,-287.1385C350.2405,-276.4135 312.6415,-263.8805 281.727,-253.5757"/>
<polygon fill="#191970" stroke="#191970" points="381.6195,-290.5624 392.2132,-290.4044 383.8331,-283.9217 381.6195,-290.5624"/>
</g>
<!-- Node10 -->
<g id="node8" class="node">
<title>Node10</title>
<g id="a_node8"><a xlink:href="_lib_unwind_tracer_8hpp.html" target="_top" xlink:title="/home/daniel/projects\l/tracer/src/tracer/libunwind\l/LibUnwindTracer.hpp">
<polygon fill="none" stroke="#000000" points="299.5,-212.5 299.5,-253.5 446.5,-253.5 446.5,-212.5 299.5,-212.5"/>
<text text-anchor="start" x="307.5" y="-241.5" font-family="Helvetica,sans-Serif" font-size="10.00" fill="#000000">/home/daniel/projects</text>
<text text-anchor="start" x="307.5" y="-230.5" font-family="Helvetica,sans-Serif" font-size="10.00" fill="#000000">/tracer/src/tracer/libunwind</text>
<text text-anchor="middle" x="373" y="-219.5" font-family="Helvetica,sans-Serif" font-size="10.00" fill="#000000">/LibUnwindTracer.hpp</text>
</a>
</g>
</g>
<!-- Node3&#45;&gt;Node10 -->
<g id="edge7" class="edge">
<title>Node3&#45;&gt;Node10</title>
<path fill="none" stroke="#191970" d="M424.8662,-282.9452C414.8361,-273.2866 403.7941,-262.6535 394.4856,-253.6898"/>
<polygon fill="#191970" stroke="#191970" points="422.6625,-285.6821 432.2935,-290.0974 427.518,-280.6399 422.6625,-285.6821"/>
</g>
<!-- Node12 -->
<g id="node10" class="node">
<title>Node12</title>
<g id="a_node10"><a xlink:href="_win32_tracer_8hpp.html" target="_top" xlink:title="/home/daniel/projects\l/tracer/src/tracer/windows\l/Win32Tracer.hpp">
<polygon fill="none" stroke="#000000" points="464.5,-212.5 464.5,-253.5 607.5,-253.5 607.5,-212.5 464.5,-212.5"/>
<text text-anchor="start" x="472.5" y="-241.5" font-family="Helvetica,sans-Serif" font-size="10.00" fill="#000000">/home/daniel/projects</text>
<text text-anchor="start" x="472.5" y="-230.5" font-family="Helvetica,sans-Serif" font-size="10.00" fill="#000000">/tracer/src/tracer/windows</text>
<text text-anchor="middle" x="536" y="-219.5" font-family="Helvetica,sans-Serif" font-size="10.00" fill="#000000">/Win32Tracer.hpp</text>
</a>
</g>
</g>
<!-- Node3&#45;&gt;Node12 -->
<g id="edge9" class="edge">
<title>Node3&#45;&gt;Node12</title>
<path fill="none" stroke="#191970" d="M483.4935,-282.9452C493.6474,-273.2866 504.8258,-262.6535 514.2492,-253.6898"/>
<polygon fill="#191970" stroke="#191970" points="480.8078,-280.6693 475.9745,-290.0974 485.6324,-285.7412 480.8078,-280.6693"/>
</g>
<!-- Node14 -->
<g id="node12" class="node">
<title>Node14</title>
<g id="a_node12"><a xlink:href="_tracer_8hpp.html" target="_top" xlink:title="/home/daniel/projects\l/tracer/src/Tracer.hpp">
<polygon fill="none" stroke="#000000" points="991,-218 991,-248 1113,-248 1113,-218 991,-218"/>
<text text-anchor="start" x="999" y="-236" font-family="Helvetica,sans-Serif" font-size="10.00" fill="#000000">/home/daniel/projects</text>
<text text-anchor="middle" x="1052" y="-225" font-family="Helvetica,sans-Serif" font-size="10.00" fill="#000000">/tracer/src/Tracer.hpp</text>
</a>
</g>
</g>
<!-- Node3&#45;&gt;Node14 -->
<g id="edge11" class="edge">
<title>Node3&#45;&gt;Node14</title>
<path fill="none" stroke="#191970" d="M534.0136,-300.5634C655.0452,-284.7767 882.0647,-255.1655 990.8426,-240.9771"/>
<polygon fill="#191970" stroke="#191970" points="533.5257,-297.0973 524.0624,-301.8614 534.4311,-304.0386 533.5257,-297.0973"/>
</g>
<!-- Node6 -->
<g id="node4" class="node">
<title>Node6</title>
<g id="a_node4"><a xlink:href="_dummy_tracer_8cpp.html" target="_top" xlink:title="/home/daniel/projects\l/tracer/src/tracer/dummy\l/DummyTracer.cpp">
<polygon fill="none" stroke="#000000" points="625.5,-134.5 625.5,-175.5 762.5,-175.5 762.5,-134.5 625.5,-134.5"/>
<text text-anchor="start" x="633.5" y="-163.5" font-family="Helvetica,sans-Serif" font-size="10.00" fill="#000000">/home/daniel/projects</text>
<text text-anchor="start" x="633.5" y="-152.5" font-family="Helvetica,sans-Serif" font-size="10.00" fill="#000000">/tracer/src/tracer/dummy</text>
<text text-anchor="middle" x="694" y="-141.5" font-family="Helvetica,sans-Serif" font-size="10.00" fill="#000000">/DummyTracer.cpp</text>
</a>
</g>
</g>
<!-- Node5&#45;&gt;Node6 -->
<g id="edge3" class="edge">
<title>Node5&#45;&gt;Node6</title>
<path fill="none" stroke="#191970" d="M694,-202.0789C694,-193.2178 694,-183.7747 694,-175.6898"/>
<polygon fill="#191970" stroke="#191970" points="690.5001,-202.0974 694,-212.0974 697.5001,-202.0975 690.5001,-202.0974"/>
</g>
<!-- Node7 -->
<g id="node5" class="node">
<title>Node7</title>
<g id="a_node5"><a xlink:href="_tracer_8cpp.html" target="_top" xlink:title="/home/daniel/projects\l/tracer/src/Tracer.cpp">
<polygon fill="none" stroke="#000000" points="781,-140 781,-170 903,-170 903,-140 781,-140"/>
<text text-anchor="start" x="789" y="-158" font-family="Helvetica,sans-Serif" font-size="10.00" fill="#000000">/home/daniel/projects</text>
<text text-anchor="middle" x="842" y="-147" font-family="Helvetica,sans-Serif" font-size="10.00" fill="#000000">/tracer/src/Tracer.cpp</text>
</a>
</g>
</g>
<!-- Node5&#45;&gt;Node7 -->
<g id="edge4" class="edge">
<title>Node5&#45;&gt;Node7</title>
<path fill="none" stroke="#191970" d="M742.3836,-207.5005C765.8481,-195.1341 793.2326,-180.7017 813.3449,-170.102"/>
<polygon fill="#191970" stroke="#191970" points="740.4875,-204.5435 733.2727,-212.3022 743.7512,-210.7361 740.4875,-204.5435"/>
</g>
<!-- Node9 -->
<g id="node7" class="node">
<title>Node9</title>
<g id="a_node7"><a xlink:href="_glib_c_tracer_8cpp.html" target="_top" xlink:title="/home/daniel/projects\l/tracer/src/tracer/glibc\l/GlibCTracer.cpp">
<polygon fill="none" stroke="#000000" points="158.5,-134.5 158.5,-175.5 281.5,-175.5 281.5,-134.5 158.5,-134.5"/>
<text text-anchor="start" x="166.5" y="-163.5" font-family="Helvetica,sans-Serif" font-size="10.00" fill="#000000">/home/daniel/projects</text>
<text text-anchor="start" x="166.5" y="-152.5" font-family="Helvetica,sans-Serif" font-size="10.00" fill="#000000">/tracer/src/tracer/glibc</text>
<text text-anchor="middle" x="220" y="-141.5" font-family="Helvetica,sans-Serif" font-size="10.00" fill="#000000">/GlibCTracer.cpp</text>
</a>
</g>
</g>
<!-- Node8&#45;&gt;Node9 -->
<g id="edge6" class="edge">
<title>Node8&#45;&gt;Node9</title>
<path fill="none" stroke="#191970" d="M220,-202.0789C220,-193.2178 220,-183.7747 220,-175.6898"/>
<polygon fill="#191970" stroke="#191970" points="216.5001,-202.0974 220,-212.0974 223.5001,-202.0975 216.5001,-202.0974"/>
</g>
<!-- Node11 -->
<g id="node9" class="node">
<title>Node11</title>
<g id="a_node9"><a xlink:href="_lib_unwind_tracer_8cpp.html" target="_top" xlink:title="/home/daniel/projects\l/tracer/src/tracer/libunwind\l/LibUnwindTracer.cpp">
<polygon fill="none" stroke="#000000" points="299.5,-134.5 299.5,-175.5 446.5,-175.5 446.5,-134.5 299.5,-134.5"/>
<text text-anchor="start" x="307.5" y="-163.5" font-family="Helvetica,sans-Serif" font-size="10.00" fill="#000000">/home/daniel/projects</text>
<text text-anchor="start" x="307.5" y="-152.5" font-family="Helvetica,sans-Serif" font-size="10.00" fill="#000000">/tracer/src/tracer/libunwind</text>
<text text-anchor="middle" x="373" y="-141.5" font-family="Helvetica,sans-Serif" font-size="10.00" fill="#000000">/LibUnwindTracer.cpp</text>
</a>
</g>
</g>
<!-- Node10&#45;&gt;Node11 -->
<g id="edge8" class="edge">
<title>Node10&#45;&gt;Node11</title>
<path fill="none" stroke="#191970" d="M373,-202.0789C373,-193.2178 373,-183.7747 373,-175.6898"/>
<polygon fill="#191970" stroke="#191970" points="369.5001,-202.0974 373,-212.0974 376.5001,-202.0975 369.5001,-202.0974"/>
</g>
<!-- Node13 -->
<g id="node11" class="node">
<title>Node13</title>
<g id="a_node11"><a xlink:href="_win32_tracer_8cpp.html" target="_top" xlink:title="/home/daniel/projects\l/tracer/src/tracer/windows\l/Win32Tracer.cpp">
<polygon fill="none" stroke="#000000" points="464.5,-134.5 464.5,-175.5 607.5,-175.5 607.5,-134.5 464.5,-134.5"/>
<text text-anchor="start" x="472.5" y="-163.5" font-family="Helvetica,sans-Serif" font-size="10.00" fill="#000000">/home/daniel/projects</text>
<text text-anchor="start" x="472.5" y="-152.5" font-family="Helvetica,sans-Serif" font-size="10.00" fill="#000000">/tracer/src/tracer/windows</text>
<text text-anchor="middle" x="536" y="-141.5" font-family="Helvetica,sans-Serif" font-size="10.00" fill="#000000">/Win32Tracer.cpp</text>
</a>
</g>
</g>
<!-- Node12&#45;&gt;Node13 -->
<g id="edge10" class="edge">
<title>Node12&#45;&gt;Node13</title>
<path fill="none" stroke="#191970" d="M536,-202.0789C536,-193.2178 536,-183.7747 536,-175.6898"/>
<polygon fill="#191970" stroke="#191970" points="532.5001,-202.0974 536,-212.0974 539.5001,-202.0975 532.5001,-202.0974"/>
</g>
<!-- Node14&#45;&gt;Node7 -->
<g id="edge15" class="edge">
<title>Node14&#45;&gt;Node7</title>
<path fill="none" stroke="#191970" d="M1002.0537,-214.4485C965.6058,-200.9107 916.8172,-182.7892 882.7235,-170.1259"/>
<polygon fill="#191970" stroke="#191970" points="1000.917,-217.7599 1011.5099,-217.9608 1003.3543,-211.1979 1000.917,-217.7599"/>
</g>
<!-- Node15 -->
<g id="node13" class="node">
<title>Node15</title>
<g id="a_node13"><a xlink:href="_abstract_printer_8cpp.html" target="_top" xlink:title="/home/daniel/projects\l/tracer/src/printers\l/AbstractPrinter.cpp">
<polygon fill="none" stroke="#000000" points="1375,-134.5 1375,-175.5 1497,-175.5 1497,-134.5 1375,-134.5"/>
<text text-anchor="start" x="1383" y="-163.5" font-family="Helvetica,sans-Serif" font-size="10.00" fill="#000000">/home/daniel/projects</text>
<text text-anchor="start" x="1383" y="-152.5" font-family="Helvetica,sans-Serif" font-size="10.00" fill="#000000">/tracer/src/printers</text>
<text text-anchor="middle" x="1436" y="-141.5" font-family="Helvetica,sans-Serif" font-size="10.00" fill="#000000">/AbstractPrinter.cpp</text>
</a>
</g>
</g>
<!-- Node14&#45;&gt;Node15 -->
<g id="edge12" class="edge">
<title>Node14&#45;&gt;Node15</title>
<path fill="none" stroke="#191970" d="M1123.1834,-222.4086C1187.1364,-212.3415 1283.4098,-195.819 1366,-176 1368.8377,-175.3191 1371.7304,-174.591 1374.6456,-173.8297"/>
<polygon fill="#191970" stroke="#191970" points="1122.5434,-218.966 1113.2039,-223.9684 1123.6244,-225.882 1122.5434,-218.966"/>
</g>
<!-- Node16 -->
<g id="node14" class="node">
<title>Node16</title>
<g id="a_node14"><a xlink:href="_default_printer_8cpp.html" target="_top" xlink:title="/home/daniel/projects\l/tracer/src/printers\l/DefaultPrinter.cpp">
<polygon fill="none" stroke="#000000" points="921,-134.5 921,-175.5 1043,-175.5 1043,-134.5 921,-134.5"/>
<text text-anchor="start" x="929" y="-163.5" font-family="Helvetica,sans-Serif" font-size="10.00" fill="#000000">/home/daniel/projects</text>
<text text-anchor="start" x="929" y="-152.5" font-family="Helvetica,sans-Serif" font-size="10.00" fill="#000000">/tracer/src/printers</text>
<text text-anchor="middle" x="982" y="-141.5" font-family="Helvetica,sans-Serif" font-size="10.00" fill="#000000">/DefaultPrinter.cpp</text>
</a>
</g>
</g>
<!-- Node14&#45;&gt;Node16 -->
<g id="edge13" class="edge">
<title>Node14&#45;&gt;Node16</title>
<path fill="none" stroke="#191970" d="M1031.7186,-210.4007C1021.8587,-199.4139 1010.0932,-186.3038 1000.4832,-175.5956"/>
<polygon fill="#191970" stroke="#191970" points="1029.2193,-212.8561 1038.5033,-217.9608 1034.429,-208.1807 1029.2193,-212.8561"/>
</g>
<!-- Node17 -->
<g id="node15" class="node">
<title>Node17</title>
<g id="a_node15"><a xlink:href="_file_printer_8cpp.html" target="_top" xlink:title="/home/daniel/projects\l/tracer/src/printers\l/FilePrinter.cpp">
<polygon fill="none" stroke="#000000" points="1061,-134.5 1061,-175.5 1183,-175.5 1183,-134.5 1061,-134.5"/>
<text text-anchor="start" x="1069" y="-163.5" font-family="Helvetica,sans-Serif" font-size="10.00" fill="#000000">/home/daniel/projects</text>
<text text-anchor="start" x="1069" y="-152.5" font-family="Helvetica,sans-Serif" font-size="10.00" fill="#000000">/tracer/src/printers</text>
<text text-anchor="middle" x="1122" y="-141.5" font-family="Helvetica,sans-Serif" font-size="10.00" fill="#000000">/FilePrinter.cpp</text>
</a>
</g>
</g>
<!-- Node14&#45;&gt;Node17 -->
<g id="edge14" class="edge">
<title>Node14&#45;&gt;Node17</title>
<path fill="none" stroke="#191970" d="M1072.2814,-210.4007C1082.1413,-199.4139 1093.9068,-186.3038 1103.5168,-175.5956"/>
<polygon fill="#191970" stroke="#191970" points="1069.571,-208.1807 1065.4967,-217.9608 1074.7807,-212.8561 1069.571,-208.1807"/>
</g>
<!-- Node18 -->
<g id="node16" class="node">
<title>Node18</title>
<g id="a_node16"><a xlink:href="_tracer_handler_8hpp.html" target="_top" xlink:title="/home/daniel/projects\l/tracer/src/TracerHandler.hpp">
<polygon fill="none" stroke="#000000" points="1201,-140 1201,-170 1357,-170 1357,-140 1201,-140"/>
<text text-anchor="start" x="1209" y="-158" font-family="Helvetica,sans-Serif" font-size="10.00" fill="#000000">/home/daniel/projects</text>
<text text-anchor="middle" x="1279" y="-147" font-family="Helvetica,sans-Serif" font-size="10.00" fill="#000000">/tracer/src/TracerHandler.hpp</text>
</a>
</g>
</g>
<!-- Node14&#45;&gt;Node18 -->
<g id="edge16" class="edge">
<title>Node14&#45;&gt;Node18</title>
<path fill="none" stroke="#191970" d="M1105.4873,-214.6211C1144.9389,-201.0651 1197.9693,-182.8431 1234.9798,-170.1259"/>
<polygon fill="#191970" stroke="#191970" points="1104.0878,-211.4011 1095.7679,-217.9608 1106.3625,-218.0212 1104.0878,-211.4011"/>
</g>
<!-- Node19 -->
<g id="node17" class="node">
<title>Node19</title>
<g id="a_node17"><a xlink:href="tracer_internal_8hpp.html" target="_top" xlink:title="/home/daniel/projects\l/tracer/src/c&#45;API/tracerInternal.hpp">
<polygon fill="none" stroke="#000000" points="1093.5,-67.5 1093.5,-97.5 1276.5,-97.5 1276.5,-67.5 1093.5,-67.5"/>
<text text-anchor="start" x="1101.5" y="-85.5" font-family="Helvetica,sans-Serif" font-size="10.00" fill="#000000">/home/daniel/projects</text>
<text text-anchor="middle" x="1185" y="-74.5" font-family="Helvetica,sans-Serif" font-size="10.00" fill="#000000">/tracer/src/c&#45;API/tracerInternal.hpp</text>
</a>
</g>
</g>
<!-- Node18&#45;&gt;Node19 -->
<g id="edge17" class="edge">
<title>Node18&#45;&gt;Node19</title>
<path fill="none" stroke="#191970" d="M1251.5227,-133.8074C1236.4247,-122.1627 1218.0581,-107.9969 1204.4519,-97.5028"/>
<polygon fill="#191970" stroke="#191970" points="1249.4672,-136.6421 1259.5231,-139.978 1253.7423,-131.0992 1249.4672,-136.6421"/>
</g>
<!-- Node24 -->
<g id="node22" class="node">
<title>Node24</title>
<g id="a_node22"><a xlink:href="_tracer_handler_8cpp.html" target="_top" xlink:title="/home/daniel/projects\l/tracer/src/TracerHandler.cpp">
<polygon fill="none" stroke="#000000" points="1294.5,-67.5 1294.5,-97.5 1449.5,-97.5 1449.5,-67.5 1294.5,-67.5"/>
<text text-anchor="start" x="1302.5" y="-85.5" font-family="Helvetica,sans-Serif" font-size="10.00" fill="#000000">/home/daniel/projects</text>
<text text-anchor="middle" x="1372" y="-74.5" font-family="Helvetica,sans-Serif" font-size="10.00" fill="#000000">/tracer/src/TracerHandler.cpp</text>
</a>
</g>
</g>
<!-- Node18&#45;&gt;Node24 -->
<g id="edge22" class="edge">
<title>Node18&#45;&gt;Node24</title>
<path fill="none" stroke="#191970" d="M1306.185,-133.8074C1321.1224,-122.1627 1339.2936,-107.9969 1352.755,-97.5028"/>
<polygon fill="#191970" stroke="#191970" points="1304.0045,-131.0694 1298.2697,-139.978 1308.3082,-136.59 1304.0045,-131.0694"/>
</g>
<!-- Node20 -->
<g id="node18" class="node">
<title>Node20</title>
<g id="a_node18"><a xlink:href="c_printer_container_8cpp.html" target="_top" xlink:title="/home/daniel/projects\l/tracer/src/c&#45;API/cPrinterContainer.cpp">
<polygon fill="none" stroke="#000000" points="801,-.5 801,-30.5 1001,-30.5 1001,-.5 801,-.5"/>
<text text-anchor="start" x="809" y="-18.5" font-family="Helvetica,sans-Serif" font-size="10.00" fill="#000000">/home/daniel/projects</text>
<text text-anchor="middle" x="901" y="-7.5" font-family="Helvetica,sans-Serif" font-size="10.00" fill="#000000">/tracer/src/c&#45;API/cPrinterContainer.cpp</text>
</a>
</g>
</g>
<!-- Node19&#45;&gt;Node20 -->
<g id="edge18" class="edge">
<title>Node19&#45;&gt;Node20</title>
<path fill="none" stroke="#191970" d="M1111.4875,-65.1573C1066.123,-54.4551 1008.4964,-40.8601 965.0131,-30.6017"/>
<polygon fill="#191970" stroke="#191970" points="1110.7284,-68.5742 1121.2649,-67.4639 1112.3357,-61.7612 1110.7284,-68.5742"/>
</g>
<!-- Node21 -->
<g id="node19" class="node">
<title>Node21</title>
<g id="a_node19"><a xlink:href="c_printers_8cpp.html" target="_top" xlink:title="/home/daniel/projects\l/tracer/src/c&#45;API/cPrinters.cpp">
<polygon fill="none" stroke="#000000" points="1019.5,-.5 1019.5,-30.5 1178.5,-30.5 1178.5,-.5 1019.5,-.5"/>
<text text-anchor="start" x="1027.5" y="-18.5" font-family="Helvetica,sans-Serif" font-size="10.00" fill="#000000">/home/daniel/projects</text>
<text text-anchor="middle" x="1099" y="-7.5" font-family="Helvetica,sans-Serif" font-size="10.00" fill="#000000">/tracer/src/c&#45;API/cPrinters.cpp</text>
</a>
</g>
</g>
<!-- Node19&#45;&gt;Node21 -->
<g id="edge19" class="edge">
<title>Node19&#45;&gt;Node21</title>
<path fill="none" stroke="#191970" d="M1157.4855,-61.0643C1144.7696,-51.1577 1129.9684,-39.6265 1118.4375,-30.6432"/>
<polygon fill="#191970" stroke="#191970" points="1155.4456,-63.9119 1165.4853,-67.2967 1159.7477,-58.3899 1155.4456,-63.9119"/>
</g>
<!-- Node22 -->
<g id="node20" class="node">
<title>Node22</title>
<g id="a_node20"><a xlink:href="c_tracer_8cpp.html" target="_top" xlink:title="/home/daniel/projects\l/tracer/src/c&#45;API/cTracer.cpp">
<polygon fill="none" stroke="#000000" points="1196,-.5 1196,-30.5 1346,-30.5 1346,-.5 1196,-.5"/>
<text text-anchor="start" x="1204" y="-18.5" font-family="Helvetica,sans-Serif" font-size="10.00" fill="#000000">/home/daniel/projects</text>
<text text-anchor="middle" x="1271" y="-7.5" font-family="Helvetica,sans-Serif" font-size="10.00" fill="#000000">/tracer/src/c&#45;API/cTracer.cpp</text>
</a>
</g>
</g>
<!-- Node19&#45;&gt;Node22 -->
<g id="edge20" class="edge">
<title>Node19&#45;&gt;Node22</title>
<path fill="none" stroke="#191970" d="M1212.5145,-61.0643C1225.2304,-51.1577 1240.0316,-39.6265 1251.5625,-30.6432"/>
<polygon fill="#191970" stroke="#191970" points="1210.2523,-58.3899 1204.5147,-67.2967 1214.5544,-63.9119 1210.2523,-58.3899"/>
</g>
<!-- Node23 -->
<g id="node21" class="node">
<title>Node23</title>
<g id="a_node21"><a xlink:href="c_tracer_handler_8cpp.html" target="_top" xlink:title="/home/daniel/projects\l/tracer/src/c&#45;API/cTracerHandler.cpp">
<polygon fill="none" stroke="#000000" points="1364,-.5 1364,-30.5 1552,-30.5 1552,-.5 1364,-.5"/>
<text text-anchor="start" x="1372" y="-18.5" font-family="Helvetica,sans-Serif" font-size="10.00" fill="#000000">/home/daniel/projects</text>
<text text-anchor="middle" x="1458" y="-7.5" font-family="Helvetica,sans-Serif" font-size="10.00" fill="#000000">/tracer/src/c&#45;API/cTracerHandler.cpp</text>
</a>
</g>
</g>
<!-- Node19&#45;&gt;Node23 -->
<g id="edge21" class="edge">
<title>Node19&#45;&gt;Node23</title>
<path fill="none" stroke="#191970" d="M1256.2144,-65.0225C1299.7369,-54.3411 1354.8425,-40.8171 1396.4663,-30.6017"/>
<polygon fill="#191970" stroke="#191970" points="1255.1441,-61.6812 1246.2665,-67.4639 1256.8126,-68.4795 1255.1441,-61.6812"/>
</g>
</g>
</svg>
