<?xml version="1.0" encoding="UTF-8" standalone="no"?>
<!DOCTYPE svg PUBLIC "-//W3C//DTD SVG 1.1//EN"
 "http://www.w3.org/Graphics/SVG/1.1/DTD/svg11.dtd">
<!-- Generated by graphviz version 2.40.1 (20161225.0304)
 -->
<!-- Title: /home/daniel/projects/tracer/src/debugInfo/AbstractDebugInfo.hpp Pages: 1 -->
<svg width="139pt" height="162pt"
 viewBox="0.00 0.00 139.00 162.00" xmlns="http://www.w3.org/2000/svg" xmlns:xlink="http://www.w3.org/1999/xlink">
<g id="graph0" class="graph" transform="scale(1 1) rotate(0) translate(4 158)">
<title>/home/daniel/projects/tracer/src/debugInfo/AbstractDebugInfo.hpp</title>
<!-- Node0 -->
<g id="node1" class="node">
<title>Node0</title>
<polygon fill="#bfbfbf" stroke="#000000" points="0,-112.5 0,-153.5 131,-153.5 131,-112.5 0,-112.5"/>
<text text-anchor="start" x="8" y="-141.5" font-family="Helvetica,sans-Serif" font-size="10.00" fill="#000000">/home/daniel/projects</text>
<text text-anchor="start" x="8" y="-130.5" font-family="Helvetica,sans-Serif" font-size="10.00" fill="#000000">/tracer/src/debugInfo</text>
<text text-anchor="middle" x="65.5" y="-119.5" font-family="Helvetica,sans-Serif" font-size="10.00" fill="#000000">/AbstractDebugInfo.hpp</text>
</g>
<!-- Node1 -->
<g id="node2" class="node">
<title>Node1</title>
<polygon fill="none" stroke="#bfbfbf" points="29,-.5 29,-19.5 102,-19.5 102,-.5 29,-.5"/>
<text text-anchor="middle" x="65.5" y="-7.5" font-family="Helvetica,sans-Serif" font-size="10.00" fill="#000000">defines.hpp</text>
</g>
<!-- Node0&#45;&gt;Node1 -->
<g id="edge1" class="edge">
<title>Node0&#45;&gt;Node1</title>
<path fill="none" stroke="#191970" d="M59.1109,-112.4534C55.071,-96.9671 51.0382,-75.1898 53.5,-56 54.6391,-47.1204 56.9673,-37.5073 59.2723,-29.3763"/>
<polygon fill="#191970" stroke="#191970" points="62.6457,-30.3125 62.1873,-19.7276 55.9448,-28.2881 62.6457,-30.3125"/>
</g>
<!-- Node2 -->
<g id="node3" class="node">
<title>Node2</title>
<g id="a_node3"><a xlink:href="_frame_8hpp.html" target="_top" xlink:title="Frame.hpp">
<polygon fill="none" stroke="#000000" points="62.5,-56.5 62.5,-75.5 130.5,-75.5 130.5,-56.5 62.5,-56.5"/>
<text text-anchor="middle" x="96.5" y="-63.5" font-family="Helvetica,sans-Serif" font-size="10.00" fill="#000000">Frame.hpp</text>
</a>
</g>
</g>
<!-- Node0&#45;&gt;Node2 -->
<g id="edge2" class="edge">
<title>Node0&#45;&gt;Node2</title>
<path fill="none" stroke="#191970" d="M75.1387,-112.168C79.1755,-103.4433 83.8344,-93.374 87.7691,-84.87"/>
<polygon fill="#191970" stroke="#191970" points="90.952,-86.3258 91.9747,-75.7805 84.599,-83.3864 90.952,-86.3258"/>
</g>
<!-- Node2&#45;&gt;Node1 -->
<g id="edge3" class="edge">
<title>Node2&#45;&gt;Node1</title>
<path fill="none" stroke="#191970" d="M91.1002,-56.2455C86.8773,-48.617 80.8827,-37.7881 75.7559,-28.5267"/>
<polygon fill="#191970" stroke="#191970" points="78.7432,-26.6965 70.8379,-19.6427 72.619,-30.0867 78.7432,-26.6965"/>
</g>
</g>
</svg>
