<?xml version="1.0" encoding="UTF-8" standalone="no"?>
<!DOCTYPE svg PUBLIC "-//W3C//DTD SVG 1.1//EN"
 "http://www.w3.org/Graphics/SVG/1.1/DTD/svg11.dtd">
<!-- Generated by graphviz version 2.40.1 (20161225.0304)
 -->
<!-- Title: /home/daniel/projects/tracer/src/printers/AbstractPrinter.hpp Pages: 1 -->
<svg width="786pt" height="563pt"
 viewBox="0.00 0.00 785.50 563.00" xmlns="http://www.w3.org/2000/svg" xmlns:xlink="http://www.w3.org/1999/xlink">
<g id="graph0" class="graph" transform="scale(1 1) rotate(0) translate(4 559)">
<title>/home/daniel/projects/tracer/src/printers/AbstractPrinter.hpp</title>
<!-- Node2 -->
<g id="node1" class="node">
<title>Node2</title>
<polygon fill="#bfbfbf" stroke="#000000" points="370,-513.5 370,-554.5 492,-554.5 492,-513.5 370,-513.5"/>
<text text-anchor="start" x="378" y="-542.5" font-family="Helvetica,sans-Serif" font-size="10.00" fill="#000000">/home/daniel/projects</text>
<text text-anchor="start" x="378" y="-531.5" font-family="Helvetica,sans-Serif" font-size="10.00" fill="#000000">/tracer/src/printers</text>
<text text-anchor="middle" x="431" y="-520.5" font-family="Helvetica,sans-Serif" font-size="10.00" fill="#000000">/AbstractPrinter.hpp</text>
</g>
<!-- Node3 -->
<g id="node2" class="node">
<title>Node3</title>
<g id="a_node2"><a xlink:href="_abstract_printer_8cpp.html" target="_top" xlink:title="/home/daniel/projects\l/tracer/src/printers\l/AbstractPrinter.cpp">
<polygon fill="none" stroke="#000000" points="300,-435.5 300,-476.5 422,-476.5 422,-435.5 300,-435.5"/>
<text text-anchor="start" x="308" y="-464.5" font-family="Helvetica,sans-Serif" font-size="10.00" fill="#000000">/home/daniel/projects</text>
<text text-anchor="start" x="308" y="-453.5" font-family="Helvetica,sans-Serif" font-size="10.00" fill="#000000">/tracer/src/printers</text>
<text text-anchor="middle" x="361" y="-442.5" font-family="Helvetica,sans-Serif" font-size="10.00" fill="#000000">/AbstractPrinter.cpp</text>
</a>
</g>
</g>
<!-- Node2&#45;&gt;Node3 -->
<g id="edge1" class="edge">
<title>Node2&#45;&gt;Node3</title>
<path fill="none" stroke="#191970" d="M405.3118,-505.376C396.781,-495.8703 387.4544,-485.4778 379.5678,-476.6898"/>
<polygon fill="#191970" stroke="#191970" points="402.9573,-507.9927 412.2413,-513.0974 408.167,-503.3173 402.9573,-507.9927"/>
</g>
<!-- Node4 -->
<g id="node3" class="node">
<title>Node4</title>
<g id="a_node3"><a xlink:href="_default_printer_8hpp.html" target="_top" xlink:title="/home/daniel/projects\l/tracer/src/printers\l/DefaultPrinter.hpp">
<polygon fill="none" stroke="#000000" points="440,-435.5 440,-476.5 562,-476.5 562,-435.5 440,-435.5"/>
<text text-anchor="start" x="448" y="-464.5" font-family="Helvetica,sans-Serif" font-size="10.00" fill="#000000">/home/daniel/projects</text>
<text text-anchor="start" x="448" y="-453.5" font-family="Helvetica,sans-Serif" font-size="10.00" fill="#000000">/tracer/src/printers</text>
<text text-anchor="middle" x="501" y="-442.5" font-family="Helvetica,sans-Serif" font-size="10.00" fill="#000000">/DefaultPrinter.hpp</text>
</a>
</g>
</g>
<!-- Node2&#45;&gt;Node4 -->
<g id="edge2" class="edge">
<title>Node2&#45;&gt;Node4</title>
<path fill="none" stroke="#191970" d="M456.6882,-505.376C465.219,-495.8703 474.5456,-485.4778 482.4322,-476.6898"/>
<polygon fill="#191970" stroke="#191970" points="453.833,-503.3173 449.7587,-513.0974 459.0427,-507.9927 453.833,-503.3173"/>
</g>
<!-- Node5 -->
<g id="node4" class="node">
<title>Node5</title>
<g id="a_node4"><a xlink:href="_default_printer_8cpp.html" target="_top" xlink:title="/home/daniel/projects\l/tracer/src/printers\l/DefaultPrinter.cpp">
<polygon fill="none" stroke="#000000" points="300,-357.5 300,-398.5 422,-398.5 422,-357.5 300,-357.5"/>
<text text-anchor="start" x="308" y="-386.5" font-family="Helvetica,sans-Serif" font-size="10.00" fill="#000000">/home/daniel/projects</text>
<text text-anchor="start" x="308" y="-375.5" font-family="Helvetica,sans-Serif" font-size="10.00" fill="#000000">/tracer/src/printers</text>
<text text-anchor="middle" x="361" y="-364.5" font-family="Helvetica,sans-Serif" font-size="10.00" fill="#000000">/DefaultPrinter.cpp</text>
</a>
</g>
</g>
<!-- Node4&#45;&gt;Node5 -->
<g id="edge3" class="edge">
<title>Node4&#45;&gt;Node5</title>
<path fill="none" stroke="#191970" d="M454.979,-430.3597C436.4355,-420.0283 415.3383,-408.2742 397.8377,-398.5239"/>
<polygon fill="#191970" stroke="#191970" points="453.411,-433.4926 463.8501,-435.3022 456.8179,-427.3776 453.411,-433.4926"/>
</g>
<!-- Node6 -->
<g id="node5" class="node">
<title>Node6</title>
<g id="a_node5"><a xlink:href="_file_printer_8hpp.html" target="_top" xlink:title="/home/daniel/projects\l/tracer/src/printers\l/FilePrinter.hpp">
<polygon fill="none" stroke="#000000" points="440,-357.5 440,-398.5 562,-398.5 562,-357.5 440,-357.5"/>
<text text-anchor="start" x="448" y="-386.5" font-family="Helvetica,sans-Serif" font-size="10.00" fill="#000000">/home/daniel/projects</text>
<text text-anchor="start" x="448" y="-375.5" font-family="Helvetica,sans-Serif" font-size="10.00" fill="#000000">/tracer/src/printers</text>
<text text-anchor="middle" x="501" y="-364.5" font-family="Helvetica,sans-Serif" font-size="10.00" fill="#000000">/FilePrinter.hpp</text>
</a>
</g>
</g>
<!-- Node4&#45;&gt;Node6 -->
<g id="edge4" class="edge">
<title>Node4&#45;&gt;Node6</title>
<path fill="none" stroke="#191970" d="M501,-425.0789C501,-416.2178 501,-406.7747 501,-398.6898"/>
<polygon fill="#191970" stroke="#191970" points="497.5001,-425.0974 501,-435.0974 504.5001,-425.0975 497.5001,-425.0974"/>
</g>
<!-- Node19 -->
<g id="node18" class="node">
<title>Node19</title>
<g id="a_node18"><a xlink:href="_system_info_printer_8hpp.html" target="_top" xlink:title="/home/daniel/projects\l/tracer/src/printers\l/SystemInfoPrinter.hpp">
<polygon fill="none" stroke="#000000" points="580,-357.5 580,-398.5 708,-398.5 708,-357.5 580,-357.5"/>
<text text-anchor="start" x="588" y="-386.5" font-family="Helvetica,sans-Serif" font-size="10.00" fill="#000000">/home/daniel/projects</text>
<text text-anchor="start" x="588" y="-375.5" font-family="Helvetica,sans-Serif" font-size="10.00" fill="#000000">/tracer/src/printers</text>
<text text-anchor="middle" x="644" y="-364.5" font-family="Helvetica,sans-Serif" font-size="10.00" fill="#000000">/SystemInfoPrinter.hpp</text>
</a>
</g>
</g>
<!-- Node4&#45;&gt;Node19 -->
<g id="edge18" class="edge">
<title>Node4&#45;&gt;Node19</title>
<path fill="none" stroke="#191970" d="M547.749,-430.5005C566.7521,-420.1352 588.416,-408.3185 606.3729,-398.5239"/>
<polygon fill="#191970" stroke="#191970" points="546.0489,-427.441 538.9459,-435.3022 549.4009,-433.5863 546.0489,-427.441"/>
</g>
<!-- Node7 -->
<g id="node6" class="node">
<title>Node7</title>
<g id="a_node6"><a xlink:href="_fancy_printer_8hpp.html" target="_top" xlink:title="/home/daniel/projects\l/tracer/src/printers\l/FancyPrinter.hpp">
<polygon fill="none" stroke="#000000" points="510,-279.5 510,-320.5 632,-320.5 632,-279.5 510,-279.5"/>
<text text-anchor="start" x="518" y="-308.5" font-family="Helvetica,sans-Serif" font-size="10.00" fill="#000000">/home/daniel/projects</text>
<text text-anchor="start" x="518" y="-297.5" font-family="Helvetica,sans-Serif" font-size="10.00" fill="#000000">/tracer/src/printers</text>
<text text-anchor="middle" x="571" y="-286.5" font-family="Helvetica,sans-Serif" font-size="10.00" fill="#000000">/FancyPrinter.hpp</text>
</a>
</g>
</g>
<!-- Node6&#45;&gt;Node7 -->
<g id="edge5" class="edge">
<title>Node6&#45;&gt;Node7</title>
<path fill="none" stroke="#191970" d="M526.6882,-349.376C535.219,-339.8703 544.5456,-329.4778 552.4322,-320.6898"/>
<polygon fill="#191970" stroke="#191970" points="523.833,-347.3173 519.7587,-357.0974 529.0427,-351.9927 523.833,-347.3173"/>
</g>
<!-- Node18 -->
<g id="node17" class="node">
<title>Node18</title>
<g id="a_node17"><a xlink:href="_file_printer_8cpp.html" target="_top" xlink:title="/home/daniel/projects\l/tracer/src/printers\l/FilePrinter.cpp">
<polygon fill="none" stroke="#000000" points="370,-279.5 370,-320.5 492,-320.5 492,-279.5 370,-279.5"/>
<text text-anchor="start" x="378" y="-308.5" font-family="Helvetica,sans-Serif" font-size="10.00" fill="#000000">/home/daniel/projects</text>
<text text-anchor="start" x="378" y="-297.5" font-family="Helvetica,sans-Serif" font-size="10.00" fill="#000000">/tracer/src/printers</text>
<text text-anchor="middle" x="431" y="-286.5" font-family="Helvetica,sans-Serif" font-size="10.00" fill="#000000">/FilePrinter.cpp</text>
</a>
</g>
</g>
<!-- Node6&#45;&gt;Node18 -->
<g id="edge17" class="edge">
<title>Node6&#45;&gt;Node18</title>
<path fill="none" stroke="#191970" d="M475.3118,-349.376C466.781,-339.8703 457.4544,-329.4778 449.5678,-320.6898"/>
<polygon fill="#191970" stroke="#191970" points="472.9573,-351.9927 482.2413,-357.0974 478.167,-347.3173 472.9573,-351.9927"/>
</g>
<!-- Node8 -->
<g id="node7" class="node">
<title>Node8</title>
<g id="a_node7"><a xlink:href="_printer_container_8hpp.html" target="_top" xlink:title="/home/daniel/projects\l/tracer/src/PrinterContainer.hpp">
<polygon fill="none" stroke="#000000" points="375,-207 375,-237 543,-237 543,-207 375,-207"/>
<text text-anchor="start" x="383" y="-225" font-family="Helvetica,sans-Serif" font-size="10.00" fill="#000000">/home/daniel/projects</text>
<text text-anchor="middle" x="459" y="-214" font-family="Helvetica,sans-Serif" font-size="10.00" fill="#000000">/tracer/src/PrinterContainer.hpp</text>
</a>
</g>
</g>
<!-- Node7&#45;&gt;Node8 -->
<g id="edge6" class="edge">
<title>Node7&#45;&gt;Node8</title>
<path fill="none" stroke="#191970" d="M532.965,-273.5113C515.532,-261.3705 495.5009,-247.4203 480.685,-237.102"/>
<polygon fill="#191970" stroke="#191970" points="531.0738,-276.4594 541.2801,-279.3022 535.0743,-270.7151 531.0738,-276.4594"/>
</g>
<!-- Node16 -->
<g id="node15" class="node">
<title>Node16</title>
<g id="a_node15"><a xlink:href="_tracer_handler_8cpp.html" target="_top" xlink:title="/home/daniel/projects\l/tracer/src/TracerHandler.cpp">
<polygon fill="none" stroke="#000000" points="493.5,-67.5 493.5,-97.5 648.5,-97.5 648.5,-67.5 493.5,-67.5"/>
<text text-anchor="start" x="501.5" y="-85.5" font-family="Helvetica,sans-Serif" font-size="10.00" fill="#000000">/home/daniel/projects</text>
<text text-anchor="middle" x="571" y="-74.5" font-family="Helvetica,sans-Serif" font-size="10.00" fill="#000000">/tracer/src/TracerHandler.cpp</text>
</a>
</g>
</g>
<!-- Node7&#45;&gt;Node16 -->
<g id="edge16" class="edge">
<title>Node7&#45;&gt;Node16</title>
<path fill="none" stroke="#191970" d="M571,-268.8571C571,-221.4396 571,-132.9264 571,-97.6134"/>
<polygon fill="#191970" stroke="#191970" points="567.5001,-269.1452 571,-279.1452 574.5001,-269.1452 567.5001,-269.1452"/>
</g>
<!-- Node17 -->
<g id="node16" class="node">
<title>Node17</title>
<g id="a_node16"><a xlink:href="_fancy_printer_8cpp.html" target="_top" xlink:title="/home/daniel/projects\l/tracer/src/printers\l/FancyPrinter.cpp">
<polygon fill="none" stroke="#000000" points="599,-201.5 599,-242.5 721,-242.5 721,-201.5 599,-201.5"/>
<text text-anchor="start" x="607" y="-230.5" font-family="Helvetica,sans-Serif" font-size="10.00" fill="#000000">/home/daniel/projects</text>
<text text-anchor="start" x="607" y="-219.5" font-family="Helvetica,sans-Serif" font-size="10.00" fill="#000000">/tracer/src/printers</text>
<text text-anchor="middle" x="660" y="-208.5" font-family="Helvetica,sans-Serif" font-size="10.00" fill="#000000">/FancyPrinter.cpp</text>
</a>
</g>
</g>
<!-- Node7&#45;&gt;Node17 -->
<g id="edge15" class="edge">
<title>Node7&#45;&gt;Node17</title>
<path fill="none" stroke="#191970" d="M602.6874,-272.229C613.7938,-262.4953 626.0643,-251.7414 636.3924,-242.6898"/>
<polygon fill="#191970" stroke="#191970" points="600.064,-269.8742 594.8504,-279.0974 604.6778,-275.1386 600.064,-269.8742"/>
</g>
<!-- Node9 -->
<g id="node8" class="node">
<title>Node9</title>
<g id="a_node8"><a xlink:href="_printer_container_8cpp.html" target="_top" xlink:title="/home/daniel/projects\l/tracer/src/PrinterContainer.cpp">
<polygon fill="none" stroke="#000000" points="198.5,-134.5 198.5,-164.5 365.5,-164.5 365.5,-134.5 198.5,-134.5"/>
<text text-anchor="start" x="206.5" y="-152.5" font-family="Helvetica,sans-Serif" font-size="10.00" fill="#000000">/home/daniel/projects</text>
<text text-anchor="middle" x="282" y="-141.5" font-family="Helvetica,sans-Serif" font-size="10.00" fill="#000000">/tracer/src/PrinterContainer.cpp</text>
</a>
</g>
</g>
<!-- Node8&#45;&gt;Node9 -->
<g id="edge7" class="edge">
<title>Node8&#45;&gt;Node9</title>
<path fill="none" stroke="#191970" d="M412.707,-203.0382C383.3524,-191.0144 345.9082,-175.6771 318.6275,-164.5028"/>
<polygon fill="#191970" stroke="#191970" points="411.745,-206.4263 422.3255,-206.978 414.3983,-199.9487 411.745,-206.4263"/>
</g>
<!-- Node10 -->
<g id="node9" class="node">
<title>Node10</title>
<g id="a_node9"><a xlink:href="_tracer_handler_8hpp.html" target="_top" xlink:title="/home/daniel/projects\l/tracer/src/TracerHandler.hpp">
<polygon fill="none" stroke="#000000" points="384,-134.5 384,-164.5 540,-164.5 540,-134.5 384,-134.5"/>
<text text-anchor="start" x="392" y="-152.5" font-family="Helvetica,sans-Serif" font-size="10.00" fill="#000000">/home/daniel/projects</text>
<text text-anchor="middle" x="462" y="-141.5" font-family="Helvetica,sans-Serif" font-size="10.00" fill="#000000">/tracer/src/TracerHandler.hpp</text>
</a>
</g>
</g>
<!-- Node8&#45;&gt;Node10 -->
<g id="edge8" class="edge">
<title>Node8&#45;&gt;Node10</title>
<path fill="none" stroke="#191970" d="M460.0411,-196.8409C460.4872,-186.0601 460.9932,-173.8309 461.3792,-164.5028"/>
<polygon fill="#191970" stroke="#191970" points="456.5381,-196.8418 459.6216,-206.978 463.5321,-197.1312 456.5381,-196.8418"/>
</g>
<!-- Node11 -->
<g id="node10" class="node">
<title>Node11</title>
<g id="a_node10"><a xlink:href="tracer_internal_8hpp.html" target="_top" xlink:title="/home/daniel/projects\l/tracer/src/c&#45;API/tracerInternal.hpp">
<polygon fill="none" stroke="#000000" points="292.5,-67.5 292.5,-97.5 475.5,-97.5 475.5,-67.5 292.5,-67.5"/>
<text text-anchor="start" x="300.5" y="-85.5" font-family="Helvetica,sans-Serif" font-size="10.00" fill="#000000">/home/daniel/projects</text>
<text text-anchor="middle" x="384" y="-74.5" font-family="Helvetica,sans-Serif" font-size="10.00" fill="#000000">/tracer/src/c&#45;API/tracerInternal.hpp</text>
</a>
</g>
</g>
<!-- Node10&#45;&gt;Node11 -->
<g id="edge9" class="edge">
<title>Node10&#45;&gt;Node11</title>
<path fill="none" stroke="#191970" d="M436.384,-127.4965C425.0016,-117.7193 411.8884,-106.4554 401.6294,-97.6432"/>
<polygon fill="#191970" stroke="#191970" points="434.4343,-130.4357 444.3006,-134.2967 438.9955,-125.1257 434.4343,-130.4357"/>
</g>
<!-- Node10&#45;&gt;Node16 -->
<g id="edge14" class="edge">
<title>Node10&#45;&gt;Node16</title>
<path fill="none" stroke="#191970" d="M495.227,-129.0761C511.6561,-118.9774 531.1445,-106.9983 546.2428,-97.7177"/>
<polygon fill="#191970" stroke="#191970" points="493.1482,-126.2455 486.4617,-134.4639 496.8138,-132.209 493.1482,-126.2455"/>
</g>
<!-- Node12 -->
<g id="node11" class="node">
<title>Node12</title>
<g id="a_node11"><a xlink:href="c_printer_container_8cpp.html" target="_top" xlink:title="/home/daniel/projects\l/tracer/src/c&#45;API/cPrinterContainer.cpp">
<polygon fill="none" stroke="#000000" points="0,-.5 0,-30.5 200,-30.5 200,-.5 0,-.5"/>
<text text-anchor="start" x="8" y="-18.5" font-family="Helvetica,sans-Serif" font-size="10.00" fill="#000000">/home/daniel/projects</text>
<text text-anchor="middle" x="100" y="-7.5" font-family="Helvetica,sans-Serif" font-size="10.00" fill="#000000">/tracer/src/c&#45;API/cPrinterContainer.cpp</text>
</a>
</g>
</g>
<!-- Node11&#45;&gt;Node12 -->
<g id="edge10" class="edge">
<title>Node11&#45;&gt;Node12</title>
<path fill="none" stroke="#191970" d="M310.4875,-65.1573C265.123,-54.4551 207.4964,-40.8601 164.0131,-30.6017"/>
<polygon fill="#191970" stroke="#191970" points="309.7284,-68.5742 320.2649,-67.4639 311.3357,-61.7612 309.7284,-68.5742"/>
</g>
<!-- Node13 -->
<g id="node12" class="node">
<title>Node13</title>
<g id="a_node12"><a xlink:href="c_printers_8cpp.html" target="_top" xlink:title="/home/daniel/projects\l/tracer/src/c&#45;API/cPrinters.cpp">
<polygon fill="none" stroke="#000000" points="218.5,-.5 218.5,-30.5 377.5,-30.5 377.5,-.5 218.5,-.5"/>
<text text-anchor="start" x="226.5" y="-18.5" font-family="Helvetica,sans-Serif" font-size="10.00" fill="#000000">/home/daniel/projects</text>
<text text-anchor="middle" x="298" y="-7.5" font-family="Helvetica,sans-Serif" font-size="10.00" fill="#000000">/tracer/src/c&#45;API/cPrinters.cpp</text>
</a>
</g>
</g>
<!-- Node11&#45;&gt;Node13 -->
<g id="edge11" class="edge">
<title>Node11&#45;&gt;Node13</title>
<path fill="none" stroke="#191970" d="M356.4855,-61.0643C343.7696,-51.1577 328.9684,-39.6265 317.4375,-30.6432"/>
<polygon fill="#191970" stroke="#191970" points="354.4456,-63.9119 364.4853,-67.2967 358.7477,-58.3899 354.4456,-63.9119"/>
</g>
<!-- Node14 -->
<g id="node13" class="node">
<title>Node14</title>
<g id="a_node13"><a xlink:href="c_tracer_8cpp.html" target="_top" xlink:title="/home/daniel/projects\l/tracer/src/c&#45;API/cTracer.cpp">
<polygon fill="none" stroke="#000000" points="395,-.5 395,-30.5 545,-30.5 545,-.5 395,-.5"/>
<text text-anchor="start" x="403" y="-18.5" font-family="Helvetica,sans-Serif" font-size="10.00" fill="#000000">/home/daniel/projects</text>
<text text-anchor="middle" x="470" y="-7.5" font-family="Helvetica,sans-Serif" font-size="10.00" fill="#000000">/tracer/src/c&#45;API/cTracer.cpp</text>
</a>
</g>
</g>
<!-- Node11&#45;&gt;Node14 -->
<g id="edge12" class="edge">
<title>Node11&#45;&gt;Node14</title>
<path fill="none" stroke="#191970" d="M411.5145,-61.0643C424.2304,-51.1577 439.0316,-39.6265 450.5625,-30.6432"/>
<polygon fill="#191970" stroke="#191970" points="409.2523,-58.3899 403.5147,-67.2967 413.5544,-63.9119 409.2523,-58.3899"/>
</g>
<!-- Node15 -->
<g id="node14" class="node">
<title>Node15</title>
<g id="a_node14"><a xlink:href="c_tracer_handler_8cpp.html" target="_top" xlink:title="/home/daniel/projects\l/tracer/src/c&#45;API/cTracerHandler.cpp">
<polygon fill="none" stroke="#000000" points="563,-.5 563,-30.5 751,-30.5 751,-.5 563,-.5"/>
<text text-anchor="start" x="571" y="-18.5" font-family="Helvetica,sans-Serif" font-size="10.00" fill="#000000">/home/daniel/projects</text>
<text text-anchor="middle" x="657" y="-7.5" font-family="Helvetica,sans-Serif" font-size="10.00" fill="#000000">/tracer/src/c&#45;API/cTracerHandler.cpp</text>
</a>
</g>
</g>
<!-- Node11&#45;&gt;Node15 -->
<g id="edge13" class="edge">
<title>Node11&#45;&gt;Node15</title>
<path fill="none" stroke="#191970" d="M455.2144,-65.0225C498.7369,-54.3411 553.8425,-40.8171 595.4663,-30.6017"/>
<polygon fill="#191970" stroke="#191970" points="454.1441,-61.6812 445.2665,-67.4639 455.8126,-68.4795 454.1441,-61.6812"/>
</g>
<!-- Node19&#45;&gt;Node7 -->
<g id="edge19" class="edge">
<title>Node19&#45;&gt;Node7</title>
<path fill="none" stroke="#191970" d="M617.4775,-349.6609C608.5092,-340.0783 598.6704,-329.5657 590.3635,-320.6898"/>
<polygon fill="#191970" stroke="#191970" points="615.0487,-352.1878 624.4373,-357.0974 620.1596,-347.4046 615.0487,-352.1878"/>
</g>
<!-- Node20 -->
<g id="node19" class="node">
<title>Node20</title>
<g id="a_node19"><a xlink:href="_system_info_printer_8cpp.html" target="_top" xlink:title="/home/daniel/projects\l/tracer/src/printers\l/SystemInfoPrinter.cpp">
<polygon fill="none" stroke="#000000" points="650.5,-279.5 650.5,-320.5 777.5,-320.5 777.5,-279.5 650.5,-279.5"/>
<text text-anchor="start" x="658.5" y="-308.5" font-family="Helvetica,sans-Serif" font-size="10.00" fill="#000000">/home/daniel/projects</text>
<text text-anchor="start" x="658.5" y="-297.5" font-family="Helvetica,sans-Serif" font-size="10.00" fill="#000000">/tracer/src/printers</text>
<text text-anchor="middle" x="714" y="-286.5" font-family="Helvetica,sans-Serif" font-size="10.00" fill="#000000">/SystemInfoPrinter.cpp</text>
</a>
</g>
</g>
<!-- Node19&#45;&gt;Node20 -->
<g id="edge20" class="edge">
<title>Node19&#45;&gt;Node20</title>
<path fill="none" stroke="#191970" d="M669.6882,-349.376C678.219,-339.8703 687.5456,-329.4778 695.4322,-320.6898"/>
<polygon fill="#191970" stroke="#191970" points="666.833,-347.3173 662.7587,-357.0974 672.0427,-351.9927 666.833,-347.3173"/>
</g>
</g>
</svg>
