<?xml version="1.0" encoding="UTF-8" standalone="no"?>
<!DOCTYPE svg PUBLIC "-//W3C//DTD SVG 1.1//EN"
 "http://www.w3.org/Graphics/SVG/1.1/DTD/svg11.dtd">
<!-- Generated by graphviz version 2.40.1 (20161225.0304)
 -->
<!-- Title: /home/daniel/projects/tracer/src/tracer/AbstractTracer.hpp Pages: 1 -->
<svg width="148pt" height="162pt"
 viewBox="0.00 0.00 148.00 162.00" xmlns="http://www.w3.org/2000/svg" xmlns:xlink="http://www.w3.org/1999/xlink">
<g id="graph0" class="graph" transform="scale(1 1) rotate(0) translate(4 158)">
<title>/home/daniel/projects/tracer/src/tracer/AbstractTracer.hpp</title>
<!-- Node0 -->
<g id="node1" class="node">
<title>Node0</title>
<polygon fill="#bfbfbf" stroke="#000000" points="0,-112.5 0,-153.5 140,-153.5 140,-112.5 0,-112.5"/>
<text text-anchor="start" x="8" y="-141.5" font-family="Helvetica,sans-Serif" font-size="10.00" fill="#000000">/home/daniel/projects</text>
<text text-anchor="start" x="8" y="-130.5" font-family="Helvetica,sans-Serif" font-size="10.00" fill="#000000">/tracer/src/tracer/Abstract</text>
<text text-anchor="middle" x="70" y="-119.5" font-family="Helvetica,sans-Serif" font-size="10.00" fill="#000000">Tracer.hpp</text>
</g>
<!-- Node1 -->
<g id="node2" class="node">
<title>Node1</title>
<polygon fill="none" stroke="#bfbfbf" points="33.5,-.5 33.5,-19.5 106.5,-19.5 106.5,-.5 33.5,-.5"/>
<text text-anchor="middle" x="70" y="-7.5" font-family="Helvetica,sans-Serif" font-size="10.00" fill="#000000">defines.hpp</text>
</g>
<!-- Node0&#45;&gt;Node1 -->
<g id="edge1" class="edge">
<title>Node0&#45;&gt;Node1</title>
<path fill="none" stroke="#191970" d="M63.6109,-112.4534C59.571,-96.9671 55.5382,-75.1898 58,-56 59.1391,-47.1204 61.4673,-37.5073 63.7723,-29.3763"/>
<polygon fill="#191970" stroke="#191970" points="67.1457,-30.3125 66.6873,-19.7276 60.4448,-28.2881 67.1457,-30.3125"/>
</g>
<!-- Node2 -->
<g id="node3" class="node">
<title>Node2</title>
<g id="a_node3"><a xlink:href="_frame_8hpp.html" target="_top" xlink:title="Frame.hpp">
<polygon fill="none" stroke="#000000" points="67,-56.5 67,-75.5 135,-75.5 135,-56.5 67,-56.5"/>
<text text-anchor="middle" x="101" y="-63.5" font-family="Helvetica,sans-Serif" font-size="10.00" fill="#000000">Frame.hpp</text>
</a>
</g>
</g>
<!-- Node0&#45;&gt;Node2 -->
<g id="edge2" class="edge">
<title>Node0&#45;&gt;Node2</title>
<path fill="none" stroke="#191970" d="M79.6387,-112.168C83.6755,-103.4433 88.3344,-93.374 92.2691,-84.87"/>
<polygon fill="#191970" stroke="#191970" points="95.452,-86.3258 96.4747,-75.7805 89.099,-83.3864 95.452,-86.3258"/>
</g>
<!-- Node2&#45;&gt;Node1 -->
<g id="edge3" class="edge">
<title>Node2&#45;&gt;Node1</title>
<path fill="none" stroke="#191970" d="M95.6002,-56.2455C91.3773,-48.617 85.3827,-37.7881 80.2559,-28.5267"/>
<polygon fill="#191970" stroke="#191970" points="83.2432,-26.6965 75.3379,-19.6427 77.119,-30.0867 83.2432,-26.6965"/>
</g>
</g>
</svg>
