<?xml version="1.0" encoding="UTF-8" standalone="no"?>
<!DOCTYPE svg PUBLIC "-//W3C//DTD SVG 1.1//EN"
 "http://www.w3.org/Graphics/SVG/1.1/DTD/svg11.dtd">
<!-- Generated by graphviz version 2.40.1 (20161225.0304)
 -->
<!-- Title: /home/daniel/projects/tracer/src/debugInfo/dummy/DebugInfoDummy.cpp Pages: 1 -->
<svg width="241pt" height="274pt"
 viewBox="0.00 0.00 241.00 274.00" xmlns="http://www.w3.org/2000/svg" xmlns:xlink="http://www.w3.org/1999/xlink">
<g id="graph0" class="graph" transform="scale(1 1) rotate(0) translate(4 270)">
<title>/home/daniel/projects/tracer/src/debugInfo/dummy/DebugInfoDummy.cpp</title>
<!-- Node0 -->
<g id="node1" class="node">
<title>Node0</title>
<polygon fill="#bfbfbf" stroke="#000000" points="0,-224.5 0,-265.5 168,-265.5 168,-224.5 0,-224.5"/>
<text text-anchor="start" x="8" y="-253.5" font-family="Helvetica,sans-Serif" font-size="10.00" fill="#000000">/home/daniel/projects</text>
<text text-anchor="start" x="8" y="-242.5" font-family="Helvetica,sans-Serif" font-size="10.00" fill="#000000">/tracer/src/debugInfo</text>
<text text-anchor="middle" x="84" y="-231.5" font-family="Helvetica,sans-Serif" font-size="10.00" fill="#000000">/dummy/DebugInfoDummy.cpp</text>
</g>
<!-- Node1 -->
<g id="node2" class="node">
<title>Node1</title>
<polygon fill="none" stroke="#bfbfbf" points="59.5,-.5 59.5,-19.5 132.5,-19.5 132.5,-.5 59.5,-.5"/>
<text text-anchor="middle" x="96" y="-7.5" font-family="Helvetica,sans-Serif" font-size="10.00" fill="#000000">defines.hpp</text>
</g>
<!-- Node0&#45;&gt;Node1 -->
<g id="edge1" class="edge">
<title>Node0&#45;&gt;Node1</title>
<path fill="none" stroke="#191970" d="M71.9926,-224.366C66.5598,-213.854 60.7484,-200.6481 58,-188 45.4063,-130.0449 71.7044,-61.3922 86.6363,-28.8796"/>
<polygon fill="#191970" stroke="#191970" points="89.89,-30.1871 91.0212,-19.6528 83.5676,-27.1824 89.89,-30.1871"/>
</g>
<!-- Node2 -->
<g id="node3" class="node">
<title>Node2</title>
<g id="a_node3"><a xlink:href="_debug_info_dummy_8hpp.html" target="_top" xlink:title="DebugInfoDummy.hpp">
<polygon fill="none" stroke="#000000" points="67.5,-168.5 67.5,-187.5 192.5,-187.5 192.5,-168.5 67.5,-168.5"/>
<text text-anchor="middle" x="130" y="-175.5" font-family="Helvetica,sans-Serif" font-size="10.00" fill="#000000">DebugInfoDummy.hpp</text>
</a>
</g>
</g>
<!-- Node0&#45;&gt;Node2 -->
<g id="edge2" class="edge">
<title>Node0&#45;&gt;Node2</title>
<path fill="none" stroke="#191970" d="M98.3025,-224.168C104.488,-215.1587 111.6577,-204.7159 117.6121,-196.0432"/>
<polygon fill="#191970" stroke="#191970" points="120.5104,-198.0055 123.2851,-187.7805 114.7395,-194.0435 120.5104,-198.0055"/>
</g>
<!-- Node2&#45;&gt;Node1 -->
<g id="edge3" class="edge">
<title>Node2&#45;&gt;Node1</title>
<path fill="none" stroke="#191970" d="M120.0638,-168.4913C111.824,-159.8654 100.7233,-146.3368 96,-132 84.6202,-97.4586 88.5056,-54.3693 92.2983,-29.7373"/>
<polygon fill="#191970" stroke="#191970" points="95.7596,-30.2598 93.9792,-19.8156 88.8579,-29.0905 95.7596,-30.2598"/>
</g>
<!-- Node3 -->
<g id="node4" class="node">
<title>Node3</title>
<g id="a_node4"><a xlink:href="_abstract_debug_info_8hpp.html" target="_top" xlink:title="AbstractDebugInfo.hpp">
<polygon fill="none" stroke="#000000" points="105,-112.5 105,-131.5 233,-131.5 233,-112.5 105,-112.5"/>
<text text-anchor="middle" x="169" y="-119.5" font-family="Helvetica,sans-Serif" font-size="10.00" fill="#000000">AbstractDebugInfo.hpp</text>
</a>
</g>
</g>
<!-- Node2&#45;&gt;Node3 -->
<g id="edge4" class="edge">
<title>Node2&#45;&gt;Node3</title>
<path fill="none" stroke="#191970" d="M136.7933,-168.2455C142.2178,-160.4564 149.9661,-149.3308 156.5033,-139.9439"/>
<polygon fill="#191970" stroke="#191970" points="159.4417,-141.849 162.2846,-131.6427 153.6975,-137.8485 159.4417,-141.849"/>
</g>
<!-- Node3&#45;&gt;Node1 -->
<g id="edge5" class="edge">
<title>Node3&#45;&gt;Node1</title>
<path fill="none" stroke="#191970" d="M161.1161,-112.3954C153.7647,-103.2684 142.6629,-89.0392 134,-76 123.7384,-60.5544 113.3151,-42.2233 105.9872,-28.8042"/>
<polygon fill="#191970" stroke="#191970" points="108.8671,-26.7705 101.0408,-19.6291 102.7055,-30.0924 108.8671,-26.7705"/>
</g>
<!-- Node4 -->
<g id="node5" class="node">
<title>Node4</title>
<g id="a_node5"><a xlink:href="_frame_8hpp.html" target="_top" xlink:title="Frame.hpp">
<polygon fill="none" stroke="#000000" points="143,-56.5 143,-75.5 211,-75.5 211,-56.5 143,-56.5"/>
<text text-anchor="middle" x="177" y="-63.5" font-family="Helvetica,sans-Serif" font-size="10.00" fill="#000000">Frame.hpp</text>
</a>
</g>
</g>
<!-- Node3&#45;&gt;Node4 -->
<g id="edge6" class="edge">
<title>Node3&#45;&gt;Node4</title>
<path fill="none" stroke="#191970" d="M170.3935,-112.2455C171.4374,-104.9382 172.9008,-94.6944 174.1851,-85.7046"/>
<polygon fill="#191970" stroke="#191970" points="177.673,-86.0372 175.6225,-75.6427 170.7434,-85.0472 177.673,-86.0372"/>
</g>
<!-- Node4&#45;&gt;Node1 -->
<g id="edge7" class="edge">
<title>Node4&#45;&gt;Node1</title>
<path fill="none" stroke="#191970" d="M162.8909,-56.2455C150.5791,-47.7337 132.5042,-35.2375 118.2462,-25.3801"/>
<polygon fill="#191970" stroke="#191970" points="120.1634,-22.4506 109.9474,-19.6427 116.1826,-28.2085 120.1634,-22.4506"/>
</g>
</g>
</svg>
