<?xml version="1.0" encoding="UTF-8" standalone="no"?>
<!DOCTYPE svg PUBLIC "-//W3C//DTD SVG 1.1//EN"
 "http://www.w3.org/Graphics/SVG/1.1/DTD/svg11.dtd">
<!-- Generated by graphviz version 2.40.1 (20161225.0304)
 -->
<!-- Title: /home/daniel/projects/tracer/src/debugInfo/libdwlf/DebugInfoDWLF.cpp Pages: 1 -->
<!--zoomable 274 -->
<svg id="main" version="1.1" xmlns="http://www.w3.org/2000/svg" xmlns:xlink="http://www.w3.org/1999/xlink" xml:space="preserve" onload="init(evt)">
<style type="text/css"><![CDATA[
.edge:hover path { stroke: red; }
.edge:hover polygon { stroke: red; fill: red; }
]]></style>
<script type="text/javascript"><![CDATA[
var edges = document.getElementsByTagName('g');
if (edges && edges.length) {
  for (var i=0;i<edges.length;i++) {
    if (edges[i].id.substr(0,4)=='edge') {
      edges[i].setAttribute('class','edge');
    }
  }
}
]]></script>
        <defs>
                <circle id="rim" cx="0" cy="0" r="7"/>
                <circle id="rim2" cx="0" cy="0" r="3.5"/>
                <g id="zoomPlus">
                        <use xlink:href="#rim" fill="#404040">
                                <set attributeName="fill" to="#808080" begin="zoomplus.mouseover" end="zoomplus.mouseout"/>
                        </use>
                        <path d="M-4,0h8M0,-4v8" fill="none" stroke="white" stroke-width="1.5" pointer-events="none"/>
                </g>
                <g id="zoomMin">
                        <use xlink:href="#rim" fill="#404040">
                                <set attributeName="fill" to="#808080" begin="zoomminus.mouseover" end="zoomminus.mouseout"/>
                        </use>
                        <path d="M-4,0h8" fill="none" stroke="white" stroke-width="1.5" pointer-events="none"/>
                </g>
                <g id="dirArrow">
                        <path fill="none" stroke="white" stroke-width="1.5" d="M0,-3.0v7 M-2.5,-0.5L0,-3.0L2.5,-0.5"/>
                </g>
               <g id="resetDef">
                       <use xlink:href="#rim2" fill="#404040">
                               <set attributeName="fill" to="#808080" begin="reset.mouseover" end="reset.mouseout"/>
                       </use>
               </g>
        </defs>

<script type="text/javascript">
var viewWidth = 523;
var viewHeight = 274;
var sectionId = 'dynsection-0';
</script>
<script xlink:href="svgpan.js"/>
<svg id="graph" class="graph">
<g id="viewport">
<title>/home/daniel/projects/tracer/src/debugInfo/libdwlf/DebugInfoDWLF.cpp</title>
<!-- Node0 -->
<g id="node1" class="node">
<title>Node0</title>
<polygon fill="#bfbfbf" stroke="#000000" points="183.7554,-224.5 183.7554,-265.5 335.7554,-265.5 335.7554,-224.5 183.7554,-224.5"/>
<text text-anchor="start" x="191.7554" y="-253.5" font-family="Helvetica,sans-Serif" font-size="10.00" fill="#000000">/home/daniel/projects</text>
<text text-anchor="start" x="191.7554" y="-242.5" font-family="Helvetica,sans-Serif" font-size="10.00" fill="#000000">/tracer/src/debugInfo</text>
<text text-anchor="middle" x="259.7554" y="-231.5" font-family="Helvetica,sans-Serif" font-size="10.00" fill="#000000">/libdwlf/DebugInfoDWLF.cpp</text>
</g>
<!-- Node1 -->
<g id="node2" class="node">
<title>Node1</title>
<polygon fill="none" stroke="#bfbfbf" points="17.2554,-.5 17.2554,-19.5 90.2554,-19.5 90.2554,-.5 17.2554,-.5"/>
<text text-anchor="middle" x="53.7554" y="-7.5" font-family="Helvetica,sans-Serif" font-size="10.00" fill="#000000">defines.hpp</text>
</g>
<!-- Node0&#45;&gt;Node1 -->
<g id="edge1" class="edge">
<title>Node0&#45;&gt;Node1</title>
<path fill="none" stroke="#191970" d="M183.7097,-237.4835C120.0975,-229.4388 36.5056,-214.1563 15.7554,-188 -22.1214,-140.2552 18.6422,-63.4196 41.0513,-28.426"/>
<polygon fill="#191970" stroke="#191970" points="44.2088,-29.9965 46.8045,-19.7246 38.3697,-26.1358 44.2088,-29.9965"/>
</g>
<!-- Node2 -->
<g id="node3" class="node">
<title>Node2</title>
<g id="a_node3"><a xlink:href="_debug_info_d_w_l_f_8hpp.html" target="_top" xlink:title="DebugInfoDWLF.hpp">
<polygon fill="none" stroke="#000000" points="24.7554,-168.5 24.7554,-187.5 138.7554,-187.5 138.7554,-168.5 24.7554,-168.5"/>
<text text-anchor="middle" x="81.7554" y="-175.5" font-family="Helvetica,sans-Serif" font-size="10.00" fill="#000000">DebugInfoDWLF.hpp</text>
</a>
</g>
</g>
<!-- Node0&#45;&gt;Node2 -->
<g id="edge2" class="edge">
<title>Node0&#45;&gt;Node2</title>
<path fill="none" stroke="#191970" d="M204.8971,-224.3511C176.2202,-213.557 141.9692,-200.6647 116.8783,-191.2204"/>
<polygon fill="#191970" stroke="#191970" points="117.997,-187.9018 107.405,-187.6546 115.531,-194.4531 117.997,-187.9018"/>
</g>
<!-- Node5 -->
<g id="node6" class="node">
<title>Node5</title>
<polygon fill="none" stroke="#bfbfbf" points="156.7554,-168.5 156.7554,-187.5 214.7554,-187.5 214.7554,-168.5 156.7554,-168.5"/>
<text text-anchor="middle" x="185.7554" y="-175.5" font-family="Helvetica,sans-Serif" font-size="10.00" fill="#000000">cxxabi.h</text>
</g>
<!-- Node0&#45;&gt;Node5 -->
<g id="edge8" class="edge">
<title>Node0&#45;&gt;Node5</title>
<path fill="none" stroke="#191970" d="M236.747,-224.168C226.2727,-214.6846 214.044,-203.6127 204.1881,-194.689"/>
<polygon fill="#191970" stroke="#191970" points="206.3199,-191.8977 196.5577,-187.7805 201.6216,-197.0868 206.3199,-191.8977"/>
</g>
<!-- Node6 -->
<g id="node7" class="node">
<title>Node6</title>
<polygon fill="none" stroke="#bfbfbf" points="233.2554,-168.5 233.2554,-187.5 286.2554,-187.5 286.2554,-168.5 233.2554,-168.5"/>
<text text-anchor="middle" x="259.7554" y="-175.5" font-family="Helvetica,sans-Serif" font-size="10.00" fill="#000000">dwarf.h</text>
</g>
<!-- Node0&#45;&gt;Node6 -->
<g id="edge9" class="edge">
<title>Node0&#45;&gt;Node6</title>
<path fill="none" stroke="#191970" d="M259.7554,-224.168C259.7554,-215.8226 259.7554,-206.2471 259.7554,-197.9879"/>
<polygon fill="#191970" stroke="#191970" points="263.2555,-197.7804 259.7554,-187.7805 256.2555,-197.7805 263.2555,-197.7804"/>
</g>
<!-- Node7 -->
<g id="node8" class="node">
<title>Node7</title>
<polygon fill="none" stroke="#bfbfbf" points="304.7554,-168.5 304.7554,-187.5 364.7554,-187.5 364.7554,-168.5 304.7554,-168.5"/>
<text text-anchor="middle" x="334.7554" y="-175.5" font-family="Helvetica,sans-Serif" font-size="10.00" fill="#000000">iostream</text>
</g>
<!-- Node0&#45;&gt;Node7 -->
<g id="edge10" class="edge">
<title>Node0&#45;&gt;Node7</title>
<path fill="none" stroke="#191970" d="M283.0748,-224.168C293.6906,-214.6846 306.0845,-203.6127 316.0736,-194.689"/>
<polygon fill="#191970" stroke="#191970" points="318.6812,-197.0528 323.8071,-187.7805 314.0177,-191.8325 318.6812,-197.0528"/>
</g>
<!-- Node8 -->
<g id="node9" class="node">
<title>Node8</title>
<polygon fill="none" stroke="#bfbfbf" points="382.7554,-168.5 382.7554,-187.5 440.7554,-187.5 440.7554,-168.5 382.7554,-168.5"/>
<text text-anchor="middle" x="411.7554" y="-175.5" font-family="Helvetica,sans-Serif" font-size="10.00" fill="#000000">libdwfl.h</text>
</g>
<!-- Node0&#45;&gt;Node8 -->
<g id="edge11" class="edge">
<title>Node0&#45;&gt;Node8</title>
<path fill="none" stroke="#191970" d="M306.6007,-224.3511C330.6554,-213.748 359.303,-201.1204 380.6179,-191.7251"/>
<polygon fill="#191970" stroke="#191970" points="382.1136,-194.8908 389.8523,-187.6546 379.2901,-188.4855 382.1136,-194.8908"/>
</g>
<!-- Node9 -->
<g id="node10" class="node">
<title>Node9</title>
<polygon fill="none" stroke="#bfbfbf" points="458.7554,-168.5 458.7554,-187.5 514.7554,-187.5 514.7554,-168.5 458.7554,-168.5"/>
<text text-anchor="middle" x="486.7554" y="-175.5" font-family="Helvetica,sans-Serif" font-size="10.00" fill="#000000">unistd.h</text>
</g>
<!-- Node0&#45;&gt;Node9 -->
<g id="edge12" class="edge">
<title>Node0&#45;&gt;Node9</title>
<path fill="none" stroke="#191970" d="M329.4056,-224.4425C368.684,-212.8493 416.2418,-198.8124 448.7221,-189.2257"/>
<polygon fill="#191970" stroke="#191970" points="450.1081,-192.466 458.7082,-186.2782 448.1264,-185.7523 450.1081,-192.466"/>
</g>
<!-- Node2&#45;&gt;Node1 -->
<g id="edge3" class="edge">
<title>Node2&#45;&gt;Node1</title>
<path fill="none" stroke="#191970" d="M73.5465,-168.1677C66.744,-159.3343 57.5924,-145.6831 53.7554,-132 43.9803,-97.1408 47.2588,-54.4427 50.5171,-29.9144"/>
<polygon fill="#191970" stroke="#191970" points="54.0224,-30.1335 52.0117,-19.7312 47.0966,-29.1169 54.0224,-30.1335"/>
</g>
<!-- Node3 -->
<g id="node4" class="node">
<title>Node3</title>
<g id="a_node4"><a xlink:href="_abstract_debug_info_8hpp.html" target="_top" xlink:title="AbstractDebugInfo.hpp">
<polygon fill="none" stroke="#000000" points="62.7554,-112.5 62.7554,-131.5 190.7554,-131.5 190.7554,-112.5 62.7554,-112.5"/>
<text text-anchor="middle" x="126.7554" y="-119.5" font-family="Helvetica,sans-Serif" font-size="10.00" fill="#000000">AbstractDebugInfo.hpp</text>
</a>
</g>
</g>
<!-- Node2&#45;&gt;Node3 -->
<g id="edge4" class="edge">
<title>Node2&#45;&gt;Node3</title>
<path fill="none" stroke="#191970" d="M89.5938,-168.2455C95.9175,-160.3761 104.9778,-149.101 112.569,-139.6542"/>
<polygon fill="#191970" stroke="#191970" points="115.4712,-141.6302 119.0068,-131.6427 110.0146,-137.2454 115.4712,-141.6302"/>
</g>
<!-- Node3&#45;&gt;Node1 -->
<g id="edge5" class="edge">
<title>Node3&#45;&gt;Node1</title>
<path fill="none" stroke="#191970" d="M118.8715,-112.3954C111.5201,-103.2684 100.4183,-89.0392 91.7554,-76 81.4938,-60.5544 71.0705,-42.2233 63.7426,-28.8042"/>
<polygon fill="#191970" stroke="#191970" points="66.6225,-26.7705 58.7962,-19.6291 60.4609,-30.0924 66.6225,-26.7705"/>
</g>
<!-- Node4 -->
<g id="node5" class="node">
<title>Node4</title>
<g id="a_node5"><a xlink:href="_frame_8hpp.html" target="_top" xlink:title="Frame.hpp">
<polygon fill="none" stroke="#000000" points="100.7554,-56.5 100.7554,-75.5 168.7554,-75.5 168.7554,-56.5 100.7554,-56.5"/>
<text text-anchor="middle" x="134.7554" y="-63.5" font-family="Helvetica,sans-Serif" font-size="10.00" fill="#000000">Frame.hpp</text>
</a>
</g>
</g>
<!-- Node3&#45;&gt;Node4 -->
<g id="edge6" class="edge">
<title>Node3&#45;&gt;Node4</title>
<path fill="none" stroke="#191970" d="M128.1489,-112.2455C129.1928,-104.9382 130.6562,-94.6944 131.9405,-85.7046"/>
<polygon fill="#191970" stroke="#191970" points="135.4284,-86.0372 133.3779,-75.6427 128.4988,-85.0472 135.4284,-86.0372"/>
</g>
<!-- Node4&#45;&gt;Node1 -->
<g id="edge7" class="edge">
<title>Node4&#45;&gt;Node1</title>
<path fill="none" stroke="#191970" d="M120.6463,-56.2455C108.3345,-47.7337 90.2596,-35.2375 76.0016,-25.3801"/>
<polygon fill="#191970" stroke="#191970" points="77.9188,-22.4506 67.7028,-19.6427 73.938,-28.2085 77.9188,-22.4506"/>
</g>
</g>
</svg>
        <g id="navigator" transform="translate(0 0)" fill="#404254">
                <rect fill="#f2f5e9" fill-opacity="0.5" stroke="#606060" stroke-width=".5" x="0" y="0" width="60" height="60"/>
                <use id="zoomplus" xlink:href="#zoomPlus" x="17" y="9" onmousedown="handleZoom(evt,'in')"/>
                <use id="zoomminus" xlink:href="#zoomMin" x="42" y="9" onmousedown="handleZoom(evt,'out')"/>
                <use id="reset" xlink:href="#resetDef" x="30" y="36" onmousedown="handleReset()"/>
                <g id="arrowUp" xlink:href="#dirArrow" transform="translate(30 24)" onmousedown="handlePan(0,-1)">
                  <use xlink:href="#rim" fill="#404040">
                        <set attributeName="fill" to="#808080" begin="arrowUp.mouseover" end="arrowUp.mouseout"/>
                  </use>
                  <path fill="none" stroke="white" stroke-width="1.5" d="M0,-3.0v7 M-2.5,-0.5L0,-3.0L2.5,-0.5"/>
                </g>
                <g id="arrowRight" xlink:href="#dirArrow" transform="rotate(90) translate(36 -43)" onmousedown="handlePan(1,0)">
                  <use xlink:href="#rim" fill="#404040">
                        <set attributeName="fill" to="#808080" begin="arrowRight.mouseover" end="arrowRight.mouseout"/>
                  </use>
                  <path fill="none" stroke="white" stroke-width="1.5" d="M0,-3.0v7 M-2.5,-0.5L0,-3.0L2.5,-0.5"/>
                </g>
                <g id="arrowDown" xlink:href="#dirArrow" transform="rotate(180) translate(-30 -48)" onmousedown="handlePan(0,1)">
                  <use xlink:href="#rim" fill="#404040">
                        <set attributeName="fill" to="#808080" begin="arrowDown.mouseover" end="arrowDown.mouseout"/>
                  </use>
                  <path fill="none" stroke="white" stroke-width="1.5" d="M0,-3.0v7 M-2.5,-0.5L0,-3.0L2.5,-0.5"/>
                </g>
                <g id="arrowLeft" xlink:href="#dirArrow" transform="rotate(270) translate(-36 17)" onmousedown="handlePan(-1,0)">
                  <use xlink:href="#rim" fill="#404040">
                        <set attributeName="fill" to="#808080" begin="arrowLeft.mouseover" end="arrowLeft.mouseout"/>
                  </use>
                  <path fill="none" stroke="white" stroke-width="1.5" d="M0,-3.0v7 M-2.5,-0.5L0,-3.0L2.5,-0.5"/>
                </g>
        </g>
        <svg viewBox="0 0 15 15" width="100%" height="30px" preserveAspectRatio="xMaxYMin meet">
         <g id="arrow_out" transform="scale(0.3 0.3)">
          <a xlink:href="_debug_info_d_w_l_f_8cpp__incl_org.svg" target="_base">
           <rect id="button" ry="5" rx="5" y="6" x="6" height="38" width="38"
                fill="#f2f5e9" fill-opacity="0.5" stroke="#606060" stroke-width="1.0"/>
           <path id="arrow"
             d="M 11.500037,31.436501 C 11.940474,20.09759 22.043105,11.32322 32.158766,21.979434 L 37.068811,17.246167 C 37.068811,17.246167 37.088388,32 37.088388,32 L 22.160133,31.978069 C 22.160133,31.978069 26.997745,27.140456 26.997745,27.140456 C 18.528582,18.264221 13.291696,25.230495 11.500037,31.436501 z"
             style="fill:#404040;"/>
          </a>
         </g>
        </svg>
</svg>
