<?xml version="1.0" encoding="UTF-8" standalone="no"?>
<!DOCTYPE svg PUBLIC "-//W3C//DTD SVG 1.1//EN"
 "http://www.w3.org/Graphics/SVG/1.1/DTD/svg11.dtd">
<!-- Generated by graphviz version 2.40.1 (20161225.0304)
 -->
<!-- Title: /home/daniel/projects/tracer/src/debugInfo/externalFallback/DebugInfoExternalFallback.hpp Pages: 1 -->
<svg width="215pt" height="229pt"
 viewBox="0.00 0.00 215.00 229.00" xmlns="http://www.w3.org/2000/svg" xmlns:xlink="http://www.w3.org/1999/xlink">
<g id="graph0" class="graph" transform="scale(1 1) rotate(0) translate(4 225)">
<title>/home/daniel/projects/tracer/src/debugInfo/externalFallback/DebugInfoExternalFallback.hpp</title>
<!-- Node0 -->
<g id="node1" class="node">
<title>Node0</title>
<polygon fill="#bfbfbf" stroke="#000000" points="0,-168.5 0,-220.5 194,-220.5 194,-168.5 0,-168.5"/>
<text text-anchor="start" x="8" y="-208.5" font-family="Helvetica,sans-Serif" font-size="10.00" fill="#000000">/home/daniel/projects</text>
<text text-anchor="start" x="8" y="-197.5" font-family="Helvetica,sans-Serif" font-size="10.00" fill="#000000">/tracer/src/debugInfo</text>
<text text-anchor="start" x="8" y="-186.5" font-family="Helvetica,sans-Serif" font-size="10.00" fill="#000000">/externalFallback/DebugInfoExternal</text>
<text text-anchor="middle" x="97" y="-175.5" font-family="Helvetica,sans-Serif" font-size="10.00" fill="#000000">Fallback.hpp</text>
</g>
<!-- Node1 -->
<g id="node2" class="node">
<title>Node1</title>
<polygon fill="none" stroke="#bfbfbf" points="52.5,-.5 52.5,-19.5 125.5,-19.5 125.5,-.5 52.5,-.5"/>
<text text-anchor="middle" x="89" y="-7.5" font-family="Helvetica,sans-Serif" font-size="10.00" fill="#000000">defines.hpp</text>
</g>
<!-- Node0&#45;&gt;Node1 -->
<g id="edge1" class="edge">
<title>Node0&#45;&gt;Node1</title>
<path fill="none" stroke="#191970" d="M82.8101,-168.2155C77.6978,-157.3359 72.5609,-144.3853 70,-132 62.5474,-95.9563 73.6393,-53.3799 81.7521,-29.2486"/>
<polygon fill="#191970" stroke="#191970" points="85.1482,-30.1436 85.1927,-19.5489 78.551,-27.8035 85.1482,-30.1436"/>
</g>
<!-- Node2 -->
<g id="node3" class="node">
<title>Node2</title>
<g id="a_node3"><a xlink:href="_abstract_debug_info_8hpp.html" target="_top" xlink:title="AbstractDebugInfo.hpp">
<polygon fill="none" stroke="#000000" points="79,-112.5 79,-131.5 207,-131.5 207,-112.5 79,-112.5"/>
<text text-anchor="middle" x="143" y="-119.5" font-family="Helvetica,sans-Serif" font-size="10.00" fill="#000000">AbstractDebugInfo.hpp</text>
</a>
</g>
</g>
<!-- Node0&#45;&gt;Node2 -->
<g id="edge2" class="edge">
<title>Node0&#45;&gt;Node2</title>
<path fill="none" stroke="#191970" d="M113.6071,-168.3258C119.5156,-159.0135 126.0355,-148.7375 131.4304,-140.2347"/>
<polygon fill="#191970" stroke="#191970" points="134.5487,-141.8529 136.9508,-131.534 128.638,-138.1027 134.5487,-141.8529"/>
</g>
<!-- Node2&#45;&gt;Node1 -->
<g id="edge3" class="edge">
<title>Node2&#45;&gt;Node1</title>
<path fill="none" stroke="#191970" d="M134.0615,-112.4888C126.1919,-103.6516 114.9348,-89.8105 108,-76 100.6428,-61.3484 95.7076,-43.3957 92.7151,-29.9148"/>
<polygon fill="#191970" stroke="#191970" points="96.0818,-28.9084 90.6478,-19.8133 89.2239,-30.312 96.0818,-28.9084"/>
</g>
<!-- Node3 -->
<g id="node4" class="node">
<title>Node3</title>
<g id="a_node4"><a xlink:href="_frame_8hpp.html" target="_top" xlink:title="Frame.hpp">
<polygon fill="none" stroke="#000000" points="117,-56.5 117,-75.5 185,-75.5 185,-56.5 117,-56.5"/>
<text text-anchor="middle" x="151" y="-63.5" font-family="Helvetica,sans-Serif" font-size="10.00" fill="#000000">Frame.hpp</text>
</a>
</g>
</g>
<!-- Node2&#45;&gt;Node3 -->
<g id="edge4" class="edge">
<title>Node2&#45;&gt;Node3</title>
<path fill="none" stroke="#191970" d="M144.3935,-112.2455C145.4374,-104.9382 146.9008,-94.6944 148.1851,-85.7046"/>
<polygon fill="#191970" stroke="#191970" points="151.673,-86.0372 149.6225,-75.6427 144.7434,-85.0472 151.673,-86.0372"/>
</g>
<!-- Node3&#45;&gt;Node1 -->
<g id="edge5" class="edge">
<title>Node3&#45;&gt;Node1</title>
<path fill="none" stroke="#191970" d="M140.2004,-56.2455C131.1322,-48.0549 117.9794,-36.1749 107.2755,-26.5069"/>
<polygon fill="#191970" stroke="#191970" points="109.4429,-23.7482 99.6758,-19.6427 104.7509,-28.9429 109.4429,-23.7482"/>
</g>
</g>
</svg>
