<?xml version="1.0" encoding="UTF-8" standalone="no"?>
<!DOCTYPE svg PUBLIC "-//W3C//DTD SVG 1.1//EN"
 "http://www.w3.org/Graphics/SVG/1.1/DTD/svg11.dtd">
<!-- Generated by graphviz version 2.40.1 (20161225.0304)
 -->
<!-- Title: /home/daniel/projects/tracer/src/debugInfo/libbfd/DebugInfoBFD.hpp Pages: 1 -->
<svg width="222pt" height="218pt"
 viewBox="0.00 0.00 222.00 218.00" xmlns="http://www.w3.org/2000/svg" xmlns:xlink="http://www.w3.org/1999/xlink">
<g id="graph0" class="graph" transform="scale(1 1) rotate(0) translate(4 214)">
<title>/home/daniel/projects/tracer/src/debugInfo/libbfd/DebugInfoBFD.hpp</title>
<!-- Node0 -->
<g id="node1" class="node">
<title>Node0</title>
<polygon fill="#bfbfbf" stroke="#000000" points="20,-168.5 20,-209.5 161,-209.5 161,-168.5 20,-168.5"/>
<text text-anchor="start" x="28" y="-197.5" font-family="Helvetica,sans-Serif" font-size="10.00" fill="#000000">/home/daniel/projects</text>
<text text-anchor="start" x="28" y="-186.5" font-family="Helvetica,sans-Serif" font-size="10.00" fill="#000000">/tracer/src/debugInfo</text>
<text text-anchor="middle" x="90.5" y="-175.5" font-family="Helvetica,sans-Serif" font-size="10.00" fill="#000000">/libbfd/DebugInfoBFD.hpp</text>
</g>
<!-- Node1 -->
<g id="node2" class="node">
<title>Node1</title>
<polygon fill="none" stroke="#bfbfbf" points="0,-.5 0,-19.5 73,-19.5 73,-.5 0,-.5"/>
<text text-anchor="middle" x="36.5" y="-7.5" font-family="Helvetica,sans-Serif" font-size="10.00" fill="#000000">defines.hpp</text>
</g>
<!-- Node0&#45;&gt;Node1 -->
<g id="edge1" class="edge">
<title>Node0&#45;&gt;Node1</title>
<path fill="none" stroke="#191970" d="M51.61,-168.4734C38.2556,-159.2543 24.8329,-147.0291 17.5,-132 1.0598,-98.3049 15.9527,-53.7046 27.0383,-28.8284"/>
<polygon fill="#191970" stroke="#191970" points="30.2196,-30.288 31.3116,-19.7495 23.8861,-27.3068 30.2196,-30.288"/>
</g>
<!-- Node2 -->
<g id="node3" class="node">
<title>Node2</title>
<g id="a_node3"><a xlink:href="_abstract_debug_info_8hpp.html" target="_top" xlink:title="AbstractDebugInfo.hpp">
<polygon fill="none" stroke="#000000" points="26.5,-112.5 26.5,-131.5 154.5,-131.5 154.5,-112.5 26.5,-112.5"/>
<text text-anchor="middle" x="90.5" y="-119.5" font-family="Helvetica,sans-Serif" font-size="10.00" fill="#000000">AbstractDebugInfo.hpp</text>
</a>
</g>
</g>
<!-- Node0&#45;&gt;Node2 -->
<g id="edge2" class="edge">
<title>Node0&#45;&gt;Node2</title>
<path fill="none" stroke="#191970" d="M90.5,-168.168C90.5,-159.8226 90.5,-150.2471 90.5,-141.9879"/>
<polygon fill="#191970" stroke="#191970" points="94.0001,-141.7804 90.5,-131.7805 87.0001,-141.7805 94.0001,-141.7804"/>
</g>
<!-- Node4 -->
<g id="node5" class="node">
<title>Node4</title>
<polygon fill="none" stroke="#bfbfbf" points="173,-112.5 173,-131.5 214,-131.5 214,-112.5 173,-112.5"/>
<text text-anchor="middle" x="193.5" y="-119.5" font-family="Helvetica,sans-Serif" font-size="10.00" fill="#000000">bfd.h</text>
</g>
<!-- Node0&#45;&gt;Node4 -->
<g id="edge6" class="edge">
<title>Node0&#45;&gt;Node4</title>
<path fill="none" stroke="#191970" d="M122.2438,-168.3511C137.663,-158.3212 155.8671,-146.4797 170.0157,-137.2762"/>
<polygon fill="#191970" stroke="#191970" points="172.1837,-140.0413 178.6578,-131.6546 168.3667,-134.1735 172.1837,-140.0413"/>
</g>
<!-- Node2&#45;&gt;Node1 -->
<g id="edge3" class="edge">
<title>Node2&#45;&gt;Node1</title>
<path fill="none" stroke="#191970" d="M81.5615,-112.4888C73.6919,-103.6516 62.4348,-89.8105 55.5,-76 48.1428,-61.3484 43.2076,-43.3957 40.2151,-29.9148"/>
<polygon fill="#191970" stroke="#191970" points="43.5818,-28.9084 38.1478,-19.8133 36.7239,-30.312 43.5818,-28.9084"/>
</g>
<!-- Node3 -->
<g id="node4" class="node">
<title>Node3</title>
<g id="a_node4"><a xlink:href="_frame_8hpp.html" target="_top" xlink:title="Frame.hpp">
<polygon fill="none" stroke="#000000" points="64.5,-56.5 64.5,-75.5 132.5,-75.5 132.5,-56.5 64.5,-56.5"/>
<text text-anchor="middle" x="98.5" y="-63.5" font-family="Helvetica,sans-Serif" font-size="10.00" fill="#000000">Frame.hpp</text>
</a>
</g>
</g>
<!-- Node2&#45;&gt;Node3 -->
<g id="edge4" class="edge">
<title>Node2&#45;&gt;Node3</title>
<path fill="none" stroke="#191970" d="M91.8935,-112.2455C92.9374,-104.9382 94.4008,-94.6944 95.6851,-85.7046"/>
<polygon fill="#191970" stroke="#191970" points="99.173,-86.0372 97.1225,-75.6427 92.2434,-85.0472 99.173,-86.0372"/>
</g>
<!-- Node3&#45;&gt;Node1 -->
<g id="edge5" class="edge">
<title>Node3&#45;&gt;Node1</title>
<path fill="none" stroke="#191970" d="M87.7004,-56.2455C78.6322,-48.0549 65.4794,-36.1749 54.7755,-26.5069"/>
<polygon fill="#191970" stroke="#191970" points="56.9429,-23.7482 47.1758,-19.6427 52.2509,-28.9429 56.9429,-23.7482"/>
</g>
</g>
</svg>
