<?xml version="1.0" encoding="UTF-8" standalone="no"?>
<!DOCTYPE svg PUBLIC "-//W3C//DTD SVG 1.1//EN"
 "http://www.w3.org/Graphics/SVG/1.1/DTD/svg11.dtd">
<!-- Generated by graphviz version 2.40.1 (20161225.0304)
 -->
<!-- Title: /home/daniel/projects/tracer/src/debugInfo/libdwlf/DebugInfoDWLF.hpp Pages: 1 -->
<svg width="195pt" height="218pt"
 viewBox="0.00 0.00 194.50 218.00" xmlns="http://www.w3.org/2000/svg" xmlns:xlink="http://www.w3.org/1999/xlink">
<g id="graph0" class="graph" transform="scale(1 1) rotate(0) translate(4 214)">
<title>/home/daniel/projects/tracer/src/debugInfo/libdwlf/DebugInfoDWLF.hpp</title>
<!-- Node0 -->
<g id="node1" class="node">
<title>Node0</title>
<polygon fill="#bfbfbf" stroke="#000000" points="0,-168.5 0,-209.5 153,-209.5 153,-168.5 0,-168.5"/>
<text text-anchor="start" x="8" y="-197.5" font-family="Helvetica,sans-Serif" font-size="10.00" fill="#000000">/home/daniel/projects</text>
<text text-anchor="start" x="8" y="-186.5" font-family="Helvetica,sans-Serif" font-size="10.00" fill="#000000">/tracer/src/debugInfo</text>
<text text-anchor="middle" x="76.5" y="-175.5" font-family="Helvetica,sans-Serif" font-size="10.00" fill="#000000">/libdwlf/DebugInfoDWLF.hpp</text>
</g>
<!-- Node1 -->
<g id="node2" class="node">
<title>Node1</title>
<polygon fill="none" stroke="#bfbfbf" points="32,-.5 32,-19.5 105,-19.5 105,-.5 32,-.5"/>
<text text-anchor="middle" x="68.5" y="-7.5" font-family="Helvetica,sans-Serif" font-size="10.00" fill="#000000">defines.hpp</text>
</g>
<!-- Node0&#45;&gt;Node1 -->
<g id="edge1" class="edge">
<title>Node0&#45;&gt;Node1</title>
<path fill="none" stroke="#191970" d="M64.0347,-168.4217C58.3939,-157.9233 52.3587,-144.7129 49.5,-132 41.4252,-96.0906 52.7295,-53.4684 61.0497,-29.2923"/>
<polygon fill="#191970" stroke="#191970" points="64.4558,-30.1668 64.5822,-19.5727 57.8768,-27.7757 64.4558,-30.1668"/>
</g>
<!-- Node2 -->
<g id="node3" class="node">
<title>Node2</title>
<g id="a_node3"><a xlink:href="_abstract_debug_info_8hpp.html" target="_top" xlink:title="AbstractDebugInfo.hpp">
<polygon fill="none" stroke="#000000" points="58.5,-112.5 58.5,-131.5 186.5,-131.5 186.5,-112.5 58.5,-112.5"/>
<text text-anchor="middle" x="122.5" y="-119.5" font-family="Helvetica,sans-Serif" font-size="10.00" fill="#000000">AbstractDebugInfo.hpp</text>
</a>
</g>
</g>
<!-- Node0&#45;&gt;Node2 -->
<g id="edge2" class="edge">
<title>Node0&#45;&gt;Node2</title>
<path fill="none" stroke="#191970" d="M90.8025,-168.168C96.988,-159.1587 104.1577,-148.7159 110.1121,-140.0432"/>
<polygon fill="#191970" stroke="#191970" points="113.0104,-142.0055 115.7851,-131.7805 107.2395,-138.0435 113.0104,-142.0055"/>
</g>
<!-- Node2&#45;&gt;Node1 -->
<g id="edge3" class="edge">
<title>Node2&#45;&gt;Node1</title>
<path fill="none" stroke="#191970" d="M113.5615,-112.4888C105.6919,-103.6516 94.4348,-89.8105 87.5,-76 80.1428,-61.3484 75.2076,-43.3957 72.2151,-29.9148"/>
<polygon fill="#191970" stroke="#191970" points="75.5818,-28.9084 70.1478,-19.8133 68.7239,-30.312 75.5818,-28.9084"/>
</g>
<!-- Node3 -->
<g id="node4" class="node">
<title>Node3</title>
<g id="a_node4"><a xlink:href="_frame_8hpp.html" target="_top" xlink:title="Frame.hpp">
<polygon fill="none" stroke="#000000" points="96.5,-56.5 96.5,-75.5 164.5,-75.5 164.5,-56.5 96.5,-56.5"/>
<text text-anchor="middle" x="130.5" y="-63.5" font-family="Helvetica,sans-Serif" font-size="10.00" fill="#000000">Frame.hpp</text>
</a>
</g>
</g>
<!-- Node2&#45;&gt;Node3 -->
<g id="edge4" class="edge">
<title>Node2&#45;&gt;Node3</title>
<path fill="none" stroke="#191970" d="M123.8935,-112.2455C124.9374,-104.9382 126.4008,-94.6944 127.6851,-85.7046"/>
<polygon fill="#191970" stroke="#191970" points="131.173,-86.0372 129.1225,-75.6427 124.2434,-85.0472 131.173,-86.0372"/>
</g>
<!-- Node3&#45;&gt;Node1 -->
<g id="edge5" class="edge">
<title>Node3&#45;&gt;Node1</title>
<path fill="none" stroke="#191970" d="M119.7004,-56.2455C110.6322,-48.0549 97.4794,-36.1749 86.7755,-26.5069"/>
<polygon fill="#191970" stroke="#191970" points="88.9429,-23.7482 79.1758,-19.6427 84.2509,-28.9429 88.9429,-23.7482"/>
</g>
</g>
</svg>
