<?xml version="1.0" encoding="UTF-8" standalone="no"?>
<!DOCTYPE svg PUBLIC "-//W3C//DTD SVG 1.1//EN"
 "http://www.w3.org/Graphics/SVG/1.1/DTD/svg11.dtd">
<!-- Generated by graphviz version 2.40.1 (20161225.0304)
 -->
<!-- Title: /home/daniel/projects/tracer/src/debugInfo/windows/DebugInfoWIN32.cpp Pages: 1 -->
<svg width="312pt" height="274pt"
 viewBox="0.00 0.00 312.07 274.00" xmlns="http://www.w3.org/2000/svg" xmlns:xlink="http://www.w3.org/1999/xlink">
<g id="graph0" class="graph" transform="scale(1 1) rotate(0) translate(4 270)">
<title>/home/daniel/projects/tracer/src/debugInfo/windows/DebugInfoWIN32.cpp</title>
<!-- Node0 -->
<g id="node1" class="node">
<title>Node0</title>
<polygon fill="#bfbfbf" stroke="#000000" points="53.0715,-224.5 53.0715,-265.5 221.0715,-265.5 221.0715,-224.5 53.0715,-224.5"/>
<text text-anchor="start" x="61.0715" y="-253.5" font-family="Helvetica,sans-Serif" font-size="10.00" fill="#000000">/home/daniel/projects</text>
<text text-anchor="start" x="61.0715" y="-242.5" font-family="Helvetica,sans-Serif" font-size="10.00" fill="#000000">/tracer/src/debugInfo</text>
<text text-anchor="middle" x="137.0715" y="-231.5" font-family="Helvetica,sans-Serif" font-size="10.00" fill="#000000">/windows/DebugInfoWIN32.cpp</text>
</g>
<!-- Node1 -->
<g id="node2" class="node">
<title>Node1</title>
<polygon fill="none" stroke="#bfbfbf" points="14.5715,-.5 14.5715,-19.5 87.5715,-19.5 87.5715,-.5 14.5715,-.5"/>
<text text-anchor="middle" x="51.0715" y="-7.5" font-family="Helvetica,sans-Serif" font-size="10.00" fill="#000000">defines.hpp</text>
</g>
<!-- Node0&#45;&gt;Node1 -->
<g id="edge1" class="edge">
<title>Node0&#45;&gt;Node1</title>
<path fill="none" stroke="#191970" d="M57.6179,-224.4681C40.0451,-216.0839 23.5551,-204.3573 13.0715,-188 -19.6582,-136.9328 18.0592,-62.3716 38.9803,-28.26"/>
<polygon fill="#191970" stroke="#191970" points="41.9674,-30.085 44.3633,-19.7646 36.0545,-26.3384 41.9674,-30.085"/>
</g>
<!-- Node2 -->
<g id="node3" class="node">
<title>Node2</title>
<g id="a_node3"><a xlink:href="_debug_info_w_i_n32_8hpp.html" target="_top" xlink:title="DebugInfoWIN32.hpp">
<polygon fill="none" stroke="#000000" points="22.0715,-168.5 22.0715,-187.5 142.0715,-187.5 142.0715,-168.5 22.0715,-168.5"/>
<text text-anchor="middle" x="82.0715" y="-175.5" font-family="Helvetica,sans-Serif" font-size="10.00" fill="#000000">DebugInfoWIN32.hpp</text>
</a>
</g>
</g>
<!-- Node0&#45;&gt;Node2 -->
<g id="edge2" class="edge">
<title>Node0&#45;&gt;Node2</title>
<path fill="none" stroke="#191970" d="M119.9706,-224.168C112.4971,-215.0639 103.8218,-204.4959 96.6588,-195.7699"/>
<polygon fill="#191970" stroke="#191970" points="99.1505,-193.289 90.1002,-187.7805 93.7399,-197.7305 99.1505,-193.289"/>
</g>
<!-- Node5 -->
<g id="node6" class="node">
<title>Node5</title>
<polygon fill="none" stroke="#bfbfbf" points="160.5715,-168.5 160.5715,-187.5 225.5715,-187.5 225.5715,-168.5 160.5715,-168.5"/>
<text text-anchor="middle" x="193.0715" y="-175.5" font-family="Helvetica,sans-Serif" font-size="10.00" fill="#000000">dbghelp.h</text>
</g>
<!-- Node0&#45;&gt;Node5 -->
<g id="edge8" class="edge">
<title>Node0&#45;&gt;Node5</title>
<path fill="none" stroke="#191970" d="M154.4833,-224.168C162.172,-214.9691 171.1098,-204.2756 178.4464,-195.4979"/>
<polygon fill="#191970" stroke="#191970" points="181.1691,-197.6979 184.8968,-187.7805 175.7981,-193.2087 181.1691,-197.6979"/>
</g>
<!-- Node6 -->
<g id="node7" class="node">
<title>Node6</title>
<polygon fill="none" stroke="#bfbfbf" points="244.0715,-168.5 244.0715,-187.5 304.0715,-187.5 304.0715,-168.5 244.0715,-168.5"/>
<text text-anchor="middle" x="274.0715" y="-175.5" font-family="Helvetica,sans-Serif" font-size="10.00" fill="#000000">iostream</text>
</g>
<!-- Node0&#45;&gt;Node6 -->
<g id="edge9" class="edge">
<title>Node0&#45;&gt;Node6</title>
<path fill="none" stroke="#191970" d="M179.2939,-224.3511C200.6818,-213.8913 226.0982,-201.4614 245.2243,-192.1077"/>
<polygon fill="#191970" stroke="#191970" points="246.8843,-195.1921 254.3299,-187.6546 243.809,-188.9038 246.8843,-195.1921"/>
</g>
<!-- Node2&#45;&gt;Node1 -->
<g id="edge3" class="edge">
<title>Node2&#45;&gt;Node1</title>
<path fill="none" stroke="#191970" d="M72.9973,-168.3243C65.4752,-159.5913 55.3484,-145.9994 51.0715,-132 40.4457,-97.2192 44.0737,-54.2117 47.6151,-29.6594"/>
<polygon fill="#191970" stroke="#191970" points="51.0733,-30.1983 49.1846,-19.7731 44.1599,-29.1006 51.0733,-30.1983"/>
</g>
<!-- Node3 -->
<g id="node4" class="node">
<title>Node3</title>
<g id="a_node4"><a xlink:href="_abstract_debug_info_8hpp.html" target="_top" xlink:title="AbstractDebugInfo.hpp">
<polygon fill="none" stroke="#000000" points="60.0715,-112.5 60.0715,-131.5 188.0715,-131.5 188.0715,-112.5 60.0715,-112.5"/>
<text text-anchor="middle" x="124.0715" y="-119.5" font-family="Helvetica,sans-Serif" font-size="10.00" fill="#000000">AbstractDebugInfo.hpp</text>
</a>
</g>
</g>
<!-- Node2&#45;&gt;Node3 -->
<g id="edge4" class="edge">
<title>Node2&#45;&gt;Node3</title>
<path fill="none" stroke="#191970" d="M89.3873,-168.2455C95.2894,-160.3761 103.7457,-149.101 110.8308,-139.6542"/>
<polygon fill="#191970" stroke="#191970" points="113.6394,-141.7427 116.8395,-131.6427 108.0394,-137.5427 113.6394,-141.7427"/>
</g>
<!-- Node3&#45;&gt;Node1 -->
<g id="edge5" class="edge">
<title>Node3&#45;&gt;Node1</title>
<path fill="none" stroke="#191970" d="M116.1876,-112.3954C108.8362,-103.2684 97.7343,-89.0392 89.0715,-76 78.8099,-60.5544 68.3866,-42.2233 61.0587,-28.8042"/>
<polygon fill="#191970" stroke="#191970" points="63.9386,-26.7705 56.1123,-19.6291 57.777,-30.0924 63.9386,-26.7705"/>
</g>
<!-- Node4 -->
<g id="node5" class="node">
<title>Node4</title>
<g id="a_node5"><a xlink:href="_frame_8hpp.html" target="_top" xlink:title="Frame.hpp">
<polygon fill="none" stroke="#000000" points="98.0715,-56.5 98.0715,-75.5 166.0715,-75.5 166.0715,-56.5 98.0715,-56.5"/>
<text text-anchor="middle" x="132.0715" y="-63.5" font-family="Helvetica,sans-Serif" font-size="10.00" fill="#000000">Frame.hpp</text>
</a>
</g>
</g>
<!-- Node3&#45;&gt;Node4 -->
<g id="edge6" class="edge">
<title>Node3&#45;&gt;Node4</title>
<path fill="none" stroke="#191970" d="M125.465,-112.2455C126.5089,-104.9382 127.9723,-94.6944 129.2565,-85.7046"/>
<polygon fill="#191970" stroke="#191970" points="132.7445,-86.0372 130.694,-75.6427 125.8148,-85.0472 132.7445,-86.0372"/>
</g>
<!-- Node4&#45;&gt;Node1 -->
<g id="edge7" class="edge">
<title>Node4&#45;&gt;Node1</title>
<path fill="none" stroke="#191970" d="M117.9624,-56.2455C105.6506,-47.7337 87.5757,-35.2375 73.3177,-25.3801"/>
<polygon fill="#191970" stroke="#191970" points="75.2349,-22.4506 65.0189,-19.6427 71.2541,-28.2085 75.2349,-22.4506"/>
</g>
</g>
</svg>
