<?xml version="1.0" encoding="UTF-8" standalone="no"?>
<!DOCTYPE svg PUBLIC "-//W3C//DTD SVG 1.1//EN"
 "http://www.w3.org/Graphics/SVG/1.1/DTD/svg11.dtd">
<!-- Generated by graphviz version 2.40.1 (20161225.0304)
 -->
<!-- Title: /home/daniel/projects/tracer/src/debugInfo/dummy/DebugInfoDummy.hpp Pages: 1 -->
<svg width="316pt" height="128pt"
 viewBox="0.00 0.00 316.00 128.00" xmlns="http://www.w3.org/2000/svg" xmlns:xlink="http://www.w3.org/1999/xlink">
<g id="graph0" class="graph" transform="scale(1 1) rotate(0) translate(4 124)">
<title>/home/daniel/projects/tracer/src/debugInfo/dummy/DebugInfoDummy.hpp</title>
<!-- Node4 -->
<g id="node1" class="node">
<title>Node4</title>
<polygon fill="#bfbfbf" stroke="#000000" points="80.5,-78.5 80.5,-119.5 249.5,-119.5 249.5,-78.5 80.5,-78.5"/>
<text text-anchor="start" x="88.5" y="-107.5" font-family="Helvetica,sans-Serif" font-size="10.00" fill="#000000">/home/daniel/projects</text>
<text text-anchor="start" x="88.5" y="-96.5" font-family="Helvetica,sans-Serif" font-size="10.00" fill="#000000">/tracer/src/debugInfo</text>
<text text-anchor="middle" x="165" y="-85.5" font-family="Helvetica,sans-Serif" font-size="10.00" fill="#000000">/dummy/DebugInfoDummy.hpp</text>
</g>
<!-- Node5 -->
<g id="node2" class="node">
<title>Node5</title>
<g id="a_node2"><a xlink:href="_debug_info_dummy_8cpp.html" target="_top" xlink:title="/home/daniel/projects\l/tracer/src/debugInfo\l/dummy/DebugInfoDummy.cpp">
<polygon fill="none" stroke="#000000" points="0,-.5 0,-41.5 168,-41.5 168,-.5 0,-.5"/>
<text text-anchor="start" x="8" y="-29.5" font-family="Helvetica,sans-Serif" font-size="10.00" fill="#000000">/home/daniel/projects</text>
<text text-anchor="start" x="8" y="-18.5" font-family="Helvetica,sans-Serif" font-size="10.00" fill="#000000">/tracer/src/debugInfo</text>
<text text-anchor="middle" x="84" y="-7.5" font-family="Helvetica,sans-Serif" font-size="10.00" fill="#000000">/dummy/DebugInfoDummy.cpp</text>
</a>
</g>
</g>
<!-- Node4&#45;&gt;Node5 -->
<g id="edge1" class="edge">
<title>Node4&#45;&gt;Node5</title>
<path fill="none" stroke="#191970" d="M135.8662,-70.9452C125.8361,-61.2866 114.7941,-50.6535 105.4856,-41.6898"/>
<polygon fill="#191970" stroke="#191970" points="133.6625,-73.6821 143.2935,-78.0974 138.518,-68.6399 133.6625,-73.6821"/>
</g>
<!-- Node6 -->
<g id="node3" class="node">
<title>Node6</title>
<g id="a_node3"><a xlink:href="_tracer_8cpp.html" target="_top" xlink:title="/home/daniel/projects\l/tracer/src/Tracer.cpp">
<polygon fill="none" stroke="#000000" points="186,-6 186,-36 308,-36 308,-6 186,-6"/>
<text text-anchor="start" x="194" y="-24" font-family="Helvetica,sans-Serif" font-size="10.00" fill="#000000">/home/daniel/projects</text>
<text text-anchor="middle" x="247" y="-13" font-family="Helvetica,sans-Serif" font-size="10.00" fill="#000000">/tracer/src/Tracer.cpp</text>
</a>
</g>
</g>
<!-- Node4&#45;&gt;Node6 -->
<g id="edge2" class="edge">
<title>Node4&#45;&gt;Node6</title>
<path fill="none" stroke="#191970" d="M194.4553,-70.9816C206.8614,-59.1807 220.8028,-45.9193 231.2063,-36.0233"/>
<polygon fill="#191970" stroke="#191970" points="191.8078,-68.6693 186.9745,-78.0974 196.6324,-73.7412 191.8078,-68.6693"/>
</g>
</g>
</svg>
