<?xml version="1.0" encoding="UTF-8" standalone="no"?>
<!DOCTYPE svg PUBLIC "-//W3C//DTD SVG 1.1//EN"
 "http://www.w3.org/Graphics/SVG/1.1/DTD/svg11.dtd">
<!-- Generated by graphviz version 2.40.1 (20161225.0304)
 -->
<!-- Title: /home/daniel/projects/tracer/src/debugInfo/dummy/DebugInfoDummy.hpp Pages: 1 -->
<svg width="203pt" height="218pt"
 viewBox="0.00 0.00 202.50 218.00" xmlns="http://www.w3.org/2000/svg" xmlns:xlink="http://www.w3.org/1999/xlink">
<g id="graph0" class="graph" transform="scale(1 1) rotate(0) translate(4 214)">
<title>/home/daniel/projects/tracer/src/debugInfo/dummy/DebugInfoDummy.hpp</title>
<!-- Node0 -->
<g id="node1" class="node">
<title>Node0</title>
<polygon fill="#bfbfbf" stroke="#000000" points="0,-168.5 0,-209.5 169,-209.5 169,-168.5 0,-168.5"/>
<text text-anchor="start" x="8" y="-197.5" font-family="Helvetica,sans-Serif" font-size="10.00" fill="#000000">/home/daniel/projects</text>
<text text-anchor="start" x="8" y="-186.5" font-family="Helvetica,sans-Serif" font-size="10.00" fill="#000000">/tracer/src/debugInfo</text>
<text text-anchor="middle" x="84.5" y="-175.5" font-family="Helvetica,sans-Serif" font-size="10.00" fill="#000000">/dummy/DebugInfoDummy.hpp</text>
</g>
<!-- Node1 -->
<g id="node2" class="node">
<title>Node1</title>
<polygon fill="none" stroke="#bfbfbf" points="40,-.5 40,-19.5 113,-19.5 113,-.5 40,-.5"/>
<text text-anchor="middle" x="76.5" y="-7.5" font-family="Helvetica,sans-Serif" font-size="10.00" fill="#000000">defines.hpp</text>
</g>
<!-- Node0&#45;&gt;Node1 -->
<g id="edge1" class="edge">
<title>Node0&#45;&gt;Node1</title>
<path fill="none" stroke="#191970" d="M72.0347,-168.4217C66.3939,-157.9233 60.3587,-144.7129 57.5,-132 49.4252,-96.0906 60.7295,-53.4684 69.0497,-29.2923"/>
<polygon fill="#191970" stroke="#191970" points="72.4558,-30.1668 72.5822,-19.5727 65.8768,-27.7757 72.4558,-30.1668"/>
</g>
<!-- Node2 -->
<g id="node3" class="node">
<title>Node2</title>
<g id="a_node3"><a xlink:href="_abstract_debug_info_8hpp.html" target="_top" xlink:title="AbstractDebugInfo.hpp">
<polygon fill="none" stroke="#000000" points="66.5,-112.5 66.5,-131.5 194.5,-131.5 194.5,-112.5 66.5,-112.5"/>
<text text-anchor="middle" x="130.5" y="-119.5" font-family="Helvetica,sans-Serif" font-size="10.00" fill="#000000">AbstractDebugInfo.hpp</text>
</a>
</g>
</g>
<!-- Node0&#45;&gt;Node2 -->
<g id="edge2" class="edge">
<title>Node0&#45;&gt;Node2</title>
<path fill="none" stroke="#191970" d="M98.8025,-168.168C104.988,-159.1587 112.1577,-148.7159 118.1121,-140.0432"/>
<polygon fill="#191970" stroke="#191970" points="121.0104,-142.0055 123.7851,-131.7805 115.2395,-138.0435 121.0104,-142.0055"/>
</g>
<!-- Node2&#45;&gt;Node1 -->
<g id="edge3" class="edge">
<title>Node2&#45;&gt;Node1</title>
<path fill="none" stroke="#191970" d="M121.5615,-112.4888C113.6919,-103.6516 102.4348,-89.8105 95.5,-76 88.1428,-61.3484 83.2076,-43.3957 80.2151,-29.9148"/>
<polygon fill="#191970" stroke="#191970" points="83.5818,-28.9084 78.1478,-19.8133 76.7239,-30.312 83.5818,-28.9084"/>
</g>
<!-- Node3 -->
<g id="node4" class="node">
<title>Node3</title>
<g id="a_node4"><a xlink:href="_frame_8hpp.html" target="_top" xlink:title="Frame.hpp">
<polygon fill="none" stroke="#000000" points="104.5,-56.5 104.5,-75.5 172.5,-75.5 172.5,-56.5 104.5,-56.5"/>
<text text-anchor="middle" x="138.5" y="-63.5" font-family="Helvetica,sans-Serif" font-size="10.00" fill="#000000">Frame.hpp</text>
</a>
</g>
</g>
<!-- Node2&#45;&gt;Node3 -->
<g id="edge4" class="edge">
<title>Node2&#45;&gt;Node3</title>
<path fill="none" stroke="#191970" d="M131.8935,-112.2455C132.9374,-104.9382 134.4008,-94.6944 135.6851,-85.7046"/>
<polygon fill="#191970" stroke="#191970" points="139.173,-86.0372 137.1225,-75.6427 132.2434,-85.0472 139.173,-86.0372"/>
</g>
<!-- Node3&#45;&gt;Node1 -->
<g id="edge5" class="edge">
<title>Node3&#45;&gt;Node1</title>
<path fill="none" stroke="#191970" d="M127.7004,-56.2455C118.6322,-48.0549 105.4794,-36.1749 94.7755,-26.5069"/>
<polygon fill="#191970" stroke="#191970" points="96.9429,-23.7482 87.1758,-19.6427 92.2509,-28.9429 96.9429,-23.7482"/>
</g>
</g>
</svg>
