<?xml version="1.0" encoding="UTF-8" standalone="no"?>
<!DOCTYPE svg PUBLIC "-//W3C//DTD SVG 1.1//EN"
 "http://www.w3.org/Graphics/SVG/1.1/DTD/svg11.dtd">
<!-- Generated by graphviz version 2.40.1 (20161225.0304)
 -->
<!-- Title: /home/daniel/projects/tracer/src/debugInfo/externalFallback/DebugInfoExternalFallback.cpp Pages: 1 -->
<!--zoomable 285 -->
<svg id="main" version="1.1" xmlns="http://www.w3.org/2000/svg" xmlns:xlink="http://www.w3.org/1999/xlink" xml:space="preserve" onload="init(evt)">
<style type="text/css"><![CDATA[
.edge:hover path { stroke: red; }
.edge:hover polygon { stroke: red; fill: red; }
]]></style>
<script type="text/javascript"><![CDATA[
var edges = document.getElementsByTagName('g');
if (edges && edges.length) {
  for (var i=0;i<edges.length;i++) {
    if (edges[i].id.substr(0,4)=='edge') {
      edges[i].setAttribute('class','edge');
    }
  }
}
]]></script>
        <defs>
                <circle id="rim" cx="0" cy="0" r="7"/>
                <circle id="rim2" cx="0" cy="0" r="3.5"/>
                <g id="zoomPlus">
                        <use xlink:href="#rim" fill="#404040">
                                <set attributeName="fill" to="#808080" begin="zoomplus.mouseover" end="zoomplus.mouseout"/>
                        </use>
                        <path d="M-4,0h8M0,-4v8" fill="none" stroke="white" stroke-width="1.5" pointer-events="none"/>
                </g>
                <g id="zoomMin">
                        <use xlink:href="#rim" fill="#404040">
                                <set attributeName="fill" to="#808080" begin="zoomminus.mouseover" end="zoomminus.mouseout"/>
                        </use>
                        <path d="M-4,0h8" fill="none" stroke="white" stroke-width="1.5" pointer-events="none"/>
                </g>
                <g id="dirArrow">
                        <path fill="none" stroke="white" stroke-width="1.5" d="M0,-3.0v7 M-2.5,-0.5L0,-3.0L2.5,-0.5"/>
                </g>
               <g id="resetDef">
                       <use xlink:href="#rim2" fill="#404040">
                               <set attributeName="fill" to="#808080" begin="reset.mouseover" end="reset.mouseout"/>
                       </use>
               </g>
        </defs>

<script type="text/javascript">
var viewWidth = 551;
var viewHeight = 285;
var sectionId = 'dynsection-0';
</script>
<script xlink:href="svgpan.js"/>
<svg id="graph" class="graph">
<g id="viewport">
<title>/home/daniel/projects/tracer/src/debugInfo/externalFallback/DebugInfoExternalFallback.cpp</title>
<!-- Node0 -->
<g id="node1" class="node">
<title>Node0</title>
<polygon fill="#bfbfbf" stroke="#000000" points="212.0028,-224.5 212.0028,-276.5 406.0028,-276.5 406.0028,-224.5 212.0028,-224.5"/>
<text text-anchor="start" x="220.0028" y="-264.5" font-family="Helvetica,sans-Serif" font-size="10.00" fill="#000000">/home/daniel/projects</text>
<text text-anchor="start" x="220.0028" y="-253.5" font-family="Helvetica,sans-Serif" font-size="10.00" fill="#000000">/tracer/src/debugInfo</text>
<text text-anchor="start" x="220.0028" y="-242.5" font-family="Helvetica,sans-Serif" font-size="10.00" fill="#000000">/externalFallback/DebugInfoExternal</text>
<text text-anchor="middle" x="309.0028" y="-231.5" font-family="Helvetica,sans-Serif" font-size="10.00" fill="#000000">Fallback.cpp</text>
</g>
<!-- Node1 -->
<g id="node2" class="node">
<title>Node1</title>
<polygon fill="none" stroke="#bfbfbf" points="17.5028,-.5 17.5028,-19.5 90.5028,-19.5 90.5028,-.5 17.5028,-.5"/>
<text text-anchor="middle" x="54.0028" y="-7.5" font-family="Helvetica,sans-Serif" font-size="10.00" fill="#000000">defines.hpp</text>
</g>
<!-- Node0&#45;&gt;Node1 -->
<g id="edge1" class="edge">
<title>Node0&#45;&gt;Node1</title>
<path fill="none" stroke="#191970" d="M211.7649,-242.7419C136.2756,-234.4619 40.4595,-218.2237 16.0028,-188 -22.3336,-140.6235 18.6628,-63.6012 41.2149,-28.4932"/>
<polygon fill="#191970" stroke="#191970" points="44.3953,-30.0302 47.0053,-19.7619 38.5615,-26.1614 44.3953,-30.0302"/>
</g>
<!-- Node2 -->
<g id="node3" class="node">
<title>Node2</title>
<g id="a_node3"><a xlink:href="_debug_info_external_fallback_8hpp.html" target="_top" xlink:title="DebugInfoExternalFallback.hpp">
<polygon fill="none" stroke="#000000" points="25.0028,-168.5 25.0028,-187.5 193.0028,-187.5 193.0028,-168.5 25.0028,-168.5"/>
<text text-anchor="middle" x="109.0028" y="-175.5" font-family="Helvetica,sans-Serif" font-size="10.00" fill="#000000">DebugInfoExternalFallback.hpp</text>
</a>
</g>
</g>
<!-- Node0&#45;&gt;Node2 -->
<g id="edge2" class="edge">
<title>Node0&#45;&gt;Node2</title>
<path fill="none" stroke="#191970" d="M237.0808,-224.4283C205.8395,-213.1033 170.6196,-200.3361 145.0314,-191.0604"/>
<polygon fill="#191970" stroke="#191970" points="145.9765,-187.6802 135.3823,-187.5626 143.5909,-194.2611 145.9765,-187.6802"/>
</g>
<!-- Node5 -->
<g id="node6" class="node">
<title>Node5</title>
<polygon fill="none" stroke="#bfbfbf" points="211.0028,-168.5 211.0028,-187.5 261.0028,-187.5 261.0028,-168.5 211.0028,-168.5"/>
<text text-anchor="middle" x="236.0028" y="-175.5" font-family="Helvetica,sans-Serif" font-size="10.00" fill="#000000">dlfcn.h</text>
</g>
<!-- Node0&#45;&gt;Node5 -->
<g id="edge8" class="edge">
<title>Node0&#45;&gt;Node5</title>
<path fill="none" stroke="#191970" d="M282.6481,-224.3258C272.6666,-214.4127 261.5856,-203.4075 252.7292,-194.6118"/>
<polygon fill="#191970" stroke="#191970" points="255.1643,-192.0974 245.6026,-187.534 250.2316,-197.0641 255.1643,-192.0974"/>
</g>
<!-- Node6 -->
<g id="node7" class="node">
<title>Node6</title>
<polygon fill="none" stroke="#bfbfbf" points="279.0028,-168.5 279.0028,-187.5 339.0028,-187.5 339.0028,-168.5 279.0028,-168.5"/>
<text text-anchor="middle" x="309.0028" y="-175.5" font-family="Helvetica,sans-Serif" font-size="10.00" fill="#000000">iostream</text>
</g>
<!-- Node0&#45;&gt;Node6 -->
<g id="edge9" class="edge">
<title>Node0&#45;&gt;Node6</title>
<path fill="none" stroke="#191970" d="M309.0028,-224.3258C309.0028,-215.5142 309.0028,-205.8397 309.0028,-197.621"/>
<polygon fill="#191970" stroke="#191970" points="312.5029,-197.534 309.0028,-187.534 305.5029,-197.534 312.5029,-197.534"/>
</g>
<!-- Node7 -->
<g id="node8" class="node">
<title>Node7</title>
<polygon fill="none" stroke="#bfbfbf" points="357.0028,-168.5 357.0028,-187.5 401.0028,-187.5 401.0028,-168.5 357.0028,-168.5"/>
<text text-anchor="middle" x="379.0028" y="-175.5" font-family="Helvetica,sans-Serif" font-size="10.00" fill="#000000">regex</text>
</g>
<!-- Node0&#45;&gt;Node7 -->
<g id="edge10" class="edge">
<title>Node0&#45;&gt;Node7</title>
<path fill="none" stroke="#191970" d="M334.2744,-224.3258C343.749,-214.5128 354.2568,-203.6298 362.7058,-194.879"/>
<polygon fill="#191970" stroke="#191970" points="365.3695,-197.1591 369.7976,-187.534 360.3337,-192.297 365.3695,-197.1591"/>
</g>
<!-- Node8 -->
<g id="node9" class="node">
<title>Node8</title>
<polygon fill="none" stroke="#bfbfbf" points="419.0028,-168.5 419.0028,-187.5 475.0028,-187.5 475.0028,-168.5 419.0028,-168.5"/>
<text text-anchor="middle" x="447.0028" y="-175.5" font-family="Helvetica,sans-Serif" font-size="10.00" fill="#000000">sstream</text>
</g>
<!-- Node0&#45;&gt;Node8 -->
<g id="edge11" class="edge">
<title>Node0&#45;&gt;Node8</title>
<path fill="none" stroke="#191970" d="M358.824,-224.3258C379.4085,-213.5115 402.4667,-201.3976 419.8401,-192.2703"/>
<polygon fill="#191970" stroke="#191970" points="421.6305,-195.2833 428.8553,-187.534 418.3748,-189.0865 421.6305,-195.2833"/>
</g>
<!-- Node9 -->
<g id="node10" class="node">
<title>Node9</title>
<polygon fill="none" stroke="#bfbfbf" points="493.0028,-168.5 493.0028,-187.5 543.0028,-187.5 543.0028,-168.5 493.0028,-168.5"/>
<text text-anchor="middle" x="518.0028" y="-175.5" font-family="Helvetica,sans-Serif" font-size="10.00" fill="#000000">stdio.h</text>
</g>
<!-- Node0&#45;&gt;Node9 -->
<g id="edge12" class="edge">
<title>Node0&#45;&gt;Node9</title>
<path fill="none" stroke="#191970" d="M384.1613,-224.4283C417.9906,-212.6932 456.2841,-199.4096 483.2175,-190.0667"/>
<polygon fill="#191970" stroke="#191970" points="484.6501,-193.2744 492.9507,-186.6903 482.3559,-186.661 484.6501,-193.2744"/>
</g>
<!-- Node2&#45;&gt;Node1 -->
<g id="edge3" class="edge">
<title>Node2&#45;&gt;Node1</title>
<path fill="none" stroke="#191970" d="M90.7195,-168.4509C77.8171,-160.5902 61.5387,-148.1269 54.0028,-132 38.4592,-98.7365 43.966,-54.5819 49.1421,-29.5377"/>
<polygon fill="#191970" stroke="#191970" points="52.5585,-30.2977 51.349,-19.7721 45.7307,-28.7546 52.5585,-30.2977"/>
</g>
<!-- Node3 -->
<g id="node4" class="node">
<title>Node3</title>
<g id="a_node4"><a xlink:href="_abstract_debug_info_8hpp.html" target="_top" xlink:title="AbstractDebugInfo.hpp">
<polygon fill="none" stroke="#000000" points="63.0028,-112.5 63.0028,-131.5 191.0028,-131.5 191.0028,-112.5 63.0028,-112.5"/>
<text text-anchor="middle" x="127.0028" y="-119.5" font-family="Helvetica,sans-Serif" font-size="10.00" fill="#000000">AbstractDebugInfo.hpp</text>
</a>
</g>
</g>
<!-- Node2&#45;&gt;Node3 -->
<g id="edge4" class="edge">
<title>Node2&#45;&gt;Node3</title>
<path fill="none" stroke="#191970" d="M112.1382,-168.2455C114.5128,-160.8579 117.8521,-150.4689 120.7643,-141.4087"/>
<polygon fill="#191970" stroke="#191970" points="124.1753,-142.234 123.9034,-131.6427 117.5111,-140.0919 124.1753,-142.234"/>
</g>
<!-- Node3&#45;&gt;Node1 -->
<g id="edge5" class="edge">
<title>Node3&#45;&gt;Node1</title>
<path fill="none" stroke="#191970" d="M119.119,-112.3954C111.7675,-103.2684 100.6657,-89.0392 92.0028,-76 81.7412,-60.5544 71.3179,-42.2233 63.99,-28.8042"/>
<polygon fill="#191970" stroke="#191970" points="66.8699,-26.7705 59.0436,-19.6291 60.7083,-30.0924 66.8699,-26.7705"/>
</g>
<!-- Node4 -->
<g id="node5" class="node">
<title>Node4</title>
<g id="a_node5"><a xlink:href="_frame_8hpp.html" target="_top" xlink:title="Frame.hpp">
<polygon fill="none" stroke="#000000" points="101.0028,-56.5 101.0028,-75.5 169.0028,-75.5 169.0028,-56.5 101.0028,-56.5"/>
<text text-anchor="middle" x="135.0028" y="-63.5" font-family="Helvetica,sans-Serif" font-size="10.00" fill="#000000">Frame.hpp</text>
</a>
</g>
</g>
<!-- Node3&#45;&gt;Node4 -->
<g id="edge6" class="edge">
<title>Node3&#45;&gt;Node4</title>
<path fill="none" stroke="#191970" d="M128.3963,-112.2455C129.4402,-104.9382 130.9036,-94.6944 132.1879,-85.7046"/>
<polygon fill="#191970" stroke="#191970" points="135.6758,-86.0372 133.6253,-75.6427 128.7462,-85.0472 135.6758,-86.0372"/>
</g>
<!-- Node4&#45;&gt;Node1 -->
<g id="edge7" class="edge">
<title>Node4&#45;&gt;Node1</title>
<path fill="none" stroke="#191970" d="M120.8937,-56.2455C108.5819,-47.7337 90.507,-35.2375 76.249,-25.3801"/>
<polygon fill="#191970" stroke="#191970" points="78.1662,-22.4506 67.9503,-19.6427 74.1854,-28.2085 78.1662,-22.4506"/>
</g>
</g>
</svg>
        <g id="navigator" transform="translate(0 0)" fill="#404254">
                <rect fill="#f2f5e9" fill-opacity="0.5" stroke="#606060" stroke-width=".5" x="0" y="0" width="60" height="60"/>
                <use id="zoomplus" xlink:href="#zoomPlus" x="17" y="9" onmousedown="handleZoom(evt,'in')"/>
                <use id="zoomminus" xlink:href="#zoomMin" x="42" y="9" onmousedown="handleZoom(evt,'out')"/>
                <use id="reset" xlink:href="#resetDef" x="30" y="36" onmousedown="handleReset()"/>
                <g id="arrowUp" xlink:href="#dirArrow" transform="translate(30 24)" onmousedown="handlePan(0,-1)">
                  <use xlink:href="#rim" fill="#404040">
                        <set attributeName="fill" to="#808080" begin="arrowUp.mouseover" end="arrowUp.mouseout"/>
                  </use>
                  <path fill="none" stroke="white" stroke-width="1.5" d="M0,-3.0v7 M-2.5,-0.5L0,-3.0L2.5,-0.5"/>
                </g>
                <g id="arrowRight" xlink:href="#dirArrow" transform="rotate(90) translate(36 -43)" onmousedown="handlePan(1,0)">
                  <use xlink:href="#rim" fill="#404040">
                        <set attributeName="fill" to="#808080" begin="arrowRight.mouseover" end="arrowRight.mouseout"/>
                  </use>
                  <path fill="none" stroke="white" stroke-width="1.5" d="M0,-3.0v7 M-2.5,-0.5L0,-3.0L2.5,-0.5"/>
                </g>
                <g id="arrowDown" xlink:href="#dirArrow" transform="rotate(180) translate(-30 -48)" onmousedown="handlePan(0,1)">
                  <use xlink:href="#rim" fill="#404040">
                        <set attributeName="fill" to="#808080" begin="arrowDown.mouseover" end="arrowDown.mouseout"/>
                  </use>
                  <path fill="none" stroke="white" stroke-width="1.5" d="M0,-3.0v7 M-2.5,-0.5L0,-3.0L2.5,-0.5"/>
                </g>
                <g id="arrowLeft" xlink:href="#dirArrow" transform="rotate(270) translate(-36 17)" onmousedown="handlePan(-1,0)">
                  <use xlink:href="#rim" fill="#404040">
                        <set attributeName="fill" to="#808080" begin="arrowLeft.mouseover" end="arrowLeft.mouseout"/>
                  </use>
                  <path fill="none" stroke="white" stroke-width="1.5" d="M0,-3.0v7 M-2.5,-0.5L0,-3.0L2.5,-0.5"/>
                </g>
        </g>
        <svg viewBox="0 0 15 15" width="100%" height="30px" preserveAspectRatio="xMaxYMin meet">
         <g id="arrow_out" transform="scale(0.3 0.3)">
          <a xlink:href="_debug_info_external_fallback_8cpp__incl_org.svg" target="_base">
           <rect id="button" ry="5" rx="5" y="6" x="6" height="38" width="38"
                fill="#f2f5e9" fill-opacity="0.5" stroke="#606060" stroke-width="1.0"/>
           <path id="arrow"
             d="M 11.500037,31.436501 C 11.940474,20.09759 22.043105,11.32322 32.158766,21.979434 L 37.068811,17.246167 C 37.068811,17.246167 37.088388,32 37.088388,32 L 22.160133,31.978069 C 22.160133,31.978069 26.997745,27.140456 26.997745,27.140456 C 18.528582,18.264221 13.291696,25.230495 11.500037,31.436501 z"
             style="fill:#404040;"/>
          </a>
         </g>
        </svg>
</svg>
