<?xml version="1.0" encoding="UTF-8" standalone="no"?>
<!DOCTYPE svg PUBLIC "-//W3C//DTD SVG 1.1//EN"
 "http://www.w3.org/Graphics/SVG/1.1/DTD/svg11.dtd">
<!-- Generated by graphviz version 2.40.1 (20161225.0304)
 -->
<!-- Title: /home/daniel/projects/tracer/src/debugInfo/libbfd/DebugInfoBFD.cpp Pages: 1 -->
<svg width="516pt" height="274pt"
 viewBox="0.00 0.00 515.50 274.00" xmlns="http://www.w3.org/2000/svg" xmlns:xlink="http://www.w3.org/1999/xlink">
<g id="graph0" class="graph" transform="scale(1 1) rotate(0) translate(4 270)">
<title>/home/daniel/projects/tracer/src/debugInfo/libbfd/DebugInfoBFD.cpp</title>
<!-- Node0 -->
<g id="node1" class="node">
<title>Node0</title>
<polygon fill="#bfbfbf" stroke="#000000" points="188.5,-224.5 188.5,-265.5 328.5,-265.5 328.5,-224.5 188.5,-224.5"/>
<text text-anchor="start" x="196.5" y="-253.5" font-family="Helvetica,sans-Serif" font-size="10.00" fill="#000000">/home/daniel/projects</text>
<text text-anchor="start" x="196.5" y="-242.5" font-family="Helvetica,sans-Serif" font-size="10.00" fill="#000000">/tracer/src/debugInfo</text>
<text text-anchor="middle" x="258.5" y="-231.5" font-family="Helvetica,sans-Serif" font-size="10.00" fill="#000000">/libbfd/DebugInfoBFD.cpp</text>
</g>
<!-- Node1 -->
<g id="node2" class="node">
<title>Node1</title>
<polygon fill="none" stroke="#bfbfbf" points="0,-.5 0,-19.5 73,-19.5 73,-.5 0,-.5"/>
<text text-anchor="middle" x="36.5" y="-7.5" font-family="Helvetica,sans-Serif" font-size="10.00" fill="#000000">defines.hpp</text>
</g>
<!-- Node0&#45;&gt;Node1 -->
<g id="edge1" class="edge">
<title>Node0&#45;&gt;Node1</title>
<path fill="none" stroke="#191970" d="M188.2078,-237.5671C126.2904,-229.398 42.869,-213.8744 22.5,-188 -14.3226,-141.225 11.9796,-64.4584 27.4202,-29.0204"/>
<polygon fill="#191970" stroke="#191970" points="30.658,-30.3551 31.604,-19.8026 24.2838,-27.4619 30.658,-30.3551"/>
</g>
<!-- Node2 -->
<g id="node3" class="node">
<title>Node2</title>
<g id="a_node3"><a xlink:href="_debug_info_b_f_d_8hpp.html" target="_top" xlink:title="DebugInfoBFD.hpp">
<polygon fill="none" stroke="#000000" points="32,-168.5 32,-187.5 139,-187.5 139,-168.5 32,-168.5"/>
<text text-anchor="middle" x="85.5" y="-175.5" font-family="Helvetica,sans-Serif" font-size="10.00" fill="#000000">DebugInfoBFD.hpp</text>
</a>
</g>
</g>
<!-- Node0&#45;&gt;Node2 -->
<g id="edge2" class="edge">
<title>Node0&#45;&gt;Node2</title>
<path fill="none" stroke="#191970" d="M205.1827,-224.3511C177.4346,-213.6047 144.3169,-200.7788 119.9605,-191.346"/>
<polygon fill="#191970" stroke="#191970" points="121.0183,-188.0024 110.4291,-187.6546 118.4902,-194.5299 121.0183,-188.0024"/>
</g>
<!-- Node6 -->
<g id="node7" class="node">
<title>Node6</title>
<polygon fill="none" stroke="#bfbfbf" points="157.5,-168.5 157.5,-187.5 215.5,-187.5 215.5,-168.5 157.5,-168.5"/>
<text text-anchor="middle" x="186.5" y="-175.5" font-family="Helvetica,sans-Serif" font-size="10.00" fill="#000000">cxxabi.h</text>
</g>
<!-- Node0&#45;&gt;Node6 -->
<g id="edge9" class="edge">
<title>Node0&#45;&gt;Node6</title>
<path fill="none" stroke="#191970" d="M236.1134,-224.168C225.9222,-214.6846 214.0241,-203.6127 204.4345,-194.689"/>
<polygon fill="#191970" stroke="#191970" points="206.7154,-192.0306 197.0104,-187.7805 201.9468,-197.1551 206.7154,-192.0306"/>
</g>
<!-- Node7 -->
<g id="node8" class="node">
<title>Node7</title>
<polygon fill="none" stroke="#bfbfbf" points="233.5,-168.5 233.5,-187.5 283.5,-187.5 283.5,-168.5 233.5,-168.5"/>
<text text-anchor="middle" x="258.5" y="-175.5" font-family="Helvetica,sans-Serif" font-size="10.00" fill="#000000">dlfcn.h</text>
</g>
<!-- Node0&#45;&gt;Node7 -->
<g id="edge10" class="edge">
<title>Node0&#45;&gt;Node7</title>
<path fill="none" stroke="#191970" d="M258.5,-224.168C258.5,-215.8226 258.5,-206.2471 258.5,-197.9879"/>
<polygon fill="#191970" stroke="#191970" points="262.0001,-197.7804 258.5,-187.7805 255.0001,-197.7805 262.0001,-197.7804"/>
</g>
<!-- Node8 -->
<g id="node9" class="node">
<title>Node8</title>
<polygon fill="none" stroke="#bfbfbf" points="301.5,-168.5 301.5,-187.5 361.5,-187.5 361.5,-168.5 301.5,-168.5"/>
<text text-anchor="middle" x="331.5" y="-175.5" font-family="Helvetica,sans-Serif" font-size="10.00" fill="#000000">iostream</text>
</g>
<!-- Node0&#45;&gt;Node8 -->
<g id="edge11" class="edge">
<title>Node0&#45;&gt;Node8</title>
<path fill="none" stroke="#191970" d="M281.1975,-224.168C291.5302,-214.6846 303.5936,-203.6127 313.3164,-194.689"/>
<polygon fill="#191970" stroke="#191970" points="315.8429,-197.1209 320.8437,-187.7805 311.1096,-191.9637 315.8429,-197.1209"/>
</g>
<!-- Node9 -->
<g id="node10" class="node">
<title>Node9</title>
<polygon fill="none" stroke="#bfbfbf" points="380,-168.5 380,-187.5 433,-187.5 433,-168.5 380,-168.5"/>
<text text-anchor="middle" x="406.5" y="-175.5" font-family="Helvetica,sans-Serif" font-size="10.00" fill="#000000">stdlib.h</text>
</g>
<!-- Node0&#45;&gt;Node9 -->
<g id="edge12" class="edge">
<title>Node0&#45;&gt;Node9</title>
<path fill="none" stroke="#191970" d="M304.1125,-224.3511C327.4287,-213.7958 355.1768,-201.2342 375.901,-191.8523"/>
<polygon fill="#191970" stroke="#191970" points="377.5068,-194.9673 385.1733,-187.6546 374.6199,-188.5903 377.5068,-194.9673"/>
</g>
<!-- Node10 -->
<g id="node11" class="node">
<title>Node10</title>
<polygon fill="none" stroke="#bfbfbf" points="451.5,-168.5 451.5,-187.5 507.5,-187.5 507.5,-168.5 451.5,-168.5"/>
<text text-anchor="middle" x="479.5" y="-175.5" font-family="Helvetica,sans-Serif" font-size="10.00" fill="#000000">unistd.h</text>
</g>
<!-- Node0&#45;&gt;Node10 -->
<g id="edge13" class="edge">
<title>Node0&#45;&gt;Node10</title>
<path fill="none" stroke="#191970" d="M326.3092,-224.4425C364.206,-212.9534 410.0191,-199.0643 441.6163,-189.4851"/>
<polygon fill="#191970" stroke="#191970" points="442.7932,-192.7857 451.3476,-186.5349 440.7623,-186.0868 442.7932,-192.7857"/>
</g>
<!-- Node2&#45;&gt;Node1 -->
<g id="edge3" class="edge">
<title>Node2&#45;&gt;Node1</title>
<path fill="none" stroke="#191970" d="M69.882,-168.4791C58.2528,-160.3972 43.2668,-147.6339 36.5,-132 21.9811,-98.4559 27.0367,-54.6976 31.8739,-29.7388"/>
<polygon fill="#191970" stroke="#191970" points="35.3524,-30.2078 34.0099,-19.6984 28.5056,-28.7512 35.3524,-30.2078"/>
</g>
<!-- Node3 -->
<g id="node4" class="node">
<title>Node3</title>
<g id="a_node4"><a xlink:href="_abstract_debug_info_8hpp.html" target="_top" xlink:title="AbstractDebugInfo.hpp">
<polygon fill="none" stroke="#000000" points="45.5,-112.5 45.5,-131.5 173.5,-131.5 173.5,-112.5 45.5,-112.5"/>
<text text-anchor="middle" x="109.5" y="-119.5" font-family="Helvetica,sans-Serif" font-size="10.00" fill="#000000">AbstractDebugInfo.hpp</text>
</a>
</g>
</g>
<!-- Node2&#45;&gt;Node3 -->
<g id="edge4" class="edge">
<title>Node2&#45;&gt;Node3</title>
<path fill="none" stroke="#191970" d="M89.6805,-168.2455C92.881,-160.7776 97.396,-150.2427 101.3084,-141.1137"/>
<polygon fill="#191970" stroke="#191970" points="104.6452,-142.2129 105.3674,-131.6427 98.2112,-139.4554 104.6452,-142.2129"/>
</g>
<!-- Node5 -->
<g id="node6" class="node">
<title>Node5</title>
<polygon fill="none" stroke="#bfbfbf" points="192,-112.5 192,-131.5 233,-131.5 233,-112.5 192,-112.5"/>
<text text-anchor="middle" x="212.5" y="-119.5" font-family="Helvetica,sans-Serif" font-size="10.00" fill="#000000">bfd.h</text>
</g>
<!-- Node2&#45;&gt;Node5 -->
<g id="edge8" class="edge">
<title>Node2&#45;&gt;Node5</title>
<path fill="none" stroke="#191970" d="M107.3321,-168.3733C128.0585,-159.234 159.3888,-145.4191 182.4645,-135.244"/>
<polygon fill="#191970" stroke="#191970" points="184.056,-138.3675 191.7938,-131.1303 181.2317,-131.9625 184.056,-138.3675"/>
</g>
<!-- Node3&#45;&gt;Node1 -->
<g id="edge5" class="edge">
<title>Node3&#45;&gt;Node1</title>
<path fill="none" stroke="#191970" d="M101.6161,-112.3954C94.2647,-103.2684 83.1629,-89.0392 74.5,-76 64.2384,-60.5544 53.8151,-42.2233 46.4872,-28.8042"/>
<polygon fill="#191970" stroke="#191970" points="49.3671,-26.7705 41.5408,-19.6291 43.2055,-30.0924 49.3671,-26.7705"/>
</g>
<!-- Node4 -->
<g id="node5" class="node">
<title>Node4</title>
<g id="a_node5"><a xlink:href="_frame_8hpp.html" target="_top" xlink:title="Frame.hpp">
<polygon fill="none" stroke="#000000" points="83.5,-56.5 83.5,-75.5 151.5,-75.5 151.5,-56.5 83.5,-56.5"/>
<text text-anchor="middle" x="117.5" y="-63.5" font-family="Helvetica,sans-Serif" font-size="10.00" fill="#000000">Frame.hpp</text>
</a>
</g>
</g>
<!-- Node3&#45;&gt;Node4 -->
<g id="edge6" class="edge">
<title>Node3&#45;&gt;Node4</title>
<path fill="none" stroke="#191970" d="M110.8935,-112.2455C111.9374,-104.9382 113.4008,-94.6944 114.6851,-85.7046"/>
<polygon fill="#191970" stroke="#191970" points="118.173,-86.0372 116.1225,-75.6427 111.2434,-85.0472 118.173,-86.0372"/>
</g>
<!-- Node4&#45;&gt;Node1 -->
<g id="edge7" class="edge">
<title>Node4&#45;&gt;Node1</title>
<path fill="none" stroke="#191970" d="M103.3909,-56.2455C91.0791,-47.7337 73.0042,-35.2375 58.7462,-25.3801"/>
<polygon fill="#191970" stroke="#191970" points="60.6634,-22.4506 50.4474,-19.6427 56.6826,-28.2085 60.6634,-22.4506"/>
</g>
</g>
</svg>
