<?xml version="1.0" encoding="UTF-8" standalone="no"?>
<!DOCTYPE svg PUBLIC "-//W3C//DTD SVG 1.1//EN"
 "http://www.w3.org/Graphics/SVG/1.1/DTD/svg11.dtd">
<!-- Generated by graphviz version 2.40.1 (20161225.0304)
 -->
<!-- Title: /home/daniel/projects/tracer/src/printers/DefaultPrinter.cpp Pages: 1 -->
<svg width="570pt" height="274pt"
 viewBox="0.00 0.00 570.10 274.00" xmlns="http://www.w3.org/2000/svg" xmlns:xlink="http://www.w3.org/1999/xlink">
<g id="graph0" class="graph" transform="scale(1 1) rotate(0) translate(4 270)">
<title>/home/daniel/projects/tracer/src/printers/DefaultPrinter.cpp</title>
<!-- Node0 -->
<g id="node1" class="node">
<title>Node0</title>
<polygon fill="#bfbfbf" stroke="#000000" points="183.0996,-224.5 183.0996,-265.5 305.0996,-265.5 305.0996,-224.5 183.0996,-224.5"/>
<text text-anchor="start" x="191.0996" y="-253.5" font-family="Helvetica,sans-Serif" font-size="10.00" fill="#000000">/home/daniel/projects</text>
<text text-anchor="start" x="191.0996" y="-242.5" font-family="Helvetica,sans-Serif" font-size="10.00" fill="#000000">/tracer/src/printers</text>
<text text-anchor="middle" x="244.0996" y="-231.5" font-family="Helvetica,sans-Serif" font-size="10.00" fill="#000000">/DefaultPrinter.cpp</text>
</g>
<!-- Node1 -->
<g id="node2" class="node">
<title>Node1</title>
<polygon fill="none" stroke="#bfbfbf" points="129.5996,-.5 129.5996,-19.5 202.5996,-19.5 202.5996,-.5 129.5996,-.5"/>
<text text-anchor="middle" x="166.0996" y="-7.5" font-family="Helvetica,sans-Serif" font-size="10.00" fill="#000000">defines.hpp</text>
</g>
<!-- Node0&#45;&gt;Node1 -->
<g id="edge1" class="edge">
<title>Node0&#45;&gt;Node1</title>
<path fill="none" stroke="#191970" d="M182.8807,-232.0637C130.2512,-217.422 57.2843,-187.9391 21.0996,-132 2.5956,-103.3942 -9.2777,-83.3031 11.0996,-56 24.178,-38.4765 78.7454,-25.2449 119.4591,-17.5714"/>
<polygon fill="#191970" stroke="#191970" points="120.2697,-20.9813 129.4779,-15.741 119.0116,-14.0953 120.2697,-20.9813"/>
</g>
<!-- Node2 -->
<g id="node3" class="node">
<title>Node2</title>
<g id="a_node3"><a xlink:href="_default_printer_8hpp.html" target="_top" xlink:title="DefaultPrinter.hpp">
<polygon fill="none" stroke="#000000" points="30.5996,-112.5 30.5996,-131.5 135.5996,-131.5 135.5996,-112.5 30.5996,-112.5"/>
<text text-anchor="middle" x="83.0996" y="-119.5" font-family="Helvetica,sans-Serif" font-size="10.00" fill="#000000">DefaultPrinter.hpp</text>
</a>
</g>
</g>
<!-- Node0&#45;&gt;Node2 -->
<g id="edge2" class="edge">
<title>Node0&#45;&gt;Node2</title>
<path fill="none" stroke="#191970" d="M182.9774,-224.4732C162.3711,-215.5143 140.2692,-203.4611 123.0996,-188 108.6781,-175.0136 97.7709,-155.5943 91.0178,-141.1787"/>
<polygon fill="#191970" stroke="#191970" points="94.0862,-139.4629 86.8439,-131.7298 87.6831,-142.2914 94.0862,-139.4629"/>
</g>
<!-- Node4 -->
<g id="node5" class="node">
<title>Node4</title>
<g id="a_node5"><a xlink:href="_tracer_8hpp.html" target="_top" xlink:title="Tracer.hpp">
<polygon fill="none" stroke="#000000" points="132.0996,-168.5 132.0996,-187.5 198.0996,-187.5 198.0996,-168.5 132.0996,-168.5"/>
<text text-anchor="middle" x="165.0996" y="-175.5" font-family="Helvetica,sans-Serif" font-size="10.00" fill="#000000">Tracer.hpp</text>
</a>
</g>
</g>
<!-- Node0&#45;&gt;Node4 -->
<g id="edge6" class="edge">
<title>Node0&#45;&gt;Node4</title>
<path fill="none" stroke="#191970" d="M219.5365,-224.168C208.2427,-214.5897 195.0383,-203.3911 184.4628,-194.422"/>
<polygon fill="#191970" stroke="#191970" points="186.5222,-191.5793 176.6318,-187.7805 181.9945,-196.9179 186.5222,-191.5793"/>
</g>
<!-- Node8 -->
<g id="node9" class="node">
<title>Node8</title>
<polygon fill="none" stroke="#bfbfbf" points="216.0996,-168.5 216.0996,-187.5 272.0996,-187.5 272.0996,-168.5 216.0996,-168.5"/>
<text text-anchor="middle" x="244.0996" y="-175.5" font-family="Helvetica,sans-Serif" font-size="10.00" fill="#000000">iomanip</text>
</g>
<!-- Node0&#45;&gt;Node8 -->
<g id="edge15" class="edge">
<title>Node0&#45;&gt;Node8</title>
<path fill="none" stroke="#191970" d="M244.0996,-224.168C244.0996,-215.8226 244.0996,-206.2471 244.0996,-197.9879"/>
<polygon fill="#191970" stroke="#191970" points="247.5997,-197.7804 244.0996,-187.7805 240.5997,-197.7805 247.5997,-197.7804"/>
</g>
<!-- Node9 -->
<g id="node10" class="node">
<title>Node9</title>
<polygon fill="none" stroke="#bfbfbf" points="290.0996,-168.5 290.0996,-187.5 334.0996,-187.5 334.0996,-168.5 290.0996,-168.5"/>
<text text-anchor="middle" x="312.0996" y="-175.5" font-family="Helvetica,sans-Serif" font-size="10.00" fill="#000000">regex</text>
</g>
<!-- Node0&#45;&gt;Node9 -->
<g id="edge16" class="edge">
<title>Node0&#45;&gt;Node9</title>
<path fill="none" stroke="#191970" d="M265.2425,-224.168C274.7712,-214.7794 285.88,-203.834 294.8891,-194.9574"/>
<polygon fill="#191970" stroke="#191970" points="297.5063,-197.2921 302.1731,-187.7805 292.5934,-192.3058 297.5063,-197.2921"/>
</g>
<!-- Node10 -->
<g id="node11" class="node">
<title>Node10</title>
<polygon fill="none" stroke="#bfbfbf" points="352.0996,-168.5 352.0996,-187.5 408.0996,-187.5 408.0996,-168.5 352.0996,-168.5"/>
<text text-anchor="middle" x="380.0996" y="-175.5" font-family="Helvetica,sans-Serif" font-size="10.00" fill="#000000">sstream</text>
</g>
<!-- Node0&#45;&gt;Node10 -->
<g id="edge17" class="edge">
<title>Node0&#45;&gt;Node10</title>
<path fill="none" stroke="#191970" d="M286.0138,-224.3511C307.2456,-213.8913 332.4765,-201.4614 351.463,-192.1077"/>
<polygon fill="#191970" stroke="#191970" points="353.0784,-195.2137 360.5021,-187.6546 349.9848,-188.9343 353.0784,-195.2137"/>
</g>
<!-- Node11 -->
<g id="node12" class="node">
<title>Node11</title>
<polygon fill="none" stroke="#bfbfbf" points="426.0996,-168.5 426.0996,-187.5 562.0996,-187.5 562.0996,-168.5 426.0996,-168.5"/>
<text text-anchor="middle" x="494.0996" y="-175.5" font-family="Helvetica,sans-Serif" font-size="10.00" fill="#000000">experimental/filesystem</text>
</g>
<!-- Node0&#45;&gt;Node11 -->
<g id="edge18" class="edge">
<title>Node0&#45;&gt;Node11</title>
<path fill="none" stroke="#191970" d="M305.2565,-228.61C349.6326,-216.7172 408.6829,-200.8917 448.8577,-190.1248"/>
<polygon fill="#191970" stroke="#191970" points="449.8914,-193.4714 458.6445,-187.502 448.0793,-186.71 449.8914,-193.4714"/>
</g>
<!-- Node2&#45;&gt;Node1 -->
<g id="edge3" class="edge">
<title>Node2&#45;&gt;Node1</title>
<path fill="none" stroke="#191970" d="M61.6987,-112.4906C37.3216,-100.3107 2.8426,-78.1216 19.0996,-56 31.2013,-39.5327 81.2515,-26.3317 119.623,-18.3666"/>
<polygon fill="#191970" stroke="#191970" points="120.4827,-21.7639 129.5947,-16.3582 119.1004,-14.9017 120.4827,-21.7639"/>
</g>
<!-- Node3 -->
<g id="node4" class="node">
<title>Node3</title>
<g id="a_node4"><a xlink:href="_abstract_printer_8hpp.html" target="_top" xlink:title="AbstractPrinter.hpp">
<polygon fill="none" stroke="#000000" points="28.0996,-56.5 28.0996,-75.5 138.0996,-75.5 138.0996,-56.5 28.0996,-56.5"/>
<text text-anchor="middle" x="83.0996" y="-63.5" font-family="Helvetica,sans-Serif" font-size="10.00" fill="#000000">AbstractPrinter.hpp</text>
</a>
</g>
</g>
<!-- Node2&#45;&gt;Node3 -->
<g id="edge4" class="edge">
<title>Node2&#45;&gt;Node3</title>
<path fill="none" stroke="#191970" d="M83.0996,-112.2455C83.0996,-104.9382 83.0996,-94.6944 83.0996,-85.7046"/>
<polygon fill="#191970" stroke="#191970" points="86.5997,-85.6426 83.0996,-75.6427 79.5997,-85.6427 86.5997,-85.6426"/>
</g>
<!-- Node3&#45;&gt;Node1 -->
<g id="edge5" class="edge">
<title>Node3&#45;&gt;Node1</title>
<path fill="none" stroke="#191970" d="M97.5571,-56.2455C110.1728,-47.7337 128.694,-35.2375 143.3041,-25.3801"/>
<polygon fill="#191970" stroke="#191970" points="145.4757,-28.1371 151.8078,-19.6427 141.5605,-22.3343 145.4757,-28.1371"/>
</g>
<!-- Node4&#45;&gt;Node1 -->
<g id="edge7" class="edge">
<title>Node4&#45;&gt;Node1</title>
<path fill="none" stroke="#191970" d="M165.1562,-168.4862C165.3143,-141.9293 165.7629,-66.5651 165.9795,-30.1655"/>
<polygon fill="#191970" stroke="#191970" points="169.4814,-29.8486 166.0411,-19.8279 162.4815,-29.8068 169.4814,-29.8486"/>
</g>
<!-- Node5 -->
<g id="node6" class="node">
<title>Node5</title>
<g id="a_node6"><a xlink:href="_abstract_debug_info_8hpp.html" target="_top" xlink:title="AbstractDebugInfo.hpp">
<polygon fill="none" stroke="#000000" points="193.0996,-112.5 193.0996,-131.5 321.0996,-131.5 321.0996,-112.5 193.0996,-112.5"/>
<text text-anchor="middle" x="257.0996" y="-119.5" font-family="Helvetica,sans-Serif" font-size="10.00" fill="#000000">AbstractDebugInfo.hpp</text>
</a>
</g>
</g>
<!-- Node4&#45;&gt;Node5 -->
<g id="edge8" class="edge">
<title>Node4&#45;&gt;Node5</title>
<path fill="none" stroke="#191970" d="M181.1248,-168.2455C195.2404,-159.6534 216.0259,-147.0014 232.2895,-137.1018"/>
<polygon fill="#191970" stroke="#191970" points="234.5359,-139.8319 241.258,-131.6427 230.8962,-133.8525 234.5359,-139.8319"/>
</g>
<!-- Node7 -->
<g id="node8" class="node">
<title>Node7</title>
<g id="a_node8"><a xlink:href="_abstract_tracer_8hpp.html" target="_top" xlink:title="AbstractTracer.hpp">
<polygon fill="none" stroke="#000000" points="339.5996,-112.5 339.5996,-131.5 446.5996,-131.5 446.5996,-112.5 339.5996,-112.5"/>
<text text-anchor="middle" x="393.0996" y="-119.5" font-family="Helvetica,sans-Serif" font-size="10.00" fill="#000000">AbstractTracer.hpp</text>
</a>
</g>
</g>
<!-- Node4&#45;&gt;Node7 -->
<g id="edge12" class="edge">
<title>Node4&#45;&gt;Node7</title>
<path fill="none" stroke="#191970" d="M198.2527,-169.8571C236.6374,-160.4293 300.2164,-144.8134 344.2597,-133.9958"/>
<polygon fill="#191970" stroke="#191970" points="345.2987,-137.3447 354.1752,-131.5604 343.6289,-130.5467 345.2987,-137.3447"/>
</g>
<!-- Node5&#45;&gt;Node1 -->
<g id="edge9" class="edge">
<title>Node5&#45;&gt;Node1</title>
<path fill="none" stroke="#191970" d="M249.341,-112.4509C234.0289,-93.6054 199.7248,-51.3849 180.2711,-27.4419"/>
<polygon fill="#191970" stroke="#191970" points="182.8609,-25.079 173.8385,-19.5249 177.4281,-29.4931 182.8609,-25.079"/>
</g>
<!-- Node6 -->
<g id="node7" class="node">
<title>Node6</title>
<g id="a_node7"><a xlink:href="_frame_8hpp.html" target="_top" xlink:title="Frame.hpp">
<polygon fill="none" stroke="#000000" points="232.0996,-56.5 232.0996,-75.5 300.0996,-75.5 300.0996,-56.5 232.0996,-56.5"/>
<text text-anchor="middle" x="266.0996" y="-63.5" font-family="Helvetica,sans-Serif" font-size="10.00" fill="#000000">Frame.hpp</text>
</a>
</g>
</g>
<!-- Node5&#45;&gt;Node6 -->
<g id="edge10" class="edge">
<title>Node5&#45;&gt;Node6</title>
<path fill="none" stroke="#191970" d="M258.6673,-112.2455C259.8416,-104.9382 261.488,-94.6944 262.9328,-85.7046"/>
<polygon fill="#191970" stroke="#191970" points="266.4187,-86.0714 264.5499,-75.6427 259.5073,-84.9606 266.4187,-86.0714"/>
</g>
<!-- Node6&#45;&gt;Node1 -->
<g id="edge11" class="edge">
<title>Node6&#45;&gt;Node1</title>
<path fill="none" stroke="#191970" d="M248.6809,-56.2455C233.051,-47.4928 209.8977,-34.527 192.081,-24.5496"/>
<polygon fill="#191970" stroke="#191970" points="193.7538,-21.475 183.3186,-19.6427 190.3336,-27.5825 193.7538,-21.475"/>
</g>
<!-- Node7&#45;&gt;Node1 -->
<g id="edge13" class="edge">
<title>Node7&#45;&gt;Node1</title>
<path fill="none" stroke="#191970" d="M383.0793,-112.1462C368.13,-97.9333 338.5769,-71.6698 309.0996,-56 278.613,-39.7937 241.4141,-28.0471 212.5989,-20.4819"/>
<polygon fill="#191970" stroke="#191970" points="213.3357,-17.0578 202.781,-17.9799 211.607,-23.841 213.3357,-17.0578"/>
</g>
<!-- Node7&#45;&gt;Node6 -->
<g id="edge14" class="edge">
<title>Node7&#45;&gt;Node6</title>
<path fill="none" stroke="#191970" d="M371.2675,-112.3733C350.7893,-103.3435 319.9597,-89.7494 296.9676,-79.6111"/>
<polygon fill="#191970" stroke="#191970" points="298.2089,-76.3333 287.6468,-75.5011 295.3846,-82.7383 298.2089,-76.3333"/>
</g>
</g>
</svg>
