<?xml version="1.0" encoding="UTF-8" standalone="no"?>
<!DOCTYPE svg PUBLIC "-//W3C//DTD SVG 1.1//EN"
 "http://www.w3.org/Graphics/SVG/1.1/DTD/svg11.dtd">
<!-- Generated by graphviz version 2.40.1 (20161225.0304)
 -->
<!-- Title: /home/daniel/projects/tracer/src/tracer/dummy/DummyTracer.cpp Pages: 1 -->
<svg width="210pt" height="274pt"
 viewBox="0.00 0.00 210.00 274.00" xmlns="http://www.w3.org/2000/svg" xmlns:xlink="http://www.w3.org/1999/xlink">
<g id="graph0" class="graph" transform="scale(1 1) rotate(0) translate(4 270)">
<title>/home/daniel/projects/tracer/src/tracer/dummy/DummyTracer.cpp</title>
<!-- Node0 -->
<g id="node1" class="node">
<title>Node0</title>
<polygon fill="#bfbfbf" stroke="#000000" points="0,-224.5 0,-265.5 137,-265.5 137,-224.5 0,-224.5"/>
<text text-anchor="start" x="8" y="-253.5" font-family="Helvetica,sans-Serif" font-size="10.00" fill="#000000">/home/daniel/projects</text>
<text text-anchor="start" x="8" y="-242.5" font-family="Helvetica,sans-Serif" font-size="10.00" fill="#000000">/tracer/src/tracer/dummy</text>
<text text-anchor="middle" x="68.5" y="-231.5" font-family="Helvetica,sans-Serif" font-size="10.00" fill="#000000">/DummyTracer.cpp</text>
</g>
<!-- Node1 -->
<g id="node2" class="node">
<title>Node1</title>
<polygon fill="none" stroke="#bfbfbf" points="49,-.5 49,-19.5 122,-19.5 122,-.5 49,-.5"/>
<text text-anchor="middle" x="85.5" y="-7.5" font-family="Helvetica,sans-Serif" font-size="10.00" fill="#000000">defines.hpp</text>
</g>
<!-- Node0&#45;&gt;Node1 -->
<g id="edge1" class="edge">
<title>Node0&#45;&gt;Node1</title>
<path fill="none" stroke="#191970" d="M58.8982,-224.3801C54.4752,-213.7618 49.722,-200.4587 47.5,-188 37.0868,-129.6137 62.3681,-61.162 76.6021,-28.7874"/>
<polygon fill="#191970" stroke="#191970" points="79.8252,-30.1545 80.776,-19.6024 73.4524,-27.2584 79.8252,-30.1545"/>
</g>
<!-- Node2 -->
<g id="node3" class="node">
<title>Node2</title>
<g id="a_node3"><a xlink:href="_dummy_tracer_8hpp.html" target="_top" xlink:title="DummyTracer.hpp">
<polygon fill="none" stroke="#000000" points="57,-168.5 57,-187.5 162,-187.5 162,-168.5 57,-168.5"/>
<text text-anchor="middle" x="109.5" y="-175.5" font-family="Helvetica,sans-Serif" font-size="10.00" fill="#000000">DummyTracer.hpp</text>
</a>
</g>
</g>
<!-- Node0&#45;&gt;Node2 -->
<g id="edge2" class="edge">
<title>Node0&#45;&gt;Node2</title>
<path fill="none" stroke="#191970" d="M81.2479,-224.168C86.703,-215.2536 93.017,-204.9356 98.2907,-196.3177"/>
<polygon fill="#191970" stroke="#191970" points="101.2806,-198.137 103.5149,-187.7805 95.3099,-194.4833 101.2806,-198.137"/>
</g>
<!-- Node2&#45;&gt;Node1 -->
<g id="edge3" class="edge">
<title>Node2&#45;&gt;Node1</title>
<path fill="none" stroke="#191970" d="M102.6792,-168.328C96.8174,-159.3825 88.8034,-145.4728 85.5,-132 76.8786,-96.8376 79.7701,-54.2412 82.6439,-29.814"/>
<polygon fill="#191970" stroke="#191970" points="86.1433,-30.045 83.9621,-19.6771 79.2017,-29.1422 86.1433,-30.045"/>
</g>
<!-- Node3 -->
<g id="node4" class="node">
<title>Node3</title>
<g id="a_node4"><a xlink:href="_abstract_tracer_8hpp.html" target="_top" xlink:title="AbstractTracer.hpp">
<polygon fill="none" stroke="#000000" points="95,-112.5 95,-131.5 202,-131.5 202,-112.5 95,-112.5"/>
<text text-anchor="middle" x="148.5" y="-119.5" font-family="Helvetica,sans-Serif" font-size="10.00" fill="#000000">AbstractTracer.hpp</text>
</a>
</g>
</g>
<!-- Node2&#45;&gt;Node3 -->
<g id="edge4" class="edge">
<title>Node2&#45;&gt;Node3</title>
<path fill="none" stroke="#191970" d="M116.2933,-168.2455C121.7178,-160.4564 129.4661,-149.3308 136.0033,-139.9439"/>
<polygon fill="#191970" stroke="#191970" points="138.9417,-141.849 141.7846,-131.6427 133.1975,-137.8485 138.9417,-141.849"/>
</g>
<!-- Node3&#45;&gt;Node1 -->
<g id="edge5" class="edge">
<title>Node3&#45;&gt;Node1</title>
<path fill="none" stroke="#191970" d="M143.1287,-112.4509C132.6675,-93.8533 109.4017,-52.4919 95.848,-28.3964"/>
<polygon fill="#191970" stroke="#191970" points="98.8109,-26.5247 90.8577,-19.5249 92.7099,-29.9566 98.8109,-26.5247"/>
</g>
<!-- Node4 -->
<g id="node5" class="node">
<title>Node4</title>
<g id="a_node5"><a xlink:href="_frame_8hpp.html" target="_top" xlink:title="Frame.hpp">
<polygon fill="none" stroke="#000000" points="132.5,-56.5 132.5,-75.5 200.5,-75.5 200.5,-56.5 132.5,-56.5"/>
<text text-anchor="middle" x="166.5" y="-63.5" font-family="Helvetica,sans-Serif" font-size="10.00" fill="#000000">Frame.hpp</text>
</a>
</g>
</g>
<!-- Node3&#45;&gt;Node4 -->
<g id="edge6" class="edge">
<title>Node3&#45;&gt;Node4</title>
<path fill="none" stroke="#191970" d="M151.6354,-112.2455C154.01,-104.8579 157.3493,-94.4689 160.2615,-85.4087"/>
<polygon fill="#191970" stroke="#191970" points="163.6725,-86.234 163.4006,-75.6427 157.0083,-84.0919 163.6725,-86.234"/>
</g>
<!-- Node4&#45;&gt;Node1 -->
<g id="edge7" class="edge">
<title>Node4&#45;&gt;Node1</title>
<path fill="none" stroke="#191970" d="M152.3909,-56.2455C140.0791,-47.7337 122.0042,-35.2375 107.7462,-25.3801"/>
<polygon fill="#191970" stroke="#191970" points="109.6634,-22.4506 99.4474,-19.6427 105.6826,-28.2085 109.6634,-22.4506"/>
</g>
</g>
</svg>
