<?xml version="1.0" encoding="UTF-8" standalone="no"?>
<!DOCTYPE svg PUBLIC "-//W3C//DTD SVG 1.1//EN"
 "http://www.w3.org/Graphics/SVG/1.1/DTD/svg11.dtd">
<!-- Generated by graphviz version 2.40.1 (20161225.0304)
 -->
<!-- Title: /home/daniel/projects/tracer/src/tracer/dummy/DummyTracer.hpp Pages: 1 -->
<svg width="171pt" height="218pt"
 viewBox="0.00 0.00 171.00 218.00" xmlns="http://www.w3.org/2000/svg" xmlns:xlink="http://www.w3.org/1999/xlink">
<g id="graph0" class="graph" transform="scale(1 1) rotate(0) translate(4 214)">
<title>/home/daniel/projects/tracer/src/tracer/dummy/DummyTracer.hpp</title>
<!-- Node0 -->
<g id="node1" class="node">
<title>Node0</title>
<polygon fill="#bfbfbf" stroke="#000000" points="0,-168.5 0,-209.5 137,-209.5 137,-168.5 0,-168.5"/>
<text text-anchor="start" x="8" y="-197.5" font-family="Helvetica,sans-Serif" font-size="10.00" fill="#000000">/home/daniel/projects</text>
<text text-anchor="start" x="8" y="-186.5" font-family="Helvetica,sans-Serif" font-size="10.00" fill="#000000">/tracer/src/tracer/dummy</text>
<text text-anchor="middle" x="68.5" y="-175.5" font-family="Helvetica,sans-Serif" font-size="10.00" fill="#000000">/DummyTracer.hpp</text>
</g>
<!-- Node1 -->
<g id="node2" class="node">
<title>Node1</title>
<polygon fill="none" stroke="#bfbfbf" points="29,-.5 29,-19.5 102,-19.5 102,-.5 29,-.5"/>
<text text-anchor="middle" x="65.5" y="-7.5" font-family="Helvetica,sans-Serif" font-size="10.00" fill="#000000">defines.hpp</text>
</g>
<!-- Node0&#45;&gt;Node1 -->
<g id="edge1" class="edge">
<title>Node0&#45;&gt;Node1</title>
<path fill="none" stroke="#191970" d="M58.4438,-168.4266C53.8108,-157.82 48.8311,-144.5135 46.5,-132 39.7595,-95.8164 50.6082,-53.2878 58.4837,-29.2031"/>
<polygon fill="#191970" stroke="#191970" points="61.8701,-30.1187 61.8191,-19.524 55.2521,-27.8381 61.8701,-30.1187"/>
</g>
<!-- Node2 -->
<g id="node3" class="node">
<title>Node2</title>
<g id="a_node3"><a xlink:href="_abstract_tracer_8hpp.html" target="_top" xlink:title="AbstractTracer.hpp">
<polygon fill="none" stroke="#000000" points="56,-112.5 56,-131.5 163,-131.5 163,-112.5 56,-112.5"/>
<text text-anchor="middle" x="109.5" y="-119.5" font-family="Helvetica,sans-Serif" font-size="10.00" fill="#000000">AbstractTracer.hpp</text>
</a>
</g>
</g>
<!-- Node0&#45;&gt;Node2 -->
<g id="edge2" class="edge">
<title>Node0&#45;&gt;Node2</title>
<path fill="none" stroke="#191970" d="M81.2479,-168.168C86.703,-159.2536 93.017,-148.9356 98.2907,-140.3177"/>
<polygon fill="#191970" stroke="#191970" points="101.2806,-142.137 103.5149,-131.7805 95.3099,-138.4833 101.2806,-142.137"/>
</g>
<!-- Node2&#45;&gt;Node1 -->
<g id="edge3" class="edge">
<title>Node2&#45;&gt;Node1</title>
<path fill="none" stroke="#191970" d="M103.4982,-112.4322C97.9854,-103.3313 89.8785,-89.1197 84.5,-76 78.281,-60.8302 73.2613,-42.916 69.9467,-29.5817"/>
<polygon fill="#191970" stroke="#191970" points="73.2958,-28.5363 67.5746,-19.6189 66.4861,-30.1577 73.2958,-28.5363"/>
</g>
<!-- Node3 -->
<g id="node4" class="node">
<title>Node3</title>
<g id="a_node4"><a xlink:href="_frame_8hpp.html" target="_top" xlink:title="Frame.hpp">
<polygon fill="none" stroke="#000000" points="93.5,-56.5 93.5,-75.5 161.5,-75.5 161.5,-56.5 93.5,-56.5"/>
<text text-anchor="middle" x="127.5" y="-63.5" font-family="Helvetica,sans-Serif" font-size="10.00" fill="#000000">Frame.hpp</text>
</a>
</g>
</g>
<!-- Node2&#45;&gt;Node3 -->
<g id="edge4" class="edge">
<title>Node2&#45;&gt;Node3</title>
<path fill="none" stroke="#191970" d="M112.6354,-112.2455C115.01,-104.8579 118.3493,-94.4689 121.2615,-85.4087"/>
<polygon fill="#191970" stroke="#191970" points="124.6725,-86.234 124.4006,-75.6427 118.0083,-84.0919 124.6725,-86.234"/>
</g>
<!-- Node3&#45;&gt;Node1 -->
<g id="edge5" class="edge">
<title>Node3&#45;&gt;Node1</title>
<path fill="none" stroke="#191970" d="M116.7004,-56.2455C107.6322,-48.0549 94.4794,-36.1749 83.7755,-26.5069"/>
<polygon fill="#191970" stroke="#191970" points="85.9429,-23.7482 76.1758,-19.6427 81.2509,-28.9429 85.9429,-23.7482"/>
</g>
</g>
</svg>
