<?xml version="1.0" encoding="UTF-8" standalone="no"?>
<!DOCTYPE svg PUBLIC "-//W3C//DTD SVG 1.1//EN"
 "http://www.w3.org/Graphics/SVG/1.1/DTD/svg11.dtd">
<!-- Generated by graphviz version 2.40.1 (20161225.0304)
 -->
<!-- Title: /home/daniel/projects/tracer/src/tracer/dummy/DummyTracer.hpp Pages: 1 -->
<svg width="286pt" height="128pt"
 viewBox="0.00 0.00 285.50 128.00" xmlns="http://www.w3.org/2000/svg" xmlns:xlink="http://www.w3.org/1999/xlink">
<g id="graph0" class="graph" transform="scale(1 1) rotate(0) translate(4 124)">
<title>/home/daniel/projects/tracer/src/tracer/dummy/DummyTracer.hpp</title>
<!-- Node4 -->
<g id="node1" class="node">
<title>Node4</title>
<polygon fill="#bfbfbf" stroke="#000000" points="74,-78.5 74,-119.5 211,-119.5 211,-78.5 74,-78.5"/>
<text text-anchor="start" x="82" y="-107.5" font-family="Helvetica,sans-Serif" font-size="10.00" fill="#000000">/home/daniel/projects</text>
<text text-anchor="start" x="82" y="-96.5" font-family="Helvetica,sans-Serif" font-size="10.00" fill="#000000">/tracer/src/tracer/dummy</text>
<text text-anchor="middle" x="142.5" y="-85.5" font-family="Helvetica,sans-Serif" font-size="10.00" fill="#000000">/DummyTracer.hpp</text>
</g>
<!-- Node5 -->
<g id="node2" class="node">
<title>Node5</title>
<g id="a_node2"><a xlink:href="_dummy_tracer_8cpp.html" target="_top" xlink:title="/home/daniel/projects\l/tracer/src/tracer/dummy\l/DummyTracer.cpp">
<polygon fill="none" stroke="#000000" points="0,-.5 0,-41.5 137,-41.5 137,-.5 0,-.5"/>
<text text-anchor="start" x="8" y="-29.5" font-family="Helvetica,sans-Serif" font-size="10.00" fill="#000000">/home/daniel/projects</text>
<text text-anchor="start" x="8" y="-18.5" font-family="Helvetica,sans-Serif" font-size="10.00" fill="#000000">/tracer/src/tracer/dummy</text>
<text text-anchor="middle" x="68.5" y="-7.5" font-family="Helvetica,sans-Serif" font-size="10.00" fill="#000000">/DummyTracer.cpp</text>
</a>
</g>
</g>
<!-- Node4&#45;&gt;Node5 -->
<g id="edge1" class="edge">
<title>Node4&#45;&gt;Node5</title>
<path fill="none" stroke="#191970" d="M115.6142,-70.6609C106.523,-61.0783 96.5495,-50.5657 88.1288,-41.6898"/>
<polygon fill="#191970" stroke="#191970" points="113.2476,-73.2517 122.6694,-78.0974 118.3259,-68.4338 113.2476,-73.2517"/>
</g>
<!-- Node6 -->
<g id="node3" class="node">
<title>Node6</title>
<g id="a_node3"><a xlink:href="_tracer_8cpp.html" target="_top" xlink:title="/home/daniel/projects\l/tracer/src/Tracer.cpp">
<polygon fill="none" stroke="#000000" points="155.5,-6 155.5,-36 277.5,-36 277.5,-6 155.5,-6"/>
<text text-anchor="start" x="163.5" y="-24" font-family="Helvetica,sans-Serif" font-size="10.00" fill="#000000">/home/daniel/projects</text>
<text text-anchor="middle" x="216.5" y="-13" font-family="Helvetica,sans-Serif" font-size="10.00" fill="#000000">/tracer/src/Tracer.cpp</text>
</a>
</g>
</g>
<!-- Node4&#45;&gt;Node6 -->
<g id="edge2" class="edge">
<title>Node4&#45;&gt;Node6</title>
<path fill="none" stroke="#191970" d="M169.3491,-70.6996C180.3852,-59.0669 192.7272,-46.0578 202.0151,-36.2679"/>
<polygon fill="#191970" stroke="#191970" points="166.6741,-68.4338 162.3306,-78.0974 171.7524,-73.2517 166.6741,-68.4338"/>
</g>
</g>
</svg>
