<?xml version="1.0" encoding="UTF-8" standalone="no"?>
<!DOCTYPE svg PUBLIC "-//W3C//DTD SVG 1.1//EN"
 "http://www.w3.org/Graphics/SVG/1.1/DTD/svg11.dtd">
<!-- Generated by graphviz version 2.40.1 (20161225.0304)
 -->
<!-- Title: /home/daniel/projects/tracer/src/printers/FancyPrinter.hpp Pages: 1 -->
<svg width="396pt" height="274pt"
 viewBox="0.00 0.00 396.42 274.00" xmlns="http://www.w3.org/2000/svg" xmlns:xlink="http://www.w3.org/1999/xlink">
<g id="graph0" class="graph" transform="scale(1 1) rotate(0) translate(4 270)">
<title>/home/daniel/projects/tracer/src/printers/FancyPrinter.hpp</title>
<!-- Node0 -->
<g id="node1" class="node">
<title>Node0</title>
<polygon fill="#bfbfbf" stroke="#000000" points="23.9248,-224.5 23.9248,-265.5 145.9248,-265.5 145.9248,-224.5 23.9248,-224.5"/>
<text text-anchor="start" x="31.9248" y="-253.5" font-family="Helvetica,sans-Serif" font-size="10.00" fill="#000000">/home/daniel/projects</text>
<text text-anchor="start" x="31.9248" y="-242.5" font-family="Helvetica,sans-Serif" font-size="10.00" fill="#000000">/tracer/src/printers</text>
<text text-anchor="middle" x="84.9248" y="-231.5" font-family="Helvetica,sans-Serif" font-size="10.00" fill="#000000">/FancyPrinter.hpp</text>
</g>
<!-- Node1 -->
<g id="node2" class="node">
<title>Node1</title>
<polygon fill="none" stroke="#bfbfbf" points="102.4248,-.5 102.4248,-19.5 175.4248,-19.5 175.4248,-.5 102.4248,-.5"/>
<text text-anchor="middle" x="138.9248" y="-7.5" font-family="Helvetica,sans-Serif" font-size="10.00" fill="#000000">defines.hpp</text>
</g>
<!-- Node0&#45;&gt;Node1 -->
<g id="edge1" class="edge">
<title>Node0&#45;&gt;Node1</title>
<path fill="none" stroke="#191970" d="M58.4088,-224.4061C30.2305,-199.8218 -8.8961,-156.4268 1.9248,-112 8.5577,-84.7679 10.3751,-75.0602 30.9248,-56 48.2098,-39.9679 71.9261,-29.032 92.7319,-21.8603"/>
<polygon fill="#191970" stroke="#191970" points="93.9324,-25.1504 102.3609,-18.7308 91.7687,-18.4932 93.9324,-25.1504"/>
</g>
<!-- Node2 -->
<g id="node3" class="node">
<title>Node2</title>
<g id="a_node3"><a xlink:href="_file_printer_8hpp.html" target="_top" xlink:title="FilePrinter.hpp">
<polygon fill="none" stroke="#000000" points="41.9248,-168.5 41.9248,-187.5 127.9248,-187.5 127.9248,-168.5 41.9248,-168.5"/>
<text text-anchor="middle" x="84.9248" y="-175.5" font-family="Helvetica,sans-Serif" font-size="10.00" fill="#000000">FilePrinter.hpp</text>
</a>
</g>
</g>
<!-- Node0&#45;&gt;Node2 -->
<g id="edge2" class="edge">
<title>Node0&#45;&gt;Node2</title>
<path fill="none" stroke="#191970" d="M84.9248,-224.168C84.9248,-215.8226 84.9248,-206.2471 84.9248,-197.9879"/>
<polygon fill="#191970" stroke="#191970" points="88.4249,-197.7804 84.9248,-187.7805 81.4249,-197.7805 88.4249,-197.7804"/>
</g>
<!-- Node6 -->
<g id="node7" class="node">
<title>Node6</title>
<g id="a_node7"><a xlink:href="_system_info_printer_8hpp.html" target="_top" xlink:title="SystemInfoPrinter.hpp">
<polygon fill="none" stroke="#000000" points="201.4248,-168.5 201.4248,-187.5 326.4248,-187.5 326.4248,-168.5 201.4248,-168.5"/>
<text text-anchor="middle" x="263.9248" y="-175.5" font-family="Helvetica,sans-Serif" font-size="10.00" fill="#000000">SystemInfoPrinter.hpp</text>
</a>
</g>
</g>
<!-- Node0&#45;&gt;Node6 -->
<g id="edge9" class="edge">
<title>Node0&#45;&gt;Node6</title>
<path fill="none" stroke="#191970" d="M140.0913,-224.3511C168.9293,-213.557 203.3727,-200.6647 228.6046,-191.2204"/>
<polygon fill="#191970" stroke="#191970" points="229.9926,-194.4381 238.1311,-187.6546 227.5387,-187.8823 229.9926,-194.4381"/>
</g>
<!-- Node2&#45;&gt;Node1 -->
<g id="edge3" class="edge">
<title>Node2&#45;&gt;Node1</title>
<path fill="none" stroke="#191970" d="M56.8328,-168.4063C29.9852,-157.4909 -4.6773,-137.7841 7.9248,-112 28.457,-69.991 75.569,-40.265 107.3309,-24.1233"/>
<polygon fill="#191970" stroke="#191970" points="109.213,-27.0985 116.6488,-19.5514 106.1295,-20.8142 109.213,-27.0985"/>
</g>
<!-- Node3 -->
<g id="node4" class="node">
<title>Node3</title>
<g id="a_node4"><a xlink:href="_default_printer_8hpp.html" target="_top" xlink:title="DefaultPrinter.hpp">
<polygon fill="none" stroke="#000000" points="171.4248,-112.5 171.4248,-131.5 276.4248,-131.5 276.4248,-112.5 171.4248,-112.5"/>
<text text-anchor="middle" x="223.9248" y="-119.5" font-family="Helvetica,sans-Serif" font-size="10.00" fill="#000000">DefaultPrinter.hpp</text>
</a>
</g>
</g>
<!-- Node2&#45;&gt;Node3 -->
<g id="edge4" class="edge">
<title>Node2&#45;&gt;Node3</title>
<path fill="none" stroke="#191970" d="M108.8198,-168.3733C131.433,-159.2629 165.579,-145.5062 190.8121,-135.3404"/>
<polygon fill="#191970" stroke="#191970" points="192.3741,-138.4845 200.3417,-131.5011 189.7582,-131.9917 192.3741,-138.4845"/>
</g>
<!-- Node5 -->
<g id="node6" class="node">
<title>Node5</title>
<polygon fill="none" stroke="#bfbfbf" points="16.9248,-112.5 16.9248,-131.5 152.9248,-131.5 152.9248,-112.5 16.9248,-112.5"/>
<text text-anchor="middle" x="84.9248" y="-119.5" font-family="Helvetica,sans-Serif" font-size="10.00" fill="#000000">experimental/filesystem</text>
</g>
<!-- Node2&#45;&gt;Node5 -->
<g id="edge8" class="edge">
<title>Node2&#45;&gt;Node5</title>
<path fill="none" stroke="#191970" d="M84.9248,-168.2455C84.9248,-160.9382 84.9248,-150.6944 84.9248,-141.7046"/>
<polygon fill="#191970" stroke="#191970" points="88.4249,-141.6426 84.9248,-131.6427 81.4249,-141.6427 88.4249,-141.6426"/>
</g>
<!-- Node3&#45;&gt;Node1 -->
<g id="edge5" class="edge">
<title>Node3&#45;&gt;Node1</title>
<path fill="none" stroke="#191970" d="M203.1843,-112.3529C188.512,-104.5169 169.4678,-92.1277 157.9248,-76 148.1777,-62.3815 143.4068,-43.8397 141.0857,-29.8762"/>
<polygon fill="#191970" stroke="#191970" points="144.5351,-29.2687 139.7012,-19.8408 137.6008,-30.2254 144.5351,-29.2687"/>
</g>
<!-- Node4 -->
<g id="node5" class="node">
<title>Node4</title>
<g id="a_node5"><a xlink:href="_abstract_printer_8hpp.html" target="_top" xlink:title="AbstractPrinter.hpp">
<polygon fill="none" stroke="#000000" points="166.9248,-56.5 166.9248,-75.5 276.9248,-75.5 276.9248,-56.5 166.9248,-56.5"/>
<text text-anchor="middle" x="221.9248" y="-63.5" font-family="Helvetica,sans-Serif" font-size="10.00" fill="#000000">AbstractPrinter.hpp</text>
</a>
</g>
</g>
<!-- Node3&#45;&gt;Node4 -->
<g id="edge6" class="edge">
<title>Node3&#45;&gt;Node4</title>
<path fill="none" stroke="#191970" d="M223.5764,-112.2455C223.3155,-104.9382 222.9496,-94.6944 222.6285,-85.7046"/>
<polygon fill="#191970" stroke="#191970" points="226.124,-85.5113 222.2692,-75.6427 219.1284,-85.7613 226.124,-85.5113"/>
</g>
<!-- Node4&#45;&gt;Node1 -->
<g id="edge7" class="edge">
<title>Node4&#45;&gt;Node1</title>
<path fill="none" stroke="#191970" d="M207.4673,-56.2455C194.8516,-47.7337 176.3304,-35.2375 161.7203,-25.3801"/>
<polygon fill="#191970" stroke="#191970" points="163.4639,-22.3343 153.2166,-19.6427 159.5487,-28.1371 163.4639,-22.3343"/>
</g>
<!-- Node6&#45;&gt;Node1 -->
<g id="edge10" class="edge">
<title>Node6&#45;&gt;Node1</title>
<path fill="none" stroke="#191970" d="M270.0822,-168.3529C283.37,-146.1878 311.5423,-90.8588 285.9248,-56 273.8231,-39.5327 223.7729,-26.3317 185.4013,-18.3666"/>
<polygon fill="#191970" stroke="#191970" points="185.9239,-14.9017 175.4297,-16.3582 184.5417,-21.7639 185.9239,-14.9017"/>
</g>
<!-- Node6&#45;&gt;Node3 -->
<g id="edge11" class="edge">
<title>Node6&#45;&gt;Node3</title>
<path fill="none" stroke="#191970" d="M256.9573,-168.2455C251.3937,-160.4564 243.4468,-149.3308 236.7419,-139.9439"/>
<polygon fill="#191970" stroke="#191970" points="239.4729,-137.7457 230.8124,-131.6427 233.7768,-141.8144 239.4729,-137.7457"/>
</g>
<!-- Node7 -->
<g id="node8" class="node">
<title>Node7</title>
<polygon fill="none" stroke="#bfbfbf" points="333.4248,-112.5 333.4248,-131.5 388.4248,-131.5 388.4248,-112.5 333.4248,-112.5"/>
<text text-anchor="middle" x="360.9248" y="-119.5" font-family="Helvetica,sans-Serif" font-size="10.00" fill="#000000">signal.h</text>
</g>
<!-- Node6&#45;&gt;Node7 -->
<g id="edge12" class="edge">
<title>Node6&#45;&gt;Node7</title>
<path fill="none" stroke="#191970" d="M280.8209,-168.2455C295.8428,-159.5731 318.0291,-146.7645 335.2458,-136.825"/>
<polygon fill="#191970" stroke="#191970" points="337.3119,-139.6737 344.2223,-131.6427 333.812,-133.6114 337.3119,-139.6737"/>
</g>
</g>
</svg>
