<?xml version="1.0" encoding="UTF-8" standalone="no"?>
<!DOCTYPE svg PUBLIC "-//W3C//DTD SVG 1.1//EN"
 "http://www.w3.org/Graphics/SVG/1.1/DTD/svg11.dtd">
<!-- Generated by graphviz version 2.40.1 (20161225.0304)
 -->
<!-- Title: /home/daniel/projects/tracer/src/printers/FancyPrinter.cpp Pages: 1 -->
<!--zoomable 330 -->
<svg id="main" version="1.1" xmlns="http://www.w3.org/2000/svg" xmlns:xlink="http://www.w3.org/1999/xlink" xml:space="preserve" onload="init(evt)">
<style type="text/css"><![CDATA[
.edge:hover path { stroke: red; }
.edge:hover polygon { stroke: red; fill: red; }
]]></style>
<script type="text/javascript"><![CDATA[
var edges = document.getElementsByTagName('g');
if (edges && edges.length) {
  for (var i=0;i<edges.length;i++) {
    if (edges[i].id.substr(0,4)=='edge') {
      edges[i].setAttribute('class','edge');
    }
  }
}
]]></script>
        <defs>
                <circle id="rim" cx="0" cy="0" r="7"/>
                <circle id="rim2" cx="0" cy="0" r="3.5"/>
                <g id="zoomPlus">
                        <use xlink:href="#rim" fill="#404040">
                                <set attributeName="fill" to="#808080" begin="zoomplus.mouseover" end="zoomplus.mouseout"/>
                        </use>
                        <path d="M-4,0h8M0,-4v8" fill="none" stroke="white" stroke-width="1.5" pointer-events="none"/>
                </g>
                <g id="zoomMin">
                        <use xlink:href="#rim" fill="#404040">
                                <set attributeName="fill" to="#808080" begin="zoomminus.mouseover" end="zoomminus.mouseout"/>
                        </use>
                        <path d="M-4,0h8" fill="none" stroke="white" stroke-width="1.5" pointer-events="none"/>
                </g>
                <g id="dirArrow">
                        <path fill="none" stroke="white" stroke-width="1.5" d="M0,-3.0v7 M-2.5,-0.5L0,-3.0L2.5,-0.5"/>
                </g>
               <g id="resetDef">
                       <use xlink:href="#rim2" fill="#404040">
                               <set attributeName="fill" to="#808080" begin="reset.mouseover" end="reset.mouseout"/>
                       </use>
               </g>
        </defs>

<script type="text/javascript">
var viewWidth = 507;
var viewHeight = 330;
var sectionId = 'dynsection-0';
</script>
<script xlink:href="svgpan.js"/>
<svg id="graph" class="graph">
<g id="viewport">
<title>/home/daniel/projects/tracer/src/printers/FancyPrinter.cpp</title>
<!-- Node0 -->
<g id="node1" class="node">
<title>Node0</title>
<polygon fill="#bfbfbf" stroke="#000000" points="0,-280.5 0,-321.5 122,-321.5 122,-280.5 0,-280.5"/>
<text text-anchor="start" x="8" y="-309.5" font-family="Helvetica,sans-Serif" font-size="10.00" fill="#000000">/home/daniel/projects</text>
<text text-anchor="start" x="8" y="-298.5" font-family="Helvetica,sans-Serif" font-size="10.00" fill="#000000">/tracer/src/printers</text>
<text text-anchor="middle" x="61" y="-287.5" font-family="Helvetica,sans-Serif" font-size="10.00" fill="#000000">/FancyPrinter.cpp</text>
</g>
<!-- Node1 -->
<g id="node2" class="node">
<title>Node1</title>
<polygon fill="none" stroke="#bfbfbf" points="95.5,-.5 95.5,-19.5 168.5,-19.5 168.5,-.5 95.5,-.5"/>
<text text-anchor="middle" x="132" y="-7.5" font-family="Helvetica,sans-Serif" font-size="10.00" fill="#000000">defines.hpp</text>
</g>
<!-- Node0&#45;&gt;Node1 -->
<g id="edge1" class="edge">
<title>Node0&#45;&gt;Node1</title>
<path fill="none" stroke="#191970" d="M50.4149,-280.2713C39.171,-256.2952 23,-215.3245 23,-178 23,-178 23,-178 23,-122 23,-76.4375 69.8998,-42.4581 102.1714,-24.4701"/>
<polygon fill="#191970" stroke="#191970" points="104.0768,-27.4201 111.2414,-19.6149 100.7732,-21.2486 104.0768,-27.4201"/>
</g>
<!-- Node2 -->
<g id="node3" class="node">
<title>Node2</title>
<g id="a_node3"><a xlink:href="_fancy_printer_8hpp.html" target="_top" xlink:title="FancyPrinter.hpp">
<polygon fill="none" stroke="#000000" points="98.5,-224.5 98.5,-243.5 195.5,-243.5 195.5,-224.5 98.5,-224.5"/>
<text text-anchor="middle" x="147" y="-231.5" font-family="Helvetica,sans-Serif" font-size="10.00" fill="#000000">FancyPrinter.hpp</text>
</a>
</g>
</g>
<!-- Node0&#45;&gt;Node2 -->
<g id="edge2" class="edge">
<title>Node0&#45;&gt;Node2</title>
<path fill="none" stroke="#191970" d="M87.7395,-280.168C100.1558,-270.4949 114.6933,-259.1692 126.2622,-250.1562"/>
<polygon fill="#191970" stroke="#191970" points="128.7084,-252.6873 134.446,-243.7805 124.4063,-247.1653 128.7084,-252.6873"/>
</g>
<!-- Node2&#45;&gt;Node1 -->
<g id="edge3" class="edge">
<title>Node2&#45;&gt;Node1</title>
<path fill="none" stroke="#191970" d="M139.6337,-224.3247C133.1931,-215.3771 124.0955,-201.466 119,-188 98.1778,-132.9731 95.4825,-113.2609 109,-56 111.2706,-46.3814 115.8775,-36.4809 120.3759,-28.3404"/>
<polygon fill="#191970" stroke="#191970" points="123.3973,-30.1071 125.4603,-19.7151 117.367,-26.5524 123.3973,-30.1071"/>
</g>
<!-- Node3 -->
<g id="node4" class="node">
<title>Node3</title>
<g id="a_node4"><a xlink:href="_file_printer_8hpp.html" target="_top" xlink:title="FilePrinter.hpp">
<polygon fill="none" stroke="#000000" points="128,-168.5 128,-187.5 214,-187.5 214,-168.5 128,-168.5"/>
<text text-anchor="middle" x="171" y="-175.5" font-family="Helvetica,sans-Serif" font-size="10.00" fill="#000000">FilePrinter.hpp</text>
</a>
</g>
</g>
<!-- Node2&#45;&gt;Node3 -->
<g id="edge4" class="edge">
<title>Node2&#45;&gt;Node3</title>
<path fill="none" stroke="#191970" d="M151.1805,-224.2455C154.381,-216.7776 158.896,-206.2427 162.8084,-197.1137"/>
<polygon fill="#191970" stroke="#191970" points="166.1452,-198.2129 166.8674,-187.6427 159.7112,-195.4554 166.1452,-198.2129"/>
</g>
<!-- Node7 -->
<g id="node8" class="node">
<title>Node7</title>
<g id="a_node8"><a xlink:href="_system_info_printer_8hpp.html" target="_top" xlink:title="SystemInfoPrinter.hpp">
<polygon fill="none" stroke="#000000" points="311.5,-168.5 311.5,-187.5 436.5,-187.5 436.5,-168.5 311.5,-168.5"/>
<text text-anchor="middle" x="374" y="-175.5" font-family="Helvetica,sans-Serif" font-size="10.00" fill="#000000">SystemInfoPrinter.hpp</text>
</a>
</g>
</g>
<!-- Node2&#45;&gt;Node7 -->
<g id="edge11" class="edge">
<title>Node2&#45;&gt;Node7</title>
<path fill="none" stroke="#191970" d="M185.7648,-224.4369C224.3692,-214.9133 283.7384,-200.2672 325.4572,-189.9753"/>
<polygon fill="#191970" stroke="#191970" points="326.5245,-193.317 335.3951,-187.5237 324.8479,-186.5208 326.5245,-193.317"/>
</g>
<!-- Node3&#45;&gt;Node1 -->
<g id="edge5" class="edge">
<title>Node3&#45;&gt;Node1</title>
<path fill="none" stroke="#191970" d="M153.6242,-168.4558C141.1411,-160.5215 125.2818,-147.9621 118,-132 102.5924,-98.2258 114.6215,-53.9544 123.8919,-29.091"/>
<polygon fill="#191970" stroke="#191970" points="127.1788,-30.2968 127.608,-19.7106 120.6709,-27.7186 127.1788,-30.2968"/>
</g>
<!-- Node4 -->
<g id="node5" class="node">
<title>Node4</title>
<g id="a_node5"><a xlink:href="_default_printer_8hpp.html" target="_top" xlink:title="DefaultPrinter.hpp">
<polygon fill="none" stroke="#000000" points="281.5,-112.5 281.5,-131.5 386.5,-131.5 386.5,-112.5 281.5,-112.5"/>
<text text-anchor="middle" x="334" y="-119.5" font-family="Helvetica,sans-Serif" font-size="10.00" fill="#000000">DefaultPrinter.hpp</text>
</a>
</g>
</g>
<!-- Node3&#45;&gt;Node4 -->
<g id="edge6" class="edge">
<title>Node3&#45;&gt;Node4</title>
<path fill="none" stroke="#191970" d="M199.0207,-168.3733C226.0078,-159.1016 267.0017,-145.0178 296.7311,-134.804"/>
<polygon fill="#191970" stroke="#191970" points="298.0248,-138.0605 306.3449,-131.5011 295.7503,-131.4403 298.0248,-138.0605"/>
</g>
<!-- Node6 -->
<g id="node7" class="node">
<title>Node6</title>
<polygon fill="none" stroke="#bfbfbf" points="127,-112.5 127,-131.5 263,-131.5 263,-112.5 127,-112.5"/>
<text text-anchor="middle" x="195" y="-119.5" font-family="Helvetica,sans-Serif" font-size="10.00" fill="#000000">experimental/filesystem</text>
</g>
<!-- Node3&#45;&gt;Node6 -->
<g id="edge10" class="edge">
<title>Node3&#45;&gt;Node6</title>
<path fill="none" stroke="#191970" d="M175.1805,-168.2455C178.381,-160.7776 182.896,-150.2427 186.8084,-141.1137"/>
<polygon fill="#191970" stroke="#191970" points="190.1452,-142.2129 190.8674,-131.6427 183.7112,-139.4554 190.1452,-142.2129"/>
</g>
<!-- Node4&#45;&gt;Node1 -->
<g id="edge7" class="edge">
<title>Node4&#45;&gt;Node1</title>
<path fill="none" stroke="#191970" d="M313.1796,-112.4951C293.9411,-103.5522 264.6894,-89.5464 240,-76 210.1638,-59.6296 176.9001,-38.9107 155.2761,-25.0963"/>
<polygon fill="#191970" stroke="#191970" points="157.071,-22.0895 146.7652,-19.6314 153.2888,-27.9797 157.071,-22.0895"/>
</g>
<!-- Node5 -->
<g id="node6" class="node">
<title>Node5</title>
<g id="a_node6"><a xlink:href="_abstract_printer_8hpp.html" target="_top" xlink:title="AbstractPrinter.hpp">
<polygon fill="none" stroke="#000000" points="249,-56.5 249,-75.5 359,-75.5 359,-56.5 249,-56.5"/>
<text text-anchor="middle" x="304" y="-63.5" font-family="Helvetica,sans-Serif" font-size="10.00" fill="#000000">AbstractPrinter.hpp</text>
</a>
</g>
</g>
<!-- Node4&#45;&gt;Node5 -->
<g id="edge8" class="edge">
<title>Node4&#45;&gt;Node5</title>
<path fill="none" stroke="#191970" d="M328.7744,-112.2455C324.6877,-104.617 318.8865,-93.7881 313.925,-84.5267"/>
<polygon fill="#191970" stroke="#191970" points="316.9732,-82.8047 309.1657,-75.6427 310.8028,-86.1103 316.9732,-82.8047"/>
</g>
<!-- Node5&#45;&gt;Node1 -->
<g id="edge9" class="edge">
<title>Node5&#45;&gt;Node1</title>
<path fill="none" stroke="#191970" d="M274.4321,-56.3733C245.8312,-47.0613 202.3212,-32.8953 170.9181,-22.671"/>
<polygon fill="#191970" stroke="#191970" points="171.7743,-19.269 161.182,-19.5011 169.6072,-25.9251 171.7743,-19.269"/>
</g>
<!-- Node7&#45;&gt;Node1 -->
<g id="edge12" class="edge">
<title>Node7&#45;&gt;Node1</title>
<path fill="none" stroke="#191970" d="M379.9765,-168.2032C385.1112,-159.1737 392.1271,-145.2108 395,-132 402.6173,-96.9726 396.3835,-77.8933 368,-56 339.0199,-33.6465 239.0101,-20.3333 178.8763,-14.1637"/>
<polygon fill="#191970" stroke="#191970" points="179.1599,-10.6747 168.8617,-13.1643 178.4647,-17.6401 179.1599,-10.6747"/>
</g>
<!-- Node7&#45;&gt;Node4 -->
<g id="edge13" class="edge">
<title>Node7&#45;&gt;Node4</title>
<path fill="none" stroke="#191970" d="M367.0325,-168.2455C361.4689,-160.4564 353.522,-149.3308 346.8171,-139.9439"/>
<polygon fill="#191970" stroke="#191970" points="349.5481,-137.7457 340.8876,-131.6427 343.852,-141.8144 349.5481,-137.7457"/>
</g>
<!-- Node8 -->
<g id="node9" class="node">
<title>Node8</title>
<polygon fill="none" stroke="#bfbfbf" points="443.5,-112.5 443.5,-131.5 498.5,-131.5 498.5,-112.5 443.5,-112.5"/>
<text text-anchor="middle" x="471" y="-119.5" font-family="Helvetica,sans-Serif" font-size="10.00" fill="#000000">signal.h</text>
</g>
<!-- Node7&#45;&gt;Node8 -->
<g id="edge14" class="edge">
<title>Node7&#45;&gt;Node8</title>
<path fill="none" stroke="#191970" d="M390.8961,-168.2455C405.918,-159.5731 428.1043,-146.7645 445.321,-136.825"/>
<polygon fill="#191970" stroke="#191970" points="447.3871,-139.6737 454.2975,-131.6427 443.8872,-133.6114 447.3871,-139.6737"/>
</g>
</g>
</svg>
        <g id="navigator" transform="translate(0 0)" fill="#404254">
                <rect fill="#f2f5e9" fill-opacity="0.5" stroke="#606060" stroke-width=".5" x="0" y="0" width="60" height="60"/>
                <use id="zoomplus" xlink:href="#zoomPlus" x="17" y="9" onmousedown="handleZoom(evt,'in')"/>
                <use id="zoomminus" xlink:href="#zoomMin" x="42" y="9" onmousedown="handleZoom(evt,'out')"/>
                <use id="reset" xlink:href="#resetDef" x="30" y="36" onmousedown="handleReset()"/>
                <g id="arrowUp" xlink:href="#dirArrow" transform="translate(30 24)" onmousedown="handlePan(0,-1)">
                  <use xlink:href="#rim" fill="#404040">
                        <set attributeName="fill" to="#808080" begin="arrowUp.mouseover" end="arrowUp.mouseout"/>
                  </use>
                  <path fill="none" stroke="white" stroke-width="1.5" d="M0,-3.0v7 M-2.5,-0.5L0,-3.0L2.5,-0.5"/>
                </g>
                <g id="arrowRight" xlink:href="#dirArrow" transform="rotate(90) translate(36 -43)" onmousedown="handlePan(1,0)">
                  <use xlink:href="#rim" fill="#404040">
                        <set attributeName="fill" to="#808080" begin="arrowRight.mouseover" end="arrowRight.mouseout"/>
                  </use>
                  <path fill="none" stroke="white" stroke-width="1.5" d="M0,-3.0v7 M-2.5,-0.5L0,-3.0L2.5,-0.5"/>
                </g>
                <g id="arrowDown" xlink:href="#dirArrow" transform="rotate(180) translate(-30 -48)" onmousedown="handlePan(0,1)">
                  <use xlink:href="#rim" fill="#404040">
                        <set attributeName="fill" to="#808080" begin="arrowDown.mouseover" end="arrowDown.mouseout"/>
                  </use>
                  <path fill="none" stroke="white" stroke-width="1.5" d="M0,-3.0v7 M-2.5,-0.5L0,-3.0L2.5,-0.5"/>
                </g>
                <g id="arrowLeft" xlink:href="#dirArrow" transform="rotate(270) translate(-36 17)" onmousedown="handlePan(-1,0)">
                  <use xlink:href="#rim" fill="#404040">
                        <set attributeName="fill" to="#808080" begin="arrowLeft.mouseover" end="arrowLeft.mouseout"/>
                  </use>
                  <path fill="none" stroke="white" stroke-width="1.5" d="M0,-3.0v7 M-2.5,-0.5L0,-3.0L2.5,-0.5"/>
                </g>
        </g>
        <svg viewBox="0 0 15 15" width="100%" height="30px" preserveAspectRatio="xMaxYMin meet">
         <g id="arrow_out" transform="scale(0.3 0.3)">
          <a xlink:href="_fancy_printer_8cpp__incl_org.svg" target="_base">
           <rect id="button" ry="5" rx="5" y="6" x="6" height="38" width="38"
                fill="#f2f5e9" fill-opacity="0.5" stroke="#606060" stroke-width="1.0"/>
           <path id="arrow"
             d="M 11.500037,31.436501 C 11.940474,20.09759 22.043105,11.32322 32.158766,21.979434 L 37.068811,17.246167 C 37.068811,17.246167 37.088388,32 37.088388,32 L 22.160133,31.978069 C 22.160133,31.978069 26.997745,27.140456 26.997745,27.140456 C 18.528582,18.264221 13.291696,25.230495 11.500037,31.436501 z"
             style="fill:#404040;"/>
          </a>
         </g>
        </svg>
</svg>
