<?xml version="1.0" encoding="UTF-8" standalone="no"?>
<!DOCTYPE svg PUBLIC "-//W3C//DTD SVG 1.1//EN"
 "http://www.w3.org/Graphics/SVG/1.1/DTD/svg11.dtd">
<!-- Generated by graphviz version 2.40.1 (20161225.0304)
 -->
<!-- Title: /home/daniel/projects/tracer/src/printers/FilePrinter.hpp Pages: 1 -->
<svg width="295pt" height="218pt"
 viewBox="0.00 0.00 294.50 218.00" xmlns="http://www.w3.org/2000/svg" xmlns:xlink="http://www.w3.org/1999/xlink">
<g id="graph0" class="graph" transform="scale(1 1) rotate(0) translate(4 214)">
<title>/home/daniel/projects/tracer/src/printers/FilePrinter.hpp</title>
<!-- Node0 -->
<g id="node1" class="node">
<title>Node0</title>
<polygon fill="#bfbfbf" stroke="#000000" points="18.5,-168.5 18.5,-209.5 140.5,-209.5 140.5,-168.5 18.5,-168.5"/>
<text text-anchor="start" x="26.5" y="-197.5" font-family="Helvetica,sans-Serif" font-size="10.00" fill="#000000">/home/daniel/projects</text>
<text text-anchor="start" x="26.5" y="-186.5" font-family="Helvetica,sans-Serif" font-size="10.00" fill="#000000">/tracer/src/printers</text>
<text text-anchor="middle" x="79.5" y="-175.5" font-family="Helvetica,sans-Serif" font-size="10.00" fill="#000000">/FilePrinter.hpp</text>
</g>
<!-- Node1 -->
<g id="node2" class="node">
<title>Node1</title>
<polygon fill="none" stroke="#bfbfbf" points="0,-.5 0,-19.5 73,-19.5 73,-.5 0,-.5"/>
<text text-anchor="middle" x="36.5" y="-7.5" font-family="Helvetica,sans-Serif" font-size="10.00" fill="#000000">defines.hpp</text>
</g>
<!-- Node0&#45;&gt;Node1 -->
<g id="edge1" class="edge">
<title>Node0&#45;&gt;Node1</title>
<path fill="none" stroke="#191970" d="M47.6586,-168.3726C35.8746,-158.8631 23.848,-146.4591 17.5,-132 2.4954,-97.8235 16.6925,-53.6971 27.3084,-28.9675"/>
<polygon fill="#191970" stroke="#191970" points="30.5951,-30.1946 31.5432,-19.6423 24.2215,-27.3001 30.5951,-30.1946"/>
</g>
<!-- Node2 -->
<g id="node3" class="node">
<title>Node2</title>
<g id="a_node3"><a xlink:href="_default_printer_8hpp.html" target="_top" xlink:title="DefaultPrinter.hpp">
<polygon fill="none" stroke="#000000" points="27,-112.5 27,-131.5 132,-131.5 132,-112.5 27,-112.5"/>
<text text-anchor="middle" x="79.5" y="-119.5" font-family="Helvetica,sans-Serif" font-size="10.00" fill="#000000">DefaultPrinter.hpp</text>
</a>
</g>
</g>
<!-- Node0&#45;&gt;Node2 -->
<g id="edge2" class="edge">
<title>Node0&#45;&gt;Node2</title>
<path fill="none" stroke="#191970" d="M79.5,-168.168C79.5,-159.8226 79.5,-150.2471 79.5,-141.9879"/>
<polygon fill="#191970" stroke="#191970" points="83.0001,-141.7804 79.5,-131.7805 76.0001,-141.7805 83.0001,-141.7804"/>
</g>
<!-- Node4 -->
<g id="node5" class="node">
<title>Node4</title>
<polygon fill="none" stroke="#bfbfbf" points="150.5,-112.5 150.5,-131.5 286.5,-131.5 286.5,-112.5 150.5,-112.5"/>
<text text-anchor="middle" x="218.5" y="-119.5" font-family="Helvetica,sans-Serif" font-size="10.00" fill="#000000">experimental/filesystem</text>
</g>
<!-- Node0&#45;&gt;Node4 -->
<g id="edge6" class="edge">
<title>Node0&#45;&gt;Node4</title>
<path fill="none" stroke="#191970" d="M122.3388,-168.3511C144.0389,-157.8913 169.8264,-145.4614 189.2317,-136.1077"/>
<polygon fill="#191970" stroke="#191970" points="190.9818,-139.1496 198.4702,-131.6546 187.9423,-132.8439 190.9818,-139.1496"/>
</g>
<!-- Node2&#45;&gt;Node1 -->
<g id="edge3" class="edge">
<title>Node2&#45;&gt;Node1</title>
<path fill="none" stroke="#191970" d="M73.7642,-112.3987C68.4902,-103.2742 60.7199,-89.0465 55.5,-76 49.4097,-60.7781 44.3805,-42.8677 41.0295,-29.5482"/>
<polygon fill="#191970" stroke="#191970" points="44.376,-28.4961 38.6229,-19.5994 37.5722,-30.142 44.376,-28.4961"/>
</g>
<!-- Node3 -->
<g id="node4" class="node">
<title>Node3</title>
<g id="a_node4"><a xlink:href="_abstract_printer_8hpp.html" target="_top" xlink:title="AbstractPrinter.hpp">
<polygon fill="none" stroke="#000000" points="64.5,-56.5 64.5,-75.5 174.5,-75.5 174.5,-56.5 64.5,-56.5"/>
<text text-anchor="middle" x="119.5" y="-63.5" font-family="Helvetica,sans-Serif" font-size="10.00" fill="#000000">AbstractPrinter.hpp</text>
</a>
</g>
</g>
<!-- Node2&#45;&gt;Node3 -->
<g id="edge4" class="edge">
<title>Node2&#45;&gt;Node3</title>
<path fill="none" stroke="#191970" d="M86.4675,-112.2455C92.0311,-104.4564 99.978,-93.3308 106.6829,-83.9439"/>
<polygon fill="#191970" stroke="#191970" points="109.648,-85.8144 112.6124,-75.6427 103.9519,-81.7457 109.648,-85.8144"/>
</g>
<!-- Node3&#45;&gt;Node1 -->
<g id="edge5" class="edge">
<title>Node3&#45;&gt;Node1</title>
<path fill="none" stroke="#191970" d="M105.0425,-56.2455C92.4268,-47.7337 73.9056,-35.2375 59.2955,-25.3801"/>
<polygon fill="#191970" stroke="#191970" points="61.0391,-22.3343 50.7918,-19.6427 57.1239,-28.1371 61.0391,-22.3343"/>
</g>
</g>
</svg>
