<?xml version="1.0" encoding="UTF-8" standalone="no"?>
<!DOCTYPE svg PUBLIC "-//W3C//DTD SVG 1.1//EN"
 "http://www.w3.org/Graphics/SVG/1.1/DTD/svg11.dtd">
<!-- Generated by graphviz version 2.40.1 (20161225.0304)
 -->
<!-- Title: /home/daniel/projects/tracer/src/printers/FilePrinter.cpp Pages: 1 -->
<svg width="654pt" height="274pt"
 viewBox="0.00 0.00 653.98 274.00" xmlns="http://www.w3.org/2000/svg" xmlns:xlink="http://www.w3.org/1999/xlink">
<g id="graph0" class="graph" transform="scale(1 1) rotate(0) translate(4 270)">
<title>/home/daniel/projects/tracer/src/printers/FilePrinter.cpp</title>
<!-- Node0 -->
<g id="node1" class="node">
<title>Node0</title>
<polygon fill="#bfbfbf" stroke="#000000" points="330.9827,-224.5 330.9827,-265.5 452.9827,-265.5 452.9827,-224.5 330.9827,-224.5"/>
<text text-anchor="start" x="338.9827" y="-253.5" font-family="Helvetica,sans-Serif" font-size="10.00" fill="#000000">/home/daniel/projects</text>
<text text-anchor="start" x="338.9827" y="-242.5" font-family="Helvetica,sans-Serif" font-size="10.00" fill="#000000">/tracer/src/printers</text>
<text text-anchor="middle" x="391.9827" y="-231.5" font-family="Helvetica,sans-Serif" font-size="10.00" fill="#000000">/FilePrinter.cpp</text>
</g>
<!-- Node1 -->
<g id="node2" class="node">
<title>Node1</title>
<polygon fill="none" stroke="#bfbfbf" points="234.4827,-.5 234.4827,-19.5 307.4827,-19.5 307.4827,-.5 234.4827,-.5"/>
<text text-anchor="middle" x="270.9827" y="-7.5" font-family="Helvetica,sans-Serif" font-size="10.00" fill="#000000">defines.hpp</text>
</g>
<!-- Node0&#45;&gt;Node1 -->
<g id="edge1" class="edge">
<title>Node0&#45;&gt;Node1</title>
<path fill="none" stroke="#191970" d="M330.9117,-240.1354C269.4902,-233.68 172.9719,-219.2191 94.9827,-188 52.2917,-170.9107 30.0062,-172.3675 7.9827,-132 -38.8097,-46.2327 136.5635,-20.3886 224.095,-12.9054"/>
<polygon fill="#191970" stroke="#191970" points="224.6272,-16.3739 234.3133,-12.081 224.0642,-9.3966 224.6272,-16.3739"/>
</g>
<!-- Node2 -->
<g id="node3" class="node">
<title>Node2</title>
<g id="a_node3"><a xlink:href="_file_printer_8hpp.html" target="_top" xlink:title="FilePrinter.hpp">
<polygon fill="none" stroke="#000000" points="103.9827,-168.5 103.9827,-187.5 189.9827,-187.5 189.9827,-168.5 103.9827,-168.5"/>
<text text-anchor="middle" x="146.9827" y="-175.5" font-family="Helvetica,sans-Serif" font-size="10.00" fill="#000000">FilePrinter.hpp</text>
</a>
</g>
</g>
<!-- Node0&#45;&gt;Node2 -->
<g id="edge2" class="edge">
<title>Node0&#45;&gt;Node2</title>
<path fill="none" stroke="#191970" d="M330.7908,-228.2659C287.7256,-216.4889 231.0401,-200.9871 192.0672,-190.3292"/>
<polygon fill="#191970" stroke="#191970" points="192.635,-186.856 182.0659,-187.5942 190.7884,-193.6081 192.635,-186.856"/>
</g>
<!-- Node6 -->
<g id="node7" class="node">
<title>Node6</title>
<g id="a_node7"><a xlink:href="_tracer_8hpp.html" target="_top" xlink:title="Tracer.hpp">
<polygon fill="none" stroke="#000000" points="279.9827,-168.5 279.9827,-187.5 345.9827,-187.5 345.9827,-168.5 279.9827,-168.5"/>
<text text-anchor="middle" x="312.9827" y="-175.5" font-family="Helvetica,sans-Serif" font-size="10.00" fill="#000000">Tracer.hpp</text>
</a>
</g>
</g>
<!-- Node0&#45;&gt;Node6 -->
<g id="edge9" class="edge">
<title>Node0&#45;&gt;Node6</title>
<path fill="none" stroke="#191970" d="M367.4197,-224.168C356.1258,-214.5897 342.9214,-203.3911 332.3459,-194.422"/>
<polygon fill="#191970" stroke="#191970" points="334.4053,-191.5793 324.5149,-187.7805 329.8776,-196.9179 334.4053,-191.5793"/>
</g>
<!-- Node10 -->
<g id="node11" class="node">
<title>Node10</title>
<polygon fill="none" stroke="#bfbfbf" points="364.4827,-168.5 364.4827,-187.5 419.4827,-187.5 419.4827,-168.5 364.4827,-168.5"/>
<text text-anchor="middle" x="391.9827" y="-175.5" font-family="Helvetica,sans-Serif" font-size="10.00" fill="#000000">fstream</text>
</g>
<!-- Node0&#45;&gt;Node10 -->
<g id="edge18" class="edge">
<title>Node0&#45;&gt;Node10</title>
<path fill="none" stroke="#191970" d="M391.9827,-224.168C391.9827,-215.8226 391.9827,-206.2471 391.9827,-197.9879"/>
<polygon fill="#191970" stroke="#191970" points="395.4828,-197.7804 391.9827,-187.7805 388.4828,-197.7805 395.4828,-197.7804"/>
</g>
<!-- Node11 -->
<g id="node12" class="node">
<title>Node11</title>
<polygon fill="none" stroke="#bfbfbf" points="437.9827,-168.5 437.9827,-187.5 493.9827,-187.5 493.9827,-168.5 437.9827,-168.5"/>
<text text-anchor="middle" x="465.9827" y="-175.5" font-family="Helvetica,sans-Serif" font-size="10.00" fill="#000000">iomanip</text>
</g>
<!-- Node0&#45;&gt;Node11 -->
<g id="edge19" class="edge">
<title>Node0&#45;&gt;Node11</title>
<path fill="none" stroke="#191970" d="M414.9911,-224.168C425.4654,-214.6846 437.6941,-203.6127 447.55,-194.689"/>
<polygon fill="#191970" stroke="#191970" points="450.1165,-197.0868 455.1804,-187.7805 445.4183,-191.8977 450.1165,-197.0868"/>
</g>
<!-- Node12 -->
<g id="node13" class="node">
<title>Node12</title>
<polygon fill="none" stroke="#bfbfbf" points="511.9827,-168.5 511.9827,-187.5 571.9827,-187.5 571.9827,-168.5 511.9827,-168.5"/>
<text text-anchor="middle" x="541.9827" y="-175.5" font-family="Helvetica,sans-Serif" font-size="10.00" fill="#000000">iostream</text>
</g>
<!-- Node0&#45;&gt;Node12 -->
<g id="edge20" class="edge">
<title>Node0&#45;&gt;Node12</title>
<path fill="none" stroke="#191970" d="M438.2116,-224.3511C461.8429,-213.7958 489.9659,-201.2342 510.9702,-191.8523"/>
<polygon fill="#191970" stroke="#191970" points="512.6647,-194.9287 520.3678,-187.6546 509.8098,-188.5373 512.6647,-194.9287"/>
</g>
<!-- Node13 -->
<g id="node14" class="node">
<title>Node13</title>
<polygon fill="none" stroke="#bfbfbf" points="589.9827,-168.5 589.9827,-187.5 645.9827,-187.5 645.9827,-168.5 589.9827,-168.5"/>
<text text-anchor="middle" x="617.9827" y="-175.5" font-family="Helvetica,sans-Serif" font-size="10.00" fill="#000000">sstream</text>
</g>
<!-- Node0&#45;&gt;Node13 -->
<g id="edge21" class="edge">
<title>Node0&#45;&gt;Node13</title>
<path fill="none" stroke="#191970" d="M453.1416,-226.8688C493.5946,-214.8761 545.3644,-199.5284 579.9938,-189.2622"/>
<polygon fill="#191970" stroke="#191970" points="581.1277,-192.5767 589.7204,-186.3786 579.1381,-185.8654 581.1277,-192.5767"/>
</g>
<!-- Node2&#45;&gt;Node1 -->
<g id="edge3" class="edge">
<title>Node2&#45;&gt;Node1</title>
<path fill="none" stroke="#191970" d="M103.8464,-173.0664C57.745,-165.8071 -5.9469,-148.8842 15.9827,-112 38.0884,-74.8198 156.9476,-39.1063 224.3114,-21.4563"/>
<polygon fill="#191970" stroke="#191970" points="225.4538,-24.7761 234.2586,-18.8832 223.7007,-17.9991 225.4538,-24.7761"/>
</g>
<!-- Node3 -->
<g id="node4" class="node">
<title>Node3</title>
<g id="a_node4"><a xlink:href="_default_printer_8hpp.html" target="_top" xlink:title="DefaultPrinter.hpp">
<polygon fill="none" stroke="#000000" points="25.4827,-112.5 25.4827,-131.5 130.4827,-131.5 130.4827,-112.5 25.4827,-112.5"/>
<text text-anchor="middle" x="77.9827" y="-119.5" font-family="Helvetica,sans-Serif" font-size="10.00" fill="#000000">DefaultPrinter.hpp</text>
</a>
</g>
</g>
<!-- Node2&#45;&gt;Node3 -->
<g id="edge4" class="edge">
<title>Node2&#45;&gt;Node3</title>
<path fill="none" stroke="#191970" d="M134.9638,-168.2455C124.7729,-159.9746 109.9465,-147.9416 97.972,-138.2232"/>
<polygon fill="#191970" stroke="#191970" points="99.8341,-135.2268 89.8638,-131.6427 95.4228,-140.662 99.8341,-135.2268"/>
</g>
<!-- Node5 -->
<g id="node6" class="node">
<title>Node5</title>
<polygon fill="none" stroke="#bfbfbf" points="148.9827,-112.5 148.9827,-131.5 284.9827,-131.5 284.9827,-112.5 148.9827,-112.5"/>
<text text-anchor="middle" x="216.9827" y="-119.5" font-family="Helvetica,sans-Serif" font-size="10.00" fill="#000000">experimental/filesystem</text>
</g>
<!-- Node2&#45;&gt;Node5 -->
<g id="edge8" class="edge">
<title>Node2&#45;&gt;Node5</title>
<path fill="none" stroke="#191970" d="M159.1758,-168.2455C169.6148,-159.8943 184.8482,-147.7076 197.0567,-137.9408"/>
<polygon fill="#191970" stroke="#191970" points="199.3071,-140.6227 204.9294,-131.6427 194.9342,-135.1566 199.3071,-140.6227"/>
</g>
<!-- Node3&#45;&gt;Node1 -->
<g id="edge5" class="edge">
<title>Node3&#45;&gt;Node1</title>
<path fill="none" stroke="#191970" d="M86.0799,-112.205C98.2223,-98.0653 122.4611,-71.892 147.9827,-56 171.6262,-41.2774 200.7152,-30.1307 224.6678,-22.4998"/>
<polygon fill="#191970" stroke="#191970" points="225.7233,-25.837 234.248,-19.5457 223.6606,-19.1478 225.7233,-25.837"/>
</g>
<!-- Node4 -->
<g id="node5" class="node">
<title>Node4</title>
<g id="a_node5"><a xlink:href="_abstract_printer_8hpp.html" target="_top" xlink:title="AbstractPrinter.hpp">
<polygon fill="none" stroke="#000000" points="156.9827,-56.5 156.9827,-75.5 266.9827,-75.5 266.9827,-56.5 156.9827,-56.5"/>
<text text-anchor="middle" x="211.9827" y="-63.5" font-family="Helvetica,sans-Serif" font-size="10.00" fill="#000000">AbstractPrinter.hpp</text>
</a>
</g>
</g>
<!-- Node3&#45;&gt;Node4 -->
<g id="edge6" class="edge">
<title>Node3&#45;&gt;Node4</title>
<path fill="none" stroke="#191970" d="M101.0181,-112.3733C122.7215,-103.3032 155.4445,-89.6279 179.7377,-79.4755"/>
<polygon fill="#191970" stroke="#191970" points="181.3708,-82.5865 189.2479,-75.5011 178.6716,-76.1278 181.3708,-82.5865"/>
</g>
<!-- Node4&#45;&gt;Node1 -->
<g id="edge7" class="edge">
<title>Node4&#45;&gt;Node1</title>
<path fill="none" stroke="#191970" d="M222.2597,-56.2455C230.8045,-48.1352 243.1605,-36.4075 253.2912,-26.7919"/>
<polygon fill="#191970" stroke="#191970" points="255.9799,-29.0655 260.8235,-19.6427 251.1609,-23.9884 255.9799,-29.0655"/>
</g>
<!-- Node6&#45;&gt;Node1 -->
<g id="edge10" class="edge">
<title>Node6&#45;&gt;Node1</title>
<path fill="none" stroke="#191970" d="M310.6043,-168.4862C303.9363,-141.8144 284.9606,-65.9117 275.9065,-29.695"/>
<polygon fill="#191970" stroke="#191970" points="279.2606,-28.6804 273.4397,-19.8279 272.4696,-30.3782 279.2606,-28.6804"/>
</g>
<!-- Node7 -->
<g id="node8" class="node">
<title>Node7</title>
<g id="a_node8"><a xlink:href="_abstract_debug_info_8hpp.html" target="_top" xlink:title="AbstractDebugInfo.hpp">
<polygon fill="none" stroke="#000000" points="340.9827,-112.5 340.9827,-131.5 468.9827,-131.5 468.9827,-112.5 340.9827,-112.5"/>
<text text-anchor="middle" x="404.9827" y="-119.5" font-family="Helvetica,sans-Serif" font-size="10.00" fill="#000000">AbstractDebugInfo.hpp</text>
</a>
</g>
</g>
<!-- Node6&#45;&gt;Node7 -->
<g id="edge11" class="edge">
<title>Node6&#45;&gt;Node7</title>
<path fill="none" stroke="#191970" d="M329.0079,-168.2455C343.1235,-159.6534 363.909,-147.0014 380.1726,-137.1018"/>
<polygon fill="#191970" stroke="#191970" points="382.419,-139.8319 389.1412,-131.6427 378.7793,-133.8525 382.419,-139.8319"/>
</g>
<!-- Node9 -->
<g id="node10" class="node">
<title>Node9</title>
<g id="a_node10"><a xlink:href="_abstract_tracer_8hpp.html" target="_top" xlink:title="AbstractTracer.hpp">
<polygon fill="none" stroke="#000000" points="487.4827,-112.5 487.4827,-131.5 594.4827,-131.5 594.4827,-112.5 487.4827,-112.5"/>
<text text-anchor="middle" x="540.9827" y="-119.5" font-family="Helvetica,sans-Serif" font-size="10.00" fill="#000000">AbstractTracer.hpp</text>
</a>
</g>
</g>
<!-- Node6&#45;&gt;Node9 -->
<g id="edge15" class="edge">
<title>Node6&#45;&gt;Node9</title>
<path fill="none" stroke="#191970" d="M346.1359,-169.8571C384.5205,-160.4293 448.0995,-144.8134 492.1428,-133.9958"/>
<polygon fill="#191970" stroke="#191970" points="493.1818,-137.3447 502.0583,-131.5604 491.5121,-130.5467 493.1818,-137.3447"/>
</g>
<!-- Node7&#45;&gt;Node1 -->
<g id="edge12" class="edge">
<title>Node7&#45;&gt;Node1</title>
<path fill="none" stroke="#191970" d="M393.6589,-112.3293C378.5206,-99.4213 350.8262,-75.8787 326.9827,-56 315.0873,-46.0826 301.684,-35.0671 290.9732,-26.3025"/>
<polygon fill="#191970" stroke="#191970" points="292.9988,-23.4379 283.0408,-19.82 288.5692,-28.8581 292.9988,-23.4379"/>
</g>
<!-- Node8 -->
<g id="node9" class="node">
<title>Node8</title>
<g id="a_node9"><a xlink:href="_frame_8hpp.html" target="_top" xlink:title="Frame.hpp">
<polygon fill="none" stroke="#000000" points="378.9827,-56.5 378.9827,-75.5 446.9827,-75.5 446.9827,-56.5 378.9827,-56.5"/>
<text text-anchor="middle" x="412.9827" y="-63.5" font-family="Helvetica,sans-Serif" font-size="10.00" fill="#000000">Frame.hpp</text>
</a>
</g>
</g>
<!-- Node7&#45;&gt;Node8 -->
<g id="edge13" class="edge">
<title>Node7&#45;&gt;Node8</title>
<path fill="none" stroke="#191970" d="M406.3762,-112.2455C407.4201,-104.9382 408.8835,-94.6944 410.1678,-85.7046"/>
<polygon fill="#191970" stroke="#191970" points="413.6557,-86.0372 411.6052,-75.6427 406.7261,-85.0472 413.6557,-86.0372"/>
</g>
<!-- Node8&#45;&gt;Node1 -->
<g id="edge14" class="edge">
<title>Node8&#45;&gt;Node1</title>
<path fill="none" stroke="#191970" d="M388.572,-56.3733C365.3685,-47.2226 330.2789,-33.3844 304.4685,-23.2057"/>
<polygon fill="#191970" stroke="#191970" points="305.6616,-19.9139 295.0748,-19.5011 303.0935,-26.4258 305.6616,-19.9139"/>
</g>
<!-- Node9&#45;&gt;Node1 -->
<g id="edge16" class="edge">
<title>Node9&#45;&gt;Node1</title>
<path fill="none" stroke="#191970" d="M531.4495,-112.3665C516.6287,-97.944 486.5718,-70.8505 455.9827,-56 411.5706,-34.4386 356.1022,-22.3861 317.5418,-16.0818"/>
<polygon fill="#191970" stroke="#191970" points="318.051,-12.6189 307.6294,-14.5267 316.9661,-19.5343 318.051,-12.6189"/>
</g>
<!-- Node9&#45;&gt;Node8 -->
<g id="edge17" class="edge">
<title>Node9&#45;&gt;Node8</title>
<path fill="none" stroke="#191970" d="M518.9787,-112.3733C498.3392,-103.3435 467.2669,-89.7494 444.0938,-79.6111"/>
<polygon fill="#191970" stroke="#191970" points="445.264,-76.3028 434.6995,-75.5011 442.4582,-82.7159 445.264,-76.3028"/>
</g>
</g>
</svg>
