<?xml version="1.0" encoding="UTF-8" standalone="no"?>
<!DOCTYPE svg PUBLIC "-//W3C//DTD SVG 1.1//EN"
 "http://www.w3.org/Graphics/SVG/1.1/DTD/svg11.dtd">
<!-- Generated by graphviz version 2.40.1 (20161225.0304)
 -->
<!-- Title: /home/daniel/projects/tracer/src/Frame.hpp Pages: 1 -->
<svg width="2260pt" height="429pt"
 viewBox="0.00 0.00 2260.00 429.00" xmlns="http://www.w3.org/2000/svg" xmlns:xlink="http://www.w3.org/1999/xlink">
<g id="graph0" class="graph" transform="scale(1 1) rotate(0) translate(4 425)">
<title>/home/daniel/projects/tracer/src/Frame.hpp</title>
<!-- Node2 -->
<g id="node1" class="node">
<title>Node2</title>
<polygon fill="#bfbfbf" stroke="#000000" points="926.5,-390.5 926.5,-420.5 1048.5,-420.5 1048.5,-390.5 926.5,-390.5"/>
<text text-anchor="start" x="934.5" y="-408.5" font-family="Helvetica,sans-Serif" font-size="10.00" fill="#000000">/home/daniel/projects</text>
<text text-anchor="middle" x="987.5" y="-397.5" font-family="Helvetica,sans-Serif" font-size="10.00" fill="#000000">/tracer/src/Frame.hpp</text>
</g>
<!-- Node3 -->
<g id="node2" class="node">
<title>Node3</title>
<g id="a_node2"><a xlink:href="_abstract_debug_info_8hpp.html" target="_top" xlink:title="/home/daniel/projects\l/tracer/src/debugInfo\l/AbstractDebugInfo.hpp">
<polygon fill="none" stroke="#000000" points="1472,-312.5 1472,-353.5 1603,-353.5 1603,-312.5 1472,-312.5"/>
<text text-anchor="start" x="1480" y="-341.5" font-family="Helvetica,sans-Serif" font-size="10.00" fill="#000000">/home/daniel/projects</text>
<text text-anchor="start" x="1480" y="-330.5" font-family="Helvetica,sans-Serif" font-size="10.00" fill="#000000">/tracer/src/debugInfo</text>
<text text-anchor="middle" x="1537.5" y="-319.5" font-family="Helvetica,sans-Serif" font-size="10.00" fill="#000000">/AbstractDebugInfo.hpp</text>
</a>
</g>
</g>
<!-- Node2&#45;&gt;Node3 -->
<g id="edge1" class="edge">
<title>Node2&#45;&gt;Node3</title>
<path fill="none" stroke="#191970" d="M1058.8109,-396.0999C1166.1277,-381.9536 1367.6312,-355.3918 1471.6478,-341.6805"/>
<polygon fill="#191970" stroke="#191970" points="1058.1826,-392.6524 1048.7258,-397.4293 1059.0975,-399.5923 1058.1826,-392.6524"/>
</g>
<!-- Node27 -->
<g id="node26" class="node">
<title>Node27</title>
<g id="a_node26"><a xlink:href="_abstract_tracer_8hpp.html" target="_top" xlink:title="/home/daniel/projects\l/tracer/src/tracer/Abstract\lTracer.hpp">
<polygon fill="none" stroke="#000000" points="467.5,-312.5 467.5,-353.5 607.5,-353.5 607.5,-312.5 467.5,-312.5"/>
<text text-anchor="start" x="475.5" y="-341.5" font-family="Helvetica,sans-Serif" font-size="10.00" fill="#000000">/home/daniel/projects</text>
<text text-anchor="start" x="475.5" y="-330.5" font-family="Helvetica,sans-Serif" font-size="10.00" fill="#000000">/tracer/src/tracer/Abstract</text>
<text text-anchor="middle" x="537.5" y="-319.5" font-family="Helvetica,sans-Serif" font-size="10.00" fill="#000000">Tracer.hpp</text>
</a>
</g>
</g>
<!-- Node2&#45;&gt;Node27 -->
<g id="edge26" class="edge">
<title>Node2&#45;&gt;Node27</title>
<path fill="none" stroke="#191970" d="M916.3229,-394.0326C831.8428,-380.4219 691.8608,-357.8692 607.7773,-344.3224"/>
<polygon fill="#191970" stroke="#191970" points="915.9132,-397.5116 926.3427,-395.6469 917.0267,-390.6008 915.9132,-397.5116"/>
</g>
<!-- Node4 -->
<g id="node3" class="node">
<title>Node4</title>
<g id="a_node3"><a xlink:href="_abstract_debug_info_8cpp.html" target="_top" xlink:title="/home/daniel/projects\l/tracer/src/debugInfo\l/AbstractDebugInfo.cpp">
<polygon fill="none" stroke="#000000" points="1205,-229 1205,-270 1336,-270 1336,-229 1205,-229"/>
<text text-anchor="start" x="1213" y="-258" font-family="Helvetica,sans-Serif" font-size="10.00" fill="#000000">/home/daniel/projects</text>
<text text-anchor="start" x="1213" y="-247" font-family="Helvetica,sans-Serif" font-size="10.00" fill="#000000">/tracer/src/debugInfo</text>
<text text-anchor="middle" x="1270.5" y="-236" font-family="Helvetica,sans-Serif" font-size="10.00" fill="#000000">/AbstractDebugInfo.cpp</text>
</a>
</g>
</g>
<!-- Node3&#45;&gt;Node4 -->
<g id="edge2" class="edge">
<title>Node3&#45;&gt;Node4</title>
<path fill="none" stroke="#191970" d="M1461.693,-311.6885C1425.9895,-301.3764 1382.9038,-288.5362 1344.5,-276 1338.7921,-274.1368 1332.8603,-272.1312 1326.9501,-270.0872"/>
<polygon fill="#191970" stroke="#191970" points="1460.9794,-315.1252 1471.5574,-314.5277 1462.9156,-308.3982 1460.9794,-315.1252"/>
</g>
<!-- Node5 -->
<g id="node4" class="node">
<title>Node5</title>
<g id="a_node4"><a xlink:href="_debug_info_dummy_8hpp.html" target="_top" xlink:title="/home/daniel/projects\l/tracer/src/debugInfo\l/dummy/DebugInfoDummy.hpp">
<polygon fill="none" stroke="#000000" points="1354,-229 1354,-270 1523,-270 1523,-229 1354,-229"/>
<text text-anchor="start" x="1362" y="-258" font-family="Helvetica,sans-Serif" font-size="10.00" fill="#000000">/home/daniel/projects</text>
<text text-anchor="start" x="1362" y="-247" font-family="Helvetica,sans-Serif" font-size="10.00" fill="#000000">/tracer/src/debugInfo</text>
<text text-anchor="middle" x="1438.5" y="-236" font-family="Helvetica,sans-Serif" font-size="10.00" fill="#000000">/dummy/DebugInfoDummy.hpp</text>
</a>
</g>
</g>
<!-- Node3&#45;&gt;Node5 -->
<g id="edge3" class="edge">
<title>Node3&#45;&gt;Node5</title>
<path fill="none" stroke="#191970" d="M1505.223,-305.7765C1491.5069,-294.2079 1475.7753,-280.9393 1463.0335,-270.1924"/>
<polygon fill="#191970" stroke="#191970" points="1503.1274,-308.5877 1513.0281,-312.3595 1507.6405,-303.2368 1503.1274,-308.5877"/>
</g>
<!-- Node8 -->
<g id="node7" class="node">
<title>Node8</title>
<g id="a_node7"><a xlink:href="_debug_info_external_fallback_8hpp.html" target="_top" xlink:title="/home/daniel/projects\l/tracer/src/debugInfo\l/externalFallback/DebugInfoExternal\lFallback.hpp">
<polygon fill="none" stroke="#000000" points="1540.5,-223.5 1540.5,-275.5 1734.5,-275.5 1734.5,-223.5 1540.5,-223.5"/>
<text text-anchor="start" x="1548.5" y="-263.5" font-family="Helvetica,sans-Serif" font-size="10.00" fill="#000000">/home/daniel/projects</text>
<text text-anchor="start" x="1548.5" y="-252.5" font-family="Helvetica,sans-Serif" font-size="10.00" fill="#000000">/tracer/src/debugInfo</text>
<text text-anchor="start" x="1548.5" y="-241.5" font-family="Helvetica,sans-Serif" font-size="10.00" fill="#000000">/externalFallback/DebugInfoExternal</text>
<text text-anchor="middle" x="1637.5" y="-230.5" font-family="Helvetica,sans-Serif" font-size="10.00" fill="#000000">Fallback.hpp</text>
</a>
</g>
</g>
<!-- Node3&#45;&gt;Node8 -->
<g id="edge6" class="edge">
<title>Node3&#45;&gt;Node8</title>
<path fill="none" stroke="#191970" d="M1570.0067,-305.8569C1581.6424,-296.1411 1594.7244,-285.2176 1606.2515,-275.5925"/>
<polygon fill="#191970" stroke="#191970" points="1567.6517,-303.2635 1562.2191,-312.3595 1572.1383,-308.6367 1567.6517,-303.2635"/>
</g>
<!-- Node10 -->
<g id="node9" class="node">
<title>Node10</title>
<g id="a_node9"><a xlink:href="_debug_info_b_f_d_8hpp.html" target="_top" xlink:title="/home/daniel/projects\l/tracer/src/debugInfo\l/libbfd/DebugInfoBFD.hpp">
<polygon fill="none" stroke="#000000" points="1753,-229 1753,-270 1894,-270 1894,-229 1753,-229"/>
<text text-anchor="start" x="1761" y="-258" font-family="Helvetica,sans-Serif" font-size="10.00" fill="#000000">/home/daniel/projects</text>
<text text-anchor="start" x="1761" y="-247" font-family="Helvetica,sans-Serif" font-size="10.00" fill="#000000">/tracer/src/debugInfo</text>
<text text-anchor="middle" x="1823.5" y="-236" font-family="Helvetica,sans-Serif" font-size="10.00" fill="#000000">/libbfd/DebugInfoBFD.hpp</text>
</a>
</g>
</g>
<!-- Node3&#45;&gt;Node10 -->
<g id="edge8" class="edge">
<title>Node3&#45;&gt;Node10</title>
<path fill="none" stroke="#191970" d="M1612.8794,-313.1113C1651.9862,-302.5485 1700.4576,-289.0749 1743.5,-276 1749.6597,-274.1289 1756.0653,-272.1181 1762.4503,-270.071"/>
<polygon fill="#191970" stroke="#191970" points="1611.8936,-309.752 1603.1478,-315.7321 1613.7139,-316.5112 1611.8936,-309.752"/>
</g>
<!-- Node12 -->
<g id="node11" class="node">
<title>Node12</title>
<g id="a_node11"><a xlink:href="_debug_info_d_w_l_f_8hpp.html" target="_top" xlink:title="/home/daniel/projects\l/tracer/src/debugInfo\l/libdwlf/DebugInfoDWLF.hpp">
<polygon fill="none" stroke="#000000" points="1912,-229 1912,-270 2065,-270 2065,-229 1912,-229"/>
<text text-anchor="start" x="1920" y="-258" font-family="Helvetica,sans-Serif" font-size="10.00" fill="#000000">/home/daniel/projects</text>
<text text-anchor="start" x="1920" y="-247" font-family="Helvetica,sans-Serif" font-size="10.00" fill="#000000">/tracer/src/debugInfo</text>
<text text-anchor="middle" x="1988.5" y="-236" font-family="Helvetica,sans-Serif" font-size="10.00" fill="#000000">/libdwlf/DebugInfoDWLF.hpp</text>
</a>
</g>
</g>
<!-- Node3&#45;&gt;Node12 -->
<g id="edge10" class="edge">
<title>Node3&#45;&gt;Node12</title>
<path fill="none" stroke="#191970" d="M1613.5139,-324.3699C1687.7722,-315.1801 1803.7217,-298.8066 1902.5,-276 1909.9592,-274.2778 1917.7136,-272.244 1925.377,-270.081"/>
<polygon fill="#191970" stroke="#191970" points="1612.8187,-320.9288 1603.3185,-325.6189 1613.6699,-327.8769 1612.8187,-320.9288"/>
</g>
<!-- Node14 -->
<g id="node13" class="node">
<title>Node14</title>
<g id="a_node13"><a xlink:href="_debug_info_w_i_n32_8hpp.html" target="_top" xlink:title="/home/daniel/projects\l/tracer/src/debugInfo\l/windows/DebugInfoWIN32.hpp">
<polygon fill="none" stroke="#000000" points="2083,-229 2083,-270 2252,-270 2252,-229 2083,-229"/>
<text text-anchor="start" x="2091" y="-258" font-family="Helvetica,sans-Serif" font-size="10.00" fill="#000000">/home/daniel/projects</text>
<text text-anchor="start" x="2091" y="-247" font-family="Helvetica,sans-Serif" font-size="10.00" fill="#000000">/tracer/src/debugInfo</text>
<text text-anchor="middle" x="2167.5" y="-236" font-family="Helvetica,sans-Serif" font-size="10.00" fill="#000000">/windows/DebugInfoWIN32.hpp</text>
</a>
</g>
</g>
<!-- Node3&#45;&gt;Node14 -->
<g id="edge12" class="edge">
<title>Node3&#45;&gt;Node14</title>
<path fill="none" stroke="#191970" d="M1613.4898,-329.0559C1718.0862,-322.6934 1911.9472,-307.5436 2074.5,-276 2082.9878,-274.3529 2091.8242,-272.2961 2100.5256,-270.061"/>
<polygon fill="#191970" stroke="#191970" points="1613.1154,-325.5719 1603.3422,-329.6625 1613.5332,-332.5595 1613.1154,-325.5719"/>
</g>
<!-- Node16 -->
<g id="node15" class="node">
<title>Node16</title>
<g id="a_node15"><a xlink:href="_tracer_8hpp.html" target="_top" xlink:title="/home/daniel/projects\l/tracer/src/Tracer.hpp">
<polygon fill="none" stroke="#000000" points="902.5,-234.5 902.5,-264.5 1024.5,-264.5 1024.5,-234.5 902.5,-234.5"/>
<text text-anchor="start" x="910.5" y="-252.5" font-family="Helvetica,sans-Serif" font-size="10.00" fill="#000000">/home/daniel/projects</text>
<text text-anchor="middle" x="963.5" y="-241.5" font-family="Helvetica,sans-Serif" font-size="10.00" fill="#000000">/tracer/src/Tracer.hpp</text>
</a>
</g>
</g>
<!-- Node3&#45;&gt;Node16 -->
<g id="edge14" class="edge">
<title>Node3&#45;&gt;Node16</title>
<path fill="none" stroke="#191970" d="M1461.8084,-321.9891C1346.8446,-305.2653 1130.4458,-273.7857 1024.7386,-258.4084"/>
<polygon fill="#191970" stroke="#191970" points="1461.5348,-325.4861 1471.9346,-323.4622 1462.5426,-318.559 1461.5348,-325.4861"/>
</g>
<!-- Node6 -->
<g id="node5" class="node">
<title>Node6</title>
<g id="a_node5"><a xlink:href="_debug_info_dummy_8cpp.html" target="_top" xlink:title="/home/daniel/projects\l/tracer/src/debugInfo\l/dummy/DebugInfoDummy.cpp">
<polygon fill="none" stroke="#000000" points="1356.5,-140 1356.5,-181 1524.5,-181 1524.5,-140 1356.5,-140"/>
<text text-anchor="start" x="1364.5" y="-169" font-family="Helvetica,sans-Serif" font-size="10.00" fill="#000000">/home/daniel/projects</text>
<text text-anchor="start" x="1364.5" y="-158" font-family="Helvetica,sans-Serif" font-size="10.00" fill="#000000">/tracer/src/debugInfo</text>
<text text-anchor="middle" x="1440.5" y="-147" font-family="Helvetica,sans-Serif" font-size="10.00" fill="#000000">/dummy/DebugInfoDummy.cpp</text>
</a>
</g>
</g>
<!-- Node5&#45;&gt;Node6 -->
<g id="edge4" class="edge">
<title>Node5&#45;&gt;Node6</title>
<path fill="none" stroke="#191970" d="M1439.1889,-218.844C1439.4696,-206.3522 1439.7867,-192.2439 1440.0386,-181.0301"/>
<polygon fill="#191970" stroke="#191970" points="1435.6895,-218.7818 1438.9639,-228.8579 1442.6877,-218.9391 1435.6895,-218.7818"/>
</g>
<!-- Node7 -->
<g id="node6" class="node">
<title>Node7</title>
<g id="a_node6"><a xlink:href="_tracer_8cpp.html" target="_top" xlink:title="/home/daniel/projects\l/tracer/src/Tracer.cpp">
<polygon fill="none" stroke="#000000" points="902.5,-145.5 902.5,-175.5 1024.5,-175.5 1024.5,-145.5 902.5,-145.5"/>
<text text-anchor="start" x="910.5" y="-163.5" font-family="Helvetica,sans-Serif" font-size="10.00" fill="#000000">/home/daniel/projects</text>
<text text-anchor="middle" x="963.5" y="-152.5" font-family="Helvetica,sans-Serif" font-size="10.00" fill="#000000">/tracer/src/Tracer.cpp</text>
</a>
</g>
</g>
<!-- Node5&#45;&gt;Node7 -->
<g id="edge5" class="edge">
<title>Node5&#45;&gt;Node7</title>
<path fill="none" stroke="#191970" d="M1360.7009,-226.5384C1355.2412,-225.2446 1349.8021,-224.0473 1344.5,-223 1207.9923,-196.0365 1168.7041,-219.8819 1033.5,-187 1021.7574,-184.1442 1009.3084,-179.866 998.216,-175.5758"/>
<polygon fill="#191970" stroke="#191970" points="1359.9786,-229.965 1370.5256,-228.9597 1361.6537,-223.1684 1359.9786,-229.965"/>
</g>
<!-- Node9 -->
<g id="node8" class="node">
<title>Node9</title>
<g id="a_node8"><a xlink:href="_debug_info_external_fallback_8cpp.html" target="_top" xlink:title="/home/daniel/projects\l/tracer/src/debugInfo\l/externalFallback/DebugInfoExternal\lFallback.cpp">
<polygon fill="none" stroke="#000000" points="1542.5,-134.5 1542.5,-186.5 1736.5,-186.5 1736.5,-134.5 1542.5,-134.5"/>
<text text-anchor="start" x="1550.5" y="-174.5" font-family="Helvetica,sans-Serif" font-size="10.00" fill="#000000">/home/daniel/projects</text>
<text text-anchor="start" x="1550.5" y="-163.5" font-family="Helvetica,sans-Serif" font-size="10.00" fill="#000000">/tracer/src/debugInfo</text>
<text text-anchor="start" x="1550.5" y="-152.5" font-family="Helvetica,sans-Serif" font-size="10.00" fill="#000000">/externalFallback/DebugInfoExternal</text>
<text text-anchor="middle" x="1639.5" y="-141.5" font-family="Helvetica,sans-Serif" font-size="10.00" fill="#000000">Fallback.cpp</text>
</a>
</g>
</g>
<!-- Node8&#45;&gt;Node9 -->
<g id="edge7" class="edge">
<title>Node8&#45;&gt;Node9</title>
<path fill="none" stroke="#191970" d="M1638.3176,-213.1155C1638.5178,-204.2061 1638.7281,-194.8475 1638.915,-186.5341"/>
<polygon fill="#191970" stroke="#191970" points="1634.8149,-213.2023 1638.0892,-223.2784 1641.8131,-213.3596 1634.8149,-213.2023"/>
</g>
<!-- Node11 -->
<g id="node10" class="node">
<title>Node11</title>
<g id="a_node10"><a xlink:href="_debug_info_b_f_d_8cpp.html" target="_top" xlink:title="/home/daniel/projects\l/tracer/src/debugInfo\l/libbfd/DebugInfoBFD.cpp">
<polygon fill="none" stroke="#000000" points="1754.5,-140 1754.5,-181 1894.5,-181 1894.5,-140 1754.5,-140"/>
<text text-anchor="start" x="1762.5" y="-169" font-family="Helvetica,sans-Serif" font-size="10.00" fill="#000000">/home/daniel/projects</text>
<text text-anchor="start" x="1762.5" y="-158" font-family="Helvetica,sans-Serif" font-size="10.00" fill="#000000">/tracer/src/debugInfo</text>
<text text-anchor="middle" x="1824.5" y="-147" font-family="Helvetica,sans-Serif" font-size="10.00" fill="#000000">/libbfd/DebugInfoBFD.cpp</text>
</a>
</g>
</g>
<!-- Node10&#45;&gt;Node11 -->
<g id="edge9" class="edge">
<title>Node10&#45;&gt;Node11</title>
<path fill="none" stroke="#191970" d="M1823.8444,-218.844C1823.9848,-206.3522 1824.1433,-192.2439 1824.2693,-181.0301"/>
<polygon fill="#191970" stroke="#191970" points="1820.3446,-218.8192 1823.7319,-228.8579 1827.3442,-218.8979 1820.3446,-218.8192"/>
</g>
<!-- Node13 -->
<g id="node12" class="node">
<title>Node13</title>
<g id="a_node12"><a xlink:href="_debug_info_d_w_l_f_8cpp.html" target="_top" xlink:title="/home/daniel/projects\l/tracer/src/debugInfo\l/libdwlf/DebugInfoDWLF.cpp">
<polygon fill="none" stroke="#000000" points="1912.5,-140 1912.5,-181 2064.5,-181 2064.5,-140 1912.5,-140"/>
<text text-anchor="start" x="1920.5" y="-169" font-family="Helvetica,sans-Serif" font-size="10.00" fill="#000000">/home/daniel/projects</text>
<text text-anchor="start" x="1920.5" y="-158" font-family="Helvetica,sans-Serif" font-size="10.00" fill="#000000">/tracer/src/debugInfo</text>
<text text-anchor="middle" x="1988.5" y="-147" font-family="Helvetica,sans-Serif" font-size="10.00" fill="#000000">/libdwlf/DebugInfoDWLF.cpp</text>
</a>
</g>
</g>
<!-- Node12&#45;&gt;Node13 -->
<g id="edge11" class="edge">
<title>Node12&#45;&gt;Node13</title>
<path fill="none" stroke="#191970" d="M1988.5,-218.844C1988.5,-206.3522 1988.5,-192.2439 1988.5,-181.0301"/>
<polygon fill="#191970" stroke="#191970" points="1985.0001,-218.8579 1988.5,-228.8579 1992.0001,-218.8579 1985.0001,-218.8579"/>
</g>
<!-- Node15 -->
<g id="node14" class="node">
<title>Node15</title>
<g id="a_node14"><a xlink:href="_debug_info_w_i_n32_8cpp.html" target="_top" xlink:title="/home/daniel/projects\l/tracer/src/debugInfo\l/windows/DebugInfoWIN32.cpp">
<polygon fill="none" stroke="#000000" points="2083.5,-140 2083.5,-181 2251.5,-181 2251.5,-140 2083.5,-140"/>
<text text-anchor="start" x="2091.5" y="-169" font-family="Helvetica,sans-Serif" font-size="10.00" fill="#000000">/home/daniel/projects</text>
<text text-anchor="start" x="2091.5" y="-158" font-family="Helvetica,sans-Serif" font-size="10.00" fill="#000000">/tracer/src/debugInfo</text>
<text text-anchor="middle" x="2167.5" y="-147" font-family="Helvetica,sans-Serif" font-size="10.00" fill="#000000">/windows/DebugInfoWIN32.cpp</text>
</a>
</g>
</g>
<!-- Node14&#45;&gt;Node15 -->
<g id="edge13" class="edge">
<title>Node14&#45;&gt;Node15</title>
<path fill="none" stroke="#191970" d="M2167.5,-218.844C2167.5,-206.3522 2167.5,-192.2439 2167.5,-181.0301"/>
<polygon fill="#191970" stroke="#191970" points="2164.0001,-218.8579 2167.5,-228.8579 2171.0001,-218.8579 2164.0001,-218.8579"/>
</g>
<!-- Node16&#45;&gt;Node7 -->
<g id="edge18" class="edge">
<title>Node16&#45;&gt;Node7</title>
<path fill="none" stroke="#191970" d="M963.5,-224.31C963.5,-208.6343 963.5,-188.9926 963.5,-175.6717"/>
<polygon fill="#191970" stroke="#191970" points="960.0001,-224.4023 963.5,-234.4024 967.0001,-224.4024 960.0001,-224.4023"/>
</g>
<!-- Node17 -->
<g id="node16" class="node">
<title>Node17</title>
<g id="a_node16"><a xlink:href="_abstract_printer_8cpp.html" target="_top" xlink:title="/home/daniel/projects\l/tracer/src/printers\l/AbstractPrinter.cpp">
<polygon fill="none" stroke="#000000" points="622.5,-140 622.5,-181 744.5,-181 744.5,-140 622.5,-140"/>
<text text-anchor="start" x="630.5" y="-169" font-family="Helvetica,sans-Serif" font-size="10.00" fill="#000000">/home/daniel/projects</text>
<text text-anchor="start" x="630.5" y="-158" font-family="Helvetica,sans-Serif" font-size="10.00" fill="#000000">/tracer/src/printers</text>
<text text-anchor="middle" x="683.5" y="-147" font-family="Helvetica,sans-Serif" font-size="10.00" fill="#000000">/AbstractPrinter.cpp</text>
</a>
</g>
</g>
<!-- Node16&#45;&gt;Node17 -->
<g id="edge15" class="edge">
<title>Node16&#45;&gt;Node17</title>
<path fill="none" stroke="#191970" d="M899.0043,-231.6176C857.2641,-219.7221 801.88,-203.333 753.5,-187 747.9597,-185.1296 742.2042,-183.0979 736.4804,-181.0195"/>
<polygon fill="#191970" stroke="#191970" points="898.1936,-235.0257 908.7693,-234.3895 900.1052,-228.2917 898.1936,-235.0257"/>
</g>
<!-- Node18 -->
<g id="node17" class="node">
<title>Node18</title>
<g id="a_node17"><a xlink:href="_default_printer_8cpp.html" target="_top" xlink:title="/home/daniel/projects\l/tracer/src/printers\l/DefaultPrinter.cpp">
<polygon fill="none" stroke="#000000" points="762.5,-140 762.5,-181 884.5,-181 884.5,-140 762.5,-140"/>
<text text-anchor="start" x="770.5" y="-169" font-family="Helvetica,sans-Serif" font-size="10.00" fill="#000000">/home/daniel/projects</text>
<text text-anchor="start" x="770.5" y="-158" font-family="Helvetica,sans-Serif" font-size="10.00" fill="#000000">/tracer/src/printers</text>
<text text-anchor="middle" x="823.5" y="-147" font-family="Helvetica,sans-Serif" font-size="10.00" fill="#000000">/DefaultPrinter.cpp</text>
</a>
</g>
</g>
<!-- Node16&#45;&gt;Node18 -->
<g id="edge16" class="edge">
<title>Node16&#45;&gt;Node18</title>
<path fill="none" stroke="#191970" d="M931.167,-228.9454C908.5303,-214.555 878.4094,-195.4067 855.7836,-181.0232"/>
<polygon fill="#191970" stroke="#191970" points="929.4341,-231.9912 939.7509,-234.4024 933.1895,-226.0838 929.4341,-231.9912"/>
</g>
<!-- Node19 -->
<g id="node18" class="node">
<title>Node19</title>
<g id="a_node18"><a xlink:href="_file_printer_8cpp.html" target="_top" xlink:title="/home/daniel/projects\l/tracer/src/printers\l/FilePrinter.cpp">
<polygon fill="none" stroke="#000000" points="1042.5,-140 1042.5,-181 1164.5,-181 1164.5,-140 1042.5,-140"/>
<text text-anchor="start" x="1050.5" y="-169" font-family="Helvetica,sans-Serif" font-size="10.00" fill="#000000">/home/daniel/projects</text>
<text text-anchor="start" x="1050.5" y="-158" font-family="Helvetica,sans-Serif" font-size="10.00" fill="#000000">/tracer/src/printers</text>
<text text-anchor="middle" x="1103.5" y="-147" font-family="Helvetica,sans-Serif" font-size="10.00" fill="#000000">/FilePrinter.cpp</text>
</a>
</g>
</g>
<!-- Node16&#45;&gt;Node19 -->
<g id="edge17" class="edge">
<title>Node16&#45;&gt;Node19</title>
<path fill="none" stroke="#191970" d="M995.833,-228.9454C1018.4697,-214.555 1048.5906,-195.4067 1071.2164,-181.0232"/>
<polygon fill="#191970" stroke="#191970" points="993.8105,-226.0838 987.2491,-234.4024 997.5659,-231.9912 993.8105,-226.0838"/>
</g>
<!-- Node20 -->
<g id="node19" class="node">
<title>Node20</title>
<g id="a_node19"><a xlink:href="_tracer_handler_8hpp.html" target="_top" xlink:title="/home/daniel/projects\l/tracer/src/TracerHandler.hpp">
<polygon fill="none" stroke="#000000" points="1182.5,-145.5 1182.5,-175.5 1338.5,-175.5 1338.5,-145.5 1182.5,-145.5"/>
<text text-anchor="start" x="1190.5" y="-163.5" font-family="Helvetica,sans-Serif" font-size="10.00" fill="#000000">/home/daniel/projects</text>
<text text-anchor="middle" x="1260.5" y="-152.5" font-family="Helvetica,sans-Serif" font-size="10.00" fill="#000000">/tracer/src/TracerHandler.hpp</text>
</a>
</g>
</g>
<!-- Node16&#45;&gt;Node20 -->
<g id="edge19" class="edge">
<title>Node16&#45;&gt;Node20</title>
<path fill="none" stroke="#191970" d="M1024.2358,-231.5356C1066.1875,-219.0998 1123.257,-202.1284 1173.5,-187 1185.7462,-183.3126 1198.9527,-179.3056 1211.2858,-175.5505"/>
<polygon fill="#191970" stroke="#191970" points="1023.0424,-228.2387 1014.449,-234.4358 1025.0313,-234.9503 1023.0424,-228.2387"/>
</g>
<!-- Node21 -->
<g id="node20" class="node">
<title>Node21</title>
<g id="a_node20"><a xlink:href="tracer_internal_8hpp.html" target="_top" xlink:title="/home/daniel/projects\l/tracer/src/c&#45;API/tracerInternal.hpp">
<polygon fill="none" stroke="#000000" points="1075,-67.5 1075,-97.5 1258,-97.5 1258,-67.5 1075,-67.5"/>
<text text-anchor="start" x="1083" y="-85.5" font-family="Helvetica,sans-Serif" font-size="10.00" fill="#000000">/home/daniel/projects</text>
<text text-anchor="middle" x="1166.5" y="-74.5" font-family="Helvetica,sans-Serif" font-size="10.00" fill="#000000">/tracer/src/c&#45;API/tracerInternal.hpp</text>
</a>
</g>
</g>
<!-- Node20&#45;&gt;Node21 -->
<g id="edge20" class="edge">
<title>Node20&#45;&gt;Node21</title>
<path fill="none" stroke="#191970" d="M1234.5469,-138.9644C1218.785,-125.8854 1199.0432,-109.5039 1184.8892,-97.7592"/>
<polygon fill="#191970" stroke="#191970" points="1232.4452,-141.7685 1242.3759,-145.4608 1236.9152,-136.3816 1232.4452,-141.7685"/>
</g>
<!-- Node26 -->
<g id="node25" class="node">
<title>Node26</title>
<g id="a_node25"><a xlink:href="_tracer_handler_8cpp.html" target="_top" xlink:title="/home/daniel/projects\l/tracer/src/TracerHandler.cpp">
<polygon fill="none" stroke="#000000" points="1276,-67.5 1276,-97.5 1431,-97.5 1431,-67.5 1276,-67.5"/>
<text text-anchor="start" x="1284" y="-85.5" font-family="Helvetica,sans-Serif" font-size="10.00" fill="#000000">/home/daniel/projects</text>
<text text-anchor="middle" x="1353.5" y="-74.5" font-family="Helvetica,sans-Serif" font-size="10.00" fill="#000000">/tracer/src/TracerHandler.cpp</text>
</a>
</g>
</g>
<!-- Node20&#45;&gt;Node26 -->
<g id="edge25" class="edge">
<title>Node20&#45;&gt;Node26</title>
<path fill="none" stroke="#191970" d="M1286.177,-138.9644C1301.7712,-125.8854 1321.303,-109.5039 1335.3064,-97.7592"/>
<polygon fill="#191970" stroke="#191970" points="1283.8441,-136.353 1278.4313,-145.4608 1288.3424,-141.7163 1283.8441,-136.353"/>
</g>
<!-- Node22 -->
<g id="node21" class="node">
<title>Node22</title>
<g id="a_node21"><a xlink:href="c_printer_container_8cpp.html" target="_top" xlink:title="/home/daniel/projects\l/tracer/src/c&#45;API/cPrinterContainer.cpp">
<polygon fill="none" stroke="#000000" points="782.5,-.5 782.5,-30.5 982.5,-30.5 982.5,-.5 782.5,-.5"/>
<text text-anchor="start" x="790.5" y="-18.5" font-family="Helvetica,sans-Serif" font-size="10.00" fill="#000000">/home/daniel/projects</text>
<text text-anchor="middle" x="882.5" y="-7.5" font-family="Helvetica,sans-Serif" font-size="10.00" fill="#000000">/tracer/src/c&#45;API/cPrinterContainer.cpp</text>
</a>
</g>
</g>
<!-- Node21&#45;&gt;Node22 -->
<g id="edge21" class="edge">
<title>Node21&#45;&gt;Node22</title>
<path fill="none" stroke="#191970" d="M1092.9875,-65.1573C1047.623,-54.4551 989.9964,-40.8601 946.5131,-30.6017"/>
<polygon fill="#191970" stroke="#191970" points="1092.2284,-68.5742 1102.7649,-67.4639 1093.8357,-61.7612 1092.2284,-68.5742"/>
</g>
<!-- Node23 -->
<g id="node22" class="node">
<title>Node23</title>
<g id="a_node22"><a xlink:href="c_printers_8cpp.html" target="_top" xlink:title="/home/daniel/projects\l/tracer/src/c&#45;API/cPrinters.cpp">
<polygon fill="none" stroke="#000000" points="1001,-.5 1001,-30.5 1160,-30.5 1160,-.5 1001,-.5"/>
<text text-anchor="start" x="1009" y="-18.5" font-family="Helvetica,sans-Serif" font-size="10.00" fill="#000000">/home/daniel/projects</text>
<text text-anchor="middle" x="1080.5" y="-7.5" font-family="Helvetica,sans-Serif" font-size="10.00" fill="#000000">/tracer/src/c&#45;API/cPrinters.cpp</text>
</a>
</g>
</g>
<!-- Node21&#45;&gt;Node23 -->
<g id="edge22" class="edge">
<title>Node21&#45;&gt;Node23</title>
<path fill="none" stroke="#191970" d="M1138.9855,-61.0643C1126.2696,-51.1577 1111.4684,-39.6265 1099.9375,-30.6432"/>
<polygon fill="#191970" stroke="#191970" points="1136.9456,-63.9119 1146.9853,-67.2967 1141.2477,-58.3899 1136.9456,-63.9119"/>
</g>
<!-- Node24 -->
<g id="node23" class="node">
<title>Node24</title>
<g id="a_node23"><a xlink:href="c_tracer_8cpp.html" target="_top" xlink:title="/home/daniel/projects\l/tracer/src/c&#45;API/cTracer.cpp">
<polygon fill="none" stroke="#000000" points="1177.5,-.5 1177.5,-30.5 1327.5,-30.5 1327.5,-.5 1177.5,-.5"/>
<text text-anchor="start" x="1185.5" y="-18.5" font-family="Helvetica,sans-Serif" font-size="10.00" fill="#000000">/home/daniel/projects</text>
<text text-anchor="middle" x="1252.5" y="-7.5" font-family="Helvetica,sans-Serif" font-size="10.00" fill="#000000">/tracer/src/c&#45;API/cTracer.cpp</text>
</a>
</g>
</g>
<!-- Node21&#45;&gt;Node24 -->
<g id="edge23" class="edge">
<title>Node21&#45;&gt;Node24</title>
<path fill="none" stroke="#191970" d="M1194.0145,-61.0643C1206.7304,-51.1577 1221.5316,-39.6265 1233.0625,-30.6432"/>
<polygon fill="#191970" stroke="#191970" points="1191.7523,-58.3899 1186.0147,-67.2967 1196.0544,-63.9119 1191.7523,-58.3899"/>
</g>
<!-- Node25 -->
<g id="node24" class="node">
<title>Node25</title>
<g id="a_node24"><a xlink:href="c_tracer_handler_8cpp.html" target="_top" xlink:title="/home/daniel/projects\l/tracer/src/c&#45;API/cTracerHandler.cpp">
<polygon fill="none" stroke="#000000" points="1345.5,-.5 1345.5,-30.5 1533.5,-30.5 1533.5,-.5 1345.5,-.5"/>
<text text-anchor="start" x="1353.5" y="-18.5" font-family="Helvetica,sans-Serif" font-size="10.00" fill="#000000">/home/daniel/projects</text>
<text text-anchor="middle" x="1439.5" y="-7.5" font-family="Helvetica,sans-Serif" font-size="10.00" fill="#000000">/tracer/src/c&#45;API/cTracerHandler.cpp</text>
</a>
</g>
</g>
<!-- Node21&#45;&gt;Node25 -->
<g id="edge24" class="edge">
<title>Node21&#45;&gt;Node25</title>
<path fill="none" stroke="#191970" d="M1237.7144,-65.0225C1281.2369,-54.3411 1336.3425,-40.8171 1377.9663,-30.6017"/>
<polygon fill="#191970" stroke="#191970" points="1236.6441,-61.6812 1227.7665,-67.4639 1238.3126,-68.4795 1236.6441,-61.6812"/>
</g>
<!-- Node27&#45;&gt;Node16 -->
<g id="edge37" class="edge">
<title>Node27&#45;&gt;Node16</title>
<path fill="none" stroke="#191970" d="M617.702,-317.2797C700.3865,-301.0727 827.4908,-276.1591 902.3832,-261.4795"/>
<polygon fill="#191970" stroke="#191970" points="616.9853,-313.8535 607.8452,-319.2117 618.3318,-320.7227 616.9853,-313.8535"/>
</g>
<!-- Node28 -->
<g id="node27" class="node">
<title>Node28</title>
<g id="a_node27"><a xlink:href="_abstract_tracer_8cpp.html" target="_top" xlink:title="/home/daniel/projects\l/tracer/src/tracer/Abstract\lTracer.cpp">
<polygon fill="none" stroke="#000000" points="467.5,-229 467.5,-270 607.5,-270 607.5,-229 467.5,-229"/>
<text text-anchor="start" x="475.5" y="-258" font-family="Helvetica,sans-Serif" font-size="10.00" fill="#000000">/home/daniel/projects</text>
<text text-anchor="start" x="475.5" y="-247" font-family="Helvetica,sans-Serif" font-size="10.00" fill="#000000">/tracer/src/tracer/Abstract</text>
<text text-anchor="middle" x="537.5" y="-236" font-family="Helvetica,sans-Serif" font-size="10.00" fill="#000000">Tracer.cpp</text>
</a>
</g>
</g>
<!-- Node27&#45;&gt;Node28 -->
<g id="edge27" class="edge">
<title>Node27&#45;&gt;Node28</title>
<path fill="none" stroke="#191970" d="M537.5,-302.1593C537.5,-291.5064 537.5,-279.8344 537.5,-270.1924"/>
<polygon fill="#191970" stroke="#191970" points="534.0001,-302.3595 537.5,-312.3595 541.0001,-302.3596 534.0001,-302.3595"/>
</g>
<!-- Node29 -->
<g id="node28" class="node">
<title>Node29</title>
<g id="a_node28"><a xlink:href="_dummy_tracer_8hpp.html" target="_top" xlink:title="/home/daniel/projects\l/tracer/src/tracer/dummy\l/DummyTracer.hpp">
<polygon fill="none" stroke="#000000" points="626,-229 626,-270 763,-270 763,-229 626,-229"/>
<text text-anchor="start" x="634" y="-258" font-family="Helvetica,sans-Serif" font-size="10.00" fill="#000000">/home/daniel/projects</text>
<text text-anchor="start" x="634" y="-247" font-family="Helvetica,sans-Serif" font-size="10.00" fill="#000000">/tracer/src/tracer/dummy</text>
<text text-anchor="middle" x="694.5" y="-236" font-family="Helvetica,sans-Serif" font-size="10.00" fill="#000000">/DummyTracer.hpp</text>
</a>
</g>
</g>
<!-- Node27&#45;&gt;Node29 -->
<g id="edge28" class="edge">
<title>Node27&#45;&gt;Node29</title>
<path fill="none" stroke="#191970" d="M585.3939,-307.5278C607.9849,-295.5128 634.5857,-281.3653 655.8657,-270.0476"/>
<polygon fill="#191970" stroke="#191970" points="583.4945,-304.5737 576.309,-312.3595 586.7815,-310.754 583.4945,-304.5737"/>
</g>
<!-- Node31 -->
<g id="node30" class="node">
<title>Node31</title>
<g id="a_node30"><a xlink:href="_glib_c_tracer_8hpp.html" target="_top" xlink:title="/home/daniel/projects\l/tracer/src/tracer/glibc\l/GlibCTracer.hpp">
<polygon fill="none" stroke="#000000" points="161,-229 161,-270 284,-270 284,-229 161,-229"/>
<text text-anchor="start" x="169" y="-258" font-family="Helvetica,sans-Serif" font-size="10.00" fill="#000000">/home/daniel/projects</text>
<text text-anchor="start" x="169" y="-247" font-family="Helvetica,sans-Serif" font-size="10.00" fill="#000000">/tracer/src/tracer/glibc</text>
<text text-anchor="middle" x="222.5" y="-236" font-family="Helvetica,sans-Serif" font-size="10.00" fill="#000000">/GlibCTracer.hpp</text>
</a>
</g>
</g>
<!-- Node27&#45;&gt;Node31 -->
<g id="edge31" class="edge">
<title>Node27&#45;&gt;Node31</title>
<path fill="none" stroke="#191970" d="M457.3477,-317.1737C409.1486,-306.9604 346.8167,-292.5194 292.5,-276 286.6569,-274.2229 280.5998,-272.2051 274.6043,-270.0949"/>
<polygon fill="#191970" stroke="#191970" points="456.9043,-320.6569 467.4103,-319.2882 458.3438,-313.8065 456.9043,-320.6569"/>
</g>
<!-- Node33 -->
<g id="node32" class="node">
<title>Node33</title>
<g id="a_node32"><a xlink:href="_lib_unwind_tracer_8hpp.html" target="_top" xlink:title="/home/daniel/projects\l/tracer/src/tracer/libunwind\l/LibUnwindTracer.hpp">
<polygon fill="none" stroke="#000000" points="302,-229 302,-270 449,-270 449,-229 302,-229"/>
<text text-anchor="start" x="310" y="-258" font-family="Helvetica,sans-Serif" font-size="10.00" fill="#000000">/home/daniel/projects</text>
<text text-anchor="start" x="310" y="-247" font-family="Helvetica,sans-Serif" font-size="10.00" fill="#000000">/tracer/src/tracer/libunwind</text>
<text text-anchor="middle" x="375.5" y="-236" font-family="Helvetica,sans-Serif" font-size="10.00" fill="#000000">/LibUnwindTracer.hpp</text>
</a>
</g>
</g>
<!-- Node27&#45;&gt;Node33 -->
<g id="edge33" class="edge">
<title>Node27&#45;&gt;Node33</title>
<path fill="none" stroke="#191970" d="M488.3914,-307.6878C465.0144,-295.6386 437.42,-281.4156 415.3647,-270.0476"/>
<polygon fill="#191970" stroke="#191970" points="486.9627,-310.889 497.455,-312.3595 490.1699,-304.6669 486.9627,-310.889"/>
</g>
<!-- Node35 -->
<g id="node34" class="node">
<title>Node35</title>
<g id="a_node34"><a xlink:href="_win32_tracer_8hpp.html" target="_top" xlink:title="/home/daniel/projects\l/tracer/src/tracer/windows\l/Win32Tracer.hpp">
<polygon fill="none" stroke="#000000" points="0,-229 0,-270 143,-270 143,-229 0,-229"/>
<text text-anchor="start" x="8" y="-258" font-family="Helvetica,sans-Serif" font-size="10.00" fill="#000000">/home/daniel/projects</text>
<text text-anchor="start" x="8" y="-247" font-family="Helvetica,sans-Serif" font-size="10.00" fill="#000000">/tracer/src/tracer/windows</text>
<text text-anchor="middle" x="71.5" y="-236" font-family="Helvetica,sans-Serif" font-size="10.00" fill="#000000">/Win32Tracer.hpp</text>
</a>
</g>
</g>
<!-- Node27&#45;&gt;Node35 -->
<g id="edge35" class="edge">
<title>Node27&#45;&gt;Node35</title>
<path fill="none" stroke="#191970" d="M457.1123,-325.2361C378.4933,-316.6827 255.7305,-300.7615 151.5,-276 144.3826,-274.3091 136.9936,-272.2679 129.7107,-270.0776"/>
<polygon fill="#191970" stroke="#191970" points="457.1127,-328.7562 467.4292,-326.3438 457.86,-321.7962 457.1127,-328.7562"/>
</g>
<!-- Node29&#45;&gt;Node7 -->
<g id="edge30" class="edge">
<title>Node29&#45;&gt;Node7</title>
<path fill="none" stroke="#191970" d="M773.0934,-225.9584C809.8326,-214.6621 854.0746,-200.6412 893.5,-187 903.6926,-183.4734 914.6341,-179.4479 924.7676,-175.6178"/>
<polygon fill="#191970" stroke="#191970" points="771.9681,-222.6426 763.4327,-228.9193 774.0194,-229.3353 771.9681,-222.6426"/>
</g>
<!-- Node30 -->
<g id="node29" class="node">
<title>Node30</title>
<g id="a_node29"><a xlink:href="_dummy_tracer_8cpp.html" target="_top" xlink:title="/home/daniel/projects\l/tracer/src/tracer/dummy\l/DummyTracer.cpp">
<polygon fill="none" stroke="#000000" points="467,-140 467,-181 604,-181 604,-140 467,-140"/>
<text text-anchor="start" x="475" y="-169" font-family="Helvetica,sans-Serif" font-size="10.00" fill="#000000">/home/daniel/projects</text>
<text text-anchor="start" x="475" y="-158" font-family="Helvetica,sans-Serif" font-size="10.00" fill="#000000">/tracer/src/tracer/dummy</text>
<text text-anchor="middle" x="535.5" y="-147" font-family="Helvetica,sans-Serif" font-size="10.00" fill="#000000">/DummyTracer.cpp</text>
</a>
</g>
</g>
<!-- Node29&#45;&gt;Node30 -->
<g id="edge29" class="edge">
<title>Node29&#45;&gt;Node30</title>
<path fill="none" stroke="#191970" d="M648.5931,-223.8037C624.3152,-210.2142 594.9155,-193.7577 572.1775,-181.0301"/>
<polygon fill="#191970" stroke="#191970" points="647.187,-227.0276 657.6226,-228.8579 650.6061,-220.9194 647.187,-227.0276"/>
</g>
<!-- Node32 -->
<g id="node31" class="node">
<title>Node32</title>
<g id="a_node31"><a xlink:href="_glib_c_tracer_8cpp.html" target="_top" xlink:title="/home/daniel/projects\l/tracer/src/tracer/glibc\l/GlibCTracer.cpp">
<polygon fill="none" stroke="#000000" points="161,-140 161,-181 284,-181 284,-140 161,-140"/>
<text text-anchor="start" x="169" y="-169" font-family="Helvetica,sans-Serif" font-size="10.00" fill="#000000">/home/daniel/projects</text>
<text text-anchor="start" x="169" y="-158" font-family="Helvetica,sans-Serif" font-size="10.00" fill="#000000">/tracer/src/tracer/glibc</text>
<text text-anchor="middle" x="222.5" y="-147" font-family="Helvetica,sans-Serif" font-size="10.00" fill="#000000">/GlibCTracer.cpp</text>
</a>
</g>
</g>
<!-- Node31&#45;&gt;Node32 -->
<g id="edge32" class="edge">
<title>Node31&#45;&gt;Node32</title>
<path fill="none" stroke="#191970" d="M222.5,-218.844C222.5,-206.3522 222.5,-192.2439 222.5,-181.0301"/>
<polygon fill="#191970" stroke="#191970" points="219.0001,-218.8579 222.5,-228.8579 226.0001,-218.8579 219.0001,-218.8579"/>
</g>
<!-- Node34 -->
<g id="node33" class="node">
<title>Node34</title>
<g id="a_node33"><a xlink:href="_lib_unwind_tracer_8cpp.html" target="_top" xlink:title="/home/daniel/projects\l/tracer/src/tracer/libunwind\l/LibUnwindTracer.cpp">
<polygon fill="none" stroke="#000000" points="302,-140 302,-181 449,-181 449,-140 302,-140"/>
<text text-anchor="start" x="310" y="-169" font-family="Helvetica,sans-Serif" font-size="10.00" fill="#000000">/home/daniel/projects</text>
<text text-anchor="start" x="310" y="-158" font-family="Helvetica,sans-Serif" font-size="10.00" fill="#000000">/tracer/src/tracer/libunwind</text>
<text text-anchor="middle" x="375.5" y="-147" font-family="Helvetica,sans-Serif" font-size="10.00" fill="#000000">/LibUnwindTracer.cpp</text>
</a>
</g>
</g>
<!-- Node33&#45;&gt;Node34 -->
<g id="edge34" class="edge">
<title>Node33&#45;&gt;Node34</title>
<path fill="none" stroke="#191970" d="M375.5,-218.844C375.5,-206.3522 375.5,-192.2439 375.5,-181.0301"/>
<polygon fill="#191970" stroke="#191970" points="372.0001,-218.8579 375.5,-228.8579 379.0001,-218.8579 372.0001,-218.8579"/>
</g>
<!-- Node36 -->
<g id="node35" class="node">
<title>Node36</title>
<g id="a_node35"><a xlink:href="_win32_tracer_8cpp.html" target="_top" xlink:title="/home/daniel/projects\l/tracer/src/tracer/windows\l/Win32Tracer.cpp">
<polygon fill="none" stroke="#000000" points="0,-140 0,-181 143,-181 143,-140 0,-140"/>
<text text-anchor="start" x="8" y="-169" font-family="Helvetica,sans-Serif" font-size="10.00" fill="#000000">/home/daniel/projects</text>
<text text-anchor="start" x="8" y="-158" font-family="Helvetica,sans-Serif" font-size="10.00" fill="#000000">/tracer/src/tracer/windows</text>
<text text-anchor="middle" x="71.5" y="-147" font-family="Helvetica,sans-Serif" font-size="10.00" fill="#000000">/Win32Tracer.cpp</text>
</a>
</g>
</g>
<!-- Node35&#45;&gt;Node36 -->
<g id="edge36" class="edge">
<title>Node35&#45;&gt;Node36</title>
<path fill="none" stroke="#191970" d="M71.5,-218.844C71.5,-206.3522 71.5,-192.2439 71.5,-181.0301"/>
<polygon fill="#191970" stroke="#191970" points="68.0001,-218.8579 71.5,-228.8579 75.0001,-218.8579 68.0001,-218.8579"/>
</g>
</g>
</svg>
