<?xml version="1.0" encoding="UTF-8" standalone="no"?>
<!DOCTYPE svg PUBLIC "-//W3C//DTD SVG 1.1//EN"
 "http://www.w3.org/Graphics/SVG/1.1/DTD/svg11.dtd">
<!-- Generated by graphviz version 2.40.1 (20161225.0304)
 -->
<!-- Title: /home/daniel/projects/tracer/src/tracer/glibc/GlibCTracer.cpp Pages: 1 -->
<svg width="203pt" height="274pt"
 viewBox="0.00 0.00 202.79 274.00" xmlns="http://www.w3.org/2000/svg" xmlns:xlink="http://www.w3.org/1999/xlink">
<g id="graph0" class="graph" transform="scale(1 1) rotate(0) translate(4 270)">
<title>/home/daniel/projects/tracer/src/tracer/glibc/GlibCTracer.cpp</title>
<!-- Node0 -->
<g id="node1" class="node">
<title>Node0</title>
<polygon fill="#bfbfbf" stroke="#000000" points="1.2886,-224.5 1.2886,-265.5 124.2886,-265.5 124.2886,-224.5 1.2886,-224.5"/>
<text text-anchor="start" x="9.2886" y="-253.5" font-family="Helvetica,sans-Serif" font-size="10.00" fill="#000000">/home/daniel/projects</text>
<text text-anchor="start" x="9.2886" y="-242.5" font-family="Helvetica,sans-Serif" font-size="10.00" fill="#000000">/tracer/src/tracer/glibc</text>
<text text-anchor="middle" x="62.7886" y="-231.5" font-family="Helvetica,sans-Serif" font-size="10.00" fill="#000000">/GlibCTracer.cpp</text>
</g>
<!-- Node1 -->
<g id="node2" class="node">
<title>Node1</title>
<polygon fill="none" stroke="#bfbfbf" points="9.2886,-.5 9.2886,-19.5 82.2886,-19.5 82.2886,-.5 9.2886,-.5"/>
<text text-anchor="middle" x="45.7886" y="-7.5" font-family="Helvetica,sans-Serif" font-size="10.00" fill="#000000">defines.hpp</text>
</g>
<!-- Node0&#45;&gt;Node1 -->
<g id="edge1" class="edge">
<title>Node0&#45;&gt;Node1</title>
<path fill="none" stroke="#191970" d="M35.3429,-224.478C24.6031,-214.7498 13.5039,-202.1538 7.7886,-188 -14.6207,-132.5029 16.9313,-61.6888 34.863,-28.6022"/>
<polygon fill="#191970" stroke="#191970" points="38.0714,-30.0369 39.916,-19.6039 31.9679,-26.6095 38.0714,-30.0369"/>
</g>
<!-- Node2 -->
<g id="node3" class="node">
<title>Node2</title>
<g id="a_node3"><a xlink:href="_glib_c_tracer_8hpp.html" target="_top" xlink:title="GlibCTracer.hpp">
<polygon fill="none" stroke="#000000" points="16.7886,-168.5 16.7886,-187.5 108.7886,-187.5 108.7886,-168.5 16.7886,-168.5"/>
<text text-anchor="middle" x="62.7886" y="-175.5" font-family="Helvetica,sans-Serif" font-size="10.00" fill="#000000">GlibCTracer.hpp</text>
</a>
</g>
</g>
<!-- Node0&#45;&gt;Node2 -->
<g id="edge2" class="edge">
<title>Node0&#45;&gt;Node2</title>
<path fill="none" stroke="#191970" d="M62.7886,-224.168C62.7886,-215.8226 62.7886,-206.2471 62.7886,-197.9879"/>
<polygon fill="#191970" stroke="#191970" points="66.2887,-197.7804 62.7886,-187.7805 59.2887,-197.7805 66.2887,-197.7804"/>
</g>
<!-- Node5 -->
<g id="node6" class="node">
<title>Node5</title>
<polygon fill="none" stroke="#bfbfbf" points="126.7886,-168.5 126.7886,-187.5 194.7886,-187.5 194.7886,-168.5 126.7886,-168.5"/>
<text text-anchor="middle" x="160.7886" y="-175.5" font-family="Helvetica,sans-Serif" font-size="10.00" fill="#000000">execinfo.h</text>
</g>
<!-- Node0&#45;&gt;Node5 -->
<g id="edge8" class="edge">
<title>Node0&#45;&gt;Node5</title>
<path fill="none" stroke="#191970" d="M92.9915,-224.3511C107.5225,-214.4167 124.6529,-202.7051 138.0587,-193.5398"/>
<polygon fill="#191970" stroke="#191970" points="140.3871,-196.1878 146.6669,-187.6546 136.4364,-190.4092 140.3871,-196.1878"/>
</g>
<!-- Node2&#45;&gt;Node1 -->
<g id="edge3" class="edge">
<title>Node2&#45;&gt;Node1</title>
<path fill="none" stroke="#191970" d="M58.1038,-168.4115C53.9284,-159.2959 48.1273,-145.0744 45.7886,-132 39.414,-96.3618 41.552,-53.9249 43.6769,-29.6563"/>
<polygon fill="#191970" stroke="#191970" points="47.1712,-29.8831 44.6515,-19.5922 40.2038,-29.2082 47.1712,-29.8831"/>
</g>
<!-- Node3 -->
<g id="node4" class="node">
<title>Node3</title>
<g id="a_node4"><a xlink:href="_abstract_tracer_8hpp.html" target="_top" xlink:title="AbstractTracer.hpp">
<polygon fill="none" stroke="#000000" points="55.2886,-112.5 55.2886,-131.5 162.2886,-131.5 162.2886,-112.5 55.2886,-112.5"/>
<text text-anchor="middle" x="108.7886" y="-119.5" font-family="Helvetica,sans-Serif" font-size="10.00" fill="#000000">AbstractTracer.hpp</text>
</a>
</g>
</g>
<!-- Node2&#45;&gt;Node3 -->
<g id="edge4" class="edge">
<title>Node2&#45;&gt;Node3</title>
<path fill="none" stroke="#191970" d="M70.8012,-168.2455C77.2654,-160.3761 86.5271,-149.101 94.287,-139.6542"/>
<polygon fill="#191970" stroke="#191970" points="97.225,-141.5916 100.8679,-131.6427 91.8159,-137.1484 97.225,-141.5916"/>
</g>
<!-- Node3&#45;&gt;Node1 -->
<g id="edge5" class="edge">
<title>Node3&#45;&gt;Node1</title>
<path fill="none" stroke="#191970" d="M103.4173,-112.4509C92.9561,-93.8533 69.6903,-52.4919 56.1366,-28.3964"/>
<polygon fill="#191970" stroke="#191970" points="59.0996,-26.5247 51.1464,-19.5249 52.9985,-29.9566 59.0996,-26.5247"/>
</g>
<!-- Node4 -->
<g id="node5" class="node">
<title>Node4</title>
<g id="a_node5"><a xlink:href="_frame_8hpp.html" target="_top" xlink:title="Frame.hpp">
<polygon fill="none" stroke="#000000" points="92.7886,-56.5 92.7886,-75.5 160.7886,-75.5 160.7886,-56.5 92.7886,-56.5"/>
<text text-anchor="middle" x="126.7886" y="-63.5" font-family="Helvetica,sans-Serif" font-size="10.00" fill="#000000">Frame.hpp</text>
</a>
</g>
</g>
<!-- Node3&#45;&gt;Node4 -->
<g id="edge6" class="edge">
<title>Node3&#45;&gt;Node4</title>
<path fill="none" stroke="#191970" d="M111.924,-112.2455C114.2986,-104.8579 117.6379,-94.4689 120.5501,-85.4087"/>
<polygon fill="#191970" stroke="#191970" points="123.9612,-86.234 123.6892,-75.6427 117.297,-84.0919 123.9612,-86.234"/>
</g>
<!-- Node4&#45;&gt;Node1 -->
<g id="edge7" class="edge">
<title>Node4&#45;&gt;Node1</title>
<path fill="none" stroke="#191970" d="M112.6795,-56.2455C100.3678,-47.7337 82.2929,-35.2375 68.0348,-25.3801"/>
<polygon fill="#191970" stroke="#191970" points="69.9521,-22.4506 59.7361,-19.6427 65.9713,-28.2085 69.9521,-22.4506"/>
</g>
</g>
</svg>
