<?xml version="1.0" encoding="UTF-8" standalone="no"?>
<!DOCTYPE svg PUBLIC "-//W3C//DTD SVG 1.1//EN"
 "http://www.w3.org/Graphics/SVG/1.1/DTD/svg11.dtd">
<!-- Generated by graphviz version 2.40.1 (20161225.0304)
 -->
<!-- Title: /home/daniel/projects/tracer/src/tracer/libunwind/LibUnwindTracer.hpp Pages: 1 -->
<svg width="233pt" height="218pt"
 viewBox="0.00 0.00 233.00 218.00" xmlns="http://www.w3.org/2000/svg" xmlns:xlink="http://www.w3.org/1999/xlink">
<g id="graph0" class="graph" transform="scale(1 1) rotate(0) translate(4 214)">
<title>/home/daniel/projects/tracer/src/tracer/libunwind/LibUnwindTracer.hpp</title>
<!-- Node0 -->
<g id="node1" class="node">
<title>Node0</title>
<polygon fill="#bfbfbf" stroke="#000000" points="7,-168.5 7,-209.5 154,-209.5 154,-168.5 7,-168.5"/>
<text text-anchor="start" x="15" y="-197.5" font-family="Helvetica,sans-Serif" font-size="10.00" fill="#000000">/home/daniel/projects</text>
<text text-anchor="start" x="15" y="-186.5" font-family="Helvetica,sans-Serif" font-size="10.00" fill="#000000">/tracer/src/tracer/libunwind</text>
<text text-anchor="middle" x="80.5" y="-175.5" font-family="Helvetica,sans-Serif" font-size="10.00" fill="#000000">/LibUnwindTracer.hpp</text>
</g>
<!-- Node1 -->
<g id="node2" class="node">
<title>Node1</title>
<polygon fill="none" stroke="#bfbfbf" points="0,-.5 0,-19.5 73,-19.5 73,-.5 0,-.5"/>
<text text-anchor="middle" x="36.5" y="-7.5" font-family="Helvetica,sans-Serif" font-size="10.00" fill="#000000">defines.hpp</text>
</g>
<!-- Node0&#45;&gt;Node1 -->
<g id="edge1" class="edge">
<title>Node0&#45;&gt;Node1</title>
<path fill="none" stroke="#191970" d="M48.1564,-168.4741C36.184,-158.9802 23.9617,-146.5603 17.5,-132 2.3594,-97.8835 16.6055,-53.7355 27.2667,-28.9859"/>
<polygon fill="#191970" stroke="#191970" points="30.5581,-30.2035 31.5201,-19.6525 24.1883,-27.3007 30.5581,-30.2035"/>
</g>
<!-- Node2 -->
<g id="node3" class="node">
<title>Node2</title>
<g id="a_node3"><a xlink:href="_abstract_tracer_8hpp.html" target="_top" xlink:title="AbstractTracer.hpp">
<polygon fill="none" stroke="#000000" points="27,-112.5 27,-131.5 134,-131.5 134,-112.5 27,-112.5"/>
<text text-anchor="middle" x="80.5" y="-119.5" font-family="Helvetica,sans-Serif" font-size="10.00" fill="#000000">AbstractTracer.hpp</text>
</a>
</g>
</g>
<!-- Node0&#45;&gt;Node2 -->
<g id="edge2" class="edge">
<title>Node0&#45;&gt;Node2</title>
<path fill="none" stroke="#191970" d="M80.5,-168.168C80.5,-159.8226 80.5,-150.2471 80.5,-141.9879"/>
<polygon fill="#191970" stroke="#191970" points="84.0001,-141.7804 80.5,-131.7805 77.0001,-141.7805 84.0001,-141.7804"/>
</g>
<!-- Node4 -->
<g id="node5" class="node">
<title>Node4</title>
<polygon fill="none" stroke="#bfbfbf" points="152,-112.5 152,-131.5 225,-131.5 225,-112.5 152,-112.5"/>
<text text-anchor="middle" x="188.5" y="-119.5" font-family="Helvetica,sans-Serif" font-size="10.00" fill="#000000">libunwind.h</text>
</g>
<!-- Node0&#45;&gt;Node4 -->
<g id="edge6" class="edge">
<title>Node0&#45;&gt;Node4</title>
<path fill="none" stroke="#191970" d="M113.7848,-168.3511C130.1064,-158.2256 149.4041,-146.254 164.2984,-137.0139"/>
<polygon fill="#191970" stroke="#191970" points="166.2848,-139.9005 172.9373,-131.6546 162.5946,-133.9522 166.2848,-139.9005"/>
</g>
<!-- Node2&#45;&gt;Node1 -->
<g id="edge3" class="edge">
<title>Node2&#45;&gt;Node1</title>
<path fill="none" stroke="#191970" d="M74.4982,-112.4322C68.9854,-103.3313 60.8785,-89.1197 55.5,-76 49.281,-60.8302 44.2613,-42.916 40.9467,-29.5817"/>
<polygon fill="#191970" stroke="#191970" points="44.2958,-28.5363 38.5746,-19.6189 37.4861,-30.1577 44.2958,-28.5363"/>
</g>
<!-- Node3 -->
<g id="node4" class="node">
<title>Node3</title>
<g id="a_node4"><a xlink:href="_frame_8hpp.html" target="_top" xlink:title="Frame.hpp">
<polygon fill="none" stroke="#000000" points="64.5,-56.5 64.5,-75.5 132.5,-75.5 132.5,-56.5 64.5,-56.5"/>
<text text-anchor="middle" x="98.5" y="-63.5" font-family="Helvetica,sans-Serif" font-size="10.00" fill="#000000">Frame.hpp</text>
</a>
</g>
</g>
<!-- Node2&#45;&gt;Node3 -->
<g id="edge4" class="edge">
<title>Node2&#45;&gt;Node3</title>
<path fill="none" stroke="#191970" d="M83.6354,-112.2455C86.01,-104.8579 89.3493,-94.4689 92.2615,-85.4087"/>
<polygon fill="#191970" stroke="#191970" points="95.6725,-86.234 95.4006,-75.6427 89.0083,-84.0919 95.6725,-86.234"/>
</g>
<!-- Node3&#45;&gt;Node1 -->
<g id="edge5" class="edge">
<title>Node3&#45;&gt;Node1</title>
<path fill="none" stroke="#191970" d="M87.7004,-56.2455C78.6322,-48.0549 65.4794,-36.1749 54.7755,-26.5069"/>
<polygon fill="#191970" stroke="#191970" points="56.9429,-23.7482 47.1758,-19.6427 52.2509,-28.9429 56.9429,-23.7482"/>
</g>
</g>
</svg>
