<?xml version="1.0" encoding="UTF-8" standalone="no"?>
<!DOCTYPE svg PUBLIC "-//W3C//DTD SVG 1.1//EN"
 "http://www.w3.org/Graphics/SVG/1.1/DTD/svg11.dtd">
<!-- Generated by graphviz version 2.40.1 (20161225.0304)
 -->
<!-- Title: /home/daniel/projects/tracer/src/tracer/libunwind/LibUnwindTracer.cpp Pages: 1 -->
<svg width="252pt" height="274pt"
 viewBox="0.00 0.00 252.00 274.00" xmlns="http://www.w3.org/2000/svg" xmlns:xlink="http://www.w3.org/1999/xlink">
<g id="graph0" class="graph" transform="scale(1 1) rotate(0) translate(4 270)">
<title>/home/daniel/projects/tracer/src/tracer/libunwind/LibUnwindTracer.cpp</title>
<!-- Node0 -->
<g id="node1" class="node">
<title>Node0</title>
<polygon fill="#bfbfbf" stroke="#000000" points="9,-224.5 9,-265.5 156,-265.5 156,-224.5 9,-224.5"/>
<text text-anchor="start" x="17" y="-253.5" font-family="Helvetica,sans-Serif" font-size="10.00" fill="#000000">/home/daniel/projects</text>
<text text-anchor="start" x="17" y="-242.5" font-family="Helvetica,sans-Serif" font-size="10.00" fill="#000000">/tracer/src/tracer/libunwind</text>
<text text-anchor="middle" x="82.5" y="-231.5" font-family="Helvetica,sans-Serif" font-size="10.00" fill="#000000">/LibUnwindTracer.cpp</text>
</g>
<!-- Node1 -->
<g id="node2" class="node">
<title>Node1</title>
<polygon fill="none" stroke="#bfbfbf" points="0,-.5 0,-19.5 73,-19.5 73,-.5 0,-.5"/>
<text text-anchor="middle" x="36.5" y="-7.5" font-family="Helvetica,sans-Serif" font-size="10.00" fill="#000000">defines.hpp</text>
</g>
<!-- Node0&#45;&gt;Node1 -->
<g id="edge1" class="edge">
<title>Node0&#45;&gt;Node1</title>
<path fill="none" stroke="#191970" d="M46.9322,-224.4653C34.2498,-215.1129 21.4046,-202.7971 14.5,-188 -10.4384,-134.5549 13.5684,-62.7564 27.7458,-29.0188"/>
<polygon fill="#191970" stroke="#191970" points="30.9629,-30.3973 31.765,-19.8329 24.5499,-27.5913 30.9629,-30.3973"/>
</g>
<!-- Node2 -->
<g id="node3" class="node">
<title>Node2</title>
<g id="a_node3"><a xlink:href="_lib_unwind_tracer_8hpp.html" target="_top" xlink:title="LibUnwindTracer.hpp">
<polygon fill="none" stroke="#000000" points="24,-168.5 24,-187.5 141,-187.5 141,-168.5 24,-168.5"/>
<text text-anchor="middle" x="82.5" y="-175.5" font-family="Helvetica,sans-Serif" font-size="10.00" fill="#000000">LibUnwindTracer.hpp</text>
</a>
</g>
</g>
<!-- Node0&#45;&gt;Node2 -->
<g id="edge2" class="edge">
<title>Node0&#45;&gt;Node2</title>
<path fill="none" stroke="#191970" d="M82.5,-224.168C82.5,-215.8226 82.5,-206.2471 82.5,-197.9879"/>
<polygon fill="#191970" stroke="#191970" points="86.0001,-197.7804 82.5,-187.7805 79.0001,-197.7805 86.0001,-197.7804"/>
</g>
<!-- Node6 -->
<g id="node7" class="node">
<title>Node6</title>
<polygon fill="none" stroke="#bfbfbf" points="159.5,-168.5 159.5,-187.5 219.5,-187.5 219.5,-168.5 159.5,-168.5"/>
<text text-anchor="middle" x="189.5" y="-175.5" font-family="Helvetica,sans-Serif" font-size="10.00" fill="#000000">iostream</text>
</g>
<!-- Node0&#45;&gt;Node6 -->
<g id="edge9" class="edge">
<title>Node0&#45;&gt;Node6</title>
<path fill="none" stroke="#191970" d="M115.4766,-224.3511C131.6471,-214.2256 150.7661,-202.254 165.5225,-193.0139"/>
<polygon fill="#191970" stroke="#191970" points="167.4634,-195.9282 174.0814,-187.6546 163.7484,-189.9954 167.4634,-195.9282"/>
</g>
<!-- Node2&#45;&gt;Node1 -->
<g id="edge3" class="edge">
<title>Node2&#45;&gt;Node1</title>
<path fill="none" stroke="#191970" d="M67.8148,-168.2577C56.8846,-160.0536 42.8102,-147.2342 36.5,-132 22.5124,-98.231 27.383,-54.5509 32.0432,-29.6671"/>
<polygon fill="#191970" stroke="#191970" points="35.515,-30.1599 34.1011,-19.6598 28.6585,-28.7498 35.515,-30.1599"/>
</g>
<!-- Node3 -->
<g id="node4" class="node">
<title>Node3</title>
<g id="a_node4"><a xlink:href="_abstract_tracer_8hpp.html" target="_top" xlink:title="AbstractTracer.hpp">
<polygon fill="none" stroke="#000000" points="46,-112.5 46,-131.5 153,-131.5 153,-112.5 46,-112.5"/>
<text text-anchor="middle" x="99.5" y="-119.5" font-family="Helvetica,sans-Serif" font-size="10.00" fill="#000000">AbstractTracer.hpp</text>
</a>
</g>
</g>
<!-- Node2&#45;&gt;Node3 -->
<g id="edge4" class="edge">
<title>Node2&#45;&gt;Node3</title>
<path fill="none" stroke="#191970" d="M85.4612,-168.2455C87.7038,-160.8579 90.8577,-150.4689 93.6081,-141.4087"/>
<polygon fill="#191970" stroke="#191970" points="97.017,-142.2282 96.5728,-131.6427 90.3188,-140.1948 97.017,-142.2282"/>
</g>
<!-- Node5 -->
<g id="node6" class="node">
<title>Node5</title>
<polygon fill="none" stroke="#bfbfbf" points="171,-112.5 171,-131.5 244,-131.5 244,-112.5 171,-112.5"/>
<text text-anchor="middle" x="207.5" y="-119.5" font-family="Helvetica,sans-Serif" font-size="10.00" fill="#000000">libunwind.h</text>
</g>
<!-- Node2&#45;&gt;Node5 -->
<g id="edge8" class="edge">
<title>Node2&#45;&gt;Node5</title>
<path fill="none" stroke="#191970" d="M103.9883,-168.3733C124.144,-159.3435 154.488,-145.7494 177.118,-135.6111"/>
<polygon fill="#191970" stroke="#191970" points="178.5971,-138.7838 186.2921,-131.5011 175.7351,-132.3955 178.5971,-138.7838"/>
</g>
<!-- Node3&#45;&gt;Node1 -->
<g id="edge5" class="edge">
<title>Node3&#45;&gt;Node1</title>
<path fill="none" stroke="#191970" d="M94.1287,-112.4509C83.6675,-93.8533 60.4017,-52.4919 46.848,-28.3964"/>
<polygon fill="#191970" stroke="#191970" points="49.8109,-26.5247 41.8577,-19.5249 43.7099,-29.9566 49.8109,-26.5247"/>
</g>
<!-- Node4 -->
<g id="node5" class="node">
<title>Node4</title>
<g id="a_node5"><a xlink:href="_frame_8hpp.html" target="_top" xlink:title="Frame.hpp">
<polygon fill="none" stroke="#000000" points="83.5,-56.5 83.5,-75.5 151.5,-75.5 151.5,-56.5 83.5,-56.5"/>
<text text-anchor="middle" x="117.5" y="-63.5" font-family="Helvetica,sans-Serif" font-size="10.00" fill="#000000">Frame.hpp</text>
</a>
</g>
</g>
<!-- Node3&#45;&gt;Node4 -->
<g id="edge6" class="edge">
<title>Node3&#45;&gt;Node4</title>
<path fill="none" stroke="#191970" d="M102.6354,-112.2455C105.01,-104.8579 108.3493,-94.4689 111.2615,-85.4087"/>
<polygon fill="#191970" stroke="#191970" points="114.6725,-86.234 114.4006,-75.6427 108.0083,-84.0919 114.6725,-86.234"/>
</g>
<!-- Node4&#45;&gt;Node1 -->
<g id="edge7" class="edge">
<title>Node4&#45;&gt;Node1</title>
<path fill="none" stroke="#191970" d="M103.3909,-56.2455C91.0791,-47.7337 73.0042,-35.2375 58.7462,-25.3801"/>
<polygon fill="#191970" stroke="#191970" points="60.6634,-22.4506 50.4474,-19.6427 56.6826,-28.2085 60.6634,-22.4506"/>
</g>
</g>
</svg>
