<?xml version="1.0" encoding="UTF-8" standalone="no"?>
<!DOCTYPE svg PUBLIC "-//W3C//DTD SVG 1.1//EN"
 "http://www.w3.org/Graphics/SVG/1.1/DTD/svg11.dtd">
<!-- Generated by graphviz version 2.40.1 (20161225.0304)
 -->
<!-- Title: /home/daniel/projects/tracer/src/PrinterContainer.hpp Pages: 1 -->
<svg width="759pt" height="240pt"
 viewBox="0.00 0.00 759.00 240.00" xmlns="http://www.w3.org/2000/svg" xmlns:xlink="http://www.w3.org/1999/xlink">
<g id="graph0" class="graph" transform="scale(1 1) rotate(0) translate(4 236)">
<title>/home/daniel/projects/tracer/src/PrinterContainer.hpp</title>
<!-- Node9 -->
<g id="node1" class="node">
<title>Node9</title>
<polygon fill="#bfbfbf" stroke="#000000" points="303,-201.5 303,-231.5 471,-231.5 471,-201.5 303,-201.5"/>
<text text-anchor="start" x="311" y="-219.5" font-family="Helvetica,sans-Serif" font-size="10.00" fill="#000000">/home/daniel/projects</text>
<text text-anchor="middle" x="387" y="-208.5" font-family="Helvetica,sans-Serif" font-size="10.00" fill="#000000">/tracer/src/PrinterContainer.hpp</text>
</g>
<!-- Node10 -->
<g id="node2" class="node">
<title>Node10</title>
<g id="a_node2"><a xlink:href="_printer_container_8cpp.html" target="_top" xlink:title="/home/daniel/projects\l/tracer/src/PrinterContainer.cpp">
<polygon fill="none" stroke="#000000" points="213.5,-134.5 213.5,-164.5 380.5,-164.5 380.5,-134.5 213.5,-134.5"/>
<text text-anchor="start" x="221.5" y="-152.5" font-family="Helvetica,sans-Serif" font-size="10.00" fill="#000000">/home/daniel/projects</text>
<text text-anchor="middle" x="297" y="-141.5" font-family="Helvetica,sans-Serif" font-size="10.00" fill="#000000">/tracer/src/PrinterContainer.cpp</text>
</a>
</g>
</g>
<!-- Node9&#45;&gt;Node10 -->
<g id="edge1" class="edge">
<title>Node9&#45;&gt;Node10</title>
<path fill="none" stroke="#191970" d="M358.2058,-195.0643C344.8984,-185.1577 329.4087,-173.6265 317.3416,-164.6432"/>
<polygon fill="#191970" stroke="#191970" points="356.4662,-198.1327 366.5776,-201.2967 360.6463,-192.5177 356.4662,-198.1327"/>
</g>
<!-- Node11 -->
<g id="node3" class="node">
<title>Node11</title>
<g id="a_node3"><a xlink:href="_tracer_handler_8hpp.html" target="_top" xlink:title="/home/daniel/projects\l/tracer/src/TracerHandler.hpp">
<polygon fill="none" stroke="#000000" points="399,-134.5 399,-164.5 555,-164.5 555,-134.5 399,-134.5"/>
<text text-anchor="start" x="407" y="-152.5" font-family="Helvetica,sans-Serif" font-size="10.00" fill="#000000">/home/daniel/projects</text>
<text text-anchor="middle" x="477" y="-141.5" font-family="Helvetica,sans-Serif" font-size="10.00" fill="#000000">/tracer/src/TracerHandler.hpp</text>
</a>
</g>
</g>
<!-- Node9&#45;&gt;Node11 -->
<g id="edge2" class="edge">
<title>Node9&#45;&gt;Node11</title>
<path fill="none" stroke="#191970" d="M415.7942,-195.0643C429.1016,-185.1577 444.5913,-173.6265 456.6584,-164.6432"/>
<polygon fill="#191970" stroke="#191970" points="413.3537,-192.5177 407.4224,-201.2967 417.5338,-198.1327 413.3537,-192.5177"/>
</g>
<!-- Node12 -->
<g id="node4" class="node">
<title>Node12</title>
<g id="a_node4"><a xlink:href="tracer_internal_8hpp.html" target="_top" xlink:title="/home/daniel/projects\l/tracer/src/c&#45;API/tracerInternal.hpp">
<polygon fill="none" stroke="#000000" points="292.5,-67.5 292.5,-97.5 475.5,-97.5 475.5,-67.5 292.5,-67.5"/>
<text text-anchor="start" x="300.5" y="-85.5" font-family="Helvetica,sans-Serif" font-size="10.00" fill="#000000">/home/daniel/projects</text>
<text text-anchor="middle" x="384" y="-74.5" font-family="Helvetica,sans-Serif" font-size="10.00" fill="#000000">/tracer/src/c&#45;API/tracerInternal.hpp</text>
</a>
</g>
</g>
<!-- Node11&#45;&gt;Node12 -->
<g id="edge3" class="edge">
<title>Node11&#45;&gt;Node12</title>
<path fill="none" stroke="#191970" d="M447.6382,-128.3469C433.8002,-118.3776 417.6078,-106.7121 405.0196,-97.6432"/>
<polygon fill="#191970" stroke="#191970" points="445.7373,-131.2911 455.8969,-134.2967 449.829,-125.6115 445.7373,-131.2911"/>
</g>
<!-- Node17 -->
<g id="node9" class="node">
<title>Node17</title>
<g id="a_node9"><a xlink:href="_tracer_handler_8cpp.html" target="_top" xlink:title="/home/daniel/projects\l/tracer/src/TracerHandler.cpp">
<polygon fill="none" stroke="#000000" points="493.5,-67.5 493.5,-97.5 648.5,-97.5 648.5,-67.5 493.5,-67.5"/>
<text text-anchor="start" x="501.5" y="-85.5" font-family="Helvetica,sans-Serif" font-size="10.00" fill="#000000">/home/daniel/projects</text>
<text text-anchor="middle" x="571" y="-74.5" font-family="Helvetica,sans-Serif" font-size="10.00" fill="#000000">/tracer/src/TracerHandler.cpp</text>
</a>
</g>
</g>
<!-- Node11&#45;&gt;Node17 -->
<g id="edge8" class="edge">
<title>Node11&#45;&gt;Node17</title>
<path fill="none" stroke="#191970" d="M506.6775,-128.3469C520.6643,-118.3776 537.0308,-106.7121 549.7544,-97.6432"/>
<polygon fill="#191970" stroke="#191970" points="504.4418,-125.6423 498.3301,-134.2967 508.5047,-131.3426 504.4418,-125.6423"/>
</g>
<!-- Node13 -->
<g id="node5" class="node">
<title>Node13</title>
<g id="a_node5"><a xlink:href="c_printer_container_8cpp.html" target="_top" xlink:title="/home/daniel/projects\l/tracer/src/c&#45;API/cPrinterContainer.cpp">
<polygon fill="none" stroke="#000000" points="0,-.5 0,-30.5 200,-30.5 200,-.5 0,-.5"/>
<text text-anchor="start" x="8" y="-18.5" font-family="Helvetica,sans-Serif" font-size="10.00" fill="#000000">/home/daniel/projects</text>
<text text-anchor="middle" x="100" y="-7.5" font-family="Helvetica,sans-Serif" font-size="10.00" fill="#000000">/tracer/src/c&#45;API/cPrinterContainer.cpp</text>
</a>
</g>
</g>
<!-- Node12&#45;&gt;Node13 -->
<g id="edge4" class="edge">
<title>Node12&#45;&gt;Node13</title>
<path fill="none" stroke="#191970" d="M310.4875,-65.1573C265.123,-54.4551 207.4964,-40.8601 164.0131,-30.6017"/>
<polygon fill="#191970" stroke="#191970" points="309.7284,-68.5742 320.2649,-67.4639 311.3357,-61.7612 309.7284,-68.5742"/>
</g>
<!-- Node14 -->
<g id="node6" class="node">
<title>Node14</title>
<g id="a_node6"><a xlink:href="c_printers_8cpp.html" target="_top" xlink:title="/home/daniel/projects\l/tracer/src/c&#45;API/cPrinters.cpp">
<polygon fill="none" stroke="#000000" points="218.5,-.5 218.5,-30.5 377.5,-30.5 377.5,-.5 218.5,-.5"/>
<text text-anchor="start" x="226.5" y="-18.5" font-family="Helvetica,sans-Serif" font-size="10.00" fill="#000000">/home/daniel/projects</text>
<text text-anchor="middle" x="298" y="-7.5" font-family="Helvetica,sans-Serif" font-size="10.00" fill="#000000">/tracer/src/c&#45;API/cPrinters.cpp</text>
</a>
</g>
</g>
<!-- Node12&#45;&gt;Node14 -->
<g id="edge5" class="edge">
<title>Node12&#45;&gt;Node14</title>
<path fill="none" stroke="#191970" d="M356.4855,-61.0643C343.7696,-51.1577 328.9684,-39.6265 317.4375,-30.6432"/>
<polygon fill="#191970" stroke="#191970" points="354.4456,-63.9119 364.4853,-67.2967 358.7477,-58.3899 354.4456,-63.9119"/>
</g>
<!-- Node15 -->
<g id="node7" class="node">
<title>Node15</title>
<g id="a_node7"><a xlink:href="c_tracer_8cpp.html" target="_top" xlink:title="/home/daniel/projects\l/tracer/src/c&#45;API/cTracer.cpp">
<polygon fill="none" stroke="#000000" points="395,-.5 395,-30.5 545,-30.5 545,-.5 395,-.5"/>
<text text-anchor="start" x="403" y="-18.5" font-family="Helvetica,sans-Serif" font-size="10.00" fill="#000000">/home/daniel/projects</text>
<text text-anchor="middle" x="470" y="-7.5" font-family="Helvetica,sans-Serif" font-size="10.00" fill="#000000">/tracer/src/c&#45;API/cTracer.cpp</text>
</a>
</g>
</g>
<!-- Node12&#45;&gt;Node15 -->
<g id="edge6" class="edge">
<title>Node12&#45;&gt;Node15</title>
<path fill="none" stroke="#191970" d="M411.5145,-61.0643C424.2304,-51.1577 439.0316,-39.6265 450.5625,-30.6432"/>
<polygon fill="#191970" stroke="#191970" points="409.2523,-58.3899 403.5147,-67.2967 413.5544,-63.9119 409.2523,-58.3899"/>
</g>
<!-- Node16 -->
<g id="node8" class="node">
<title>Node16</title>
<g id="a_node8"><a xlink:href="c_tracer_handler_8cpp.html" target="_top" xlink:title="/home/daniel/projects\l/tracer/src/c&#45;API/cTracerHandler.cpp">
<polygon fill="none" stroke="#000000" points="563,-.5 563,-30.5 751,-30.5 751,-.5 563,-.5"/>
<text text-anchor="start" x="571" y="-18.5" font-family="Helvetica,sans-Serif" font-size="10.00" fill="#000000">/home/daniel/projects</text>
<text text-anchor="middle" x="657" y="-7.5" font-family="Helvetica,sans-Serif" font-size="10.00" fill="#000000">/tracer/src/c&#45;API/cTracerHandler.cpp</text>
</a>
</g>
</g>
<!-- Node12&#45;&gt;Node16 -->
<g id="edge7" class="edge">
<title>Node12&#45;&gt;Node16</title>
<path fill="none" stroke="#191970" d="M455.2144,-65.0225C498.7369,-54.3411 553.8425,-40.8171 595.4663,-30.6017"/>
<polygon fill="#191970" stroke="#191970" points="454.1441,-61.6812 445.2665,-67.4639 455.8126,-68.4795 454.1441,-61.6812"/>
</g>
</g>
</svg>
