<?xml version="1.0" encoding="UTF-8" standalone="no"?>
<!DOCTYPE svg PUBLIC "-//W3C//DTD SVG 1.1//EN"
 "http://www.w3.org/Graphics/SVG/1.1/DTD/svg11.dtd">
<!-- Generated by graphviz version 2.40.1 (20161225.0304)
 -->
<!-- Title: /home/daniel/projects/tracer/src/PrinterContainer.cpp Pages: 1 -->
<!--zoomable 375 -->
<svg id="main" version="1.1" xmlns="http://www.w3.org/2000/svg" xmlns:xlink="http://www.w3.org/1999/xlink" xml:space="preserve" onload="init(evt)">
<style type="text/css"><![CDATA[
.edge:hover path { stroke: red; }
.edge:hover polygon { stroke: red; fill: red; }
]]></style>
<script type="text/javascript"><![CDATA[
var edges = document.getElementsByTagName('g');
if (edges && edges.length) {
  for (var i=0;i<edges.length;i++) {
    if (edges[i].id.substr(0,4)=='edge') {
      edges[i].setAttribute('class','edge');
    }
  }
}
]]></script>
        <defs>
                <circle id="rim" cx="0" cy="0" r="7"/>
                <circle id="rim2" cx="0" cy="0" r="3.5"/>
                <g id="zoomPlus">
                        <use xlink:href="#rim" fill="#404040">
                                <set attributeName="fill" to="#808080" begin="zoomplus.mouseover" end="zoomplus.mouseout"/>
                        </use>
                        <path d="M-4,0h8M0,-4v8" fill="none" stroke="white" stroke-width="1.5" pointer-events="none"/>
                </g>
                <g id="zoomMin">
                        <use xlink:href="#rim" fill="#404040">
                                <set attributeName="fill" to="#808080" begin="zoomminus.mouseover" end="zoomminus.mouseout"/>
                        </use>
                        <path d="M-4,0h8" fill="none" stroke="white" stroke-width="1.5" pointer-events="none"/>
                </g>
                <g id="dirArrow">
                        <path fill="none" stroke="white" stroke-width="1.5" d="M0,-3.0v7 M-2.5,-0.5L0,-3.0L2.5,-0.5"/>
                </g>
               <g id="resetDef">
                       <use xlink:href="#rim2" fill="#404040">
                               <set attributeName="fill" to="#808080" begin="reset.mouseover" end="reset.mouseout"/>
                       </use>
               </g>
        </defs>

<script type="text/javascript">
var viewWidth = 562;
var viewHeight = 375;
var sectionId = 'dynsection-0';
</script>
<script xlink:href="svgpan.js"/>
<svg id="graph" class="graph">
<g id="viewport">
<title>/home/daniel/projects/tracer/src/PrinterContainer.cpp</title>
<!-- Node0 -->
<g id="node1" class="node">
<title>Node0</title>
<polygon fill="#bfbfbf" stroke="#000000" points="0,-336.5 0,-366.5 167,-366.5 167,-336.5 0,-336.5"/>
<text text-anchor="start" x="8" y="-354.5" font-family="Helvetica,sans-Serif" font-size="10.00" fill="#000000">/home/daniel/projects</text>
<text text-anchor="middle" x="83.5" y="-343.5" font-family="Helvetica,sans-Serif" font-size="10.00" fill="#000000">/tracer/src/PrinterContainer.cpp</text>
</g>
<!-- Node1 -->
<g id="node2" class="node">
<title>Node1</title>
<polygon fill="none" stroke="#bfbfbf" points="118,-.5 118,-19.5 191,-19.5 191,-.5 118,-.5"/>
<text text-anchor="middle" x="154.5" y="-7.5" font-family="Helvetica,sans-Serif" font-size="10.00" fill="#000000">defines.hpp</text>
</g>
<!-- Node0&#45;&gt;Node1 -->
<g id="edge1" class="edge">
<title>Node0&#45;&gt;Node1</title>
<path fill="none" stroke="#191970" d="M73.9569,-336.1915C61.2888,-314.3685 40.5,-272.6658 40.5,-234 40.5,-234 40.5,-234 40.5,-122 40.5,-75.4628 89.4383,-41.828 123.1864,-24.1659"/>
<polygon fill="#191970" stroke="#191970" points="124.8862,-27.2289 132.249,-19.6105 121.7424,-20.9746 124.8862,-27.2289"/>
</g>
<!-- Node2 -->
<g id="node3" class="node">
<title>Node2</title>
<g id="a_node3"><a xlink:href="_printer_container_8hpp.html" target="_top" xlink:title="PrinterContainer.hpp">
<polygon fill="none" stroke="#000000" points="68.5,-280.5 68.5,-299.5 184.5,-299.5 184.5,-280.5 68.5,-280.5"/>
<text text-anchor="middle" x="126.5" y="-287.5" font-family="Helvetica,sans-Serif" font-size="10.00" fill="#000000">PrinterContainer.hpp</text>
</a>
</g>
</g>
<!-- Node0&#45;&gt;Node2 -->
<g id="edge2" class="edge">
<title>Node0&#45;&gt;Node2</title>
<path fill="none" stroke="#191970" d="M94.1292,-336.2977C100.0981,-327.7609 107.5838,-317.0545 113.8529,-308.0883"/>
<polygon fill="#191970" stroke="#191970" points="116.7534,-310.048 119.6152,-299.8469 111.0165,-306.0368 116.7534,-310.048"/>
</g>
<!-- Node2&#45;&gt;Node1 -->
<g id="edge3" class="edge">
<title>Node2&#45;&gt;Node1</title>
<path fill="none" stroke="#191970" d="M119.2098,-280.4077C105.782,-261.7535 78.5,-218.829 78.5,-178 78.5,-178 78.5,-178 78.5,-122 78.5,-82.2361 111.7071,-46.1042 134.2208,-26.177"/>
<polygon fill="#191970" stroke="#191970" points="136.6079,-28.7412 141.9501,-19.5918 132.0683,-23.4128 136.6079,-28.7412"/>
</g>
<!-- Node3 -->
<g id="node4" class="node">
<title>Node3</title>
<g id="a_node4"><a xlink:href="_fancy_printer_8hpp.html" target="_top" xlink:title="FancyPrinter.hpp">
<polygon fill="none" stroke="#000000" points="154,-224.5 154,-243.5 251,-243.5 251,-224.5 154,-224.5"/>
<text text-anchor="middle" x="202.5" y="-231.5" font-family="Helvetica,sans-Serif" font-size="10.00" fill="#000000">FancyPrinter.hpp</text>
</a>
</g>
</g>
<!-- Node2&#45;&gt;Node3 -->
<g id="edge4" class="edge">
<title>Node2&#45;&gt;Node3</title>
<path fill="none" stroke="#191970" d="M139.7382,-280.2455C151.181,-271.814 167.9296,-259.4729 181.2475,-249.6598"/>
<polygon fill="#191970" stroke="#191970" points="183.4391,-252.3924 189.4135,-243.6427 179.2867,-246.757 183.4391,-252.3924"/>
</g>
<!-- Node3&#45;&gt;Node1 -->
<g id="edge5" class="edge">
<title>Node3&#45;&gt;Node1</title>
<path fill="none" stroke="#191970" d="M195.2977,-224.2602C188.9675,-215.2692 179.9399,-201.3306 174.5,-188 151.9709,-132.7914 147.9148,-115.5724 150.5,-56 150.8727,-47.4107 151.6352,-37.9445 152.3955,-29.8439"/>
<polygon fill="#191970" stroke="#191970" points="155.8819,-30.1529 153.394,-19.8544 148.9166,-29.4567 155.8819,-30.1529"/>
</g>
<!-- Node4 -->
<g id="node5" class="node">
<title>Node4</title>
<g id="a_node5"><a xlink:href="_file_printer_8hpp.html" target="_top" xlink:title="FilePrinter.hpp">
<polygon fill="none" stroke="#000000" points="183.5,-168.5 183.5,-187.5 269.5,-187.5 269.5,-168.5 183.5,-168.5"/>
<text text-anchor="middle" x="226.5" y="-175.5" font-family="Helvetica,sans-Serif" font-size="10.00" fill="#000000">FilePrinter.hpp</text>
</a>
</g>
</g>
<!-- Node3&#45;&gt;Node4 -->
<g id="edge6" class="edge">
<title>Node3&#45;&gt;Node4</title>
<path fill="none" stroke="#191970" d="M206.6805,-224.2455C209.881,-216.7776 214.396,-206.2427 218.3084,-197.1137"/>
<polygon fill="#191970" stroke="#191970" points="221.6452,-198.2129 222.3674,-187.6427 215.2112,-195.4554 221.6452,-198.2129"/>
</g>
<!-- Node8 -->
<g id="node9" class="node">
<title>Node8</title>
<g id="a_node9"><a xlink:href="_system_info_printer_8hpp.html" target="_top" xlink:title="SystemInfoPrinter.hpp">
<polygon fill="none" stroke="#000000" points="367,-168.5 367,-187.5 492,-187.5 492,-168.5 367,-168.5"/>
<text text-anchor="middle" x="429.5" y="-175.5" font-family="Helvetica,sans-Serif" font-size="10.00" fill="#000000">SystemInfoPrinter.hpp</text>
</a>
</g>
</g>
<!-- Node3&#45;&gt;Node8 -->
<g id="edge13" class="edge">
<title>Node3&#45;&gt;Node8</title>
<path fill="none" stroke="#191970" d="M241.2648,-224.4369C279.8692,-214.9133 339.2384,-200.2672 380.9572,-189.9753"/>
<polygon fill="#191970" stroke="#191970" points="382.0245,-193.317 390.8951,-187.5237 380.3479,-186.5208 382.0245,-193.317"/>
</g>
<!-- Node4&#45;&gt;Node1 -->
<g id="edge7" class="edge">
<title>Node4&#45;&gt;Node1</title>
<path fill="none" stroke="#191970" d="M210.3219,-168.4414C198.1377,-160.3386 182.1099,-147.5657 173.5,-132 155.5052,-99.4673 153.1721,-55.0186 153.5389,-29.7322"/>
<polygon fill="#191970" stroke="#191970" points="157.0422,-29.6769 153.8509,-19.5741 150.0455,-29.4619 157.0422,-29.6769"/>
</g>
<!-- Node5 -->
<g id="node6" class="node">
<title>Node5</title>
<g id="a_node6"><a xlink:href="_default_printer_8hpp.html" target="_top" xlink:title="DefaultPrinter.hpp">
<polygon fill="none" stroke="#000000" points="337,-112.5 337,-131.5 442,-131.5 442,-112.5 337,-112.5"/>
<text text-anchor="middle" x="389.5" y="-119.5" font-family="Helvetica,sans-Serif" font-size="10.00" fill="#000000">DefaultPrinter.hpp</text>
</a>
</g>
</g>
<!-- Node4&#45;&gt;Node5 -->
<g id="edge8" class="edge">
<title>Node4&#45;&gt;Node5</title>
<path fill="none" stroke="#191970" d="M254.5207,-168.3733C281.5078,-159.1016 322.5017,-145.0178 352.2311,-134.804"/>
<polygon fill="#191970" stroke="#191970" points="353.5248,-138.0605 361.8449,-131.5011 351.2503,-131.4403 353.5248,-138.0605"/>
</g>
<!-- Node7 -->
<g id="node8" class="node">
<title>Node7</title>
<polygon fill="none" stroke="#bfbfbf" points="182.5,-112.5 182.5,-131.5 318.5,-131.5 318.5,-112.5 182.5,-112.5"/>
<text text-anchor="middle" x="250.5" y="-119.5" font-family="Helvetica,sans-Serif" font-size="10.00" fill="#000000">experimental/filesystem</text>
</g>
<!-- Node4&#45;&gt;Node7 -->
<g id="edge12" class="edge">
<title>Node4&#45;&gt;Node7</title>
<path fill="none" stroke="#191970" d="M230.6805,-168.2455C233.881,-160.7776 238.396,-150.2427 242.3084,-141.1137"/>
<polygon fill="#191970" stroke="#191970" points="245.6452,-142.2129 246.3674,-131.6427 239.2112,-139.4554 245.6452,-142.2129"/>
</g>
<!-- Node5&#45;&gt;Node1 -->
<g id="edge9" class="edge">
<title>Node5&#45;&gt;Node1</title>
<path fill="none" stroke="#191970" d="M369.464,-112.4509C327.9275,-92.6548 232.273,-47.0663 183.799,-23.9638"/>
<polygon fill="#191970" stroke="#191970" points="185.0183,-20.6677 174.4853,-19.5249 182.0066,-26.9868 185.0183,-20.6677"/>
</g>
<!-- Node6 -->
<g id="node7" class="node">
<title>Node6</title>
<g id="a_node7"><a xlink:href="_abstract_printer_8hpp.html" target="_top" xlink:title="AbstractPrinter.hpp">
<polygon fill="none" stroke="#000000" points="304.5,-56.5 304.5,-75.5 414.5,-75.5 414.5,-56.5 304.5,-56.5"/>
<text text-anchor="middle" x="359.5" y="-63.5" font-family="Helvetica,sans-Serif" font-size="10.00" fill="#000000">AbstractPrinter.hpp</text>
</a>
</g>
</g>
<!-- Node5&#45;&gt;Node6 -->
<g id="edge10" class="edge">
<title>Node5&#45;&gt;Node6</title>
<path fill="none" stroke="#191970" d="M384.2744,-112.2455C380.1877,-104.617 374.3865,-93.7881 369.425,-84.5267"/>
<polygon fill="#191970" stroke="#191970" points="372.4732,-82.8047 364.6657,-75.6427 366.3028,-86.1103 372.4732,-82.8047"/>
</g>
<!-- Node6&#45;&gt;Node1 -->
<g id="edge11" class="edge">
<title>Node6&#45;&gt;Node1</title>
<path fill="none" stroke="#191970" d="M324.2592,-56.3733C289.5806,-46.9001 236.5117,-32.4032 198.9538,-22.1435"/>
<polygon fill="#191970" stroke="#191970" points="199.8498,-18.7601 189.2809,-19.5011 198.0051,-25.5126 199.8498,-18.7601"/>
</g>
<!-- Node8&#45;&gt;Node1 -->
<g id="edge14" class="edge">
<title>Node8&#45;&gt;Node1</title>
<path fill="none" stroke="#191970" d="M435.4765,-168.2032C440.6112,-159.1737 447.6271,-145.2108 450.5,-132 458.1173,-96.9726 452.1348,-77.5635 423.5,-56 389.2805,-30.231 269.1899,-17.915 201.612,-12.904"/>
<polygon fill="#191970" stroke="#191970" points="201.4626,-9.3844 191.2382,-12.1615 200.9628,-16.3665 201.4626,-9.3844"/>
</g>
<!-- Node8&#45;&gt;Node5 -->
<g id="edge15" class="edge">
<title>Node8&#45;&gt;Node5</title>
<path fill="none" stroke="#191970" d="M422.5325,-168.2455C416.9689,-160.4564 409.022,-149.3308 402.3171,-139.9439"/>
<polygon fill="#191970" stroke="#191970" points="405.0481,-137.7457 396.3876,-131.6427 399.352,-141.8144 405.0481,-137.7457"/>
</g>
<!-- Node9 -->
<g id="node10" class="node">
<title>Node9</title>
<polygon fill="none" stroke="#bfbfbf" points="499,-112.5 499,-131.5 554,-131.5 554,-112.5 499,-112.5"/>
<text text-anchor="middle" x="526.5" y="-119.5" font-family="Helvetica,sans-Serif" font-size="10.00" fill="#000000">signal.h</text>
</g>
<!-- Node8&#45;&gt;Node9 -->
<g id="edge16" class="edge">
<title>Node8&#45;&gt;Node9</title>
<path fill="none" stroke="#191970" d="M446.3961,-168.2455C461.418,-159.5731 483.6043,-146.7645 500.821,-136.825"/>
<polygon fill="#191970" stroke="#191970" points="502.8871,-139.6737 509.7975,-131.6427 499.3872,-133.6114 502.8871,-139.6737"/>
</g>
</g>
</svg>
        <g id="navigator" transform="translate(0 0)" fill="#404254">
                <rect fill="#f2f5e9" fill-opacity="0.5" stroke="#606060" stroke-width=".5" x="0" y="0" width="60" height="60"/>
                <use id="zoomplus" xlink:href="#zoomPlus" x="17" y="9" onmousedown="handleZoom(evt,'in')"/>
                <use id="zoomminus" xlink:href="#zoomMin" x="42" y="9" onmousedown="handleZoom(evt,'out')"/>
                <use id="reset" xlink:href="#resetDef" x="30" y="36" onmousedown="handleReset()"/>
                <g id="arrowUp" xlink:href="#dirArrow" transform="translate(30 24)" onmousedown="handlePan(0,-1)">
                  <use xlink:href="#rim" fill="#404040">
                        <set attributeName="fill" to="#808080" begin="arrowUp.mouseover" end="arrowUp.mouseout"/>
                  </use>
                  <path fill="none" stroke="white" stroke-width="1.5" d="M0,-3.0v7 M-2.5,-0.5L0,-3.0L2.5,-0.5"/>
                </g>
                <g id="arrowRight" xlink:href="#dirArrow" transform="rotate(90) translate(36 -43)" onmousedown="handlePan(1,0)">
                  <use xlink:href="#rim" fill="#404040">
                        <set attributeName="fill" to="#808080" begin="arrowRight.mouseover" end="arrowRight.mouseout"/>
                  </use>
                  <path fill="none" stroke="white" stroke-width="1.5" d="M0,-3.0v7 M-2.5,-0.5L0,-3.0L2.5,-0.5"/>
                </g>
                <g id="arrowDown" xlink:href="#dirArrow" transform="rotate(180) translate(-30 -48)" onmousedown="handlePan(0,1)">
                  <use xlink:href="#rim" fill="#404040">
                        <set attributeName="fill" to="#808080" begin="arrowDown.mouseover" end="arrowDown.mouseout"/>
                  </use>
                  <path fill="none" stroke="white" stroke-width="1.5" d="M0,-3.0v7 M-2.5,-0.5L0,-3.0L2.5,-0.5"/>
                </g>
                <g id="arrowLeft" xlink:href="#dirArrow" transform="rotate(270) translate(-36 17)" onmousedown="handlePan(-1,0)">
                  <use xlink:href="#rim" fill="#404040">
                        <set attributeName="fill" to="#808080" begin="arrowLeft.mouseover" end="arrowLeft.mouseout"/>
                  </use>
                  <path fill="none" stroke="white" stroke-width="1.5" d="M0,-3.0v7 M-2.5,-0.5L0,-3.0L2.5,-0.5"/>
                </g>
        </g>
        <svg viewBox="0 0 15 15" width="100%" height="30px" preserveAspectRatio="xMaxYMin meet">
         <g id="arrow_out" transform="scale(0.3 0.3)">
          <a xlink:href="_printer_container_8cpp__incl_org.svg" target="_base">
           <rect id="button" ry="5" rx="5" y="6" x="6" height="38" width="38"
                fill="#f2f5e9" fill-opacity="0.5" stroke="#606060" stroke-width="1.0"/>
           <path id="arrow"
             d="M 11.500037,31.436501 C 11.940474,20.09759 22.043105,11.32322 32.158766,21.979434 L 37.068811,17.246167 C 37.068811,17.246167 37.088388,32 37.088388,32 L 22.160133,31.978069 C 22.160133,31.978069 26.997745,27.140456 26.997745,27.140456 C 18.528582,18.264221 13.291696,25.230495 11.500037,31.436501 z"
             style="fill:#404040;"/>
          </a>
         </g>
        </svg>
</svg>
