<?xml version="1.0" encoding="UTF-8" standalone="no"?>
<!DOCTYPE svg PUBLIC "-//W3C//DTD SVG 1.1//EN"
 "http://www.w3.org/Graphics/SVG/1.1/DTD/svg11.dtd">
<!-- Generated by graphviz version 2.40.1 (20161225.0304)
 -->
<!-- Title: /home/daniel/projects/tracer/src/PrinterContainer.hpp Pages: 1 -->
<svg width="530pt" height="319pt"
 viewBox="0.00 0.00 529.50 319.00" xmlns="http://www.w3.org/2000/svg" xmlns:xlink="http://www.w3.org/1999/xlink">
<g id="graph0" class="graph" transform="scale(1 1) rotate(0) translate(4 315)">
<title>/home/daniel/projects/tracer/src/PrinterContainer.hpp</title>
<!-- Node0 -->
<g id="node1" class="node">
<title>Node0</title>
<polygon fill="#bfbfbf" stroke="#000000" points="0,-280.5 0,-310.5 168,-310.5 168,-280.5 0,-280.5"/>
<text text-anchor="start" x="8" y="-298.5" font-family="Helvetica,sans-Serif" font-size="10.00" fill="#000000">/home/daniel/projects</text>
<text text-anchor="middle" x="84" y="-287.5" font-family="Helvetica,sans-Serif" font-size="10.00" fill="#000000">/tracer/src/PrinterContainer.hpp</text>
</g>
<!-- Node1 -->
<g id="node2" class="node">
<title>Node1</title>
<polygon fill="none" stroke="#bfbfbf" points="118.5,-.5 118.5,-19.5 191.5,-19.5 191.5,-.5 118.5,-.5"/>
<text text-anchor="middle" x="155" y="-7.5" font-family="Helvetica,sans-Serif" font-size="10.00" fill="#000000">defines.hpp</text>
</g>
<!-- Node0&#45;&gt;Node1 -->
<g id="edge1" class="edge">
<title>Node0&#45;&gt;Node1</title>
<path fill="none" stroke="#191970" d="M75.7546,-280.42C64.5785,-258.5326 46,-216.3768 46,-178 46,-178 46,-178 46,-122 46,-76.4375 92.8998,-42.4581 125.1714,-24.4701"/>
<polygon fill="#191970" stroke="#191970" points="127.0768,-27.4201 134.2414,-19.6149 123.7732,-21.2486 127.0768,-27.4201"/>
</g>
<!-- Node2 -->
<g id="node3" class="node">
<title>Node2</title>
<g id="a_node3"><a xlink:href="_fancy_printer_8hpp.html" target="_top" xlink:title="FancyPrinter.hpp">
<polygon fill="none" stroke="#000000" points="121.5,-224.5 121.5,-243.5 218.5,-243.5 218.5,-224.5 121.5,-224.5"/>
<text text-anchor="middle" x="170" y="-231.5" font-family="Helvetica,sans-Serif" font-size="10.00" fill="#000000">FancyPrinter.hpp</text>
</a>
</g>
</g>
<!-- Node0&#45;&gt;Node2 -->
<g id="edge2" class="edge">
<title>Node0&#45;&gt;Node2</title>
<path fill="none" stroke="#191970" d="M105.2584,-280.2977C118.2718,-270.9917 134.8903,-259.1075 148.0317,-249.7099"/>
<polygon fill="#191970" stroke="#191970" points="150.3889,-252.3271 156.4871,-243.6633 146.3171,-246.6332 150.3889,-252.3271"/>
</g>
<!-- Node2&#45;&gt;Node1 -->
<g id="edge3" class="edge">
<title>Node2&#45;&gt;Node1</title>
<path fill="none" stroke="#191970" d="M162.6337,-224.3247C156.1931,-215.3771 147.0955,-201.466 142,-188 121.1778,-132.9731 118.4825,-113.2609 132,-56 134.2706,-46.3814 138.8775,-36.4809 143.3759,-28.3404"/>
<polygon fill="#191970" stroke="#191970" points="146.3973,-30.1071 148.4603,-19.7151 140.367,-26.5524 146.3973,-30.1071"/>
</g>
<!-- Node3 -->
<g id="node4" class="node">
<title>Node3</title>
<g id="a_node4"><a xlink:href="_file_printer_8hpp.html" target="_top" xlink:title="FilePrinter.hpp">
<polygon fill="none" stroke="#000000" points="151,-168.5 151,-187.5 237,-187.5 237,-168.5 151,-168.5"/>
<text text-anchor="middle" x="194" y="-175.5" font-family="Helvetica,sans-Serif" font-size="10.00" fill="#000000">FilePrinter.hpp</text>
</a>
</g>
</g>
<!-- Node2&#45;&gt;Node3 -->
<g id="edge4" class="edge">
<title>Node2&#45;&gt;Node3</title>
<path fill="none" stroke="#191970" d="M174.1805,-224.2455C177.381,-216.7776 181.896,-206.2427 185.8084,-197.1137"/>
<polygon fill="#191970" stroke="#191970" points="189.1452,-198.2129 189.8674,-187.6427 182.7112,-195.4554 189.1452,-198.2129"/>
</g>
<!-- Node7 -->
<g id="node8" class="node">
<title>Node7</title>
<g id="a_node8"><a xlink:href="_system_info_printer_8hpp.html" target="_top" xlink:title="SystemInfoPrinter.hpp">
<polygon fill="none" stroke="#000000" points="334.5,-168.5 334.5,-187.5 459.5,-187.5 459.5,-168.5 334.5,-168.5"/>
<text text-anchor="middle" x="397" y="-175.5" font-family="Helvetica,sans-Serif" font-size="10.00" fill="#000000">SystemInfoPrinter.hpp</text>
</a>
</g>
</g>
<!-- Node2&#45;&gt;Node7 -->
<g id="edge11" class="edge">
<title>Node2&#45;&gt;Node7</title>
<path fill="none" stroke="#191970" d="M208.7648,-224.4369C247.3692,-214.9133 306.7384,-200.2672 348.4572,-189.9753"/>
<polygon fill="#191970" stroke="#191970" points="349.5245,-193.317 358.3951,-187.5237 347.8479,-186.5208 349.5245,-193.317"/>
</g>
<!-- Node3&#45;&gt;Node1 -->
<g id="edge5" class="edge">
<title>Node3&#45;&gt;Node1</title>
<path fill="none" stroke="#191970" d="M176.6242,-168.4558C164.1411,-160.5215 148.2818,-147.9621 141,-132 125.5924,-98.2258 137.6215,-53.9544 146.8919,-29.091"/>
<polygon fill="#191970" stroke="#191970" points="150.1788,-30.2968 150.608,-19.7106 143.6709,-27.7186 150.1788,-30.2968"/>
</g>
<!-- Node4 -->
<g id="node5" class="node">
<title>Node4</title>
<g id="a_node5"><a xlink:href="_default_printer_8hpp.html" target="_top" xlink:title="DefaultPrinter.hpp">
<polygon fill="none" stroke="#000000" points="304.5,-112.5 304.5,-131.5 409.5,-131.5 409.5,-112.5 304.5,-112.5"/>
<text text-anchor="middle" x="357" y="-119.5" font-family="Helvetica,sans-Serif" font-size="10.00" fill="#000000">DefaultPrinter.hpp</text>
</a>
</g>
</g>
<!-- Node3&#45;&gt;Node4 -->
<g id="edge6" class="edge">
<title>Node3&#45;&gt;Node4</title>
<path fill="none" stroke="#191970" d="M222.0207,-168.3733C249.0078,-159.1016 290.0017,-145.0178 319.7311,-134.804"/>
<polygon fill="#191970" stroke="#191970" points="321.0248,-138.0605 329.3449,-131.5011 318.7503,-131.4403 321.0248,-138.0605"/>
</g>
<!-- Node6 -->
<g id="node7" class="node">
<title>Node6</title>
<polygon fill="none" stroke="#bfbfbf" points="150,-112.5 150,-131.5 286,-131.5 286,-112.5 150,-112.5"/>
<text text-anchor="middle" x="218" y="-119.5" font-family="Helvetica,sans-Serif" font-size="10.00" fill="#000000">experimental/filesystem</text>
</g>
<!-- Node3&#45;&gt;Node6 -->
<g id="edge10" class="edge">
<title>Node3&#45;&gt;Node6</title>
<path fill="none" stroke="#191970" d="M198.1805,-168.2455C201.381,-160.7776 205.896,-150.2427 209.8084,-141.1137"/>
<polygon fill="#191970" stroke="#191970" points="213.1452,-142.2129 213.8674,-131.6427 206.7112,-139.4554 213.1452,-142.2129"/>
</g>
<!-- Node4&#45;&gt;Node1 -->
<g id="edge7" class="edge">
<title>Node4&#45;&gt;Node1</title>
<path fill="none" stroke="#191970" d="M336.1796,-112.4951C316.9411,-103.5522 287.6894,-89.5464 263,-76 233.1638,-59.6296 199.9001,-38.9107 178.2761,-25.0963"/>
<polygon fill="#191970" stroke="#191970" points="180.071,-22.0895 169.7652,-19.6314 176.2888,-27.9797 180.071,-22.0895"/>
</g>
<!-- Node5 -->
<g id="node6" class="node">
<title>Node5</title>
<g id="a_node6"><a xlink:href="_abstract_printer_8hpp.html" target="_top" xlink:title="AbstractPrinter.hpp">
<polygon fill="none" stroke="#000000" points="272,-56.5 272,-75.5 382,-75.5 382,-56.5 272,-56.5"/>
<text text-anchor="middle" x="327" y="-63.5" font-family="Helvetica,sans-Serif" font-size="10.00" fill="#000000">AbstractPrinter.hpp</text>
</a>
</g>
</g>
<!-- Node4&#45;&gt;Node5 -->
<g id="edge8" class="edge">
<title>Node4&#45;&gt;Node5</title>
<path fill="none" stroke="#191970" d="M351.7744,-112.2455C347.6877,-104.617 341.8865,-93.7881 336.925,-84.5267"/>
<polygon fill="#191970" stroke="#191970" points="339.9732,-82.8047 332.1657,-75.6427 333.8028,-86.1103 339.9732,-82.8047"/>
</g>
<!-- Node5&#45;&gt;Node1 -->
<g id="edge9" class="edge">
<title>Node5&#45;&gt;Node1</title>
<path fill="none" stroke="#191970" d="M297.4321,-56.3733C268.8312,-47.0613 225.3212,-32.8953 193.9181,-22.671"/>
<polygon fill="#191970" stroke="#191970" points="194.7743,-19.269 184.182,-19.5011 192.6072,-25.9251 194.7743,-19.269"/>
</g>
<!-- Node7&#45;&gt;Node1 -->
<g id="edge12" class="edge">
<title>Node7&#45;&gt;Node1</title>
<path fill="none" stroke="#191970" d="M402.9765,-168.2032C408.1112,-159.1737 415.1271,-145.2108 418,-132 425.6173,-96.9726 419.3835,-77.8933 391,-56 362.0199,-33.6465 262.0101,-20.3333 201.8763,-14.1637"/>
<polygon fill="#191970" stroke="#191970" points="202.1599,-10.6747 191.8617,-13.1643 201.4647,-17.6401 202.1599,-10.6747"/>
</g>
<!-- Node7&#45;&gt;Node4 -->
<g id="edge13" class="edge">
<title>Node7&#45;&gt;Node4</title>
<path fill="none" stroke="#191970" d="M390.0325,-168.2455C384.4689,-160.4564 376.522,-149.3308 369.8171,-139.9439"/>
<polygon fill="#191970" stroke="#191970" points="372.5481,-137.7457 363.8876,-131.6427 366.852,-141.8144 372.5481,-137.7457"/>
</g>
<!-- Node8 -->
<g id="node9" class="node">
<title>Node8</title>
<polygon fill="none" stroke="#bfbfbf" points="466.5,-112.5 466.5,-131.5 521.5,-131.5 521.5,-112.5 466.5,-112.5"/>
<text text-anchor="middle" x="494" y="-119.5" font-family="Helvetica,sans-Serif" font-size="10.00" fill="#000000">signal.h</text>
</g>
<!-- Node7&#45;&gt;Node8 -->
<g id="edge14" class="edge">
<title>Node7&#45;&gt;Node8</title>
<path fill="none" stroke="#191970" d="M413.8961,-168.2455C428.918,-159.5731 451.1043,-146.7645 468.321,-136.825"/>
<polygon fill="#191970" stroke="#191970" points="470.3871,-139.6737 477.2975,-131.6427 466.8872,-133.6114 470.3871,-139.6737"/>
</g>
</g>
</svg>
