<?xml version="1.0" encoding="UTF-8" standalone="no"?>
<!DOCTYPE svg PUBLIC "-//W3C//DTD SVG 1.1//EN"
 "http://www.w3.org/Graphics/SVG/1.1/DTD/svg11.dtd">
<!-- Generated by graphviz version 2.40.1 (20161225.0304)
 -->
<!-- Title: /home/daniel/projects/tracer/src/printers/SystemInfoPrinter.cpp Pages: 1 -->
<svg width="527pt" height="274pt"
 viewBox="0.00 0.00 527.03 274.00" xmlns="http://www.w3.org/2000/svg" xmlns:xlink="http://www.w3.org/1999/xlink">
<g id="graph0" class="graph" transform="scale(1 1) rotate(0) translate(4 270)">
<title>/home/daniel/projects/tracer/src/printers/SystemInfoPrinter.cpp</title>
<!-- Node0 -->
<g id="node1" class="node">
<title>Node0</title>
<polygon fill="#bfbfbf" stroke="#000000" points="171.5341,-224.5 171.5341,-265.5 298.5341,-265.5 298.5341,-224.5 171.5341,-224.5"/>
<text text-anchor="start" x="179.5341" y="-253.5" font-family="Helvetica,sans-Serif" font-size="10.00" fill="#000000">/home/daniel/projects</text>
<text text-anchor="start" x="179.5341" y="-242.5" font-family="Helvetica,sans-Serif" font-size="10.00" fill="#000000">/tracer/src/printers</text>
<text text-anchor="middle" x="235.0341" y="-231.5" font-family="Helvetica,sans-Serif" font-size="10.00" fill="#000000">/SystemInfoPrinter.cpp</text>
</g>
<!-- Node1 -->
<g id="node2" class="node">
<title>Node1</title>
<polygon fill="none" stroke="#bfbfbf" points="4.5341,-.5 4.5341,-19.5 77.5341,-19.5 77.5341,-.5 4.5341,-.5"/>
<text text-anchor="middle" x="41.0341" y="-7.5" font-family="Helvetica,sans-Serif" font-size="10.00" fill="#000000">defines.hpp</text>
</g>
<!-- Node0&#45;&gt;Node1 -->
<g id="edge1" class="edge">
<title>Node0&#45;&gt;Node1</title>
<path fill="none" stroke="#191970" d="M171.4107,-237.0077C114.0386,-228.3392 35.8619,-212.3837 17.0341,-188 -19.5644,-140.6017 12.2532,-64.147 30.4356,-28.9037"/>
<polygon fill="#191970" stroke="#191970" points="33.7078,-30.2071 35.3426,-19.7391 27.5368,-26.9028 33.7078,-30.2071"/>
</g>
<!-- Node2 -->
<g id="node3" class="node">
<title>Node2</title>
<g id="a_node3"><a xlink:href="_system_info_printer_8hpp.html" target="_top" xlink:title="SystemInfoPrinter.hpp">
<polygon fill="none" stroke="#000000" points="26.5341,-168.5 26.5341,-187.5 151.5341,-187.5 151.5341,-168.5 26.5341,-168.5"/>
<text text-anchor="middle" x="89.0341" y="-175.5" font-family="Helvetica,sans-Serif" font-size="10.00" fill="#000000">SystemInfoPrinter.hpp</text>
</a>
</g>
</g>
<!-- Node0&#45;&gt;Node2 -->
<g id="edge2" class="edge">
<title>Node0&#45;&gt;Node2</title>
<path fill="none" stroke="#191970" d="M190.038,-224.3511C167.0369,-213.7958 139.6638,-201.2342 119.2196,-191.8523"/>
<polygon fill="#191970" stroke="#191970" points="120.6211,-188.6445 110.0726,-187.6546 117.7015,-195.0066 120.6211,-188.6445"/>
</g>
<!-- Node6 -->
<g id="node7" class="node">
<title>Node6</title>
<polygon fill="none" stroke="#bfbfbf" points="169.5341,-168.5 169.5341,-187.5 224.5341,-187.5 224.5341,-168.5 169.5341,-168.5"/>
<text text-anchor="middle" x="197.0341" y="-175.5" font-family="Helvetica,sans-Serif" font-size="10.00" fill="#000000">fstream</text>
</g>
<!-- Node0&#45;&gt;Node6 -->
<g id="edge9" class="edge">
<title>Node0&#45;&gt;Node6</title>
<path fill="none" stroke="#191970" d="M223.219,-224.168C218.2168,-215.3484 212.4354,-205.155 207.5796,-196.5933"/>
<polygon fill="#191970" stroke="#191970" points="210.5591,-194.7521 202.5812,-187.7805 204.4703,-198.2056 210.5591,-194.7521"/>
</g>
<!-- Node7 -->
<g id="node8" class="node">
<title>Node7</title>
<polygon fill="none" stroke="#bfbfbf" points="243.0341,-168.5 243.0341,-187.5 303.0341,-187.5 303.0341,-168.5 243.0341,-168.5"/>
<text text-anchor="middle" x="273.0341" y="-175.5" font-family="Helvetica,sans-Serif" font-size="10.00" fill="#000000">iostream</text>
</g>
<!-- Node0&#45;&gt;Node7 -->
<g id="edge10" class="edge">
<title>Node0&#45;&gt;Node7</title>
<path fill="none" stroke="#191970" d="M246.8493,-224.168C251.8514,-215.3484 257.6328,-205.155 262.4887,-196.5933"/>
<polygon fill="#191970" stroke="#191970" points="265.598,-198.2056 267.487,-187.7805 259.5091,-194.7521 265.598,-198.2056"/>
</g>
<!-- Node8 -->
<g id="node9" class="node">
<title>Node8</title>
<polygon fill="none" stroke="#bfbfbf" points="321.0341,-168.5 321.0341,-187.5 365.0341,-187.5 365.0341,-168.5 321.0341,-168.5"/>
<text text-anchor="middle" x="343.0341" y="-175.5" font-family="Helvetica,sans-Serif" font-size="10.00" fill="#000000">regex</text>
</g>
<!-- Node0&#45;&gt;Node8 -->
<g id="edge11" class="edge">
<title>Node0&#45;&gt;Node8</title>
<path fill="none" stroke="#191970" d="M268.3189,-224.3511C284.6406,-214.2256 303.9382,-202.254 318.8326,-193.0139"/>
<polygon fill="#191970" stroke="#191970" points="320.8189,-195.9005 327.4714,-187.6546 317.1287,-189.9522 320.8189,-195.9005"/>
</g>
<!-- Node9 -->
<g id="node10" class="node">
<title>Node9</title>
<polygon fill="none" stroke="#bfbfbf" points="383.0341,-168.5 383.0341,-187.5 519.0341,-187.5 519.0341,-168.5 383.0341,-168.5"/>
<text text-anchor="middle" x="451.0341" y="-175.5" font-family="Helvetica,sans-Serif" font-size="10.00" fill="#000000">experimental/filesystem</text>
</g>
<!-- Node0&#45;&gt;Node9 -->
<g id="edge12" class="edge">
<title>Node0&#45;&gt;Node9</title>
<path fill="none" stroke="#191970" d="M298.673,-225.2602C334.8304,-214.0447 379.0169,-200.3387 410.4754,-190.5807"/>
<polygon fill="#191970" stroke="#191970" points="411.7016,-193.865 420.2157,-187.5594 409.6277,-187.1792 411.7016,-193.865"/>
</g>
<!-- Node2&#45;&gt;Node1 -->
<g id="edge3" class="edge">
<title>Node2&#45;&gt;Node1</title>
<path fill="none" stroke="#191970" d="M73.7267,-168.4046C62.3304,-160.2816 47.6482,-147.4994 41.0341,-132 26.6881,-98.3816 31.6835,-54.6492 36.4631,-29.7152"/>
<polygon fill="#191970" stroke="#191970" points="39.9393,-30.1921 38.5737,-19.6857 33.0893,-28.7505 39.9393,-30.1921"/>
</g>
<!-- Node3 -->
<g id="node4" class="node">
<title>Node3</title>
<g id="a_node4"><a xlink:href="_default_printer_8hpp.html" target="_top" xlink:title="DefaultPrinter.hpp">
<polygon fill="none" stroke="#000000" points="50.5341,-112.5 50.5341,-131.5 155.5341,-131.5 155.5341,-112.5 50.5341,-112.5"/>
<text text-anchor="middle" x="103.0341" y="-119.5" font-family="Helvetica,sans-Serif" font-size="10.00" fill="#000000">DefaultPrinter.hpp</text>
</a>
</g>
</g>
<!-- Node2&#45;&gt;Node3 -->
<g id="edge4" class="edge">
<title>Node2&#45;&gt;Node3</title>
<path fill="none" stroke="#191970" d="M91.4727,-168.2455C93.3196,-160.8579 95.9169,-150.4689 98.1819,-141.4087"/>
<polygon fill="#191970" stroke="#191970" points="101.5935,-142.193 100.6234,-131.6427 94.8025,-140.4952 101.5935,-142.193"/>
</g>
<!-- Node5 -->
<g id="node6" class="node">
<title>Node5</title>
<polygon fill="none" stroke="#bfbfbf" points="173.5341,-112.5 173.5341,-131.5 228.5341,-131.5 228.5341,-112.5 173.5341,-112.5"/>
<text text-anchor="middle" x="201.0341" y="-119.5" font-family="Helvetica,sans-Serif" font-size="10.00" fill="#000000">signal.h</text>
</g>
<!-- Node2&#45;&gt;Node5 -->
<g id="edge8" class="edge">
<title>Node2&#45;&gt;Node5</title>
<path fill="none" stroke="#191970" d="M108.2876,-168.3733C126.1053,-159.4644 152.8088,-146.1127 172.9935,-136.0203"/>
<polygon fill="#191970" stroke="#191970" points="174.6529,-139.1038 182.0319,-131.5011 171.5223,-132.8428 174.6529,-139.1038"/>
</g>
<!-- Node3&#45;&gt;Node1 -->
<g id="edge5" class="edge">
<title>Node3&#45;&gt;Node1</title>
<path fill="none" stroke="#191970" d="M97.748,-112.4509C87.4529,-93.8533 64.5564,-52.4919 51.2178,-28.3964"/>
<polygon fill="#191970" stroke="#191970" points="54.2122,-26.5787 46.3068,-19.5249 48.0879,-29.969 54.2122,-26.5787"/>
</g>
<!-- Node4 -->
<g id="node5" class="node">
<title>Node4</title>
<g id="a_node5"><a xlink:href="_abstract_printer_8hpp.html" target="_top" xlink:title="AbstractPrinter.hpp">
<polygon fill="none" stroke="#000000" points="88.0341,-56.5 88.0341,-75.5 198.0341,-75.5 198.0341,-56.5 88.0341,-56.5"/>
<text text-anchor="middle" x="143.0341" y="-63.5" font-family="Helvetica,sans-Serif" font-size="10.00" fill="#000000">AbstractPrinter.hpp</text>
</a>
</g>
</g>
<!-- Node3&#45;&gt;Node4 -->
<g id="edge6" class="edge">
<title>Node3&#45;&gt;Node4</title>
<path fill="none" stroke="#191970" d="M110.0016,-112.2455C115.5652,-104.4564 123.5121,-93.3308 130.217,-83.9439"/>
<polygon fill="#191970" stroke="#191970" points="133.1821,-85.8144 136.1465,-75.6427 127.486,-81.7457 133.1821,-85.8144"/>
</g>
<!-- Node4&#45;&gt;Node1 -->
<g id="edge7" class="edge">
<title>Node4&#45;&gt;Node1</title>
<path fill="none" stroke="#191970" d="M125.2671,-56.2455C109.3246,-47.4928 85.7082,-34.527 67.5352,-24.5496"/>
<polygon fill="#191970" stroke="#191970" points="69.0478,-21.3873 58.5976,-19.6427 65.6789,-27.5233 69.0478,-21.3873"/>
</g>
</g>
</svg>
