<?xml version="1.0" encoding="UTF-8" standalone="no"?>
<!DOCTYPE svg PUBLIC "-//W3C//DTD SVG 1.1//EN"
 "http://www.w3.org/Graphics/SVG/1.1/DTD/svg11.dtd">
<!-- Generated by graphviz version 2.40.1 (20161225.0304)
 -->
<!-- Title: /home/daniel/projects/tracer/src/TracerHandler.hpp Pages: 1 -->
<!--zoomable 375 -->
<svg id="main" version="1.1" xmlns="http://www.w3.org/2000/svg" xmlns:xlink="http://www.w3.org/1999/xlink" xml:space="preserve" onload="init(evt)">
<style type="text/css"><![CDATA[
.edge:hover path { stroke: red; }
.edge:hover polygon { stroke: red; fill: red; }
]]></style>
<script type="text/javascript"><![CDATA[
var edges = document.getElementsByTagName('g');
if (edges && edges.length) {
  for (var i=0;i<edges.length;i++) {
    if (edges[i].id.substr(0,4)=='edge') {
      edges[i].setAttribute('class','edge');
    }
  }
}
]]></script>
        <defs>
                <circle id="rim" cx="0" cy="0" r="7"/>
                <circle id="rim2" cx="0" cy="0" r="3.5"/>
                <g id="zoomPlus">
                        <use xlink:href="#rim" fill="#404040">
                                <set attributeName="fill" to="#808080" begin="zoomplus.mouseover" end="zoomplus.mouseout"/>
                        </use>
                        <path d="M-4,0h8M0,-4v8" fill="none" stroke="white" stroke-width="1.5" pointer-events="none"/>
                </g>
                <g id="zoomMin">
                        <use xlink:href="#rim" fill="#404040">
                                <set attributeName="fill" to="#808080" begin="zoomminus.mouseover" end="zoomminus.mouseout"/>
                        </use>
                        <path d="M-4,0h8" fill="none" stroke="white" stroke-width="1.5" pointer-events="none"/>
                </g>
                <g id="dirArrow">
                        <path fill="none" stroke="white" stroke-width="1.5" d="M0,-3.0v7 M-2.5,-0.5L0,-3.0L2.5,-0.5"/>
                </g>
               <g id="resetDef">
                       <use xlink:href="#rim2" fill="#404040">
                               <set attributeName="fill" to="#808080" begin="reset.mouseover" end="reset.mouseout"/>
                       </use>
               </g>
        </defs>

<script type="text/javascript">
var viewWidth = 832;
var viewHeight = 375;
var sectionId = 'dynsection-0';
</script>
<script xlink:href="svgpan.js"/>
<svg id="graph" class="graph">
<g id="viewport">
<title>/home/daniel/projects/tracer/src/TracerHandler.hpp</title>
<!-- Node0 -->
<g id="node1" class="node">
<title>Node0</title>
<polygon fill="#bfbfbf" stroke="#000000" points="18,-336.5 18,-366.5 174,-366.5 174,-336.5 18,-336.5"/>
<text text-anchor="start" x="26" y="-354.5" font-family="Helvetica,sans-Serif" font-size="10.00" fill="#000000">/home/daniel/projects</text>
<text text-anchor="middle" x="96" y="-343.5" font-family="Helvetica,sans-Serif" font-size="10.00" fill="#000000">/tracer/src/TracerHandler.hpp</text>
</g>
<!-- Node1 -->
<g id="node2" class="node">
<title>Node1</title>
<polygon fill="none" stroke="#bfbfbf" points="310.5,-.5 310.5,-19.5 383.5,-19.5 383.5,-.5 310.5,-.5"/>
<text text-anchor="middle" x="347" y="-7.5" font-family="Helvetica,sans-Serif" font-size="10.00" fill="#000000">defines.hpp</text>
</g>
<!-- Node0&#45;&gt;Node1 -->
<g id="edge1" class="edge">
<title>Node0&#45;&gt;Node1</title>
<path fill="none" stroke="#191970" d="M70.5364,-336.4025C56.8116,-327.2529 40.4028,-314.5498 29,-300 9.2362,-274.7818 0,-266.0401 0,-234 0,-234 0,-234 0,-122 0,-76.2481 37.4702,-75.1966 79,-56 117.5402,-38.1853 234.2343,-22.6948 300.2259,-15.0576"/>
<polygon fill="#191970" stroke="#191970" points="300.8238,-18.5121 310.3621,-13.9001 300.0295,-11.5573 300.8238,-18.5121"/>
</g>
<!-- Node2 -->
<g id="node3" class="node">
<title>Node2</title>
<g id="a_node3"><a xlink:href="_printer_container_8hpp.html" target="_top" xlink:title="PrinterContainer.hpp">
<polygon fill="none" stroke="#000000" points="38,-280.5 38,-299.5 154,-299.5 154,-280.5 38,-280.5"/>
<text text-anchor="middle" x="96" y="-287.5" font-family="Helvetica,sans-Serif" font-size="10.00" fill="#000000">PrinterContainer.hpp</text>
</a>
</g>
</g>
<!-- Node0&#45;&gt;Node2 -->
<g id="edge2" class="edge">
<title>Node0&#45;&gt;Node2</title>
<path fill="none" stroke="#191970" d="M96,-336.2977C96,-328.3834 96,-318.6043 96,-310.0759"/>
<polygon fill="#191970" stroke="#191970" points="99.5001,-309.8469 96,-299.8469 92.5001,-309.847 99.5001,-309.8469"/>
</g>
<!-- Node10 -->
<g id="node11" class="node">
<title>Node10</title>
<g id="a_node11"><a xlink:href="_tracer_8hpp.html" target="_top" xlink:title="Tracer.hpp">
<polygon fill="none" stroke="#000000" points="555,-168.5 555,-187.5 621,-187.5 621,-168.5 555,-168.5"/>
<text text-anchor="middle" x="588" y="-175.5" font-family="Helvetica,sans-Serif" font-size="10.00" fill="#000000">Tracer.hpp</text>
</a>
</g>
</g>
<!-- Node0&#45;&gt;Node10 -->
<g id="edge17" class="edge">
<title>Node0&#45;&gt;Node10</title>
<path fill="none" stroke="#191970" d="M138.8011,-336.4065C234.0245,-302.8267 462.0165,-222.4271 551.2775,-190.9499"/>
<polygon fill="#191970" stroke="#191970" points="552.6973,-194.1606 560.964,-187.534 550.3692,-187.559 552.6973,-194.1606"/>
</g>
<!-- Node2&#45;&gt;Node1 -->
<g id="edge3" class="edge">
<title>Node2&#45;&gt;Node1</title>
<path fill="none" stroke="#191970" d="M86.9375,-280.3829C70.625,-262.0212 38,-220.0423 38,-178 38,-178 38,-178 38,-122 38,-66.8938 213.898,-31.1854 300.2688,-16.9732"/>
<polygon fill="#191970" stroke="#191970" points="301.0262,-20.3964 310.3402,-15.3467 299.9101,-13.4859 301.0262,-20.3964"/>
</g>
<!-- Node3 -->
<g id="node4" class="node">
<title>Node3</title>
<g id="a_node4"><a xlink:href="_fancy_printer_8hpp.html" target="_top" xlink:title="FancyPrinter.hpp">
<polygon fill="none" stroke="#000000" points="113.5,-224.5 113.5,-243.5 210.5,-243.5 210.5,-224.5 113.5,-224.5"/>
<text text-anchor="middle" x="162" y="-231.5" font-family="Helvetica,sans-Serif" font-size="10.00" fill="#000000">FancyPrinter.hpp</text>
</a>
</g>
</g>
<!-- Node2&#45;&gt;Node3 -->
<g id="edge4" class="edge">
<title>Node2&#45;&gt;Node3</title>
<path fill="none" stroke="#191970" d="M107.4963,-280.2455C117.2442,-271.9746 131.4259,-259.9416 142.8798,-250.2232"/>
<polygon fill="#191970" stroke="#191970" points="145.2747,-252.7813 150.6354,-243.6427 140.7459,-247.4437 145.2747,-252.7813"/>
</g>
<!-- Node3&#45;&gt;Node1 -->
<g id="edge5" class="edge">
<title>Node3&#45;&gt;Node1</title>
<path fill="none" stroke="#191970" d="M154.5218,-224.366C148.0057,-215.4461 138.8604,-201.5526 134,-188 125.5128,-164.3343 127.7823,-157.0783 126,-132 123.3368,-94.5265 132.3361,-77.7044 163,-56 184.9091,-40.4924 253.5416,-26.0798 300.4983,-17.6574"/>
<polygon fill="#191970" stroke="#191970" points="301.2169,-21.0848 310.4576,-15.9021 300.0018,-14.191 301.2169,-21.0848"/>
</g>
<!-- Node4 -->
<g id="node5" class="node">
<title>Node4</title>
<g id="a_node5"><a xlink:href="_file_printer_8hpp.html" target="_top" xlink:title="FilePrinter.hpp">
<polygon fill="none" stroke="#000000" points="143,-168.5 143,-187.5 229,-187.5 229,-168.5 143,-168.5"/>
<text text-anchor="middle" x="186" y="-175.5" font-family="Helvetica,sans-Serif" font-size="10.00" fill="#000000">FilePrinter.hpp</text>
</a>
</g>
</g>
<!-- Node3&#45;&gt;Node4 -->
<g id="edge6" class="edge">
<title>Node3&#45;&gt;Node4</title>
<path fill="none" stroke="#191970" d="M166.1805,-224.2455C169.381,-216.7776 173.896,-206.2427 177.8084,-197.1137"/>
<polygon fill="#191970" stroke="#191970" points="181.1452,-198.2129 181.8674,-187.6427 174.7112,-195.4554 181.1452,-198.2129"/>
</g>
<!-- Node8 -->
<g id="node9" class="node">
<title>Node8</title>
<g id="a_node9"><a xlink:href="_system_info_printer_8hpp.html" target="_top" xlink:title="SystemInfoPrinter.hpp">
<polygon fill="none" stroke="#000000" points="325.5,-168.5 325.5,-187.5 450.5,-187.5 450.5,-168.5 325.5,-168.5"/>
<text text-anchor="middle" x="388" y="-175.5" font-family="Helvetica,sans-Serif" font-size="10.00" fill="#000000">SystemInfoPrinter.hpp</text>
</a>
</g>
</g>
<!-- Node3&#45;&gt;Node8 -->
<g id="edge13" class="edge">
<title>Node3&#45;&gt;Node8</title>
<path fill="none" stroke="#191970" d="M200.594,-224.4369C239.0284,-214.9133 298.136,-200.2672 339.671,-189.9753"/>
<polygon fill="#191970" stroke="#191970" points="340.7006,-193.3261 349.5652,-187.5237 339.0169,-186.5316 340.7006,-193.3261"/>
</g>
<!-- Node4&#45;&gt;Node1 -->
<g id="edge7" class="edge">
<title>Node4&#45;&gt;Node1</title>
<path fill="none" stroke="#191970" d="M168.6198,-168.4653C148.4053,-156.0819 119.4308,-133.4993 133,-112 169.6573,-53.9196 249.456,-28.2179 300.5759,-17.3616"/>
<polygon fill="#191970" stroke="#191970" points="301.2845,-20.7893 310.3962,-15.3831 299.9019,-13.9272 301.2845,-20.7893"/>
</g>
<!-- Node5 -->
<g id="node6" class="node">
<title>Node5</title>
<g id="a_node6"><a xlink:href="_default_printer_8hpp.html" target="_top" xlink:title="DefaultPrinter.hpp">
<polygon fill="none" stroke="#000000" points="296.5,-112.5 296.5,-131.5 401.5,-131.5 401.5,-112.5 296.5,-112.5"/>
<text text-anchor="middle" x="349" y="-119.5" font-family="Helvetica,sans-Serif" font-size="10.00" fill="#000000">DefaultPrinter.hpp</text>
</a>
</g>
</g>
<!-- Node4&#45;&gt;Node5 -->
<g id="edge8" class="edge">
<title>Node4&#45;&gt;Node5</title>
<path fill="none" stroke="#191970" d="M214.0207,-168.3733C241.0078,-159.1016 282.0017,-145.0178 311.7311,-134.804"/>
<polygon fill="#191970" stroke="#191970" points="313.0248,-138.0605 321.3449,-131.5011 310.7503,-131.4403 313.0248,-138.0605"/>
</g>
<!-- Node7 -->
<g id="node8" class="node">
<title>Node7</title>
<polygon fill="none" stroke="#bfbfbf" points="142,-112.5 142,-131.5 278,-131.5 278,-112.5 142,-112.5"/>
<text text-anchor="middle" x="210" y="-119.5" font-family="Helvetica,sans-Serif" font-size="10.00" fill="#000000">experimental/filesystem</text>
</g>
<!-- Node4&#45;&gt;Node7 -->
<g id="edge12" class="edge">
<title>Node4&#45;&gt;Node7</title>
<path fill="none" stroke="#191970" d="M190.1805,-168.2455C193.381,-160.7776 197.896,-150.2427 201.8084,-141.1137"/>
<polygon fill="#191970" stroke="#191970" points="205.1452,-142.2129 205.8674,-131.6427 198.7112,-139.4554 205.1452,-142.2129"/>
</g>
<!-- Node5&#45;&gt;Node1 -->
<g id="edge9" class="edge">
<title>Node5&#45;&gt;Node1</title>
<path fill="none" stroke="#191970" d="M325.2141,-112.4178C310.1331,-104.9442 291.8538,-92.9629 283,-76 272.1436,-55.2003 294.8576,-36.5258 316.1682,-24.394"/>
<polygon fill="#191970" stroke="#191970" points="317.9472,-27.4117 325.1134,-19.6081 314.6449,-21.2396 317.9472,-27.4117"/>
</g>
<!-- Node6 -->
<g id="node7" class="node">
<title>Node6</title>
<g id="a_node7"><a xlink:href="_abstract_printer_8hpp.html" target="_top" xlink:title="AbstractPrinter.hpp">
<polygon fill="none" stroke="#000000" points="292,-56.5 292,-75.5 402,-75.5 402,-56.5 292,-56.5"/>
<text text-anchor="middle" x="347" y="-63.5" font-family="Helvetica,sans-Serif" font-size="10.00" fill="#000000">AbstractPrinter.hpp</text>
</a>
</g>
</g>
<!-- Node5&#45;&gt;Node6 -->
<g id="edge10" class="edge">
<title>Node5&#45;&gt;Node6</title>
<path fill="none" stroke="#191970" d="M348.6516,-112.2455C348.3907,-104.9382 348.0248,-94.6944 347.7037,-85.7046"/>
<polygon fill="#191970" stroke="#191970" points="351.1992,-85.5113 347.3444,-75.6427 344.2036,-85.7613 351.1992,-85.5113"/>
</g>
<!-- Node6&#45;&gt;Node1 -->
<g id="edge11" class="edge">
<title>Node6&#45;&gt;Node1</title>
<path fill="none" stroke="#191970" d="M347,-56.2455C347,-48.9382 347,-38.6944 347,-29.7046"/>
<polygon fill="#191970" stroke="#191970" points="350.5001,-29.6426 347,-19.6427 343.5001,-29.6427 350.5001,-29.6426"/>
</g>
<!-- Node8&#45;&gt;Node1 -->
<g id="edge14" class="edge">
<title>Node8&#45;&gt;Node1</title>
<path fill="none" stroke="#191970" d="M394.5397,-168.2849C400.1594,-159.3105 407.8408,-145.3824 411,-132 418.7605,-99.1258 426.4118,-86.0569 411,-56 404.067,-42.4789 391.1064,-32.0326 378.6519,-24.5377"/>
<polygon fill="#191970" stroke="#191970" points="380.2072,-21.3979 369.766,-19.6001 376.8072,-27.5168 380.2072,-21.3979"/>
</g>
<!-- Node8&#45;&gt;Node5 -->
<g id="edge15" class="edge">
<title>Node8&#45;&gt;Node5</title>
<path fill="none" stroke="#191970" d="M381.2067,-168.2455C375.7822,-160.4564 368.0339,-149.3308 361.4967,-139.9439"/>
<polygon fill="#191970" stroke="#191970" points="364.3025,-137.8485 355.7154,-131.6427 358.5583,-141.849 364.3025,-137.8485"/>
</g>
<!-- Node9 -->
<g id="node10" class="node">
<title>Node9</title>
<polygon fill="none" stroke="#bfbfbf" points="458.5,-112.5 458.5,-131.5 513.5,-131.5 513.5,-112.5 458.5,-112.5"/>
<text text-anchor="middle" x="486" y="-119.5" font-family="Helvetica,sans-Serif" font-size="10.00" fill="#000000">signal.h</text>
</g>
<!-- Node8&#45;&gt;Node9 -->
<g id="edge16" class="edge">
<title>Node8&#45;&gt;Node9</title>
<path fill="none" stroke="#191970" d="M405.0703,-168.2455C420.247,-159.5731 442.6621,-146.7645 460.0563,-136.825"/>
<polygon fill="#191970" stroke="#191970" points="462.1794,-139.643 469.1253,-131.6427 458.7064,-133.5653 462.1794,-139.643"/>
</g>
<!-- Node10&#45;&gt;Node1 -->
<g id="edge18" class="edge">
<title>Node10&#45;&gt;Node1</title>
<path fill="none" stroke="#191970" d="M579.8587,-168.2584C568.1752,-154.6427 545.5647,-129.6154 523,-112 475.3412,-74.7946 412.7135,-41.734 376.4526,-23.914"/>
<polygon fill="#191970" stroke="#191970" points="377.9166,-20.7341 367.3927,-19.5098 374.8561,-27.0296 377.9166,-20.7341"/>
</g>
<!-- Node11 -->
<g id="node12" class="node">
<title>Node11</title>
<g id="a_node12"><a xlink:href="_abstract_debug_info_8hpp.html" target="_top" xlink:title="AbstractDebugInfo.hpp">
<polygon fill="none" stroke="#000000" points="570,-112.5 570,-131.5 698,-131.5 698,-112.5 570,-112.5"/>
<text text-anchor="middle" x="634" y="-119.5" font-family="Helvetica,sans-Serif" font-size="10.00" fill="#000000">AbstractDebugInfo.hpp</text>
</a>
</g>
</g>
<!-- Node10&#45;&gt;Node11 -->
<g id="edge19" class="edge">
<title>Node10&#45;&gt;Node11</title>
<path fill="none" stroke="#191970" d="M596.0126,-168.2455C602.4768,-160.3761 611.7385,-149.101 619.4983,-139.6542"/>
<polygon fill="#191970" stroke="#191970" points="622.4364,-141.5916 626.0792,-131.6427 617.0273,-137.1484 622.4364,-141.5916"/>
</g>
<!-- Node13 -->
<g id="node14" class="node">
<title>Node13</title>
<g id="a_node14"><a xlink:href="_abstract_tracer_8hpp.html" target="_top" xlink:title="AbstractTracer.hpp">
<polygon fill="none" stroke="#000000" points="716.5,-112.5 716.5,-131.5 823.5,-131.5 823.5,-112.5 716.5,-112.5"/>
<text text-anchor="middle" x="770" y="-119.5" font-family="Helvetica,sans-Serif" font-size="10.00" fill="#000000">AbstractTracer.hpp</text>
</a>
</g>
</g>
<!-- Node10&#45;&gt;Node13 -->
<g id="edge23" class="edge">
<title>Node10&#45;&gt;Node13</title>
<path fill="none" stroke="#191970" d="M619.2869,-168.3733C649.6818,-159.021 695.9893,-144.7725 729.25,-134.5385"/>
<polygon fill="#191970" stroke="#191970" points="730.5929,-137.7873 739.1214,-131.5011 728.5342,-131.0968 730.5929,-137.7873"/>
</g>
<!-- Node11&#45;&gt;Node1 -->
<g id="edge20" class="edge">
<title>Node11&#45;&gt;Node1</title>
<path fill="none" stroke="#191970" d="M625.4692,-112.2327C612.1528,-97.6355 584.9368,-70.3169 556,-56 503.8994,-30.2225 437.4174,-18.7716 393.5931,-13.7639"/>
<polygon fill="#191970" stroke="#191970" points="393.826,-10.2689 383.5091,-12.6797 393.0776,-17.2288 393.826,-10.2689"/>
</g>
<!-- Node12 -->
<g id="node13" class="node">
<title>Node12</title>
<g id="a_node13"><a xlink:href="_frame_8hpp.html" target="_top" xlink:title="Frame.hpp">
<polygon fill="none" stroke="#000000" points="608,-56.5 608,-75.5 676,-75.5 676,-56.5 608,-56.5"/>
<text text-anchor="middle" x="642" y="-63.5" font-family="Helvetica,sans-Serif" font-size="10.00" fill="#000000">Frame.hpp</text>
</a>
</g>
</g>
<!-- Node11&#45;&gt;Node12 -->
<g id="edge21" class="edge">
<title>Node11&#45;&gt;Node12</title>
<path fill="none" stroke="#191970" d="M635.3935,-112.2455C636.4374,-104.9382 637.9008,-94.6944 639.1851,-85.7046"/>
<polygon fill="#191970" stroke="#191970" points="642.673,-86.0372 640.6225,-75.6427 635.7434,-85.0472 642.673,-86.0372"/>
</g>
<!-- Node12&#45;&gt;Node1 -->
<g id="edge22" class="edge">
<title>Node12&#45;&gt;Node1</title>
<path fill="none" stroke="#191970" d="M607.9297,-58.8088C603.2526,-57.8488 598.5097,-56.8896 594,-56 524.4822,-42.2869 443.7336,-27.4549 393.9991,-18.4458"/>
<polygon fill="#191970" stroke="#191970" points="394.3355,-14.9499 383.8722,-16.6142 393.0896,-21.8381 394.3355,-14.9499"/>
</g>
<!-- Node13&#45;&gt;Node1 -->
<g id="edge24" class="edge">
<title>Node13&#45;&gt;Node1</title>
<path fill="none" stroke="#191970" d="M761.1321,-112.4344C746.7387,-97.5858 716.6934,-69.3156 685,-56 633.466,-34.3486 474.1439,-19.6158 394.0216,-13.3712"/>
<polygon fill="#191970" stroke="#191970" points="393.9639,-9.8565 383.7255,-12.5815 393.4286,-16.836 393.9639,-9.8565"/>
</g>
<!-- Node13&#45;&gt;Node12 -->
<g id="edge25" class="edge">
<title>Node13&#45;&gt;Node12</title>
<path fill="none" stroke="#191970" d="M747.996,-112.3733C727.3565,-103.3435 696.2842,-89.7494 673.1111,-79.6111"/>
<polygon fill="#191970" stroke="#191970" points="674.2813,-76.3028 663.7169,-75.5011 671.4755,-82.7159 674.2813,-76.3028"/>
</g>
</g>
</svg>
        <g id="navigator" transform="translate(0 0)" fill="#404254">
                <rect fill="#f2f5e9" fill-opacity="0.5" stroke="#606060" stroke-width=".5" x="0" y="0" width="60" height="60"/>
                <use id="zoomplus" xlink:href="#zoomPlus" x="17" y="9" onmousedown="handleZoom(evt,'in')"/>
                <use id="zoomminus" xlink:href="#zoomMin" x="42" y="9" onmousedown="handleZoom(evt,'out')"/>
                <use id="reset" xlink:href="#resetDef" x="30" y="36" onmousedown="handleReset()"/>
                <g id="arrowUp" xlink:href="#dirArrow" transform="translate(30 24)" onmousedown="handlePan(0,-1)">
                  <use xlink:href="#rim" fill="#404040">
                        <set attributeName="fill" to="#808080" begin="arrowUp.mouseover" end="arrowUp.mouseout"/>
                  </use>
                  <path fill="none" stroke="white" stroke-width="1.5" d="M0,-3.0v7 M-2.5,-0.5L0,-3.0L2.5,-0.5"/>
                </g>
                <g id="arrowRight" xlink:href="#dirArrow" transform="rotate(90) translate(36 -43)" onmousedown="handlePan(1,0)">
                  <use xlink:href="#rim" fill="#404040">
                        <set attributeName="fill" to="#808080" begin="arrowRight.mouseover" end="arrowRight.mouseout"/>
                  </use>
                  <path fill="none" stroke="white" stroke-width="1.5" d="M0,-3.0v7 M-2.5,-0.5L0,-3.0L2.5,-0.5"/>
                </g>
                <g id="arrowDown" xlink:href="#dirArrow" transform="rotate(180) translate(-30 -48)" onmousedown="handlePan(0,1)">
                  <use xlink:href="#rim" fill="#404040">
                        <set attributeName="fill" to="#808080" begin="arrowDown.mouseover" end="arrowDown.mouseout"/>
                  </use>
                  <path fill="none" stroke="white" stroke-width="1.5" d="M0,-3.0v7 M-2.5,-0.5L0,-3.0L2.5,-0.5"/>
                </g>
                <g id="arrowLeft" xlink:href="#dirArrow" transform="rotate(270) translate(-36 17)" onmousedown="handlePan(-1,0)">
                  <use xlink:href="#rim" fill="#404040">
                        <set attributeName="fill" to="#808080" begin="arrowLeft.mouseover" end="arrowLeft.mouseout"/>
                  </use>
                  <path fill="none" stroke="white" stroke-width="1.5" d="M0,-3.0v7 M-2.5,-0.5L0,-3.0L2.5,-0.5"/>
                </g>
        </g>
        <svg viewBox="0 0 15 15" width="100%" height="30px" preserveAspectRatio="xMaxYMin meet">
         <g id="arrow_out" transform="scale(0.3 0.3)">
          <a xlink:href="_tracer_handler_8hpp__incl_org.svg" target="_base">
           <rect id="button" ry="5" rx="5" y="6" x="6" height="38" width="38"
                fill="#f2f5e9" fill-opacity="0.5" stroke="#606060" stroke-width="1.0"/>
           <path id="arrow"
             d="M 11.500037,31.436501 C 11.940474,20.09759 22.043105,11.32322 32.158766,21.979434 L 37.068811,17.246167 C 37.068811,17.246167 37.088388,32 37.088388,32 L 22.160133,31.978069 C 22.160133,31.978069 26.997745,27.140456 26.997745,27.140456 C 18.528582,18.264221 13.291696,25.230495 11.500037,31.436501 z"
             style="fill:#404040;"/>
          </a>
         </g>
        </svg>
</svg>
