<?xml version="1.0" encoding="UTF-8" standalone="no"?>
<!DOCTYPE svg PUBLIC "-//W3C//DTD SVG 1.1//EN"
 "http://www.w3.org/Graphics/SVG/1.1/DTD/svg11.dtd">
<!-- Generated by graphviz version 2.40.1 (20161225.0304)
 -->
<!-- Title: /home/daniel/projects/tracer/src/Tracer.cpp Pages: 1 -->
<svg width="447pt" height="263pt"
 viewBox="0.00 0.00 446.78 263.00" xmlns="http://www.w3.org/2000/svg" xmlns:xlink="http://www.w3.org/1999/xlink">
<g id="graph0" class="graph" transform="scale(1 1) rotate(0) translate(4 259)">
<title>/home/daniel/projects/tracer/src/Tracer.cpp</title>
<!-- Node0 -->
<g id="node1" class="node">
<title>Node0</title>
<polygon fill="#bfbfbf" stroke="#000000" points="113.7753,-224.5 113.7753,-254.5 235.7753,-254.5 235.7753,-224.5 113.7753,-224.5"/>
<text text-anchor="start" x="121.7753" y="-242.5" font-family="Helvetica,sans-Serif" font-size="10.00" fill="#000000">/home/daniel/projects</text>
<text text-anchor="middle" x="174.7753" y="-231.5" font-family="Helvetica,sans-Serif" font-size="10.00" fill="#000000">/tracer/src/Tracer.cpp</text>
</g>
<!-- Node1 -->
<g id="node2" class="node">
<title>Node1</title>
<polygon fill="none" stroke="#bfbfbf" points="128.2753,-.5 128.2753,-19.5 201.2753,-19.5 201.2753,-.5 128.2753,-.5"/>
<text text-anchor="middle" x="164.7753" y="-7.5" font-family="Helvetica,sans-Serif" font-size="10.00" fill="#000000">defines.hpp</text>
</g>
<!-- Node0&#45;&gt;Node1 -->
<g id="edge1" class="edge">
<title>Node0&#45;&gt;Node1</title>
<path fill="none" stroke="#191970" d="M113.4266,-226.7939C74.9969,-217.4755 30.588,-203.7399 18.7753,-188 -17.2793,-139.9587 2.6138,-95.6023 47.7753,-56 67.7343,-38.4979 95.1374,-27.2432 118.4061,-20.2502"/>
<polygon fill="#191970" stroke="#191970" points="119.423,-23.5999 128.0915,-17.5083 117.5162,-16.8646 119.423,-23.5999"/>
</g>
<!-- Node2 -->
<g id="node3" class="node">
<title>Node2</title>
<g id="a_node3"><a xlink:href="_tracer_8hpp.html" target="_top" xlink:title="Tracer.hpp">
<polygon fill="none" stroke="#000000" points="27.7753,-168.5 27.7753,-187.5 93.7753,-187.5 93.7753,-168.5 27.7753,-168.5"/>
<text text-anchor="middle" x="60.7753" y="-175.5" font-family="Helvetica,sans-Serif" font-size="10.00" fill="#000000">Tracer.hpp</text>
</a>
</g>
</g>
<!-- Node0&#45;&gt;Node2 -->
<g id="edge2" class="edge">
<title>Node0&#45;&gt;Node2</title>
<path fill="none" stroke="#191970" d="M146.8878,-224.4554C128.8677,-214.734 105.5412,-202.15 87.7121,-192.5317"/>
<polygon fill="#191970" stroke="#191970" points="88.9041,-189.1979 78.4413,-187.5303 85.5805,-195.3586 88.9041,-189.1979"/>
</g>
<!-- Node6 -->
<g id="node7" class="node">
<title>Node6</title>
<g id="a_node7"><a xlink:href="_debug_info_dummy_8hpp.html" target="_top" xlink:title="DebugInfoDummy.hpp">
<polygon fill="none" stroke="#000000" points="112.2753,-168.5 112.2753,-187.5 237.2753,-187.5 237.2753,-168.5 112.2753,-168.5"/>
<text text-anchor="middle" x="174.7753" y="-175.5" font-family="Helvetica,sans-Serif" font-size="10.00" fill="#000000">DebugInfoDummy.hpp</text>
</a>
</g>
</g>
<!-- Node0&#45;&gt;Node6 -->
<g id="edge11" class="edge">
<title>Node0&#45;&gt;Node6</title>
<path fill="none" stroke="#191970" d="M174.7753,-224.2977C174.7753,-216.3834 174.7753,-206.6043 174.7753,-198.0759"/>
<polygon fill="#191970" stroke="#191970" points="178.2754,-197.8469 174.7753,-187.8469 171.2754,-197.847 178.2754,-197.8469"/>
</g>
<!-- Node7 -->
<g id="node8" class="node">
<title>Node7</title>
<g id="a_node8"><a xlink:href="_dummy_tracer_8hpp.html" target="_top" xlink:title="DummyTracer.hpp">
<polygon fill="none" stroke="#000000" points="255.2753,-168.5 255.2753,-187.5 360.2753,-187.5 360.2753,-168.5 255.2753,-168.5"/>
<text text-anchor="middle" x="307.7753" y="-175.5" font-family="Helvetica,sans-Serif" font-size="10.00" fill="#000000">DummyTracer.hpp</text>
</a>
</g>
</g>
<!-- Node0&#45;&gt;Node7 -->
<g id="edge14" class="edge">
<title>Node0&#45;&gt;Node7</title>
<path fill="none" stroke="#191970" d="M207.3108,-224.4554C228.9182,-214.464 257.0652,-201.4487 278.0673,-191.7372"/>
<polygon fill="#191970" stroke="#191970" points="279.5575,-194.9043 287.1651,-187.5303 276.6195,-188.5506 279.5575,-194.9043"/>
</g>
<!-- Node8 -->
<g id="node9" class="node">
<title>Node8</title>
<polygon fill="none" stroke="#bfbfbf" points="378.7753,-168.5 378.7753,-187.5 438.7753,-187.5 438.7753,-168.5 378.7753,-168.5"/>
<text text-anchor="middle" x="408.7753" y="-175.5" font-family="Helvetica,sans-Serif" font-size="10.00" fill="#000000">iostream</text>
</g>
<!-- Node0&#45;&gt;Node8 -->
<g id="edge17" class="edge">
<title>Node0&#45;&gt;Node8</title>
<path fill="none" stroke="#191970" d="M232.0182,-224.4554C274.3153,-213.3389 330.8554,-198.479 368.478,-188.591"/>
<polygon fill="#191970" stroke="#191970" points="369.7784,-191.8681 378.5603,-185.9411 367.9991,-185.098 369.7784,-191.8681"/>
</g>
<!-- Node2&#45;&gt;Node1 -->
<g id="edge3" class="edge">
<title>Node2&#45;&gt;Node1</title>
<path fill="none" stroke="#191970" d="M48.3447,-168.324C33.6039,-155.604 12.2754,-132.4702 22.7753,-112 45.1253,-68.4275 95.7014,-39.2642 130.0508,-23.6536"/>
<polygon fill="#191970" stroke="#191970" points="131.5198,-26.8313 139.2718,-19.6094 128.7081,-20.4207 131.5198,-26.8313"/>
</g>
<!-- Node3 -->
<g id="node4" class="node">
<title>Node3</title>
<g id="a_node4"><a xlink:href="_abstract_debug_info_8hpp.html" target="_top" xlink:title="AbstractDebugInfo.hpp">
<polygon fill="none" stroke="#000000" points="31.7753,-112.5 31.7753,-131.5 159.7753,-131.5 159.7753,-112.5 31.7753,-112.5"/>
<text text-anchor="middle" x="95.7753" y="-119.5" font-family="Helvetica,sans-Serif" font-size="10.00" fill="#000000">AbstractDebugInfo.hpp</text>
</a>
</g>
</g>
<!-- Node2&#45;&gt;Node3 -->
<g id="edge4" class="edge">
<title>Node2&#45;&gt;Node3</title>
<path fill="none" stroke="#191970" d="M66.8719,-168.2455C71.6899,-160.5367 78.5505,-149.5598 84.3786,-140.2348"/>
<polygon fill="#191970" stroke="#191970" points="87.4166,-141.9777 89.7487,-131.6427 81.4806,-138.2677 87.4166,-141.9777"/>
</g>
<!-- Node5 -->
<g id="node6" class="node">
<title>Node5</title>
<g id="a_node6"><a xlink:href="_abstract_tracer_8hpp.html" target="_top" xlink:title="AbstractTracer.hpp">
<polygon fill="none" stroke="#000000" points="178.2753,-112.5 178.2753,-131.5 285.2753,-131.5 285.2753,-112.5 178.2753,-112.5"/>
<text text-anchor="middle" x="231.7753" y="-119.5" font-family="Helvetica,sans-Serif" font-size="10.00" fill="#000000">AbstractTracer.hpp</text>
</a>
</g>
</g>
<!-- Node2&#45;&gt;Node5 -->
<g id="edge8" class="edge">
<title>Node2&#45;&gt;Node5</title>
<path fill="none" stroke="#191970" d="M90.1713,-168.3733C118.606,-159.0613 161.863,-144.8953 193.0835,-134.671"/>
<polygon fill="#191970" stroke="#191970" points="194.3489,-137.9396 202.763,-131.5011 192.1703,-131.2872 194.3489,-137.9396"/>
</g>
<!-- Node3&#45;&gt;Node1 -->
<g id="edge5" class="edge">
<title>Node3&#45;&gt;Node1</title>
<path fill="none" stroke="#191970" d="M98.4138,-112.0608C102.2504,-98.6478 110.1979,-74.3241 121.7753,-56 128.5014,-45.3545 137.8802,-34.9759 146.1629,-26.7793"/>
<polygon fill="#191970" stroke="#191970" points="148.8188,-29.0832 153.6458,-19.6518 143.9909,-24.0146 148.8188,-29.0832"/>
</g>
<!-- Node4 -->
<g id="node5" class="node">
<title>Node4</title>
<g id="a_node5"><a xlink:href="_frame_8hpp.html" target="_top" xlink:title="Frame.hpp">
<polygon fill="none" stroke="#000000" points="130.7753,-56.5 130.7753,-75.5 198.7753,-75.5 198.7753,-56.5 130.7753,-56.5"/>
<text text-anchor="middle" x="164.7753" y="-63.5" font-family="Helvetica,sans-Serif" font-size="10.00" fill="#000000">Frame.hpp</text>
</a>
</g>
</g>
<!-- Node3&#45;&gt;Node4 -->
<g id="edge6" class="edge">
<title>Node3&#45;&gt;Node4</title>
<path fill="none" stroke="#191970" d="M107.7942,-112.2455C117.9852,-103.9746 132.8116,-91.9416 144.786,-82.2232"/>
<polygon fill="#191970" stroke="#191970" points="147.3352,-84.662 152.8942,-75.6427 142.924,-79.2268 147.3352,-84.662"/>
</g>
<!-- Node4&#45;&gt;Node1 -->
<g id="edge7" class="edge">
<title>Node4&#45;&gt;Node1</title>
<path fill="none" stroke="#191970" d="M164.7753,-56.2455C164.7753,-48.9382 164.7753,-38.6944 164.7753,-29.7046"/>
<polygon fill="#191970" stroke="#191970" points="168.2754,-29.6426 164.7753,-19.6427 161.2754,-29.6427 168.2754,-29.6426"/>
</g>
<!-- Node5&#45;&gt;Node1 -->
<g id="edge9" class="edge">
<title>Node5&#45;&gt;Node1</title>
<path fill="none" stroke="#191970" d="M229.4962,-112.0512C226.1319,-98.6274 218.9958,-74.2913 207.7753,-56 201.191,-45.2663 191.8263,-34.8789 183.5163,-26.6993"/>
<polygon fill="#191970" stroke="#191970" points="185.6696,-23.9186 175.9974,-19.5942 180.8618,-29.0064 185.6696,-23.9186"/>
</g>
<!-- Node5&#45;&gt;Node4 -->
<g id="edge10" class="edge">
<title>Node5&#45;&gt;Node4</title>
<path fill="none" stroke="#191970" d="M220.1048,-112.2455C210.2093,-103.9746 195.8126,-91.9416 184.1853,-82.2232"/>
<polygon fill="#191970" stroke="#191970" points="186.2296,-79.3703 176.3121,-75.6427 181.7404,-84.7413 186.2296,-79.3703"/>
</g>
<!-- Node6&#45;&gt;Node1 -->
<g id="edge12" class="edge">
<title>Node6&#45;&gt;Node1</title>
<path fill="none" stroke="#191970" d="M233.0043,-168.4718C269.8145,-159.3729 307.9821,-142.3901 293.7753,-112 274.1613,-70.0432 227.6069,-40.3032 196.1303,-24.1444"/>
<polygon fill="#191970" stroke="#191970" points="197.4067,-20.8707 186.8923,-19.5671 194.2988,-27.143 197.4067,-20.8707"/>
</g>
<!-- Node6&#45;&gt;Node3 -->
<g id="edge13" class="edge">
<title>Node6&#45;&gt;Node3</title>
<path fill="none" stroke="#191970" d="M161.0146,-168.2455C149.1201,-159.814 131.7103,-147.4729 117.8668,-137.6598"/>
<polygon fill="#191970" stroke="#191970" points="119.5607,-134.5704 109.3784,-131.6427 115.5126,-140.2811 119.5607,-134.5704"/>
</g>
<!-- Node7&#45;&gt;Node1 -->
<g id="edge15" class="edge">
<title>Node7&#45;&gt;Node1</title>
<path fill="none" stroke="#191970" d="M309.9404,-168.3532C312.4593,-155.2717 315.5821,-131.3223 309.7753,-112 301.1899,-83.4314 295.691,-75.0984 272.7753,-56 254.7326,-40.9628 231.0468,-30.1419 210.4556,-22.7887"/>
<polygon fill="#191970" stroke="#191970" points="211.5344,-19.4588 200.94,-19.553 209.2808,-26.0861 211.5344,-19.4588"/>
</g>
<!-- Node7&#45;&gt;Node5 -->
<g id="edge16" class="edge">
<title>Node7&#45;&gt;Node5</title>
<path fill="none" stroke="#191970" d="M294.5372,-168.2455C283.0944,-159.814 266.3457,-147.4729 253.0279,-137.6598"/>
<polygon fill="#191970" stroke="#191970" points="254.9886,-134.757 244.8618,-131.6427 250.8362,-140.3924 254.9886,-134.757"/>
</g>
</g>
</svg>
