<?xml version="1.0" encoding="UTF-8" standalone="no"?>
<!DOCTYPE svg PUBLIC "-//W3C//DTD SVG 1.1//EN"
 "http://www.w3.org/Graphics/SVG/1.1/DTD/svg11.dtd">
<!-- Generated by graphviz version 2.40.1 (20161225.0304)
 -->
<!-- Title: /home/daniel/projects/tracer/src/TracerHandler.cpp Pages: 1 -->
<!--zoomable 431 -->
<svg id="main" version="1.1" xmlns="http://www.w3.org/2000/svg" xmlns:xlink="http://www.w3.org/1999/xlink" xml:space="preserve" onload="init(evt)">
<style type="text/css"><![CDATA[
.edge:hover path { stroke: red; }
.edge:hover polygon { stroke: red; fill: red; }
]]></style>
<script type="text/javascript"><![CDATA[
var edges = document.getElementsByTagName('g');
if (edges && edges.length) {
  for (var i=0;i<edges.length;i++) {
    if (edges[i].id.substr(0,4)=='edge') {
      edges[i].setAttribute('class','edge');
    }
  }
}
]]></script>
        <defs>
                <circle id="rim" cx="0" cy="0" r="7"/>
                <circle id="rim2" cx="0" cy="0" r="3.5"/>
                <g id="zoomPlus">
                        <use xlink:href="#rim" fill="#404040">
                                <set attributeName="fill" to="#808080" begin="zoomplus.mouseover" end="zoomplus.mouseout"/>
                        </use>
                        <path d="M-4,0h8M0,-4v8" fill="none" stroke="white" stroke-width="1.5" pointer-events="none"/>
                </g>
                <g id="zoomMin">
                        <use xlink:href="#rim" fill="#404040">
                                <set attributeName="fill" to="#808080" begin="zoomminus.mouseover" end="zoomminus.mouseout"/>
                        </use>
                        <path d="M-4,0h8" fill="none" stroke="white" stroke-width="1.5" pointer-events="none"/>
                </g>
                <g id="dirArrow">
                        <path fill="none" stroke="white" stroke-width="1.5" d="M0,-3.0v7 M-2.5,-0.5L0,-3.0L2.5,-0.5"/>
                </g>
               <g id="resetDef">
                       <use xlink:href="#rim2" fill="#404040">
                               <set attributeName="fill" to="#808080" begin="reset.mouseover" end="reset.mouseout"/>
                       </use>
               </g>
        </defs>

<script type="text/javascript">
var viewWidth = 826;
var viewHeight = 431;
var sectionId = 'dynsection-0';
</script>
<script xlink:href="svgpan.js"/>
<svg id="graph" class="graph">
<g id="viewport">
<title>/home/daniel/projects/tracer/src/TracerHandler.cpp</title>
<!-- Node0 -->
<g id="node1" class="node">
<title>Node0</title>
<polygon fill="#bfbfbf" stroke="#000000" points="442.5,-392.5 442.5,-422.5 597.5,-422.5 597.5,-392.5 442.5,-392.5"/>
<text text-anchor="start" x="450.5" y="-410.5" font-family="Helvetica,sans-Serif" font-size="10.00" fill="#000000">/home/daniel/projects</text>
<text text-anchor="middle" x="520" y="-399.5" font-family="Helvetica,sans-Serif" font-size="10.00" fill="#000000">/tracer/src/TracerHandler.cpp</text>
</g>
<!-- Node1 -->
<g id="node2" class="node">
<title>Node1</title>
<polygon fill="none" stroke="#bfbfbf" points="330.5,-.5 330.5,-19.5 403.5,-19.5 403.5,-.5 330.5,-.5"/>
<text text-anchor="middle" x="367" y="-7.5" font-family="Helvetica,sans-Serif" font-size="10.00" fill="#000000">defines.hpp</text>
</g>
<!-- Node0&#45;&gt;Node1 -->
<g id="edge1" class="edge">
<title>Node0&#45;&gt;Node1</title>
<path fill="none" stroke="#191970" d="M442.4317,-397.9517C297.4721,-379.0494 0,-334.8018 0,-290 0,-290 0,-290 0,-122 0,-55.7305 221.6732,-24.8185 320.4581,-14.3332"/>
<polygon fill="#191970" stroke="#191970" points="320.8828,-17.8081 330.4689,-13.2961 320.1614,-10.8453 320.8828,-17.8081"/>
</g>
<!-- Node2 -->
<g id="node3" class="node">
<title>Node2</title>
<g id="a_node3"><a xlink:href="_tracer_handler_8hpp.html" target="_top" xlink:title="TracerHandler.hpp">
<polygon fill="none" stroke="#000000" points="339,-336.5 339,-355.5 443,-355.5 443,-336.5 339,-336.5"/>
<text text-anchor="middle" x="391" y="-343.5" font-family="Helvetica,sans-Serif" font-size="10.00" fill="#000000">TracerHandler.hpp</text>
</a>
</g>
</g>
<!-- Node0&#45;&gt;Node2 -->
<g id="edge2" class="edge">
<title>Node0&#45;&gt;Node2</title>
<path fill="none" stroke="#191970" d="M488.443,-392.4554C467.5799,-382.509 440.4309,-369.5659 420.0902,-359.8686"/>
<polygon fill="#191970" stroke="#191970" points="421.5233,-356.6744 410.9904,-355.5303 418.5109,-362.9931 421.5233,-356.6744"/>
</g>
<!-- Node4 -->
<g id="node5" class="node">
<title>Node4</title>
<g id="a_node5"><a xlink:href="_fancy_printer_8hpp.html" target="_top" xlink:title="FancyPrinter.hpp">
<polygon fill="none" stroke="#000000" points="529.5,-224.5 529.5,-243.5 626.5,-243.5 626.5,-224.5 529.5,-224.5"/>
<text text-anchor="middle" x="578" y="-231.5" font-family="Helvetica,sans-Serif" font-size="10.00" fill="#000000">FancyPrinter.hpp</text>
</a>
</g>
</g>
<!-- Node0&#45;&gt;Node4 -->
<g id="edge28" class="edge">
<title>Node0&#45;&gt;Node4</title>
<path fill="none" stroke="#191970" d="M523.5456,-392.3006C527.0594,-377.7334 532.8011,-355.1886 539,-336 548.4792,-306.6572 561.6561,-273.4263 570.0057,-253.0925"/>
<polygon fill="#191970" stroke="#191970" points="573.2931,-254.302 573.8869,-243.7238 566.8261,-251.6229 573.2931,-254.302"/>
</g>
<!-- Node15 -->
<g id="node16" class="node">
<title>Node15</title>
<polygon fill="none" stroke="#bfbfbf" points="548,-336.5 548,-355.5 608,-355.5 608,-336.5 548,-336.5"/>
<text text-anchor="middle" x="578" y="-343.5" font-family="Helvetica,sans-Serif" font-size="10.00" fill="#000000">iostream</text>
</g>
<!-- Node0&#45;&gt;Node15 -->
<g id="edge29" class="edge">
<title>Node0&#45;&gt;Node15</title>
<path fill="none" stroke="#191970" d="M534.3371,-392.2977C542.6397,-383.4941 553.1182,-372.3833 561.7289,-363.2529"/>
<polygon fill="#191970" stroke="#191970" points="564.3987,-365.5234 568.7135,-355.8469 559.3061,-360.7206 564.3987,-365.5234"/>
</g>
<!-- Node16 -->
<g id="node17" class="node">
<title>Node16</title>
<polygon fill="none" stroke="#bfbfbf" points="626,-336.5 626,-355.5 682,-355.5 682,-336.5 626,-336.5"/>
<text text-anchor="middle" x="654" y="-343.5" font-family="Helvetica,sans-Serif" font-size="10.00" fill="#000000">unistd.h</text>
</g>
<!-- Node0&#45;&gt;Node16 -->
<g id="edge30" class="edge">
<title>Node0&#45;&gt;Node16</title>
<path fill="none" stroke="#191970" d="M552.7801,-392.4554C574.55,-382.464 602.9086,-369.4487 624.0686,-359.7372"/>
<polygon fill="#191970" stroke="#191970" points="625.6062,-362.8826 633.2348,-355.5303 622.6863,-356.5206 625.6062,-362.8826"/>
</g>
<!-- Node2&#45;&gt;Node1 -->
<g id="edge3" class="edge">
<title>Node2&#45;&gt;Node1</title>
<path fill="none" stroke="#191970" d="M384.4692,-336.2931C372.4401,-317.4432 348,-274.1986 348,-234 348,-234 348,-234 348,-122 348,-89.2688 355.9852,-51.9052 361.6022,-29.6716"/>
<polygon fill="#191970" stroke="#191970" points="365.0415,-30.3545 364.1965,-19.7934 358.2711,-28.5763 365.0415,-30.3545"/>
</g>
<!-- Node3 -->
<g id="node4" class="node">
<title>Node3</title>
<g id="a_node4"><a xlink:href="_printer_container_8hpp.html" target="_top" xlink:title="PrinterContainer.hpp">
<polygon fill="none" stroke="#000000" points="376,-280.5 376,-299.5 492,-299.5 492,-280.5 376,-280.5"/>
<text text-anchor="middle" x="434" y="-287.5" font-family="Helvetica,sans-Serif" font-size="10.00" fill="#000000">PrinterContainer.hpp</text>
</a>
</g>
</g>
<!-- Node2&#45;&gt;Node3 -->
<g id="edge4" class="edge">
<title>Node2&#45;&gt;Node3</title>
<path fill="none" stroke="#191970" d="M398.49,-336.2455C404.5326,-328.3761 413.1903,-317.101 420.4441,-307.6542"/>
<polygon fill="#191970" stroke="#191970" points="423.2815,-309.7058 426.5958,-299.6427 417.7295,-305.4426 423.2815,-309.7058"/>
</g>
<!-- Node11 -->
<g id="node12" class="node">
<title>Node11</title>
<g id="a_node12"><a xlink:href="_tracer_8hpp.html" target="_top" xlink:title="Tracer.hpp">
<polygon fill="none" stroke="#000000" points="225,-168.5 225,-187.5 291,-187.5 291,-168.5 225,-168.5"/>
<text text-anchor="middle" x="258" y="-175.5" font-family="Helvetica,sans-Serif" font-size="10.00" fill="#000000">Tracer.hpp</text>
</a>
</g>
</g>
<!-- Node2&#45;&gt;Node11 -->
<g id="edge19" class="edge">
<title>Node2&#45;&gt;Node11</title>
<path fill="none" stroke="#191970" d="M376.2772,-336.2182C364.0379,-327.6219 346.6412,-314.2841 334,-300 304.9296,-267.1515 279.9487,-221.8928 267.1474,-196.7541"/>
<polygon fill="#191970" stroke="#191970" points="270.1714,-194.9756 262.5709,-187.5943 263.9095,-198.1043 270.1714,-194.9756"/>
</g>
<!-- Node3&#45;&gt;Node1 -->
<g id="edge5" class="edge">
<title>Node3&#45;&gt;Node1</title>
<path fill="none" stroke="#191970" d="M426.7098,-280.4077C413.282,-261.7535 386,-218.829 386,-178 386,-178 386,-178 386,-122 386,-89.2688 378.0148,-51.9052 372.3978,-29.6716"/>
<polygon fill="#191970" stroke="#191970" points="375.7289,-28.5763 369.8035,-19.7934 368.9585,-30.3545 375.7289,-28.5763"/>
</g>
<!-- Node3&#45;&gt;Node4 -->
<g id="edge6" class="edge">
<title>Node3&#45;&gt;Node4</title>
<path fill="none" stroke="#191970" d="M458.7545,-280.3733C482.2849,-271.2226 517.8687,-257.3844 544.0426,-247.2057"/>
<polygon fill="#191970" stroke="#191970" points="545.5171,-250.3877 553.5685,-243.5011 542.9799,-243.8636 545.5171,-250.3877"/>
</g>
<!-- Node4&#45;&gt;Node1 -->
<g id="edge7" class="edge">
<title>Node4&#45;&gt;Node1</title>
<path fill="none" stroke="#191970" d="M626.527,-230.5348C685.1286,-225.2861 778.7523,-213.1403 802,-188 825.0298,-163.0953 819.541,-144.2413 809,-112 799.4143,-82.6807 794.6687,-71.5012 768,-56 708.7893,-21.5839 506.2167,-12.9062 413.7275,-10.7267"/>
<polygon fill="#191970" stroke="#191970" points="413.6137,-7.2235 403.5391,-10.5026 413.4596,-14.2218 413.6137,-7.2235"/>
</g>
<!-- Node5 -->
<g id="node6" class="node">
<title>Node5</title>
<g id="a_node6"><a xlink:href="_file_printer_8hpp.html" target="_top" xlink:title="FilePrinter.hpp">
<polygon fill="none" stroke="#000000" points="535,-168.5 535,-187.5 621,-187.5 621,-168.5 535,-168.5"/>
<text text-anchor="middle" x="578" y="-175.5" font-family="Helvetica,sans-Serif" font-size="10.00" fill="#000000">FilePrinter.hpp</text>
</a>
</g>
</g>
<!-- Node4&#45;&gt;Node5 -->
<g id="edge8" class="edge">
<title>Node4&#45;&gt;Node5</title>
<path fill="none" stroke="#191970" d="M578,-224.2455C578,-216.9382 578,-206.6944 578,-197.7046"/>
<polygon fill="#191970" stroke="#191970" points="581.5001,-197.6426 578,-187.6427 574.5001,-197.6427 581.5001,-197.6426"/>
</g>
<!-- Node9 -->
<g id="node10" class="node">
<title>Node9</title>
<g id="a_node10"><a xlink:href="_system_info_printer_8hpp.html" target="_top" xlink:title="SystemInfoPrinter.hpp">
<polygon fill="none" stroke="#000000" points="667.5,-168.5 667.5,-187.5 792.5,-187.5 792.5,-168.5 667.5,-168.5"/>
<text text-anchor="middle" x="730" y="-175.5" font-family="Helvetica,sans-Serif" font-size="10.00" fill="#000000">SystemInfoPrinter.hpp</text>
</a>
</g>
</g>
<!-- Node4&#45;&gt;Node9 -->
<g id="edge15" class="edge">
<title>Node4&#45;&gt;Node9</title>
<path fill="none" stroke="#191970" d="M604.1297,-224.3733C629.0768,-215.1822 666.8592,-201.2624 694.5206,-191.0713"/>
<polygon fill="#191970" stroke="#191970" points="696.0378,-194.2424 704.2112,-187.5011 693.6178,-187.674 696.0378,-194.2424"/>
</g>
<!-- Node5&#45;&gt;Node1 -->
<g id="edge9" class="edge">
<title>Node5&#45;&gt;Node1</title>
<path fill="none" stroke="#191970" d="M577.545,-168.4107C576.42,-154.5273 572.5186,-128.6701 559,-112 521.0938,-65.2569 455.9277,-37.1727 412.1615,-22.6369"/>
<polygon fill="#191970" stroke="#191970" points="413.211,-19.2979 402.6196,-19.5691 411.0684,-25.962 413.211,-19.2979"/>
</g>
<!-- Node6 -->
<g id="node7" class="node">
<title>Node6</title>
<g id="a_node7"><a xlink:href="_default_printer_8hpp.html" target="_top" xlink:title="DefaultPrinter.hpp">
<polygon fill="none" stroke="#000000" points="606.5,-112.5 606.5,-131.5 711.5,-131.5 711.5,-112.5 606.5,-112.5"/>
<text text-anchor="middle" x="659" y="-119.5" font-family="Helvetica,sans-Serif" font-size="10.00" fill="#000000">DefaultPrinter.hpp</text>
</a>
</g>
</g>
<!-- Node5&#45;&gt;Node6 -->
<g id="edge10" class="edge">
<title>Node5&#45;&gt;Node6</title>
<path fill="none" stroke="#191970" d="M592.1091,-168.2455C604.4209,-159.7337 622.4958,-147.2375 636.7538,-137.3801"/>
<polygon fill="#191970" stroke="#191970" points="638.8174,-140.2085 645.0526,-131.6427 634.8366,-134.4506 638.8174,-140.2085"/>
</g>
<!-- Node8 -->
<g id="node9" class="node">
<title>Node8</title>
<polygon fill="none" stroke="#bfbfbf" points="414,-112.5 414,-131.5 550,-131.5 550,-112.5 414,-112.5"/>
<text text-anchor="middle" x="482" y="-119.5" font-family="Helvetica,sans-Serif" font-size="10.00" fill="#000000">experimental/filesystem</text>
</g>
<!-- Node5&#45;&gt;Node8 -->
<g id="edge14" class="edge">
<title>Node5&#45;&gt;Node8</title>
<path fill="none" stroke="#191970" d="M561.2781,-168.2455C546.4111,-159.5731 524.4534,-146.7645 507.4142,-136.825"/>
<polygon fill="#191970" stroke="#191970" points="508.9317,-133.6582 498.5303,-131.6427 505.4045,-139.7047 508.9317,-133.6582"/>
</g>
<!-- Node6&#45;&gt;Node1 -->
<g id="edge11" class="edge">
<title>Node6&#45;&gt;Node1</title>
<path fill="none" stroke="#191970" d="M680.1365,-112.4434C705.1803,-99.8526 741.3363,-76.8581 723,-56 702.8932,-33.128 505.9444,-18.3656 413.9284,-12.6631"/>
<polygon fill="#191970" stroke="#191970" points="413.9678,-9.1591 403.7733,-12.0442 413.5419,-16.1461 413.9678,-9.1591"/>
</g>
<!-- Node7 -->
<g id="node8" class="node">
<title>Node7</title>
<g id="a_node8"><a xlink:href="_abstract_printer_8hpp.html" target="_top" xlink:title="AbstractPrinter.hpp">
<polygon fill="none" stroke="#000000" points="604,-56.5 604,-75.5 714,-75.5 714,-56.5 604,-56.5"/>
<text text-anchor="middle" x="659" y="-63.5" font-family="Helvetica,sans-Serif" font-size="10.00" fill="#000000">AbstractPrinter.hpp</text>
</a>
</g>
</g>
<!-- Node6&#45;&gt;Node7 -->
<g id="edge12" class="edge">
<title>Node6&#45;&gt;Node7</title>
<path fill="none" stroke="#191970" d="M659,-112.2455C659,-104.9382 659,-94.6944 659,-85.7046"/>
<polygon fill="#191970" stroke="#191970" points="662.5001,-85.6426 659,-75.6427 655.5001,-85.6427 662.5001,-85.6426"/>
</g>
<!-- Node7&#45;&gt;Node1 -->
<g id="edge13" class="edge">
<title>Node7&#45;&gt;Node1</title>
<path fill="none" stroke="#191970" d="M609.1352,-56.4369C554.352,-45.9305 467.0609,-29.1898 413.6083,-18.9386"/>
<polygon fill="#191970" stroke="#191970" points="414.1931,-15.487 403.7129,-17.0408 412.8746,-22.3617 414.1931,-15.487"/>
</g>
<!-- Node9&#45;&gt;Node1 -->
<g id="edge16" class="edge">
<title>Node9&#45;&gt;Node1</title>
<path fill="none" stroke="#191970" d="M752.766,-168.3999C767.4597,-160.8573 785.3842,-148.8029 794,-132 814.8348,-91.3668 741.2065,-57.0897 739,-56 682.7913,-28.2411 500.4805,-16.21 413.7165,-11.9562"/>
<polygon fill="#191970" stroke="#191970" points="413.7794,-8.4553 403.6241,-11.4755 413.4462,-15.4474 413.7794,-8.4553"/>
</g>
<!-- Node9&#45;&gt;Node6 -->
<g id="edge17" class="edge">
<title>Node9&#45;&gt;Node6</title>
<path fill="none" stroke="#191970" d="M717.6327,-168.2455C707.0446,-159.8943 691.5936,-147.7076 679.2107,-137.9408"/>
<polygon fill="#191970" stroke="#191970" points="681.2447,-135.0875 671.2255,-131.6427 676.9097,-140.5837 681.2447,-135.0875"/>
</g>
<!-- Node10 -->
<g id="node11" class="node">
<title>Node10</title>
<polygon fill="none" stroke="#bfbfbf" points="729.5,-112.5 729.5,-131.5 784.5,-131.5 784.5,-112.5 729.5,-112.5"/>
<text text-anchor="middle" x="757" y="-119.5" font-family="Helvetica,sans-Serif" font-size="10.00" fill="#000000">signal.h</text>
</g>
<!-- Node9&#45;&gt;Node10 -->
<g id="edge18" class="edge">
<title>Node9&#45;&gt;Node10</title>
<path fill="none" stroke="#191970" d="M734.703,-168.2455C738.3424,-160.6973 743.4924,-150.0158 747.9262,-140.8197"/>
<polygon fill="#191970" stroke="#191970" points="751.1605,-142.1704 752.3509,-131.6427 744.8551,-139.1303 751.1605,-142.1704"/>
</g>
<!-- Node11&#45;&gt;Node1 -->
<g id="edge20" class="edge">
<title>Node11&#45;&gt;Node1</title>
<path fill="none" stroke="#191970" d="M265.1065,-168.2892C271.756,-159.0872 281.8577,-144.8072 290,-132 310.9402,-99.0627 312.8215,-88.7846 334,-56 340.1098,-46.5419 347.36,-36.3368 353.5062,-27.9474"/>
<polygon fill="#191970" stroke="#191970" points="356.4929,-29.7957 359.6362,-19.6779 350.8694,-25.6272 356.4929,-29.7957"/>
</g>
<!-- Node12 -->
<g id="node13" class="node">
<title>Node12</title>
<g id="a_node13"><a xlink:href="_abstract_debug_info_8hpp.html" target="_top" xlink:title="AbstractDebugInfo.hpp">
<polygon fill="none" stroke="#000000" points="28,-112.5 28,-131.5 156,-131.5 156,-112.5 28,-112.5"/>
<text text-anchor="middle" x="92" y="-119.5" font-family="Helvetica,sans-Serif" font-size="10.00" fill="#000000">AbstractDebugInfo.hpp</text>
</a>
</g>
</g>
<!-- Node11&#45;&gt;Node12 -->
<g id="edge21" class="edge">
<title>Node11&#45;&gt;Node12</title>
<path fill="none" stroke="#191970" d="M229.4636,-168.3733C201.9798,-159.1016 160.2314,-145.0178 129.9548,-134.804"/>
<polygon fill="#191970" stroke="#191970" points="130.7582,-131.3813 120.164,-131.5011 128.5206,-138.0141 130.7582,-131.3813"/>
</g>
<!-- Node14 -->
<g id="node15" class="node">
<title>Node14</title>
<g id="a_node15"><a xlink:href="_abstract_tracer_8hpp.html" target="_top" xlink:title="AbstractTracer.hpp">
<polygon fill="none" stroke="#000000" points="174.5,-112.5 174.5,-131.5 281.5,-131.5 281.5,-112.5 174.5,-112.5"/>
<text text-anchor="middle" x="228" y="-119.5" font-family="Helvetica,sans-Serif" font-size="10.00" fill="#000000">AbstractTracer.hpp</text>
</a>
</g>
</g>
<!-- Node11&#45;&gt;Node14 -->
<g id="edge25" class="edge">
<title>Node11&#45;&gt;Node14</title>
<path fill="none" stroke="#191970" d="M252.7744,-168.2455C248.6877,-160.617 242.8865,-149.7881 237.925,-140.5267"/>
<polygon fill="#191970" stroke="#191970" points="240.9732,-138.8047 233.1657,-131.6427 234.8028,-142.1103 240.9732,-138.8047"/>
</g>
<!-- Node12&#45;&gt;Node1 -->
<g id="edge22" class="edge">
<title>Node12&#45;&gt;Node1</title>
<path fill="none" stroke="#191970" d="M100.1363,-112.2548C112.8537,-97.6864 138.9111,-70.4049 167,-56 215.9111,-30.9168 278.5076,-19.3597 320.5302,-14.1357"/>
<polygon fill="#191970" stroke="#191970" points="320.9616,-17.6092 330.486,-12.9686 320.1465,-10.6568 320.9616,-17.6092"/>
</g>
<!-- Node13 -->
<g id="node14" class="node">
<title>Node13</title>
<g id="a_node14"><a xlink:href="_frame_8hpp.html" target="_top" xlink:title="Frame.hpp">
<polygon fill="none" stroke="#000000" points="176,-56.5 176,-75.5 244,-75.5 244,-56.5 176,-56.5"/>
<text text-anchor="middle" x="210" y="-63.5" font-family="Helvetica,sans-Serif" font-size="10.00" fill="#000000">Frame.hpp</text>
</a>
</g>
</g>
<!-- Node12&#45;&gt;Node13 -->
<g id="edge23" class="edge">
<title>Node12&#45;&gt;Node13</title>
<path fill="none" stroke="#191970" d="M112.2849,-112.3733C131.1421,-103.4241 159.446,-89.9917 180.7455,-79.8835"/>
<polygon fill="#191970" stroke="#191970" points="182.4461,-82.9506 189.9798,-75.5011 179.4449,-76.6266 182.4461,-82.9506"/>
</g>
<!-- Node13&#45;&gt;Node1 -->
<g id="edge24" class="edge">
<title>Node13&#45;&gt;Node1</title>
<path fill="none" stroke="#191970" d="M236.9893,-56.3733C262.8699,-47.1419 302.1248,-33.1402 330.7289,-22.9375"/>
<polygon fill="#191970" stroke="#191970" points="332.12,-26.1573 340.3629,-19.5011 329.7683,-19.5642 332.12,-26.1573"/>
</g>
<!-- Node14&#45;&gt;Node1 -->
<g id="edge26" class="edge">
<title>Node14&#45;&gt;Node1</title>
<path fill="none" stroke="#191970" d="M236.7123,-112.4342C249.1671,-99.0274 273.0951,-74.2467 296,-56 310.418,-44.5142 327.7643,-33.234 341.702,-24.7186"/>
<polygon fill="#191970" stroke="#191970" points="343.5366,-27.6995 350.3039,-19.5476 339.93,-21.7001 343.5366,-27.6995"/>
</g>
<!-- Node14&#45;&gt;Node13 -->
<g id="edge27" class="edge">
<title>Node14&#45;&gt;Node13</title>
<path fill="none" stroke="#191970" d="M224.8646,-112.2455C222.49,-104.8579 219.1507,-94.4689 216.2385,-85.4087"/>
<polygon fill="#191970" stroke="#191970" points="219.4917,-84.0919 213.0994,-75.6427 212.8275,-86.234 219.4917,-84.0919"/>
</g>
</g>
</svg>
        <g id="navigator" transform="translate(0 0)" fill="#404254">
                <rect fill="#f2f5e9" fill-opacity="0.5" stroke="#606060" stroke-width=".5" x="0" y="0" width="60" height="60"/>
                <use id="zoomplus" xlink:href="#zoomPlus" x="17" y="9" onmousedown="handleZoom(evt,'in')"/>
                <use id="zoomminus" xlink:href="#zoomMin" x="42" y="9" onmousedown="handleZoom(evt,'out')"/>
                <use id="reset" xlink:href="#resetDef" x="30" y="36" onmousedown="handleReset()"/>
                <g id="arrowUp" xlink:href="#dirArrow" transform="translate(30 24)" onmousedown="handlePan(0,-1)">
                  <use xlink:href="#rim" fill="#404040">
                        <set attributeName="fill" to="#808080" begin="arrowUp.mouseover" end="arrowUp.mouseout"/>
                  </use>
                  <path fill="none" stroke="white" stroke-width="1.5" d="M0,-3.0v7 M-2.5,-0.5L0,-3.0L2.5,-0.5"/>
                </g>
                <g id="arrowRight" xlink:href="#dirArrow" transform="rotate(90) translate(36 -43)" onmousedown="handlePan(1,0)">
                  <use xlink:href="#rim" fill="#404040">
                        <set attributeName="fill" to="#808080" begin="arrowRight.mouseover" end="arrowRight.mouseout"/>
                  </use>
                  <path fill="none" stroke="white" stroke-width="1.5" d="M0,-3.0v7 M-2.5,-0.5L0,-3.0L2.5,-0.5"/>
                </g>
                <g id="arrowDown" xlink:href="#dirArrow" transform="rotate(180) translate(-30 -48)" onmousedown="handlePan(0,1)">
                  <use xlink:href="#rim" fill="#404040">
                        <set attributeName="fill" to="#808080" begin="arrowDown.mouseover" end="arrowDown.mouseout"/>
                  </use>
                  <path fill="none" stroke="white" stroke-width="1.5" d="M0,-3.0v7 M-2.5,-0.5L0,-3.0L2.5,-0.5"/>
                </g>
                <g id="arrowLeft" xlink:href="#dirArrow" transform="rotate(270) translate(-36 17)" onmousedown="handlePan(-1,0)">
                  <use xlink:href="#rim" fill="#404040">
                        <set attributeName="fill" to="#808080" begin="arrowLeft.mouseover" end="arrowLeft.mouseout"/>
                  </use>
                  <path fill="none" stroke="white" stroke-width="1.5" d="M0,-3.0v7 M-2.5,-0.5L0,-3.0L2.5,-0.5"/>
                </g>
        </g>
        <svg viewBox="0 0 15 15" width="100%" height="30px" preserveAspectRatio="xMaxYMin meet">
         <g id="arrow_out" transform="scale(0.3 0.3)">
          <a xlink:href="_tracer_handler_8cpp__incl_org.svg" target="_base">
           <rect id="button" ry="5" rx="5" y="6" x="6" height="38" width="38"
                fill="#f2f5e9" fill-opacity="0.5" stroke="#606060" stroke-width="1.0"/>
           <path id="arrow"
             d="M 11.500037,31.436501 C 11.940474,20.09759 22.043105,11.32322 32.158766,21.979434 L 37.068811,17.246167 C 37.068811,17.246167 37.088388,32 37.088388,32 L 22.160133,31.978069 C 22.160133,31.978069 26.997745,27.140456 26.997745,27.140456 C 18.528582,18.264221 13.291696,25.230495 11.500037,31.436501 z"
             style="fill:#404040;"/>
          </a>
         </g>
        </svg>
</svg>
