<?xml version="1.0" encoding="UTF-8" standalone="no"?>
<!DOCTYPE svg PUBLIC "-//W3C//DTD SVG 1.1//EN"
 "http://www.w3.org/Graphics/SVG/1.1/DTD/svg11.dtd">
<!-- Generated by graphviz version 2.40.1 (20161225.0304)
 -->
<!-- Title: /home/daniel/projects/tracer/src/Tracer.hpp Pages: 1 -->
<svg width="273pt" height="207pt"
 viewBox="0.00 0.00 273.32 207.00" xmlns="http://www.w3.org/2000/svg" xmlns:xlink="http://www.w3.org/1999/xlink">
<g id="graph0" class="graph" transform="scale(1 1) rotate(0) translate(4 203)">
<title>/home/daniel/projects/tracer/src/Tracer.hpp</title>
<!-- Node0 -->
<g id="node1" class="node">
<title>Node0</title>
<polygon fill="#bfbfbf" stroke="#000000" points="14.815,-168.5 14.815,-198.5 136.815,-198.5 136.815,-168.5 14.815,-168.5"/>
<text text-anchor="start" x="22.815" y="-186.5" font-family="Helvetica,sans-Serif" font-size="10.00" fill="#000000">/home/daniel/projects</text>
<text text-anchor="middle" x="75.815" y="-175.5" font-family="Helvetica,sans-Serif" font-size="10.00" fill="#000000">/tracer/src/Tracer.hpp</text>
</g>
<!-- Node1 -->
<g id="node2" class="node">
<title>Node1</title>
<polygon fill="none" stroke="#bfbfbf" points="70.315,-.5 70.315,-19.5 143.315,-19.5 143.315,-.5 70.315,-.5"/>
<text text-anchor="middle" x="106.815" y="-7.5" font-family="Helvetica,sans-Serif" font-size="10.00" fill="#000000">defines.hpp</text>
</g>
<!-- Node0&#45;&gt;Node1 -->
<g id="edge1" class="edge">
<title>Node0&#45;&gt;Node1</title>
<path fill="none" stroke="#191970" d="M41.4092,-168.4686C17.9412,-155.7781 -7.2127,-135.8805 2.815,-112 18.8434,-73.8291 56.8983,-42.7675 82.2561,-25.3311"/>
<polygon fill="#191970" stroke="#191970" points="84.2599,-28.2018 90.639,-19.7425 80.377,-22.3774 84.2599,-28.2018"/>
</g>
<!-- Node2 -->
<g id="node3" class="node">
<title>Node2</title>
<g id="a_node3"><a xlink:href="_abstract_debug_info_8hpp.html" target="_top" xlink:title="AbstractDebugInfo.hpp">
<polygon fill="none" stroke="#000000" points="11.815,-112.5 11.815,-131.5 139.815,-131.5 139.815,-112.5 11.815,-112.5"/>
<text text-anchor="middle" x="75.815" y="-119.5" font-family="Helvetica,sans-Serif" font-size="10.00" fill="#000000">AbstractDebugInfo.hpp</text>
</a>
</g>
</g>
<!-- Node0&#45;&gt;Node2 -->
<g id="edge2" class="edge">
<title>Node0&#45;&gt;Node2</title>
<path fill="none" stroke="#191970" d="M75.815,-168.2977C75.815,-160.3834 75.815,-150.6043 75.815,-142.0759"/>
<polygon fill="#191970" stroke="#191970" points="79.3151,-141.8469 75.815,-131.8469 72.3151,-141.847 79.3151,-141.8469"/>
</g>
<!-- Node4 -->
<g id="node5" class="node">
<title>Node4</title>
<g id="a_node5"><a xlink:href="_abstract_tracer_8hpp.html" target="_top" xlink:title="AbstractTracer.hpp">
<polygon fill="none" stroke="#000000" points="158.315,-112.5 158.315,-131.5 265.315,-131.5 265.315,-112.5 158.315,-112.5"/>
<text text-anchor="middle" x="211.815" y="-119.5" font-family="Helvetica,sans-Serif" font-size="10.00" fill="#000000">AbstractTracer.hpp</text>
</a>
</g>
</g>
<!-- Node0&#45;&gt;Node4 -->
<g id="edge6" class="edge">
<title>Node0&#45;&gt;Node4</title>
<path fill="none" stroke="#191970" d="M109.0843,-168.4554C131.1791,-158.464 159.961,-145.4487 181.4369,-135.7372"/>
<polygon fill="#191970" stroke="#191970" points="183.0703,-138.8398 190.7398,-131.5303 180.186,-132.4616 183.0703,-138.8398"/>
</g>
<!-- Node2&#45;&gt;Node1 -->
<g id="edge3" class="edge">
<title>Node2&#45;&gt;Node1</title>
<path fill="none" stroke="#191970" d="M78.458,-112.4509C83.537,-94.1013 94.7497,-53.5908 101.4538,-29.3693"/>
<polygon fill="#191970" stroke="#191970" points="104.8842,-30.0962 104.1786,-19.5249 98.1378,-28.2289 104.8842,-30.0962"/>
</g>
<!-- Node3 -->
<g id="node4" class="node">
<title>Node3</title>
<g id="a_node4"><a xlink:href="_frame_8hpp.html" target="_top" xlink:title="Frame.hpp">
<polygon fill="none" stroke="#000000" points="103.815,-56.5 103.815,-75.5 171.815,-75.5 171.815,-56.5 103.815,-56.5"/>
<text text-anchor="middle" x="137.815" y="-63.5" font-family="Helvetica,sans-Serif" font-size="10.00" fill="#000000">Frame.hpp</text>
</a>
</g>
</g>
<!-- Node2&#45;&gt;Node3 -->
<g id="edge4" class="edge">
<title>Node2&#45;&gt;Node3</title>
<path fill="none" stroke="#191970" d="M86.6146,-112.2455C95.6828,-104.0549 108.8356,-92.1749 119.5395,-82.5069"/>
<polygon fill="#191970" stroke="#191970" points="122.0641,-84.9429 127.1392,-75.6427 117.3721,-79.7482 122.0641,-84.9429"/>
</g>
<!-- Node3&#45;&gt;Node1 -->
<g id="edge5" class="edge">
<title>Node3&#45;&gt;Node1</title>
<path fill="none" stroke="#191970" d="M132.4152,-56.2455C128.1923,-48.617 122.1977,-37.7881 117.0709,-28.5267"/>
<polygon fill="#191970" stroke="#191970" points="120.0582,-26.6965 112.1529,-19.6427 113.934,-30.0867 120.0582,-26.6965"/>
</g>
<!-- Node4&#45;&gt;Node1 -->
<g id="edge7" class="edge">
<title>Node4&#45;&gt;Node1</title>
<path fill="none" stroke="#191970" d="M209.1055,-112.042C204.9273,-98.1692 195.7894,-72.8384 180.815,-56 169.023,-42.7401 152.5001,-31.9736 138.0579,-24.1997"/>
<polygon fill="#191970" stroke="#191970" points="139.4342,-20.9722 128.9384,-19.5271 136.2422,-27.2021 139.4342,-20.9722"/>
</g>
<!-- Node4&#45;&gt;Node3 -->
<g id="edge8" class="edge">
<title>Node4&#45;&gt;Node3</title>
<path fill="none" stroke="#191970" d="M198.9252,-112.2455C187.8896,-103.8943 171.7858,-91.7076 158.8797,-81.9408"/>
<polygon fill="#191970" stroke="#191970" points="160.6433,-78.8862 150.5571,-75.6427 156.4191,-84.4681 160.6433,-78.8862"/>
</g>
</g>
</svg>
