<?xml version="1.0" encoding="UTF-8" standalone="no"?>
<!DOCTYPE svg PUBLIC "-//W3C//DTD SVG 1.1//EN"
 "http://www.w3.org/Graphics/SVG/1.1/DTD/svg11.dtd">
<!-- Generated by graphviz version 2.40.1 (20161225.0304)
 -->
<!-- Title: /home/daniel/projects/tracer/src/Tracer.hpp Pages: 1 -->
<svg width="919pt" height="251pt"
 viewBox="0.00 0.00 919.00 251.00" xmlns="http://www.w3.org/2000/svg" xmlns:xlink="http://www.w3.org/1999/xlink">
<g id="graph0" class="graph" transform="scale(1 1) rotate(0) translate(4 247)">
<title>/home/daniel/projects/tracer/src/Tracer.hpp</title>
<!-- Node5 -->
<g id="node1" class="node">
<title>Node5</title>
<polygon fill="#bfbfbf" stroke="#000000" points="280,-212.5 280,-242.5 402,-242.5 402,-212.5 280,-212.5"/>
<text text-anchor="start" x="288" y="-230.5" font-family="Helvetica,sans-Serif" font-size="10.00" fill="#000000">/home/daniel/projects</text>
<text text-anchor="middle" x="341" y="-219.5" font-family="Helvetica,sans-Serif" font-size="10.00" fill="#000000">/tracer/src/Tracer.hpp</text>
</g>
<!-- Node6 -->
<g id="node2" class="node">
<title>Node6</title>
<g id="a_node2"><a xlink:href="_abstract_printer_8cpp.html" target="_top" xlink:title="/home/daniel/projects\l/tracer/src/printers\l/AbstractPrinter.cpp">
<polygon fill="none" stroke="#000000" points="0,-134.5 0,-175.5 122,-175.5 122,-134.5 0,-134.5"/>
<text text-anchor="start" x="8" y="-163.5" font-family="Helvetica,sans-Serif" font-size="10.00" fill="#000000">/home/daniel/projects</text>
<text text-anchor="start" x="8" y="-152.5" font-family="Helvetica,sans-Serif" font-size="10.00" fill="#000000">/tracer/src/printers</text>
<text text-anchor="middle" x="61" y="-141.5" font-family="Helvetica,sans-Serif" font-size="10.00" fill="#000000">/AbstractPrinter.cpp</text>
</a>
</g>
</g>
<!-- Node5&#45;&gt;Node6 -->
<g id="edge1" class="edge">
<title>Node5&#45;&gt;Node6</title>
<path fill="none" stroke="#191970" d="M269.8344,-211C229.0616,-201.3089 177.0073,-188.5337 131,-176 128.062,-175.1996 125.0596,-174.3647 122.0308,-173.5088"/>
<polygon fill="#191970" stroke="#191970" points="269.1425,-214.4329 279.68,-213.3324 270.7562,-207.6215 269.1425,-214.4329"/>
</g>
<!-- Node7 -->
<g id="node3" class="node">
<title>Node7</title>
<g id="a_node3"><a xlink:href="_default_printer_8cpp.html" target="_top" xlink:title="/home/daniel/projects\l/tracer/src/printers\l/DefaultPrinter.cpp">
<polygon fill="none" stroke="#000000" points="140,-134.5 140,-175.5 262,-175.5 262,-134.5 140,-134.5"/>
<text text-anchor="start" x="148" y="-163.5" font-family="Helvetica,sans-Serif" font-size="10.00" fill="#000000">/home/daniel/projects</text>
<text text-anchor="start" x="148" y="-152.5" font-family="Helvetica,sans-Serif" font-size="10.00" fill="#000000">/tracer/src/printers</text>
<text text-anchor="middle" x="201" y="-141.5" font-family="Helvetica,sans-Serif" font-size="10.00" fill="#000000">/DefaultPrinter.cpp</text>
</a>
</g>
</g>
<!-- Node5&#45;&gt;Node7 -->
<g id="edge2" class="edge">
<title>Node5&#45;&gt;Node7</title>
<path fill="none" stroke="#191970" d="M302.8731,-207.7557C283.5521,-197.7502 260.1119,-185.6115 240.5891,-175.5015"/>
<polygon fill="#191970" stroke="#191970" points="301.5024,-210.9873 311.9919,-212.478 304.7215,-204.7714 301.5024,-210.9873"/>
</g>
<!-- Node8 -->
<g id="node4" class="node">
<title>Node8</title>
<g id="a_node4"><a xlink:href="_file_printer_8cpp.html" target="_top" xlink:title="/home/daniel/projects\l/tracer/src/printers\l/FilePrinter.cpp">
<polygon fill="none" stroke="#000000" points="280,-134.5 280,-175.5 402,-175.5 402,-134.5 280,-134.5"/>
<text text-anchor="start" x="288" y="-163.5" font-family="Helvetica,sans-Serif" font-size="10.00" fill="#000000">/home/daniel/projects</text>
<text text-anchor="start" x="288" y="-152.5" font-family="Helvetica,sans-Serif" font-size="10.00" fill="#000000">/tracer/src/printers</text>
<text text-anchor="middle" x="341" y="-141.5" font-family="Helvetica,sans-Serif" font-size="10.00" fill="#000000">/FilePrinter.cpp</text>
</a>
</g>
</g>
<!-- Node5&#45;&gt;Node8 -->
<g id="edge3" class="edge">
<title>Node5&#45;&gt;Node8</title>
<path fill="none" stroke="#191970" d="M341,-202.4016C341,-193.6173 341,-183.8652 341,-175.5015"/>
<polygon fill="#191970" stroke="#191970" points="337.5001,-202.4779 341,-212.478 344.5001,-202.478 337.5001,-202.4779"/>
</g>
<!-- Node9 -->
<g id="node5" class="node">
<title>Node9</title>
<g id="a_node5"><a xlink:href="_tracer_8cpp.html" target="_top" xlink:title="/home/daniel/projects\l/tracer/src/Tracer.cpp">
<polygon fill="none" stroke="#000000" points="420,-140 420,-170 542,-170 542,-140 420,-140"/>
<text text-anchor="start" x="428" y="-158" font-family="Helvetica,sans-Serif" font-size="10.00" fill="#000000">/home/daniel/projects</text>
<text text-anchor="middle" x="481" y="-147" font-family="Helvetica,sans-Serif" font-size="10.00" fill="#000000">/tracer/src/Tracer.cpp</text>
</a>
</g>
</g>
<!-- Node5&#45;&gt;Node9 -->
<g id="edge4" class="edge">
<title>Node5&#45;&gt;Node9</title>
<path fill="none" stroke="#191970" d="M379.1391,-207.7494C402.1182,-195.8495 430.9202,-180.9342 452.0291,-170.0028"/>
<polygon fill="#191970" stroke="#191970" points="377.2785,-204.7714 370.0081,-212.478 380.4976,-210.9873 377.2785,-204.7714"/>
</g>
<!-- Node10 -->
<g id="node6" class="node">
<title>Node10</title>
<g id="a_node6"><a xlink:href="_tracer_handler_8hpp.html" target="_top" xlink:title="/home/daniel/projects\l/tracer/src/TracerHandler.hpp">
<polygon fill="none" stroke="#000000" points="560,-140 560,-170 716,-170 716,-140 560,-140"/>
<text text-anchor="start" x="568" y="-158" font-family="Helvetica,sans-Serif" font-size="10.00" fill="#000000">/home/daniel/projects</text>
<text text-anchor="middle" x="638" y="-147" font-family="Helvetica,sans-Serif" font-size="10.00" fill="#000000">/tracer/src/TracerHandler.hpp</text>
</a>
</g>
</g>
<!-- Node5&#45;&gt;Node10 -->
<g id="edge5" class="edge">
<title>Node5&#45;&gt;Node10</title>
<path fill="none" stroke="#191970" d="M411.9691,-210.1759C462.0648,-197.9471 528.52,-181.7249 576.391,-170.0392"/>
<polygon fill="#191970" stroke="#191970" points="411.0632,-206.7942 402.1785,-212.5659 412.7233,-213.5945 411.0632,-206.7942"/>
</g>
<!-- Node11 -->
<g id="node7" class="node">
<title>Node11</title>
<g id="a_node7"><a xlink:href="tracer_internal_8hpp.html" target="_top" xlink:title="/home/daniel/projects\l/tracer/src/c&#45;API/tracerInternal.hpp">
<polygon fill="none" stroke="#000000" points="452.5,-67.5 452.5,-97.5 635.5,-97.5 635.5,-67.5 452.5,-67.5"/>
<text text-anchor="start" x="460.5" y="-85.5" font-family="Helvetica,sans-Serif" font-size="10.00" fill="#000000">/home/daniel/projects</text>
<text text-anchor="middle" x="544" y="-74.5" font-family="Helvetica,sans-Serif" font-size="10.00" fill="#000000">/tracer/src/c&#45;API/tracerInternal.hpp</text>
</a>
</g>
</g>
<!-- Node10&#45;&gt;Node11 -->
<g id="edge6" class="edge">
<title>Node10&#45;&gt;Node11</title>
<path fill="none" stroke="#191970" d="M610.5227,-133.8074C595.4247,-122.1627 577.0581,-107.9969 563.4519,-97.5028"/>
<polygon fill="#191970" stroke="#191970" points="608.4672,-136.6421 618.5231,-139.978 612.7423,-131.0992 608.4672,-136.6421"/>
</g>
<!-- Node16 -->
<g id="node12" class="node">
<title>Node16</title>
<g id="a_node12"><a xlink:href="_tracer_handler_8cpp.html" target="_top" xlink:title="/home/daniel/projects\l/tracer/src/TracerHandler.cpp">
<polygon fill="none" stroke="#000000" points="653.5,-67.5 653.5,-97.5 808.5,-97.5 808.5,-67.5 653.5,-67.5"/>
<text text-anchor="start" x="661.5" y="-85.5" font-family="Helvetica,sans-Serif" font-size="10.00" fill="#000000">/home/daniel/projects</text>
<text text-anchor="middle" x="731" y="-74.5" font-family="Helvetica,sans-Serif" font-size="10.00" fill="#000000">/tracer/src/TracerHandler.cpp</text>
</a>
</g>
</g>
<!-- Node10&#45;&gt;Node16 -->
<g id="edge11" class="edge">
<title>Node10&#45;&gt;Node16</title>
<path fill="none" stroke="#191970" d="M665.185,-133.8074C680.1224,-122.1627 698.2936,-107.9969 711.755,-97.5028"/>
<polygon fill="#191970" stroke="#191970" points="663.0045,-131.0694 657.2697,-139.978 667.3082,-136.59 663.0045,-131.0694"/>
</g>
<!-- Node12 -->
<g id="node8" class="node">
<title>Node12</title>
<g id="a_node8"><a xlink:href="c_printer_container_8cpp.html" target="_top" xlink:title="/home/daniel/projects\l/tracer/src/c&#45;API/cPrinterContainer.cpp">
<polygon fill="none" stroke="#000000" points="160,-.5 160,-30.5 360,-30.5 360,-.5 160,-.5"/>
<text text-anchor="start" x="168" y="-18.5" font-family="Helvetica,sans-Serif" font-size="10.00" fill="#000000">/home/daniel/projects</text>
<text text-anchor="middle" x="260" y="-7.5" font-family="Helvetica,sans-Serif" font-size="10.00" fill="#000000">/tracer/src/c&#45;API/cPrinterContainer.cpp</text>
</a>
</g>
</g>
<!-- Node11&#45;&gt;Node12 -->
<g id="edge7" class="edge">
<title>Node11&#45;&gt;Node12</title>
<path fill="none" stroke="#191970" d="M470.4875,-65.1573C425.123,-54.4551 367.4964,-40.8601 324.0131,-30.6017"/>
<polygon fill="#191970" stroke="#191970" points="469.7284,-68.5742 480.2649,-67.4639 471.3357,-61.7612 469.7284,-68.5742"/>
</g>
<!-- Node13 -->
<g id="node9" class="node">
<title>Node13</title>
<g id="a_node9"><a xlink:href="c_printers_8cpp.html" target="_top" xlink:title="/home/daniel/projects\l/tracer/src/c&#45;API/cPrinters.cpp">
<polygon fill="none" stroke="#000000" points="378.5,-.5 378.5,-30.5 537.5,-30.5 537.5,-.5 378.5,-.5"/>
<text text-anchor="start" x="386.5" y="-18.5" font-family="Helvetica,sans-Serif" font-size="10.00" fill="#000000">/home/daniel/projects</text>
<text text-anchor="middle" x="458" y="-7.5" font-family="Helvetica,sans-Serif" font-size="10.00" fill="#000000">/tracer/src/c&#45;API/cPrinters.cpp</text>
</a>
</g>
</g>
<!-- Node11&#45;&gt;Node13 -->
<g id="edge8" class="edge">
<title>Node11&#45;&gt;Node13</title>
<path fill="none" stroke="#191970" d="M516.4855,-61.0643C503.7696,-51.1577 488.9684,-39.6265 477.4375,-30.6432"/>
<polygon fill="#191970" stroke="#191970" points="514.4456,-63.9119 524.4853,-67.2967 518.7477,-58.3899 514.4456,-63.9119"/>
</g>
<!-- Node14 -->
<g id="node10" class="node">
<title>Node14</title>
<g id="a_node10"><a xlink:href="c_tracer_8cpp.html" target="_top" xlink:title="/home/daniel/projects\l/tracer/src/c&#45;API/cTracer.cpp">
<polygon fill="none" stroke="#000000" points="555,-.5 555,-30.5 705,-30.5 705,-.5 555,-.5"/>
<text text-anchor="start" x="563" y="-18.5" font-family="Helvetica,sans-Serif" font-size="10.00" fill="#000000">/home/daniel/projects</text>
<text text-anchor="middle" x="630" y="-7.5" font-family="Helvetica,sans-Serif" font-size="10.00" fill="#000000">/tracer/src/c&#45;API/cTracer.cpp</text>
</a>
</g>
</g>
<!-- Node11&#45;&gt;Node14 -->
<g id="edge9" class="edge">
<title>Node11&#45;&gt;Node14</title>
<path fill="none" stroke="#191970" d="M571.5145,-61.0643C584.2304,-51.1577 599.0316,-39.6265 610.5625,-30.6432"/>
<polygon fill="#191970" stroke="#191970" points="569.2523,-58.3899 563.5147,-67.2967 573.5544,-63.9119 569.2523,-58.3899"/>
</g>
<!-- Node15 -->
<g id="node11" class="node">
<title>Node15</title>
<g id="a_node11"><a xlink:href="c_tracer_handler_8cpp.html" target="_top" xlink:title="/home/daniel/projects\l/tracer/src/c&#45;API/cTracerHandler.cpp">
<polygon fill="none" stroke="#000000" points="723,-.5 723,-30.5 911,-30.5 911,-.5 723,-.5"/>
<text text-anchor="start" x="731" y="-18.5" font-family="Helvetica,sans-Serif" font-size="10.00" fill="#000000">/home/daniel/projects</text>
<text text-anchor="middle" x="817" y="-7.5" font-family="Helvetica,sans-Serif" font-size="10.00" fill="#000000">/tracer/src/c&#45;API/cTracerHandler.cpp</text>
</a>
</g>
</g>
<!-- Node11&#45;&gt;Node15 -->
<g id="edge10" class="edge">
<title>Node11&#45;&gt;Node15</title>
<path fill="none" stroke="#191970" d="M615.2144,-65.0225C658.7369,-54.3411 713.8425,-40.8171 755.4663,-30.6017"/>
<polygon fill="#191970" stroke="#191970" points="614.1441,-61.6812 605.2665,-67.4639 615.8126,-68.4795 614.1441,-61.6812"/>
</g>
</g>
</svg>
