<?xml version="1.0" encoding="UTF-8" standalone="no"?>
<!DOCTYPE svg PUBLIC "-//W3C//DTD SVG 1.1//EN"
 "http://www.w3.org/Graphics/SVG/1.1/DTD/svg11.dtd">
<!-- Generated by graphviz version 2.40.1 (20161225.0304)
 -->
<!-- Title: /home/daniel/projects/tracer/src/tracer/windows/Win32Tracer.cpp Pages: 1 -->
<svg width="217pt" height="274pt"
 viewBox="0.00 0.00 216.50 274.00" xmlns="http://www.w3.org/2000/svg" xmlns:xlink="http://www.w3.org/1999/xlink">
<g id="graph0" class="graph" transform="scale(1 1) rotate(0) translate(4 270)">
<title>/home/daniel/projects/tracer/src/tracer/windows/Win32Tracer.cpp</title>
<!-- Node0 -->
<g id="node1" class="node">
<title>Node0</title>
<polygon fill="#bfbfbf" stroke="#000000" points="0,-224.5 0,-265.5 143,-265.5 143,-224.5 0,-224.5"/>
<text text-anchor="start" x="8" y="-253.5" font-family="Helvetica,sans-Serif" font-size="10.00" fill="#000000">/home/daniel/projects</text>
<text text-anchor="start" x="8" y="-242.5" font-family="Helvetica,sans-Serif" font-size="10.00" fill="#000000">/tracer/src/tracer/windows</text>
<text text-anchor="middle" x="71.5" y="-231.5" font-family="Helvetica,sans-Serif" font-size="10.00" fill="#000000">/Win32Tracer.cpp</text>
</g>
<!-- Node1 -->
<g id="node2" class="node">
<title>Node1</title>
<polygon fill="none" stroke="#bfbfbf" points="15,-.5 15,-19.5 88,-19.5 88,-.5 15,-.5"/>
<text text-anchor="middle" x="51.5" y="-7.5" font-family="Helvetica,sans-Serif" font-size="10.00" fill="#000000">defines.hpp</text>
</g>
<!-- Node0&#45;&gt;Node1 -->
<g id="edge1" class="edge">
<title>Node0&#45;&gt;Node1</title>
<path fill="none" stroke="#191970" d="M41.9768,-224.239C30.8489,-214.6317 19.4508,-202.1916 13.5,-188 -9.6441,-132.8052 22.2604,-61.8461 40.4252,-28.6636"/>
<polygon fill="#191970" stroke="#191970" points="43.6555,-30.0626 45.5453,-19.6376 37.5669,-26.6087 43.6555,-30.0626"/>
</g>
<!-- Node2 -->
<g id="node3" class="node">
<title>Node2</title>
<g id="a_node3"><a xlink:href="_win32_tracer_8hpp.html" target="_top" xlink:title="Win32Tracer.hpp">
<polygon fill="none" stroke="#000000" points="23,-168.5 23,-187.5 120,-187.5 120,-168.5 23,-168.5"/>
<text text-anchor="middle" x="71.5" y="-175.5" font-family="Helvetica,sans-Serif" font-size="10.00" fill="#000000">Win32Tracer.hpp</text>
</a>
</g>
</g>
<!-- Node0&#45;&gt;Node2 -->
<g id="edge2" class="edge">
<title>Node0&#45;&gt;Node2</title>
<path fill="none" stroke="#191970" d="M71.5,-224.168C71.5,-215.8226 71.5,-206.2471 71.5,-197.9879"/>
<polygon fill="#191970" stroke="#191970" points="75.0001,-197.7804 71.5,-187.7805 68.0001,-197.7805 75.0001,-197.7804"/>
</g>
<!-- Node5 -->
<g id="node6" class="node">
<title>Node5</title>
<polygon fill="none" stroke="#bfbfbf" points="138.5,-168.5 138.5,-187.5 208.5,-187.5 208.5,-168.5 138.5,-168.5"/>
<text text-anchor="middle" x="173.5" y="-175.5" font-family="Helvetica,sans-Serif" font-size="10.00" fill="#000000">Windows.h</text>
</g>
<!-- Node0&#45;&gt;Node5 -->
<g id="edge8" class="edge">
<title>Node0&#45;&gt;Node5</title>
<path fill="none" stroke="#191970" d="M102.9357,-224.3511C118.2051,-214.3212 136.2324,-202.4797 150.2437,-193.2762"/>
<polygon fill="#191970" stroke="#191970" points="152.3653,-196.0702 158.8019,-187.6546 148.5222,-190.2195 152.3653,-196.0702"/>
</g>
<!-- Node2&#45;&gt;Node1 -->
<g id="edge3" class="edge">
<title>Node2&#45;&gt;Node1</title>
<path fill="none" stroke="#191970" d="M65.8055,-168.1646C60.9137,-159.1092 54.2308,-145.1298 51.5,-132 44.1278,-96.5547 46.6004,-54.0531 49.0577,-29.7202"/>
<polygon fill="#191970" stroke="#191970" points="52.5534,-29.9534 50.185,-19.6267 45.5966,-29.1764 52.5534,-29.9534"/>
</g>
<!-- Node3 -->
<g id="node4" class="node">
<title>Node3</title>
<g id="a_node4"><a xlink:href="_abstract_tracer_8hpp.html" target="_top" xlink:title="AbstractTracer.hpp">
<polygon fill="none" stroke="#000000" points="61,-112.5 61,-131.5 168,-131.5 168,-112.5 61,-112.5"/>
<text text-anchor="middle" x="114.5" y="-119.5" font-family="Helvetica,sans-Serif" font-size="10.00" fill="#000000">AbstractTracer.hpp</text>
</a>
</g>
</g>
<!-- Node2&#45;&gt;Node3 -->
<g id="edge4" class="edge">
<title>Node2&#45;&gt;Node3</title>
<path fill="none" stroke="#191970" d="M78.99,-168.2455C85.0326,-160.3761 93.6903,-149.101 100.9441,-139.6542"/>
<polygon fill="#191970" stroke="#191970" points="103.7815,-141.7058 107.0958,-131.6427 98.2295,-137.4426 103.7815,-141.7058"/>
</g>
<!-- Node3&#45;&gt;Node1 -->
<g id="edge5" class="edge">
<title>Node3&#45;&gt;Node1</title>
<path fill="none" stroke="#191970" d="M109.1287,-112.4509C98.6675,-93.8533 75.4017,-52.4919 61.848,-28.3964"/>
<polygon fill="#191970" stroke="#191970" points="64.8109,-26.5247 56.8577,-19.5249 58.7099,-29.9566 64.8109,-26.5247"/>
</g>
<!-- Node4 -->
<g id="node5" class="node">
<title>Node4</title>
<g id="a_node5"><a xlink:href="_frame_8hpp.html" target="_top" xlink:title="Frame.hpp">
<polygon fill="none" stroke="#000000" points="98.5,-56.5 98.5,-75.5 166.5,-75.5 166.5,-56.5 98.5,-56.5"/>
<text text-anchor="middle" x="132.5" y="-63.5" font-family="Helvetica,sans-Serif" font-size="10.00" fill="#000000">Frame.hpp</text>
</a>
</g>
</g>
<!-- Node3&#45;&gt;Node4 -->
<g id="edge6" class="edge">
<title>Node3&#45;&gt;Node4</title>
<path fill="none" stroke="#191970" d="M117.6354,-112.2455C120.01,-104.8579 123.3493,-94.4689 126.2615,-85.4087"/>
<polygon fill="#191970" stroke="#191970" points="129.6725,-86.234 129.4006,-75.6427 123.0083,-84.0919 129.6725,-86.234"/>
</g>
<!-- Node4&#45;&gt;Node1 -->
<g id="edge7" class="edge">
<title>Node4&#45;&gt;Node1</title>
<path fill="none" stroke="#191970" d="M118.3909,-56.2455C106.0791,-47.7337 88.0042,-35.2375 73.7462,-25.3801"/>
<polygon fill="#191970" stroke="#191970" points="75.6634,-22.4506 65.4474,-19.6427 71.6826,-28.2085 75.6634,-22.4506"/>
</g>
</g>
</svg>
