<?xml version="1.0" encoding="UTF-8" standalone="no"?>
<!DOCTYPE svg PUBLIC "-//W3C//DTD SVG 1.1//EN"
 "http://www.w3.org/Graphics/SVG/1.1/DTD/svg11.dtd">
<!-- Generated by graphviz version 2.40.1 (20161225.0304)
 -->
<!-- Title: /home/daniel/projects/tracer/src/c&#45;API/cPrinterContainer.cpp Pages: 1 -->
<svg width="1126pt" height="487pt"
 viewBox="0.00 0.00 1125.50 487.00" xmlns="http://www.w3.org/2000/svg" xmlns:xlink="http://www.w3.org/1999/xlink">
<g id="graph0" class="graph" transform="scale(1 1) rotate(0) translate(4 483)">
<title>/home/daniel/projects/tracer/src/c&#45;API/cPrinterContainer.cpp</title>
<!-- Node0 -->
<g id="node1" class="node">
<title>Node0</title>
<polygon fill="#bfbfbf" stroke="#000000" points="54,-448.5 54,-478.5 254,-478.5 254,-448.5 54,-448.5"/>
<text text-anchor="start" x="62" y="-466.5" font-family="Helvetica,sans-Serif" font-size="10.00" fill="#000000">/home/daniel/projects</text>
<text text-anchor="middle" x="154" y="-455.5" font-family="Helvetica,sans-Serif" font-size="10.00" fill="#000000">/tracer/src/c&#45;API/cPrinterContainer.cpp</text>
</g>
<!-- Node1 -->
<g id="node2" class="node">
<title>Node1</title>
<polygon fill="none" stroke="#bfbfbf" points="521.5,-.5 521.5,-19.5 594.5,-19.5 594.5,-.5 521.5,-.5"/>
<text text-anchor="middle" x="558" y="-7.5" font-family="Helvetica,sans-Serif" font-size="10.00" fill="#000000">defines.hpp</text>
</g>
<!-- Node0&#45;&gt;Node1 -->
<g id="edge1" class="edge">
<title>Node0&#45;&gt;Node1</title>
<path fill="none" stroke="#191970" d="M103.5746,-448.3861C58.6617,-431.4395 0,-399.1348 0,-346 0,-346 0,-346 0,-122 0,-69.9989 377.3314,-27.7848 511.4149,-14.4257"/>
<polygon fill="#191970" stroke="#191970" points="511.7805,-17.9067 521.3881,-13.4407 511.0924,-10.9406 511.7805,-17.9067"/>
</g>
<!-- Node2 -->
<g id="node3" class="node">
<title>Node2</title>
<polygon fill="none" stroke="#bfbfbf" points="95.5,-336.5 95.5,-355.5 148.5,-355.5 148.5,-336.5 95.5,-336.5"/>
<text text-anchor="middle" x="122" y="-343.5" font-family="Helvetica,sans-Serif" font-size="10.00" fill="#000000">stdint.h</text>
</g>
<!-- Node0&#45;&gt;Node2 -->
<g id="edge2" class="edge">
<title>Node0&#45;&gt;Node2</title>
<path fill="none" stroke="#191970" d="M102.5709,-448.4517C84.9705,-440.5673 67.1689,-428.9122 57,-412 44.6906,-391.5279 68.5477,-372.5934 90.7465,-360.3041"/>
<polygon fill="#191970" stroke="#191970" points="92.4827,-363.346 99.7286,-355.6163 89.2439,-357.1403 92.4827,-363.346"/>
</g>
<!-- Node3 -->
<g id="node4" class="node">
<title>Node3</title>
<polygon fill="none" stroke="#bfbfbf" points="66.5,-392.5 66.5,-411.5 113.5,-411.5 113.5,-392.5 66.5,-392.5"/>
<text text-anchor="middle" x="90" y="-399.5" font-family="Helvetica,sans-Serif" font-size="10.00" fill="#000000">vector</text>
</g>
<!-- Node0&#45;&gt;Node3 -->
<g id="edge3" class="edge">
<title>Node0&#45;&gt;Node3</title>
<path fill="none" stroke="#191970" d="M138.1798,-448.2977C128.9258,-439.4052 117.2219,-428.1586 107.667,-418.9769"/>
<polygon fill="#191970" stroke="#191970" points="109.8828,-416.2521 100.2472,-411.8469 105.0326,-421.2995 109.8828,-416.2521"/>
</g>
<!-- Node4 -->
<g id="node5" class="node">
<title>Node4</title>
<polygon fill="none" stroke="#bfbfbf" points="132,-392.5 132,-411.5 176,-411.5 176,-392.5 132,-392.5"/>
<text text-anchor="middle" x="154" y="-399.5" font-family="Helvetica,sans-Serif" font-size="10.00" fill="#000000">string</text>
</g>
<!-- Node0&#45;&gt;Node4 -->
<g id="edge4" class="edge">
<title>Node0&#45;&gt;Node4</title>
<path fill="none" stroke="#191970" d="M154,-448.2977C154,-440.3834 154,-430.6043 154,-422.0759"/>
<polygon fill="#191970" stroke="#191970" points="157.5001,-421.8469 154,-411.8469 150.5001,-421.847 157.5001,-421.8469"/>
</g>
<!-- Node5 -->
<g id="node6" class="node">
<title>Node5</title>
<g id="a_node6"><a xlink:href="tracer_8h.html" target="_top" xlink:title="tracer.h">
<polygon fill="none" stroke="#000000" points="194.5,-392.5 194.5,-411.5 247.5,-411.5 247.5,-392.5 194.5,-392.5"/>
<text text-anchor="middle" x="221" y="-399.5" font-family="Helvetica,sans-Serif" font-size="10.00" fill="#000000">tracer.h</text>
</a>
</g>
</g>
<!-- Node0&#45;&gt;Node5 -->
<g id="edge5" class="edge">
<title>Node0&#45;&gt;Node5</title>
<path fill="none" stroke="#191970" d="M170.5618,-448.2977C180.3465,-439.3163 192.7474,-427.9334 202.8043,-418.702"/>
<polygon fill="#191970" stroke="#191970" points="205.2722,-421.1876 210.2725,-411.8469 200.5387,-416.0307 205.2722,-421.1876"/>
</g>
<!-- Node7 -->
<g id="node8" class="node">
<title>Node7</title>
<g id="a_node8"><a xlink:href="tracer_internal_8hpp.html" target="_top" xlink:title="tracerInternal.hpp">
<polygon fill="none" stroke="#000000" points="266,-392.5 266,-411.5 370,-411.5 370,-392.5 266,-392.5"/>
<text text-anchor="middle" x="318" y="-399.5" font-family="Helvetica,sans-Serif" font-size="10.00" fill="#000000">tracerInternal.hpp</text>
</a>
</g>
</g>
<!-- Node0&#45;&gt;Node7 -->
<g id="edge8" class="edge">
<title>Node0&#45;&gt;Node7</title>
<path fill="none" stroke="#191970" d="M194.1189,-448.4554C221.3627,-438.239 257.0377,-424.8609 283.1038,-415.0861"/>
<polygon fill="#191970" stroke="#191970" points="284.4515,-418.3188 292.5858,-411.5303 281.9936,-411.7645 284.4515,-418.3188"/>
</g>
<!-- Node21 -->
<g id="node22" class="node">
<title>Node21</title>
<polygon fill="none" stroke="#bfbfbf" points="388.5,-392.5 388.5,-411.5 441.5,-411.5 441.5,-392.5 388.5,-392.5"/>
<text text-anchor="middle" x="415" y="-399.5" font-family="Helvetica,sans-Serif" font-size="10.00" fill="#000000">string.h</text>
</g>
<!-- Node0&#45;&gt;Node21 -->
<g id="edge36" class="edge">
<title>Node0&#45;&gt;Node21</title>
<path fill="none" stroke="#191970" d="M223.3787,-448.4838C265.5211,-439.1613 320.6235,-426.6174 378.2714,-412.1023"/>
<polygon fill="#191970" stroke="#191970" points="379.4647,-415.4107 388.3,-409.5636 377.7469,-408.6248 379.4647,-415.4107"/>
</g>
<!-- Node5&#45;&gt;Node2 -->
<g id="edge7" class="edge">
<title>Node5&#45;&gt;Node2</title>
<path fill="none" stroke="#191970" d="M203.7555,-392.2455C188.4239,-383.5731 165.7801,-370.7645 148.2084,-360.825"/>
<polygon fill="#191970" stroke="#191970" points="149.4741,-357.5198 139.0469,-355.6427 146.0276,-363.6126 149.4741,-357.5198"/>
</g>
<!-- Node6 -->
<g id="node7" class="node">
<title>Node6</title>
<polygon fill="none" stroke="#bfbfbf" points="172,-336.5 172,-355.5 228,-355.5 228,-336.5 172,-336.5"/>
<text text-anchor="middle" x="200" y="-343.5" font-family="Helvetica,sans-Serif" font-size="10.00" fill="#000000">stddef.h</text>
</g>
<!-- Node5&#45;&gt;Node6 -->
<g id="edge6" class="edge">
<title>Node5&#45;&gt;Node6</title>
<path fill="none" stroke="#191970" d="M217.3421,-392.2455C214.5416,-384.7776 210.591,-374.2427 207.1676,-365.1137"/>
<polygon fill="#191970" stroke="#191970" points="210.4045,-363.777 203.616,-355.6427 203.8501,-366.2349 210.4045,-363.777"/>
</g>
<!-- Node7&#45;&gt;Node1 -->
<g id="edge9" class="edge">
<title>Node7&#45;&gt;Node1</title>
<path fill="none" stroke="#191970" d="M308.0386,-392.2152C290.5127,-373.9019 256,-332.4496 256,-290 256,-290 256,-290 256,-122 256,-80.201 286.0329,-75.5089 323,-56 354.9965,-39.1143 452.1116,-23.9261 511.0093,-15.9325"/>
<polygon fill="#191970" stroke="#191970" points="511.7349,-19.3667 521.1826,-14.5717 510.8068,-12.4285 511.7349,-19.3667"/>
</g>
<!-- Node8 -->
<g id="node9" class="node">
<title>Node8</title>
<g id="a_node9"><a xlink:href="_tracer_handler_8hpp.html" target="_top" xlink:title="TracerHandler.hpp">
<polygon fill="none" stroke="#000000" points="307,-336.5 307,-355.5 411,-355.5 411,-336.5 307,-336.5"/>
<text text-anchor="middle" x="359" y="-343.5" font-family="Helvetica,sans-Serif" font-size="10.00" fill="#000000">TracerHandler.hpp</text>
</a>
</g>
</g>
<!-- Node7&#45;&gt;Node8 -->
<g id="edge10" class="edge">
<title>Node7&#45;&gt;Node8</title>
<path fill="none" stroke="#191970" d="M325.1417,-392.2455C330.8444,-384.4564 338.99,-373.3308 345.8625,-363.9439"/>
<polygon fill="#191970" stroke="#191970" points="348.8568,-365.7789 351.9402,-355.6427 343.2087,-361.6437 348.8568,-365.7789"/>
</g>
<!-- Node8&#45;&gt;Node1 -->
<g id="edge11" class="edge">
<title>Node8&#45;&gt;Node1</title>
<path fill="none" stroke="#191970" d="M346.2977,-336.3768C335.9196,-327.8772 321.6059,-314.5924 313,-300 297.4938,-273.7072 294,-264.5246 294,-234 294,-234 294,-234 294,-122 294,-75.2171 334.1349,-76.8796 376,-56 419.0535,-34.5277 472.9724,-22.5233 510.9095,-16.2075"/>
<polygon fill="#191970" stroke="#191970" points="511.8389,-19.6037 521.1637,-14.5738 510.7375,-12.6909 511.8389,-19.6037"/>
</g>
<!-- Node9 -->
<g id="node10" class="node">
<title>Node9</title>
<g id="a_node10"><a xlink:href="_printer_container_8hpp.html" target="_top" xlink:title="PrinterContainer.hpp">
<polygon fill="none" stroke="#000000" points="322,-280.5 322,-299.5 438,-299.5 438,-280.5 322,-280.5"/>
<text text-anchor="middle" x="380" y="-287.5" font-family="Helvetica,sans-Serif" font-size="10.00" fill="#000000">PrinterContainer.hpp</text>
</a>
</g>
</g>
<!-- Node8&#45;&gt;Node9 -->
<g id="edge12" class="edge">
<title>Node8&#45;&gt;Node9</title>
<path fill="none" stroke="#191970" d="M362.6579,-336.2455C365.4584,-328.7776 369.409,-318.2427 372.8324,-309.1137"/>
<polygon fill="#191970" stroke="#191970" points="376.1499,-310.2349 376.384,-299.6427 369.5955,-307.777 376.1499,-310.2349"/>
</g>
<!-- Node17 -->
<g id="node18" class="node">
<title>Node17</title>
<g id="a_node18"><a xlink:href="_tracer_8hpp.html" target="_top" xlink:title="Tracer.hpp">
<polygon fill="none" stroke="#000000" points="849,-168.5 849,-187.5 915,-187.5 915,-168.5 849,-168.5"/>
<text text-anchor="middle" x="882" y="-175.5" font-family="Helvetica,sans-Serif" font-size="10.00" fill="#000000">Tracer.hpp</text>
</a>
</g>
</g>
<!-- Node8&#45;&gt;Node17 -->
<g id="edge27" class="edge">
<title>Node8&#45;&gt;Node17</title>
<path fill="none" stroke="#191970" d="M388.6172,-336.4862C477.51,-307.9318 742.0621,-222.9514 842.618,-190.6504"/>
<polygon fill="#191970" stroke="#191970" points="843.9338,-193.904 852.3842,-187.5133 841.7929,-187.2394 843.9338,-193.904"/>
</g>
<!-- Node9&#45;&gt;Node1 -->
<g id="edge13" class="edge">
<title>Node9&#45;&gt;Node1</title>
<path fill="none" stroke="#191970" d="M372.7098,-280.4077C359.282,-261.7535 332,-218.829 332,-178 332,-178 332,-178 332,-122 332,-82.0143 447.0135,-42.0807 512.9442,-22.4739"/>
<polygon fill="#191970" stroke="#191970" points="514.0758,-25.7895 522.6875,-19.6178 512.1067,-19.0722 514.0758,-25.7895"/>
</g>
<!-- Node10 -->
<g id="node11" class="node">
<title>Node10</title>
<g id="a_node11"><a xlink:href="_fancy_printer_8hpp.html" target="_top" xlink:title="FancyPrinter.hpp">
<polygon fill="none" stroke="#000000" points="407.5,-224.5 407.5,-243.5 504.5,-243.5 504.5,-224.5 407.5,-224.5"/>
<text text-anchor="middle" x="456" y="-231.5" font-family="Helvetica,sans-Serif" font-size="10.00" fill="#000000">FancyPrinter.hpp</text>
</a>
</g>
</g>
<!-- Node9&#45;&gt;Node10 -->
<g id="edge14" class="edge">
<title>Node9&#45;&gt;Node10</title>
<path fill="none" stroke="#191970" d="M393.2382,-280.2455C404.681,-271.814 421.4296,-259.4729 434.7475,-249.6598"/>
<polygon fill="#191970" stroke="#191970" points="436.9391,-252.3924 442.9135,-243.6427 432.7867,-246.757 436.9391,-252.3924"/>
</g>
<!-- Node10&#45;&gt;Node1 -->
<g id="edge15" class="edge">
<title>Node10&#45;&gt;Node1</title>
<path fill="none" stroke="#191970" d="M448.5218,-224.366C442.0057,-215.4461 432.8604,-201.5526 428,-188 416.5344,-156.0294 411.9624,-144.9996 420,-112 426.6328,-84.7679 428.4187,-75.0261 449,-56 466.5124,-39.8109 490.5621,-28.8442 511.6163,-21.6931"/>
<polygon fill="#191970" stroke="#191970" points="512.8983,-24.9578 521.3562,-18.577 510.7653,-18.2907 512.8983,-24.9578"/>
</g>
<!-- Node11 -->
<g id="node12" class="node">
<title>Node11</title>
<g id="a_node12"><a xlink:href="_file_printer_8hpp.html" target="_top" xlink:title="FilePrinter.hpp">
<polygon fill="none" stroke="#000000" points="437,-168.5 437,-187.5 523,-187.5 523,-168.5 437,-168.5"/>
<text text-anchor="middle" x="480" y="-175.5" font-family="Helvetica,sans-Serif" font-size="10.00" fill="#000000">FilePrinter.hpp</text>
</a>
</g>
</g>
<!-- Node10&#45;&gt;Node11 -->
<g id="edge16" class="edge">
<title>Node10&#45;&gt;Node11</title>
<path fill="none" stroke="#191970" d="M460.1805,-224.2455C463.381,-216.7776 467.896,-206.2427 471.8084,-197.1137"/>
<polygon fill="#191970" stroke="#191970" points="475.1452,-198.2129 475.8674,-187.6427 468.7112,-195.4554 475.1452,-198.2129"/>
</g>
<!-- Node15 -->
<g id="node16" class="node">
<title>Node15</title>
<g id="a_node16"><a xlink:href="_system_info_printer_8hpp.html" target="_top" xlink:title="SystemInfoPrinter.hpp">
<polygon fill="none" stroke="#000000" points="619.5,-168.5 619.5,-187.5 744.5,-187.5 744.5,-168.5 619.5,-168.5"/>
<text text-anchor="middle" x="682" y="-175.5" font-family="Helvetica,sans-Serif" font-size="10.00" fill="#000000">SystemInfoPrinter.hpp</text>
</a>
</g>
</g>
<!-- Node10&#45;&gt;Node15 -->
<g id="edge23" class="edge">
<title>Node10&#45;&gt;Node15</title>
<path fill="none" stroke="#191970" d="M494.594,-224.4369C533.0284,-214.9133 592.136,-200.2672 633.671,-189.9753"/>
<polygon fill="#191970" stroke="#191970" points="634.7006,-193.3261 643.5652,-187.5237 633.0169,-186.5316 634.7006,-193.3261"/>
</g>
<!-- Node11&#45;&gt;Node1 -->
<g id="edge17" class="edge">
<title>Node11&#45;&gt;Node1</title>
<path fill="none" stroke="#191970" d="M462.7016,-168.4704C443.32,-156.4406 415.9653,-134.577 427,-112 447.5322,-69.991 494.6442,-40.265 526.4061,-24.1233"/>
<polygon fill="#191970" stroke="#191970" points="528.2882,-27.0985 535.724,-19.5514 525.2047,-20.8142 528.2882,-27.0985"/>
</g>
<!-- Node12 -->
<g id="node13" class="node">
<title>Node12</title>
<g id="a_node13"><a xlink:href="_default_printer_8hpp.html" target="_top" xlink:title="DefaultPrinter.hpp">
<polygon fill="none" stroke="#000000" points="590.5,-112.5 590.5,-131.5 695.5,-131.5 695.5,-112.5 590.5,-112.5"/>
<text text-anchor="middle" x="643" y="-119.5" font-family="Helvetica,sans-Serif" font-size="10.00" fill="#000000">DefaultPrinter.hpp</text>
</a>
</g>
</g>
<!-- Node11&#45;&gt;Node12 -->
<g id="edge18" class="edge">
<title>Node11&#45;&gt;Node12</title>
<path fill="none" stroke="#191970" d="M508.0207,-168.3733C535.0078,-159.1016 576.0017,-145.0178 605.7311,-134.804"/>
<polygon fill="#191970" stroke="#191970" points="607.0248,-138.0605 615.3449,-131.5011 604.7503,-131.4403 607.0248,-138.0605"/>
</g>
<!-- Node14 -->
<g id="node15" class="node">
<title>Node14</title>
<polygon fill="none" stroke="#bfbfbf" points="436,-112.5 436,-131.5 572,-131.5 572,-112.5 436,-112.5"/>
<text text-anchor="middle" x="504" y="-119.5" font-family="Helvetica,sans-Serif" font-size="10.00" fill="#000000">experimental/filesystem</text>
</g>
<!-- Node11&#45;&gt;Node14 -->
<g id="edge22" class="edge">
<title>Node11&#45;&gt;Node14</title>
<path fill="none" stroke="#191970" d="M484.1805,-168.2455C487.381,-160.7776 491.896,-150.2427 495.8084,-141.1137"/>
<polygon fill="#191970" stroke="#191970" points="499.1452,-142.2129 499.8674,-131.6427 492.7112,-139.4554 499.1452,-142.2129"/>
</g>
<!-- Node12&#45;&gt;Node1 -->
<g id="edge19" class="edge">
<title>Node12&#45;&gt;Node1</title>
<path fill="none" stroke="#191970" d="M622.2595,-112.3529C607.5872,-104.5169 588.543,-92.1277 577,-76 567.2529,-62.3815 562.482,-43.8397 560.1609,-29.8762"/>
<polygon fill="#191970" stroke="#191970" points="563.6103,-29.2687 558.7764,-19.8408 556.676,-30.2254 563.6103,-29.2687"/>
</g>
<!-- Node13 -->
<g id="node14" class="node">
<title>Node13</title>
<g id="a_node14"><a xlink:href="_abstract_printer_8hpp.html" target="_top" xlink:title="AbstractPrinter.hpp">
<polygon fill="none" stroke="#000000" points="586,-56.5 586,-75.5 696,-75.5 696,-56.5 586,-56.5"/>
<text text-anchor="middle" x="641" y="-63.5" font-family="Helvetica,sans-Serif" font-size="10.00" fill="#000000">AbstractPrinter.hpp</text>
</a>
</g>
</g>
<!-- Node12&#45;&gt;Node13 -->
<g id="edge20" class="edge">
<title>Node12&#45;&gt;Node13</title>
<path fill="none" stroke="#191970" d="M642.6516,-112.2455C642.3907,-104.9382 642.0248,-94.6944 641.7037,-85.7046"/>
<polygon fill="#191970" stroke="#191970" points="645.1992,-85.5113 641.3444,-75.6427 638.2036,-85.7613 645.1992,-85.5113"/>
</g>
<!-- Node13&#45;&gt;Node1 -->
<g id="edge21" class="edge">
<title>Node13&#45;&gt;Node1</title>
<path fill="none" stroke="#191970" d="M626.5425,-56.2455C613.9268,-47.7337 595.4056,-35.2375 580.7955,-25.3801"/>
<polygon fill="#191970" stroke="#191970" points="582.5391,-22.3343 572.2918,-19.6427 578.6239,-28.1371 582.5391,-22.3343"/>
</g>
<!-- Node15&#45;&gt;Node1 -->
<g id="edge24" class="edge">
<title>Node15&#45;&gt;Node1</title>
<path fill="none" stroke="#191970" d="M688.2813,-168.36C701.8448,-146.2097 730.655,-90.9098 705,-56 692.8983,-39.5327 642.8481,-26.3317 604.4765,-18.3666"/>
<polygon fill="#191970" stroke="#191970" points="604.9991,-14.9017 594.5049,-16.3582 603.6169,-21.7639 604.9991,-14.9017"/>
</g>
<!-- Node15&#45;&gt;Node12 -->
<g id="edge25" class="edge">
<title>Node15&#45;&gt;Node12</title>
<path fill="none" stroke="#191970" d="M675.2067,-168.2455C669.7822,-160.4564 662.0339,-149.3308 655.4967,-139.9439"/>
<polygon fill="#191970" stroke="#191970" points="658.3025,-137.8485 649.7154,-131.6427 652.5583,-141.849 658.3025,-137.8485"/>
</g>
<!-- Node16 -->
<g id="node17" class="node">
<title>Node16</title>
<polygon fill="none" stroke="#bfbfbf" points="752.5,-112.5 752.5,-131.5 807.5,-131.5 807.5,-112.5 752.5,-112.5"/>
<text text-anchor="middle" x="780" y="-119.5" font-family="Helvetica,sans-Serif" font-size="10.00" fill="#000000">signal.h</text>
</g>
<!-- Node15&#45;&gt;Node16 -->
<g id="edge26" class="edge">
<title>Node15&#45;&gt;Node16</title>
<path fill="none" stroke="#191970" d="M699.0703,-168.2455C714.247,-159.5731 736.6621,-146.7645 754.0563,-136.825"/>
<polygon fill="#191970" stroke="#191970" points="756.1794,-139.643 763.1253,-131.6427 752.7064,-133.5653 756.1794,-139.643"/>
</g>
<!-- Node17&#45;&gt;Node1 -->
<g id="edge28" class="edge">
<title>Node17&#45;&gt;Node1</title>
<path fill="none" stroke="#191970" d="M873.8473,-168.273C862.1503,-154.6746 839.5238,-129.6677 817,-112 778.7373,-81.9866 767.7036,-75.1424 723,-56 684.4757,-39.5036 638.3659,-27.2298 604.6956,-19.5286"/>
<polygon fill="#191970" stroke="#191970" points="605.1906,-16.0529 594.6677,-17.2858 603.6627,-22.8841 605.1906,-16.0529"/>
</g>
<!-- Node18 -->
<g id="node19" class="node">
<title>Node18</title>
<g id="a_node19"><a xlink:href="_abstract_debug_info_8hpp.html" target="_top" xlink:title="AbstractDebugInfo.hpp">
<polygon fill="none" stroke="#000000" points="864,-112.5 864,-131.5 992,-131.5 992,-112.5 864,-112.5"/>
<text text-anchor="middle" x="928" y="-119.5" font-family="Helvetica,sans-Serif" font-size="10.00" fill="#000000">AbstractDebugInfo.hpp</text>
</a>
</g>
</g>
<!-- Node17&#45;&gt;Node18 -->
<g id="edge29" class="edge">
<title>Node17&#45;&gt;Node18</title>
<path fill="none" stroke="#191970" d="M890.0126,-168.2455C896.4768,-160.3761 905.7385,-149.101 913.4983,-139.6542"/>
<polygon fill="#191970" stroke="#191970" points="916.4364,-141.5916 920.0792,-131.6427 911.0273,-137.1484 916.4364,-141.5916"/>
</g>
<!-- Node20 -->
<g id="node21" class="node">
<title>Node20</title>
<g id="a_node21"><a xlink:href="_abstract_tracer_8hpp.html" target="_top" xlink:title="AbstractTracer.hpp">
<polygon fill="none" stroke="#000000" points="1010.5,-112.5 1010.5,-131.5 1117.5,-131.5 1117.5,-112.5 1010.5,-112.5"/>
<text text-anchor="middle" x="1064" y="-119.5" font-family="Helvetica,sans-Serif" font-size="10.00" fill="#000000">AbstractTracer.hpp</text>
</a>
</g>
</g>
<!-- Node17&#45;&gt;Node20 -->
<g id="edge33" class="edge">
<title>Node17&#45;&gt;Node20</title>
<path fill="none" stroke="#191970" d="M913.2869,-168.3733C943.6818,-159.021 989.9893,-144.7725 1023.25,-134.5385"/>
<polygon fill="#191970" stroke="#191970" points="1024.5929,-137.7873 1033.1214,-131.5011 1022.5342,-131.0968 1024.5929,-137.7873"/>
</g>
<!-- Node18&#45;&gt;Node1 -->
<g id="edge30" class="edge">
<title>Node18&#45;&gt;Node1</title>
<path fill="none" stroke="#191970" d="M920.0037,-112.4982C906.9891,-97.7369 879.6785,-69.5844 850,-56 807.1915,-36.4058 675.7545,-21.2695 604.7194,-14.2659"/>
<polygon fill="#191970" stroke="#191970" points="604.9864,-10.7755 594.6948,-13.2921 604.3095,-17.7427 604.9864,-10.7755"/>
</g>
<!-- Node19 -->
<g id="node20" class="node">
<title>Node19</title>
<g id="a_node20"><a xlink:href="_frame_8hpp.html" target="_top" xlink:title="Frame.hpp">
<polygon fill="none" stroke="#000000" points="902,-56.5 902,-75.5 970,-75.5 970,-56.5 902,-56.5"/>
<text text-anchor="middle" x="936" y="-63.5" font-family="Helvetica,sans-Serif" font-size="10.00" fill="#000000">Frame.hpp</text>
</a>
</g>
</g>
<!-- Node18&#45;&gt;Node19 -->
<g id="edge31" class="edge">
<title>Node18&#45;&gt;Node19</title>
<path fill="none" stroke="#191970" d="M929.3935,-112.2455C930.4374,-104.9382 931.9008,-94.6944 933.1851,-85.7046"/>
<polygon fill="#191970" stroke="#191970" points="936.673,-86.0372 934.6225,-75.6427 929.7434,-85.0472 936.673,-86.0372"/>
</g>
<!-- Node19&#45;&gt;Node1 -->
<g id="edge32" class="edge">
<title>Node19&#45;&gt;Node1</title>
<path fill="none" stroke="#191970" d="M901.9654,-58.6162C897.2828,-57.6861 892.5288,-56.7865 888,-56 787.584,-38.5614 669.0742,-23.3375 604.9421,-15.5401"/>
<polygon fill="#191970" stroke="#191970" points="605.0973,-12.0335 594.7495,-14.3078 604.257,-18.9829 605.0973,-12.0335"/>
</g>
<!-- Node20&#45;&gt;Node1 -->
<g id="edge34" class="edge">
<title>Node20&#45;&gt;Node1</title>
<path fill="none" stroke="#191970" d="M1055.1732,-112.3347C1040.8361,-97.3495 1010.8666,-68.8956 979,-56 912.0748,-28.9171 700.0713,-16.3158 604.9661,-11.9156"/>
<polygon fill="#191970" stroke="#191970" points="604.9249,-8.4103 594.777,-11.455 604.6088,-15.4031 604.9249,-8.4103"/>
</g>
<!-- Node20&#45;&gt;Node19 -->
<g id="edge35" class="edge">
<title>Node20&#45;&gt;Node19</title>
<path fill="none" stroke="#191970" d="M1041.996,-112.3733C1021.3565,-103.3435 990.2842,-89.7494 967.1111,-79.6111"/>
<polygon fill="#191970" stroke="#191970" points="968.2813,-76.3028 957.7169,-75.5011 965.4755,-82.7159 968.2813,-76.3028"/>
</g>
</g>
</svg>
