<?xml version="1.0" encoding="UTF-8" standalone="no"?>
<!DOCTYPE svg PUBLIC "-//W3C//DTD SVG 1.1//EN"
 "http://www.w3.org/Graphics/SVG/1.1/DTD/svg11.dtd">
<!-- Generated by graphviz version 2.40.1 (20161225.0304)
 -->
<!-- Title: /home/daniel/projects/tracer/src/c&#45;API/cTracerHandler.cpp Pages: 1 -->
<svg width="1054pt" height="487pt"
 viewBox="0.00 0.00 1053.50 487.00" xmlns="http://www.w3.org/2000/svg" xmlns:xlink="http://www.w3.org/1999/xlink">
<g id="graph0" class="graph" transform="scale(1 1) rotate(0) translate(4 483)">
<title>/home/daniel/projects/tracer/src/c&#45;API/cTracerHandler.cpp</title>
<!-- Node0 -->
<g id="node1" class="node">
<title>Node0</title>
<polygon fill="#bfbfbf" stroke="#000000" points="41,-448.5 41,-478.5 229,-478.5 229,-448.5 41,-448.5"/>
<text text-anchor="start" x="49" y="-466.5" font-family="Helvetica,sans-Serif" font-size="10.00" fill="#000000">/home/daniel/projects</text>
<text text-anchor="middle" x="135" y="-455.5" font-family="Helvetica,sans-Serif" font-size="10.00" fill="#000000">/tracer/src/c&#45;API/cTracerHandler.cpp</text>
</g>
<!-- Node1 -->
<g id="node2" class="node">
<title>Node1</title>
<polygon fill="none" stroke="#bfbfbf" points="449.5,-.5 449.5,-19.5 522.5,-19.5 522.5,-.5 449.5,-.5"/>
<text text-anchor="middle" x="486" y="-7.5" font-family="Helvetica,sans-Serif" font-size="10.00" fill="#000000">defines.hpp</text>
</g>
<!-- Node0&#45;&gt;Node1 -->
<g id="edge1" class="edge">
<title>Node0&#45;&gt;Node1</title>
<path fill="none" stroke="#191970" d="M94.8611,-448.4621C55.0667,-430.641 0,-396.8022 0,-346 0,-346 0,-346 0,-122 0,-32.3969 317.6595,-14.4708 439.3434,-10.891"/>
<polygon fill="#191970" stroke="#191970" points="439.5708,-14.3862 449.471,-10.6131 439.3787,-7.3888 439.5708,-14.3862"/>
</g>
<!-- Node2 -->
<g id="node3" class="node">
<title>Node2</title>
<g id="a_node3"><a xlink:href="tracer_8h.html" target="_top" xlink:title="tracer.h">
<polygon fill="none" stroke="#000000" points="60.5,-392.5 60.5,-411.5 113.5,-411.5 113.5,-392.5 60.5,-392.5"/>
<text text-anchor="middle" x="87" y="-399.5" font-family="Helvetica,sans-Serif" font-size="10.00" fill="#000000">tracer.h</text>
</a>
</g>
</g>
<!-- Node0&#45;&gt;Node2 -->
<g id="edge2" class="edge">
<title>Node0&#45;&gt;Node2</title>
<path fill="none" stroke="#191970" d="M123.1348,-448.2977C116.4025,-439.672 107.9415,-428.8312 100.8994,-419.8087"/>
<polygon fill="#191970" stroke="#191970" points="103.5973,-417.5766 94.6854,-411.8469 98.079,-421.8836 103.5973,-417.5766"/>
</g>
<!-- Node5 -->
<g id="node6" class="node">
<title>Node5</title>
<g id="a_node6"><a xlink:href="tracer_internal_8hpp.html" target="_top" xlink:title="tracerInternal.hpp">
<polygon fill="none" stroke="#000000" points="132,-392.5 132,-411.5 236,-411.5 236,-392.5 132,-392.5"/>
<text text-anchor="middle" x="184" y="-399.5" font-family="Helvetica,sans-Serif" font-size="10.00" fill="#000000">tracerInternal.hpp</text>
</a>
</g>
</g>
<!-- Node0&#45;&gt;Node5 -->
<g id="edge5" class="edge">
<title>Node0&#45;&gt;Node5</title>
<path fill="none" stroke="#191970" d="M147.1124,-448.2977C153.9849,-439.672 162.6223,-428.8312 169.811,-419.8087"/>
<polygon fill="#191970" stroke="#191970" points="172.6604,-421.849 176.1545,-411.8469 167.1856,-417.487 172.6604,-421.849"/>
</g>
<!-- Node19 -->
<g id="node20" class="node">
<title>Node19</title>
<polygon fill="none" stroke="#bfbfbf" points="254.5,-392.5 254.5,-411.5 307.5,-411.5 307.5,-392.5 254.5,-392.5"/>
<text text-anchor="middle" x="281" y="-399.5" font-family="Helvetica,sans-Serif" font-size="10.00" fill="#000000">string.h</text>
</g>
<!-- Node0&#45;&gt;Node19 -->
<g id="edge33" class="edge">
<title>Node0&#45;&gt;Node19</title>
<path fill="none" stroke="#191970" d="M170.7156,-448.4554C194.6487,-438.374 225.8905,-425.2139 249.0094,-415.4755"/>
<polygon fill="#191970" stroke="#191970" points="250.5181,-418.6379 258.3752,-411.5303 247.8007,-412.1868 250.5181,-418.6379"/>
</g>
<!-- Node3 -->
<g id="node4" class="node">
<title>Node3</title>
<polygon fill="none" stroke="#bfbfbf" points="28,-336.5 28,-355.5 84,-355.5 84,-336.5 28,-336.5"/>
<text text-anchor="middle" x="56" y="-343.5" font-family="Helvetica,sans-Serif" font-size="10.00" fill="#000000">stddef.h</text>
</g>
<!-- Node2&#45;&gt;Node3 -->
<g id="edge3" class="edge">
<title>Node2&#45;&gt;Node3</title>
<path fill="none" stroke="#191970" d="M81.6002,-392.2455C77.3773,-384.617 71.3827,-373.7881 66.2559,-364.5267"/>
<polygon fill="#191970" stroke="#191970" points="69.2432,-362.6965 61.3379,-355.6427 63.119,-366.0867 69.2432,-362.6965"/>
</g>
<!-- Node4 -->
<g id="node5" class="node">
<title>Node4</title>
<polygon fill="none" stroke="#bfbfbf" points="102.5,-336.5 102.5,-355.5 155.5,-355.5 155.5,-336.5 102.5,-336.5"/>
<text text-anchor="middle" x="129" y="-343.5" font-family="Helvetica,sans-Serif" font-size="10.00" fill="#000000">stdint.h</text>
</g>
<!-- Node2&#45;&gt;Node4 -->
<g id="edge4" class="edge">
<title>Node2&#45;&gt;Node4</title>
<path fill="none" stroke="#191970" d="M94.3158,-392.2455C100.2179,-384.3761 108.6742,-373.101 115.7594,-363.6542"/>
<polygon fill="#191970" stroke="#191970" points="118.568,-365.7427 121.768,-355.6427 112.9679,-361.5427 118.568,-365.7427"/>
</g>
<!-- Node5&#45;&gt;Node1 -->
<g id="edge6" class="edge">
<title>Node5&#45;&gt;Node1</title>
<path fill="none" stroke="#191970" d="M184,-392.4116C184,-373.0538 184,-327.9167 184,-290 184,-290 184,-290 184,-122 184,-80.201 214.0329,-75.5089 251,-56 282.9965,-39.1143 380.1116,-23.9261 439.0093,-15.9325"/>
<polygon fill="#191970" stroke="#191970" points="439.7349,-19.3667 449.1826,-14.5717 438.8068,-12.4285 439.7349,-19.3667"/>
</g>
<!-- Node6 -->
<g id="node7" class="node">
<title>Node6</title>
<g id="a_node7"><a xlink:href="_tracer_handler_8hpp.html" target="_top" xlink:title="TracerHandler.hpp">
<polygon fill="none" stroke="#000000" points="234,-336.5 234,-355.5 338,-355.5 338,-336.5 234,-336.5"/>
<text text-anchor="middle" x="286" y="-343.5" font-family="Helvetica,sans-Serif" font-size="10.00" fill="#000000">TracerHandler.hpp</text>
</a>
</g>
</g>
<!-- Node5&#45;&gt;Node6 -->
<g id="edge7" class="edge">
<title>Node5&#45;&gt;Node6</title>
<path fill="none" stroke="#191970" d="M201.767,-392.2455C217.7095,-383.4928 241.3259,-370.527 259.4989,-360.5496"/>
<polygon fill="#191970" stroke="#191970" points="261.3552,-363.5233 268.4366,-355.6427 257.9863,-357.3873 261.3552,-363.5233"/>
</g>
<!-- Node6&#45;&gt;Node1 -->
<g id="edge8" class="edge">
<title>Node6&#45;&gt;Node1</title>
<path fill="none" stroke="#191970" d="M273.5813,-336.3196C263.4335,-327.7851 249.4334,-314.4813 241,-300 225.6385,-273.6224 222,-264.5246 222,-234 222,-234 222,-234 222,-122 222,-75.2171 262.1349,-76.8796 304,-56 347.0535,-34.5277 400.9724,-22.5233 438.9095,-16.2075"/>
<polygon fill="#191970" stroke="#191970" points="439.8389,-19.6037 449.1637,-14.5738 438.7375,-12.6909 439.8389,-19.6037"/>
</g>
<!-- Node7 -->
<g id="node8" class="node">
<title>Node7</title>
<g id="a_node8"><a xlink:href="_printer_container_8hpp.html" target="_top" xlink:title="PrinterContainer.hpp">
<polygon fill="none" stroke="#000000" points="250,-280.5 250,-299.5 366,-299.5 366,-280.5 250,-280.5"/>
<text text-anchor="middle" x="308" y="-287.5" font-family="Helvetica,sans-Serif" font-size="10.00" fill="#000000">PrinterContainer.hpp</text>
</a>
</g>
</g>
<!-- Node6&#45;&gt;Node7 -->
<g id="edge9" class="edge">
<title>Node6&#45;&gt;Node7</title>
<path fill="none" stroke="#191970" d="M289.8321,-336.2455C292.7659,-328.7776 296.9047,-318.2427 300.491,-309.1137"/>
<polygon fill="#191970" stroke="#191970" points="303.8129,-310.23 304.2118,-299.6427 297.2976,-307.6704 303.8129,-310.23"/>
</g>
<!-- Node15 -->
<g id="node16" class="node">
<title>Node15</title>
<g id="a_node16"><a xlink:href="_tracer_8hpp.html" target="_top" xlink:title="Tracer.hpp">
<polygon fill="none" stroke="#000000" points="751,-168.5 751,-187.5 817,-187.5 817,-168.5 751,-168.5"/>
<text text-anchor="middle" x="784" y="-175.5" font-family="Helvetica,sans-Serif" font-size="10.00" fill="#000000">Tracer.hpp</text>
</a>
</g>
</g>
<!-- Node6&#45;&gt;Node15 -->
<g id="edge24" class="edge">
<title>Node6&#45;&gt;Node15</title>
<path fill="none" stroke="#191970" d="M314.2015,-336.4862C398.7596,-307.9606 650.2426,-223.123 746.2099,-190.7485"/>
<polygon fill="#191970" stroke="#191970" points="747.4433,-194.0262 755.7999,-187.5133 745.2057,-187.3935 747.4433,-194.0262"/>
</g>
<!-- Node7&#45;&gt;Node1 -->
<g id="edge10" class="edge">
<title>Node7&#45;&gt;Node1</title>
<path fill="none" stroke="#191970" d="M300.7098,-280.4077C287.282,-261.7535 260,-218.829 260,-178 260,-178 260,-178 260,-122 260,-82.0143 375.0135,-42.0807 440.9442,-22.4739"/>
<polygon fill="#191970" stroke="#191970" points="442.0758,-25.7895 450.6875,-19.6178 440.1067,-19.0722 442.0758,-25.7895"/>
</g>
<!-- Node8 -->
<g id="node9" class="node">
<title>Node8</title>
<g id="a_node9"><a xlink:href="_fancy_printer_8hpp.html" target="_top" xlink:title="FancyPrinter.hpp">
<polygon fill="none" stroke="#000000" points="335.5,-224.5 335.5,-243.5 432.5,-243.5 432.5,-224.5 335.5,-224.5"/>
<text text-anchor="middle" x="384" y="-231.5" font-family="Helvetica,sans-Serif" font-size="10.00" fill="#000000">FancyPrinter.hpp</text>
</a>
</g>
</g>
<!-- Node7&#45;&gt;Node8 -->
<g id="edge11" class="edge">
<title>Node7&#45;&gt;Node8</title>
<path fill="none" stroke="#191970" d="M321.2382,-280.2455C332.681,-271.814 349.4296,-259.4729 362.7475,-249.6598"/>
<polygon fill="#191970" stroke="#191970" points="364.9391,-252.3924 370.9135,-243.6427 360.7867,-246.757 364.9391,-252.3924"/>
</g>
<!-- Node8&#45;&gt;Node1 -->
<g id="edge12" class="edge">
<title>Node8&#45;&gt;Node1</title>
<path fill="none" stroke="#191970" d="M376.5218,-224.366C370.0057,-215.4461 360.8604,-201.5526 356,-188 344.5344,-156.0294 339.9624,-144.9996 348,-112 354.6328,-84.7679 356.4187,-75.0261 377,-56 394.5124,-39.8109 418.5621,-28.8442 439.6163,-21.6931"/>
<polygon fill="#191970" stroke="#191970" points="440.8983,-24.9578 449.3562,-18.577 438.7653,-18.2907 440.8983,-24.9578"/>
</g>
<!-- Node9 -->
<g id="node10" class="node">
<title>Node9</title>
<g id="a_node10"><a xlink:href="_file_printer_8hpp.html" target="_top" xlink:title="FilePrinter.hpp">
<polygon fill="none" stroke="#000000" points="365,-168.5 365,-187.5 451,-187.5 451,-168.5 365,-168.5"/>
<text text-anchor="middle" x="408" y="-175.5" font-family="Helvetica,sans-Serif" font-size="10.00" fill="#000000">FilePrinter.hpp</text>
</a>
</g>
</g>
<!-- Node8&#45;&gt;Node9 -->
<g id="edge13" class="edge">
<title>Node8&#45;&gt;Node9</title>
<path fill="none" stroke="#191970" d="M388.1805,-224.2455C391.381,-216.7776 395.896,-206.2427 399.8084,-197.1137"/>
<polygon fill="#191970" stroke="#191970" points="403.1452,-198.2129 403.8674,-187.6427 396.7112,-195.4554 403.1452,-198.2129"/>
</g>
<!-- Node13 -->
<g id="node14" class="node">
<title>Node13</title>
<g id="a_node14"><a xlink:href="_system_info_printer_8hpp.html" target="_top" xlink:title="SystemInfoPrinter.hpp">
<polygon fill="none" stroke="#000000" points="568.5,-168.5 568.5,-187.5 693.5,-187.5 693.5,-168.5 568.5,-168.5"/>
<text text-anchor="middle" x="631" y="-175.5" font-family="Helvetica,sans-Serif" font-size="10.00" fill="#000000">SystemInfoPrinter.hpp</text>
</a>
</g>
</g>
<!-- Node8&#45;&gt;Node13 -->
<g id="edge20" class="edge">
<title>Node8&#45;&gt;Node13</title>
<path fill="none" stroke="#191970" d="M426.1802,-224.4369C468.4523,-214.8529 533.6062,-200.0812 579.0417,-189.78"/>
<polygon fill="#191970" stroke="#191970" points="580.0152,-193.1482 588.9938,-187.5237 578.4674,-186.3215 580.0152,-193.1482"/>
</g>
<!-- Node9&#45;&gt;Node1 -->
<g id="edge14" class="edge">
<title>Node9&#45;&gt;Node1</title>
<path fill="none" stroke="#191970" d="M390.7016,-168.4704C371.32,-156.4406 343.9653,-134.577 355,-112 375.5322,-69.991 422.6442,-40.265 454.4061,-24.1233"/>
<polygon fill="#191970" stroke="#191970" points="456.2882,-27.0985 463.724,-19.5514 453.2047,-20.8142 456.2882,-27.0985"/>
</g>
<!-- Node10 -->
<g id="node11" class="node">
<title>Node10</title>
<g id="a_node11"><a xlink:href="_default_printer_8hpp.html" target="_top" xlink:title="DefaultPrinter.hpp">
<polygon fill="none" stroke="#000000" points="518.5,-112.5 518.5,-131.5 623.5,-131.5 623.5,-112.5 518.5,-112.5"/>
<text text-anchor="middle" x="571" y="-119.5" font-family="Helvetica,sans-Serif" font-size="10.00" fill="#000000">DefaultPrinter.hpp</text>
</a>
</g>
</g>
<!-- Node9&#45;&gt;Node10 -->
<g id="edge15" class="edge">
<title>Node9&#45;&gt;Node10</title>
<path fill="none" stroke="#191970" d="M436.0207,-168.3733C463.0078,-159.1016 504.0017,-145.0178 533.7311,-134.804"/>
<polygon fill="#191970" stroke="#191970" points="535.0248,-138.0605 543.3449,-131.5011 532.7503,-131.4403 535.0248,-138.0605"/>
</g>
<!-- Node12 -->
<g id="node13" class="node">
<title>Node12</title>
<polygon fill="none" stroke="#bfbfbf" points="364,-112.5 364,-131.5 500,-131.5 500,-112.5 364,-112.5"/>
<text text-anchor="middle" x="432" y="-119.5" font-family="Helvetica,sans-Serif" font-size="10.00" fill="#000000">experimental/filesystem</text>
</g>
<!-- Node9&#45;&gt;Node12 -->
<g id="edge19" class="edge">
<title>Node9&#45;&gt;Node12</title>
<path fill="none" stroke="#191970" d="M412.1805,-168.2455C415.381,-160.7776 419.896,-150.2427 423.8084,-141.1137"/>
<polygon fill="#191970" stroke="#191970" points="427.1452,-142.2129 427.8674,-131.6427 420.7112,-139.4554 427.1452,-142.2129"/>
</g>
<!-- Node10&#45;&gt;Node1 -->
<g id="edge16" class="edge">
<title>Node10&#45;&gt;Node1</title>
<path fill="none" stroke="#191970" d="M550.2595,-112.3529C535.5872,-104.5169 516.543,-92.1277 505,-76 495.2529,-62.3815 490.482,-43.8397 488.1609,-29.8762"/>
<polygon fill="#191970" stroke="#191970" points="491.6103,-29.2687 486.7764,-19.8408 484.676,-30.2254 491.6103,-29.2687"/>
</g>
<!-- Node11 -->
<g id="node12" class="node">
<title>Node11</title>
<g id="a_node12"><a xlink:href="_abstract_printer_8hpp.html" target="_top" xlink:title="AbstractPrinter.hpp">
<polygon fill="none" stroke="#000000" points="514,-56.5 514,-75.5 624,-75.5 624,-56.5 514,-56.5"/>
<text text-anchor="middle" x="569" y="-63.5" font-family="Helvetica,sans-Serif" font-size="10.00" fill="#000000">AbstractPrinter.hpp</text>
</a>
</g>
</g>
<!-- Node10&#45;&gt;Node11 -->
<g id="edge17" class="edge">
<title>Node10&#45;&gt;Node11</title>
<path fill="none" stroke="#191970" d="M570.6516,-112.2455C570.3907,-104.9382 570.0248,-94.6944 569.7037,-85.7046"/>
<polygon fill="#191970" stroke="#191970" points="573.1992,-85.5113 569.3444,-75.6427 566.2036,-85.7613 573.1992,-85.5113"/>
</g>
<!-- Node11&#45;&gt;Node1 -->
<g id="edge18" class="edge">
<title>Node11&#45;&gt;Node1</title>
<path fill="none" stroke="#191970" d="M554.5425,-56.2455C541.9268,-47.7337 523.4056,-35.2375 508.7955,-25.3801"/>
<polygon fill="#191970" stroke="#191970" points="510.5391,-22.3343 500.2918,-19.6427 506.6239,-28.1371 510.5391,-22.3343"/>
</g>
<!-- Node13&#45;&gt;Node1 -->
<g id="edge21" class="edge">
<title>Node13&#45;&gt;Node1</title>
<path fill="none" stroke="#191970" d="M634.7288,-168.277C642.6013,-145.952 658.2142,-90.3101 633,-56 620.8983,-39.5327 570.8481,-26.3317 532.4765,-18.3666"/>
<polygon fill="#191970" stroke="#191970" points="532.9991,-14.9017 522.5049,-16.3582 531.6169,-21.7639 532.9991,-14.9017"/>
</g>
<!-- Node13&#45;&gt;Node10 -->
<g id="edge22" class="edge">
<title>Node13&#45;&gt;Node10</title>
<path fill="none" stroke="#191970" d="M620.5488,-168.2455C611.7731,-160.0549 599.0446,-148.1749 588.686,-138.5069"/>
<polygon fill="#191970" stroke="#191970" points="591.0301,-135.9072 581.3314,-131.6427 586.2539,-141.0246 591.0301,-135.9072"/>
</g>
<!-- Node14 -->
<g id="node15" class="node">
<title>Node14</title>
<polygon fill="none" stroke="#bfbfbf" points="680.5,-112.5 680.5,-131.5 735.5,-131.5 735.5,-112.5 680.5,-112.5"/>
<text text-anchor="middle" x="708" y="-119.5" font-family="Helvetica,sans-Serif" font-size="10.00" fill="#000000">signal.h</text>
</g>
<!-- Node13&#45;&gt;Node14 -->
<g id="edge23" class="edge">
<title>Node13&#45;&gt;Node14</title>
<path fill="none" stroke="#191970" d="M644.4124,-168.2455C656.0057,-159.814 672.9748,-147.4729 686.4678,-137.6598"/>
<polygon fill="#191970" stroke="#191970" points="688.7126,-140.355 694.7413,-131.6427 684.5953,-134.6938 688.7126,-140.355"/>
</g>
<!-- Node15&#45;&gt;Node1 -->
<g id="edge25" class="edge">
<title>Node15&#45;&gt;Node1</title>
<path fill="none" stroke="#191970" d="M780.2001,-168.4901C774.3211,-154.7055 761.9097,-128.9702 745,-112 686.4345,-53.2247 589.9276,-27.4076 532.7142,-16.7776"/>
<polygon fill="#191970" stroke="#191970" points="533.3088,-13.3285 522.8504,-15.0233 532.083,-20.2204 533.3088,-13.3285"/>
</g>
<!-- Node16 -->
<g id="node17" class="node">
<title>Node16</title>
<g id="a_node17"><a xlink:href="_abstract_debug_info_8hpp.html" target="_top" xlink:title="AbstractDebugInfo.hpp">
<polygon fill="none" stroke="#000000" points="792,-112.5 792,-131.5 920,-131.5 920,-112.5 792,-112.5"/>
<text text-anchor="middle" x="856" y="-119.5" font-family="Helvetica,sans-Serif" font-size="10.00" fill="#000000">AbstractDebugInfo.hpp</text>
</a>
</g>
</g>
<!-- Node15&#45;&gt;Node16 -->
<g id="edge26" class="edge">
<title>Node15&#45;&gt;Node16</title>
<path fill="none" stroke="#191970" d="M796.5414,-168.2455C807.2787,-159.8943 822.9473,-147.7076 835.5047,-137.9408"/>
<polygon fill="#191970" stroke="#191970" points="837.8575,-140.5449 843.6023,-131.6427 833.5599,-135.0194 837.8575,-140.5449"/>
</g>
<!-- Node18 -->
<g id="node19" class="node">
<title>Node18</title>
<g id="a_node19"><a xlink:href="_abstract_tracer_8hpp.html" target="_top" xlink:title="AbstractTracer.hpp">
<polygon fill="none" stroke="#000000" points="938.5,-112.5 938.5,-131.5 1045.5,-131.5 1045.5,-112.5 938.5,-112.5"/>
<text text-anchor="middle" x="992" y="-119.5" font-family="Helvetica,sans-Serif" font-size="10.00" fill="#000000">AbstractTracer.hpp</text>
</a>
</g>
</g>
<!-- Node15&#45;&gt;Node18 -->
<g id="edge30" class="edge">
<title>Node15&#45;&gt;Node18</title>
<path fill="none" stroke="#191970" d="M817.4188,-169.0026C852.4173,-159.58 907.6075,-144.7211 946.5508,-134.2363"/>
<polygon fill="#191970" stroke="#191970" points="947.8295,-137.5168 956.5757,-131.5373 946.0096,-130.7575 947.8295,-137.5168"/>
</g>
<!-- Node16&#45;&gt;Node1 -->
<g id="edge27" class="edge">
<title>Node16&#45;&gt;Node1</title>
<path fill="none" stroke="#191970" d="M848.0037,-112.4982C834.9891,-97.7369 807.6785,-69.5844 778,-56 735.1915,-36.4058 603.7545,-21.2695 532.7194,-14.2659"/>
<polygon fill="#191970" stroke="#191970" points="532.9864,-10.7755 522.6948,-13.2921 532.3095,-17.7427 532.9864,-10.7755"/>
</g>
<!-- Node17 -->
<g id="node18" class="node">
<title>Node17</title>
<g id="a_node18"><a xlink:href="_frame_8hpp.html" target="_top" xlink:title="Frame.hpp">
<polygon fill="none" stroke="#000000" points="830,-56.5 830,-75.5 898,-75.5 898,-56.5 830,-56.5"/>
<text text-anchor="middle" x="864" y="-63.5" font-family="Helvetica,sans-Serif" font-size="10.00" fill="#000000">Frame.hpp</text>
</a>
</g>
</g>
<!-- Node16&#45;&gt;Node17 -->
<g id="edge28" class="edge">
<title>Node16&#45;&gt;Node17</title>
<path fill="none" stroke="#191970" d="M857.3935,-112.2455C858.4374,-104.9382 859.9008,-94.6944 861.1851,-85.7046"/>
<polygon fill="#191970" stroke="#191970" points="864.673,-86.0372 862.6225,-75.6427 857.7434,-85.0472 864.673,-86.0372"/>
</g>
<!-- Node17&#45;&gt;Node1 -->
<g id="edge29" class="edge">
<title>Node17&#45;&gt;Node1</title>
<path fill="none" stroke="#191970" d="M829.9654,-58.6162C825.2828,-57.6861 820.5288,-56.7865 816,-56 715.584,-38.5614 597.0742,-23.3375 532.9421,-15.5401"/>
<polygon fill="#191970" stroke="#191970" points="533.0973,-12.0335 522.7495,-14.3078 532.257,-18.9829 533.0973,-12.0335"/>
</g>
<!-- Node18&#45;&gt;Node1 -->
<g id="edge31" class="edge">
<title>Node18&#45;&gt;Node1</title>
<path fill="none" stroke="#191970" d="M983.1732,-112.3347C968.8361,-97.3495 938.8666,-68.8956 907,-56 840.0748,-28.9171 628.0713,-16.3158 532.9661,-11.9156"/>
<polygon fill="#191970" stroke="#191970" points="532.9249,-8.4103 522.777,-11.455 532.6088,-15.4031 532.9249,-8.4103"/>
</g>
<!-- Node18&#45;&gt;Node17 -->
<g id="edge32" class="edge">
<title>Node18&#45;&gt;Node17</title>
<path fill="none" stroke="#191970" d="M969.996,-112.3733C949.3565,-103.3435 918.2842,-89.7494 895.1111,-79.6111"/>
<polygon fill="#191970" stroke="#191970" points="896.2813,-76.3028 885.7169,-75.5011 893.4755,-82.7159 896.2813,-76.3028"/>
</g>
</g>
</svg>
