<?xml version="1.0" encoding="UTF-8" standalone="no"?>
<!DOCTYPE svg PUBLIC "-//W3C//DTD SVG 1.1//EN"
 "http://www.w3.org/Graphics/SVG/1.1/DTD/svg11.dtd">
<!-- Generated by graphviz version 2.40.1 (20161225.0304)
 -->
<!-- Title: tracer::AbstractTracer Pages: 1 -->
<svg width="530pt" height="84pt"
 viewBox="0.00 0.00 530.00 84.00" xmlns="http://www.w3.org/2000/svg" xmlns:xlink="http://www.w3.org/1999/xlink">
<g id="graph0" class="graph" transform="scale(1 1) rotate(0) translate(4 80)">
<title>tracer::AbstractTracer</title>
<!-- Node0 -->
<g id="node1" class="node">
<title>Node0</title>
<polygon fill="#bfbfbf" stroke="#000000" points="198,-56.5 198,-75.5 319,-75.5 319,-56.5 198,-56.5"/>
<text text-anchor="middle" x="258.5" y="-63.5" font-family="Helvetica,sans-Serif" font-size="10.00" fill="#000000">tracer::AbstractTracer</text>
</g>
<!-- Node1 -->
<g id="node2" class="node">
<title>Node1</title>
<g id="a_node2"><a xlink:href="classtracer_1_1_dummy_tracer.html" target="_top" xlink:title="This tracer does nothing. ">
<polygon fill="none" stroke="#000000" points="0,-.5 0,-19.5 119,-19.5 119,-.5 0,-.5"/>
<text text-anchor="middle" x="59.5" y="-7.5" font-family="Helvetica,sans-Serif" font-size="10.00" fill="#000000">tracer::DummyTracer</text>
</a>
</g>
</g>
<!-- Node0&#45;&gt;Node1 -->
<g id="edge1" class="edge">
<title>Node0&#45;&gt;Node1</title>
<path fill="none" stroke="#191970" d="M214.3938,-53.5882C177.8323,-43.2996 126.6252,-28.8895 93.2629,-19.5011"/>
<polygon fill="#191970" stroke="#191970" points="213.7164,-57.0335 224.2907,-56.3733 215.6127,-50.2952 213.7164,-57.0335"/>
</g>
<!-- Node2 -->
<g id="node3" class="node">
<title>Node2</title>
<g id="a_node3"><a xlink:href="classtracer_1_1_glib_c_tracer.html" target="_top" xlink:title="Tracer based on glibc&#39;s backtrace (execinfo.h) ">
<polygon fill="none" stroke="#000000" points="137,-.5 137,-19.5 244,-19.5 244,-.5 137,-.5"/>
<text text-anchor="middle" x="190.5" y="-7.5" font-family="Helvetica,sans-Serif" font-size="10.00" fill="#000000">tracer::GlibCTracer</text>
</a>
</g>
</g>
<!-- Node0&#45;&gt;Node2 -->
<g id="edge2" class="edge">
<title>Node0&#45;&gt;Node2</title>
<path fill="none" stroke="#191970" d="M238.6404,-49.645C226.8142,-39.9058 212.2108,-27.8795 202.209,-19.6427"/>
<polygon fill="#191970" stroke="#191970" points="236.711,-52.5902 246.6553,-56.2455 241.161,-47.1867 236.711,-52.5902"/>
</g>
<!-- Node3 -->
<g id="node4" class="node">
<title>Node3</title>
<g id="a_node4"><a xlink:href="classtracer_1_1_lib_unwind_tracer.html" target="_top" xlink:title="Backtrace generator based on libunwind. ">
<polygon fill="none" stroke="#000000" points="262,-.5 262,-19.5 393,-19.5 393,-.5 262,-.5"/>
<text text-anchor="middle" x="327.5" y="-7.5" font-family="Helvetica,sans-Serif" font-size="10.00" fill="#000000">tracer::LibUnwindTracer</text>
</a>
</g>
</g>
<!-- Node0&#45;&gt;Node3 -->
<g id="edge3" class="edge">
<title>Node0&#45;&gt;Node3</title>
<path fill="none" stroke="#191970" d="M278.303,-49.928C290.3636,-40.1397 305.3714,-27.9595 315.6188,-19.6427"/>
<polygon fill="#191970" stroke="#191970" points="276.0779,-47.2262 270.5189,-56.2455 280.4891,-52.6614 276.0779,-47.2262"/>
</g>
<!-- Node4 -->
<g id="node5" class="node">
<title>Node4</title>
<g id="a_node5"><a xlink:href="classtracer_1_1_win32_tracer.html" target="_top" xlink:title="Backtrace generator for the WIN32 API. ">
<polygon fill="none" stroke="#000000" points="411,-.5 411,-19.5 522,-19.5 522,-.5 411,-.5"/>
<text text-anchor="middle" x="466.5" y="-7.5" font-family="Helvetica,sans-Serif" font-size="10.00" fill="#000000">tracer::Win32Tracer</text>
</a>
</g>
</g>
<!-- Node0&#45;&gt;Node4 -->
<g id="edge4" class="edge">
<title>Node0&#45;&gt;Node4</title>
<path fill="none" stroke="#191970" d="M304.1118,-53.7199C342.3582,-43.4228 396.19,-28.9296 431.2101,-19.5011"/>
<polygon fill="#191970" stroke="#191970" points="303.0027,-50.3938 294.2565,-56.3733 304.8226,-57.1531 303.0027,-50.3938"/>
</g>
</g>
</svg>
