<?xml version="1.0" encoding="UTF-8" standalone="no"?>
<!DOCTYPE svg PUBLIC "-//W3C//DTD SVG 1.1//EN"
 "http://www.w3.org/Graphics/SVG/1.1/DTD/svg11.dtd">
<!-- Generated by graphviz version 2.40.1 (20161225.0304)
 -->
<!-- Title: tracer::AbstractPrinter::printToFile Pages: 1 -->
<svg width="436pt" height="66pt"
 viewBox="0.00 0.00 436.00 66.00" xmlns="http://www.w3.org/2000/svg" xmlns:xlink="http://www.w3.org/1999/xlink">
<g id="graph0" class="graph" transform="scale(1 1) rotate(0) translate(4 62)">
<title>tracer::AbstractPrinter::printToFile</title>
<!-- Node13 -->
<g id="node1" class="node">
<title>Node13</title>
<polygon fill="#bfbfbf" stroke="#000000" points="0,-14 0,-44 124,-44 124,-14 0,-14"/>
<text text-anchor="start" x="8" y="-32" font-family="Helvetica,sans-Serif" font-size="10.00" fill="#000000">tracer::AbstractPrinter</text>
<text text-anchor="middle" x="62" y="-21" font-family="Helvetica,sans-Serif" font-size="10.00" fill="#000000">::printToFile</text>
</g>
<!-- Node14 -->
<g id="node2" class="node">
<title>Node14</title>
<g id="a_node2"><a xlink:href="classtracer_1_1_tracer_handler.html#a7d109d22f3dd18bebb8bf2ae9122fe7f" target="_top" xlink:title="Returns a pointer to the TracerHandler object. ">
<polygon fill="none" stroke="#000000" points="160,-14 160,-44 279,-44 279,-14 160,-14"/>
<text text-anchor="start" x="168" y="-32" font-family="Helvetica,sans-Serif" font-size="10.00" fill="#000000">tracer::TracerHandler</text>
<text text-anchor="middle" x="219.5" y="-21" font-family="Helvetica,sans-Serif" font-size="10.00" fill="#000000">::getTracer</text>
</a>
</g>
</g>
<!-- Node13&#45;&gt;Node14 -->
<g id="edge1" class="edge">
<title>Node13&#45;&gt;Node14</title>
<path fill="none" stroke="#191970" d="M134.4899,-29C142.9474,-29 151.5017,-29 159.7595,-29"/>
<polygon fill="#191970" stroke="#191970" points="134.2482,-25.5001 124.2482,-29 134.2481,-32.5001 134.2482,-25.5001"/>
</g>
<!-- Node15 -->
<g id="node3" class="node">
<title>Node15</title>
<g id="a_node3"><a xlink:href="tracer_8h.html#a974132af1f7d60eb2d36060b1e735f37" target="_top" xlink:title="Runs tracer::TracerHandler::getTracer()&#45;&gt;defaultSetup();. ">
<polygon fill="none" stroke="#000000" points="325.5,-38.5 325.5,-57.5 417.5,-57.5 417.5,-38.5 325.5,-38.5"/>
<text text-anchor="middle" x="371.5" y="-45.5" font-family="Helvetica,sans-Serif" font-size="10.00" fill="#000000">tr_defaultSetup</text>
</a>
</g>
</g>
<!-- Node14&#45;&gt;Node15 -->
<g id="edge2" class="edge">
<title>Node14&#45;&gt;Node15</title>
<path fill="none" stroke="#191970" d="M289.2868,-37.7233C301.4614,-39.2452 313.8501,-40.7938 325.1919,-42.2115"/>
<polygon fill="#191970" stroke="#191970" points="289.4951,-34.2222 279.1382,-36.4548 288.6268,-41.1682 289.4951,-34.2222"/>
</g>
<!-- Node16 -->
<g id="node4" class="node">
<title>Node16</title>
<g id="a_node4"><a xlink:href="tracer_8h.html#a4df78184a82c30a8530327e8e977271e" target="_top" xlink:title="Retunrns the handler as a private c struct. ">
<polygon fill="none" stroke="#000000" points="315,-.5 315,-19.5 428,-19.5 428,-.5 315,-.5"/>
<text text-anchor="middle" x="371.5" y="-7.5" font-family="Helvetica,sans-Serif" font-size="10.00" fill="#000000">tr_getTracerHandler</text>
</a>
</g>
</g>
<!-- Node14&#45;&gt;Node16 -->
<g id="edge3" class="edge">
<title>Node14&#45;&gt;Node16</title>
<path fill="none" stroke="#191970" d="M289.0645,-20.3044C297.5849,-19.2394 306.2139,-18.1608 314.5191,-17.1226"/>
<polygon fill="#191970" stroke="#191970" points="288.6268,-16.8318 279.1382,-21.5452 289.4951,-23.7778 288.6268,-16.8318"/>
</g>
</g>
</svg>
