<?xml version="1.0" encoding="UTF-8" standalone="no"?>
<!DOCTYPE svg PUBLIC "-//W3C//DTD SVG 1.1//EN"
 "http://www.w3.org/Graphics/SVG/1.1/DTD/svg11.dtd">
<!-- Generated by graphviz version 2.40.1 (20161225.0304)
 -->
<!-- Title: tracer::PrinterContainer::fancy Pages: 1 -->
<svg width="449pt" height="100pt"
 viewBox="0.00 0.00 449.00 99.50" xmlns="http://www.w3.org/2000/svg" xmlns:xlink="http://www.w3.org/1999/xlink">
<g id="graph0" class="graph" transform="scale(1 1) rotate(0) translate(4 95.5)">
<title>tracer::PrinterContainer::fancy</title>
<!-- Node5 -->
<g id="node1" class="node">
<title>Node5</title>
<polygon fill="#bfbfbf" stroke="#000000" points="0,-44.5 0,-74.5 131,-74.5 131,-44.5 0,-44.5"/>
<text text-anchor="start" x="8" y="-62.5" font-family="Helvetica,sans-Serif" font-size="10.00" fill="#000000">tracer::PrinterContainer</text>
<text text-anchor="middle" x="65.5" y="-51.5" font-family="Helvetica,sans-Serif" font-size="10.00" fill="#000000">::fancy</text>
</g>
<!-- Node6 -->
<g id="node2" class="node">
<title>Node6</title>
<g id="a_node2"><a xlink:href="tracer_8h.html#ac0c6c6470c56cc6f8414019b2c6d46b6" target="_top" xlink:title="Wrapper for tracer::PrinterContainer::fancy. ">
<polygon fill="none" stroke="#000000" points="169,-72 169,-91 284,-91 284,-72 169,-72"/>
<text text-anchor="middle" x="226.5" y="-79" font-family="Helvetica,sans-Serif" font-size="10.00" fill="#000000">tr_getPrinter__fancy</text>
</a>
</g>
</g>
<!-- Node5&#45;&gt;Node6 -->
<g id="edge1" class="edge">
<title>Node5&#45;&gt;Node6</title>
<path fill="none" stroke="#191970" d="M141.4231,-69.8746C150.6652,-71.1375 159.9879,-72.4114 168.9019,-73.6295"/>
<polygon fill="#191970" stroke="#191970" points="141.8312,-66.3979 131.4494,-68.5117 140.8834,-73.3335 141.8312,-66.3979"/>
</g>
<!-- Node7 -->
<g id="node3" class="node">
<title>Node7</title>
<g id="a_node3"><a xlink:href="classtracer_1_1_tracer_handler.html#ac3898a7b4670bfb6ab26a8465b7cd59b" target="_top" xlink:title="Basic setup, sufficient for most use cases. ">
<polygon fill="none" stroke="#000000" points="167,-22.5 167,-52.5 286,-52.5 286,-22.5 167,-22.5"/>
<text text-anchor="start" x="175" y="-40.5" font-family="Helvetica,sans-Serif" font-size="10.00" fill="#000000">tracer::TracerHandler</text>
<text text-anchor="middle" x="226.5" y="-29.5" font-family="Helvetica,sans-Serif" font-size="10.00" fill="#000000">::defaultSetup</text>
</a>
</g>
</g>
<!-- Node5&#45;&gt;Node7 -->
<g id="edge2" class="edge">
<title>Node5&#45;&gt;Node7</title>
<path fill="none" stroke="#191970" d="M141.419,-49.126C149.9583,-47.9591 158.5666,-46.7828 166.8578,-45.6499"/>
<polygon fill="#191970" stroke="#191970" points="140.8834,-45.6665 131.4494,-50.4883 141.8312,-52.6021 140.8834,-45.6665"/>
</g>
<!-- Node8 -->
<g id="node4" class="node">
<title>Node8</title>
<g id="a_node4"><a xlink:href="tracer_8h.html#a974132af1f7d60eb2d36060b1e735f37" target="_top" xlink:title="Runs tracer::TracerHandler::getTracer()&#45;&gt;defaultSetup();. ">
<polygon fill="none" stroke="#000000" points="335.5,-50 335.5,-69 427.5,-69 427.5,-50 335.5,-50"/>
<text text-anchor="middle" x="381.5" y="-57" font-family="Helvetica,sans-Serif" font-size="10.00" fill="#000000">tr_defaultSetup</text>
</a>
</g>
</g>
<!-- Node7&#45;&gt;Node8 -->
<g id="edge3" class="edge">
<title>Node7&#45;&gt;Node8</title>
<path fill="none" stroke="#191970" d="M296.3986,-47.4211C309.5467,-49.2873 322.9894,-51.1953 335.1934,-52.9274"/>
<polygon fill="#191970" stroke="#191970" points="296.8197,-43.9459 286.427,-46.0058 295.8359,-50.8764 296.8197,-43.9459"/>
</g>
<!-- Node9 -->
<g id="node5" class="node">
<title>Node9</title>
<g id="a_node5"><a xlink:href="classtracer_1_1_tracer_handler.html#add3e3ebc8029b9889825d302fc7a3000" target="_top" xlink:title="Sets the new configuration. ">
<polygon fill="none" stroke="#000000" points="322,-.5 322,-30.5 441,-30.5 441,-.5 322,-.5"/>
<text text-anchor="start" x="330" y="-18.5" font-family="Helvetica,sans-Serif" font-size="10.00" fill="#000000">tracer::TracerHandler</text>
<text text-anchor="middle" x="381.5" y="-7.5" font-family="Helvetica,sans-Serif" font-size="10.00" fill="#000000">::setConfig</text>
</a>
</g>
</g>
<!-- Node7&#45;&gt;Node9 -->
<g id="edge4" class="edge">
<title>Node7&#45;&gt;Node9</title>
<path fill="none" stroke="#191970" d="M296.3823,-27.5812C304.9332,-26.3676 313.6089,-25.1362 321.9877,-23.9469"/>
<polygon fill="#191970" stroke="#191970" points="295.8359,-24.1236 286.427,-28.9942 296.8197,-31.0541 295.8359,-24.1236"/>
</g>
</g>
</svg>
