<?xml version="1.0" encoding="UTF-8" standalone="no"?>
<!DOCTYPE svg PUBLIC "-//W3C//DTD SVG 1.1//EN"
 "http://www.w3.org/Graphics/SVG/1.1/DTD/svg11.dtd">
<!-- Generated by graphviz version 2.40.1 (20161225.0304)
 -->
<!-- Title: tracer::SystemInfoPrinter Pages: 1 -->
<svg width="147pt" height="209pt"
 viewBox="0.00 0.00 147.00 209.00" xmlns="http://www.w3.org/2000/svg" xmlns:xlink="http://www.w3.org/1999/xlink">
<g id="graph0" class="graph" transform="scale(1 1) rotate(0) translate(4 205)">
<title>tracer::SystemInfoPrinter</title>
<!-- Node4 -->
<g id="node1" class="node">
<title>Node4</title>
<polygon fill="#bfbfbf" stroke="#000000" points="0,-.5 0,-19.5 139,-19.5 139,-.5 0,-.5"/>
<text text-anchor="middle" x="69.5" y="-7.5" font-family="Helvetica,sans-Serif" font-size="10.00" fill="#000000">tracer::SystemInfoPrinter</text>
</g>
<!-- Node5 -->
<g id="node2" class="node">
<title>Node5</title>
<g id="a_node2"><a xlink:href="classtracer_1_1_default_printer.html" target="_top" xlink:title="Gnerates strings from the frame structure. ">
<polygon fill="none" stroke="#000000" points="10,-57.5 10,-76.5 129,-76.5 129,-57.5 10,-57.5"/>
<text text-anchor="middle" x="69.5" y="-64.5" font-family="Helvetica,sans-Serif" font-size="10.00" fill="#000000">tracer::DefaultPrinter</text>
</a>
</g>
</g>
<!-- Node5&#45;&gt;Node4 -->
<g id="edge1" class="edge">
<title>Node5&#45;&gt;Node4</title>
<path fill="none" stroke="#191970" d="M69.5,-47.2342C69.5,-37.8491 69.5,-27.0651 69.5,-19.5265"/>
<polygon fill="#191970" stroke="#191970" points="66.0001,-47.3307 69.5,-57.3307 73.0001,-47.3308 66.0001,-47.3307"/>
</g>
<!-- Node6 -->
<g id="node3" class="node">
<title>Node6</title>
<g id="a_node3"><a xlink:href="classtracer_1_1_abstract_printer.html" target="_top" xlink:title="Basic class for all printers. ">
<polygon fill="none" stroke="#000000" points="7.5,-114.5 7.5,-133.5 131.5,-133.5 131.5,-114.5 7.5,-114.5"/>
<text text-anchor="middle" x="69.5" y="-121.5" font-family="Helvetica,sans-Serif" font-size="10.00" fill="#000000">tracer::AbstractPrinter</text>
</a>
</g>
</g>
<!-- Node6&#45;&gt;Node5 -->
<g id="edge2" class="edge">
<title>Node6&#45;&gt;Node5</title>
<path fill="none" stroke="#191970" d="M69.5,-104.2342C69.5,-94.8491 69.5,-84.0651 69.5,-76.5265"/>
<polygon fill="#191970" stroke="#191970" points="66.0001,-104.3307 69.5,-114.3307 73.0001,-104.3308 66.0001,-104.3307"/>
</g>
<!-- Node7 -->
<g id="node4" class="node">
<title>Node7</title>
<g id="a_node4"><a xlink:href="classtracer_1_1_tracer.html" target="_top" xlink:title="Backtrace generator. ">
<polygon fill="none" stroke="#000000" points="29.5,-181.5 29.5,-200.5 109.5,-200.5 109.5,-181.5 29.5,-181.5"/>
<text text-anchor="middle" x="69.5" y="-188.5" font-family="Helvetica,sans-Serif" font-size="10.00" fill="#000000">tracer::Tracer</text>
</a>
</g>
</g>
<!-- Node7&#45;&gt;Node6 -->
<g id="edge3" class="edge">
<title>Node7&#45;&gt;Node6</title>
<path fill="none" stroke="#9a32cd" stroke-dasharray="5,2" d="M69.5,-171.1079C69.5,-158.714 69.5,-143.3263 69.5,-133.5817"/>
<polygon fill="#9a32cd" stroke="#9a32cd" points="66.0001,-171.4005 69.5,-181.4005 73.0001,-171.4006 66.0001,-171.4005"/>
<text text-anchor="middle" x="83.5" y="-155" font-family="Helvetica,sans-Serif" font-size="10.00" fill="#000000"> trace</text>
</g>
</g>
</svg>
