<?xml version="1.0" encoding="UTF-8" standalone="no"?>
<!DOCTYPE svg PUBLIC "-//W3C//DTD SVG 1.1//EN"
 "http://www.w3.org/Graphics/SVG/1.1/DTD/svg11.dtd">
<!-- Generated by graphviz version 2.40.1 (20161225.0304)
 -->
<!-- Title: tracer::FilePrinter Pages: 1 -->
<svg width="132pt" height="209pt"
 viewBox="0.00 0.00 132.00 209.00" xmlns="http://www.w3.org/2000/svg" xmlns:xlink="http://www.w3.org/1999/xlink">
<g id="graph0" class="graph" transform="scale(1 1) rotate(0) translate(4 205)">
<title>tracer::FilePrinter</title>
<!-- Node4 -->
<g id="node1" class="node">
<title>Node4</title>
<polygon fill="#bfbfbf" stroke="#000000" points="12,-.5 12,-19.5 112,-19.5 112,-.5 12,-.5"/>
<text text-anchor="middle" x="62" y="-7.5" font-family="Helvetica,sans-Serif" font-size="10.00" fill="#000000">tracer::FilePrinter</text>
</g>
<!-- Node5 -->
<g id="node2" class="node">
<title>Node5</title>
<g id="a_node2"><a xlink:href="classtracer_1_1_default_printer.html" target="_top" xlink:title="Gnerates strings from the frame structure. ">
<polygon fill="none" stroke="#000000" points="2.5,-57.5 2.5,-76.5 121.5,-76.5 121.5,-57.5 2.5,-57.5"/>
<text text-anchor="middle" x="62" y="-64.5" font-family="Helvetica,sans-Serif" font-size="10.00" fill="#000000">tracer::DefaultPrinter</text>
</a>
</g>
</g>
<!-- Node5&#45;&gt;Node4 -->
<g id="edge1" class="edge">
<title>Node5&#45;&gt;Node4</title>
<path fill="none" stroke="#191970" d="M62,-47.2342C62,-37.8491 62,-27.0651 62,-19.5265"/>
<polygon fill="#191970" stroke="#191970" points="58.5001,-47.3307 62,-57.3307 65.5001,-47.3308 58.5001,-47.3307"/>
</g>
<!-- Node6 -->
<g id="node3" class="node">
<title>Node6</title>
<g id="a_node3"><a xlink:href="classtracer_1_1_abstract_printer.html" target="_top" xlink:title="Basic class for all printers. ">
<polygon fill="none" stroke="#000000" points="0,-114.5 0,-133.5 124,-133.5 124,-114.5 0,-114.5"/>
<text text-anchor="middle" x="62" y="-121.5" font-family="Helvetica,sans-Serif" font-size="10.00" fill="#000000">tracer::AbstractPrinter</text>
</a>
</g>
</g>
<!-- Node6&#45;&gt;Node5 -->
<g id="edge2" class="edge">
<title>Node6&#45;&gt;Node5</title>
<path fill="none" stroke="#191970" d="M62,-104.2342C62,-94.8491 62,-84.0651 62,-76.5265"/>
<polygon fill="#191970" stroke="#191970" points="58.5001,-104.3307 62,-114.3307 65.5001,-104.3308 58.5001,-104.3307"/>
</g>
<!-- Node7 -->
<g id="node4" class="node">
<title>Node7</title>
<g id="a_node4"><a xlink:href="classtracer_1_1_tracer.html" target="_top" xlink:title="Backtrace generator. ">
<polygon fill="none" stroke="#000000" points="22,-181.5 22,-200.5 102,-200.5 102,-181.5 22,-181.5"/>
<text text-anchor="middle" x="62" y="-188.5" font-family="Helvetica,sans-Serif" font-size="10.00" fill="#000000">tracer::Tracer</text>
</a>
</g>
</g>
<!-- Node7&#45;&gt;Node6 -->
<g id="edge3" class="edge">
<title>Node7&#45;&gt;Node6</title>
<path fill="none" stroke="#9a32cd" stroke-dasharray="5,2" d="M62,-171.1079C62,-158.714 62,-143.3263 62,-133.5817"/>
<polygon fill="#9a32cd" stroke="#9a32cd" points="58.5001,-171.4005 62,-181.4005 65.5001,-171.4006 58.5001,-171.4005"/>
<text text-anchor="middle" x="76" y="-155" font-family="Helvetica,sans-Serif" font-size="10.00" fill="#000000"> trace</text>
</g>
</g>
</svg>
