<?xml version="1.0" encoding="UTF-8" standalone="no"?>
<!DOCTYPE svg PUBLIC "-//W3C//DTD SVG 1.1//EN"
 "http://www.w3.org/Graphics/SVG/1.1/DTD/svg11.dtd">
<!-- Generated by graphviz version 2.40.1 (20161225.0304)
 -->
<!-- Title: tracer::AbstractPrinter::setTrace Pages: 1 -->
<svg width="441pt" height="102pt"
 viewBox="0.00 0.00 441.00 101.50" xmlns="http://www.w3.org/2000/svg" xmlns:xlink="http://www.w3.org/1999/xlink">
<g id="graph0" class="graph" transform="scale(1 1) rotate(0) translate(4 97.5)">
<title>tracer::AbstractPrinter::setTrace</title>
<!-- Node18 -->
<g id="node1" class="node">
<title>Node18</title>
<polygon fill="#bfbfbf" stroke="#000000" points="0,-38 0,-68 124,-68 124,-38 0,-38"/>
<text text-anchor="start" x="8" y="-56" font-family="Helvetica,sans-Serif" font-size="10.00" fill="#000000">tracer::AbstractPrinter</text>
<text text-anchor="middle" x="62" y="-45" font-family="Helvetica,sans-Serif" font-size="10.00" fill="#000000">::setTrace</text>
</g>
<!-- Node19 -->
<g id="node2" class="node">
<title>Node19</title>
<g id="a_node2"><a xlink:href="classtracer_1_1_abstract_printer.html#ae3a707d2c7f5f7c072527c878ae1913a" target="_top" xlink:title="Disables colored output (ANSI escape sequences) ">
<polygon fill="none" stroke="#000000" points="160,-63 160,-93 284,-93 284,-63 160,-63"/>
<text text-anchor="start" x="168" y="-81" font-family="Helvetica,sans-Serif" font-size="10.00" fill="#000000">tracer::AbstractPrinter</text>
<text text-anchor="middle" x="222" y="-70" font-family="Helvetica,sans-Serif" font-size="10.00" fill="#000000">::disableColor</text>
</a>
</g>
</g>
<!-- Node18&#45;&gt;Node19 -->
<g id="edge1" class="edge">
<title>Node18&#45;&gt;Node19</title>
<path fill="none" stroke="#191970" d="M134.2667,-64.2917C142.8078,-65.6262 151.4676,-66.9793 159.8518,-68.2893"/>
<polygon fill="#191970" stroke="#191970" points="134.7388,-60.823 124.3183,-62.7372 133.6581,-67.7391 134.7388,-60.823"/>
</g>
<!-- Node20 -->
<g id="node3" class="node">
<title>Node20</title>
<g id="a_node3"><a xlink:href="classtracer_1_1_tracer_handler.html#a7d109d22f3dd18bebb8bf2ae9122fe7f" target="_top" xlink:title="Returns a pointer to the TracerHandler object. ">
<polygon fill="none" stroke="#000000" points="162.5,-14 162.5,-44 281.5,-44 281.5,-14 162.5,-14"/>
<text text-anchor="start" x="170.5" y="-32" font-family="Helvetica,sans-Serif" font-size="10.00" fill="#000000">tracer::TracerHandler</text>
<text text-anchor="middle" x="222" y="-21" font-family="Helvetica,sans-Serif" font-size="10.00" fill="#000000">::getTracer</text>
</a>
</g>
</g>
<!-- Node18&#45;&gt;Node20 -->
<g id="edge2" class="edge">
<title>Node18&#45;&gt;Node20</title>
<path fill="none" stroke="#191970" d="M134.4217,-42.1367C143.8062,-40.7291 153.331,-39.3003 162.4734,-37.929"/>
<polygon fill="#191970" stroke="#191970" points="133.6885,-38.7075 124.3183,-43.6523 134.7269,-45.63 133.6885,-38.7075"/>
</g>
<!-- Node21 -->
<g id="node4" class="node">
<title>Node21</title>
<g id="a_node4"><a xlink:href="tracer_8h.html#a974132af1f7d60eb2d36060b1e735f37" target="_top" xlink:title="Runs tracer::TracerHandler::getTracer()&#45;&gt;defaultSetup();. ">
<polygon fill="none" stroke="#000000" points="330.5,-38.5 330.5,-57.5 422.5,-57.5 422.5,-38.5 330.5,-38.5"/>
<text text-anchor="middle" x="376.5" y="-45.5" font-family="Helvetica,sans-Serif" font-size="10.00" fill="#000000">tr_defaultSetup</text>
</a>
</g>
</g>
<!-- Node20&#45;&gt;Node21 -->
<g id="edge3" class="edge">
<title>Node20&#45;&gt;Node21</title>
<path fill="none" stroke="#191970" d="M291.6731,-37.5682C304.7788,-39.1799 318.1781,-40.8277 330.3427,-42.3237"/>
<polygon fill="#191970" stroke="#191970" points="292.0862,-34.0927 281.7337,-36.3459 291.2317,-41.0404 292.0862,-34.0927"/>
</g>
<!-- Node22 -->
<g id="node5" class="node">
<title>Node22</title>
<g id="a_node5"><a xlink:href="tracer_8h.html#a4df78184a82c30a8530327e8e977271e" target="_top" xlink:title="Retunrns the handler as a private c struct. ">
<polygon fill="none" stroke="#000000" points="320,-.5 320,-19.5 433,-19.5 433,-.5 320,-.5"/>
<text text-anchor="middle" x="376.5" y="-7.5" font-family="Helvetica,sans-Serif" font-size="10.00" fill="#000000">tr_getTracerHandler</text>
</a>
</g>
</g>
<!-- Node20&#45;&gt;Node22 -->
<g id="edge4" class="edge">
<title>Node20&#45;&gt;Node22</title>
<path fill="none" stroke="#191970" d="M291.8598,-20.4088C301.2697,-19.2516 310.8272,-18.0763 319.9669,-16.9523"/>
<polygon fill="#191970" stroke="#191970" points="291.2317,-16.9596 281.7337,-21.6541 292.0862,-23.9073 291.2317,-16.9596"/>
</g>
</g>
</svg>
