<?xml version="1.0" encoding="UTF-8" standalone="no"?>
<!DOCTYPE svg PUBLIC "-//W3C//DTD SVG 1.1//EN"
 "http://www.w3.org/Graphics/SVG/1.1/DTD/svg11.dtd">
<!-- Generated by graphviz version 2.40.1 (20161225.0304)
 -->
<!-- Title: tracer::DefaultPrinter Pages: 1 -->
<svg width="266pt" height="196pt"
 viewBox="0.00 0.00 265.50 196.00" xmlns="http://www.w3.org/2000/svg" xmlns:xlink="http://www.w3.org/1999/xlink">
<g id="graph0" class="graph" transform="scale(1 1) rotate(0) translate(4 192)">
<title>tracer::DefaultPrinter</title>
<!-- Node0 -->
<g id="node1" class="node">
<title>Node0</title>
<polygon fill="#bfbfbf" stroke="#000000" points="59.5,-112.5 59.5,-131.5 178.5,-131.5 178.5,-112.5 59.5,-112.5"/>
<text text-anchor="middle" x="119" y="-119.5" font-family="Helvetica,sans-Serif" font-size="10.00" fill="#000000">tracer::DefaultPrinter</text>
</g>
<!-- Node2 -->
<g id="node3" class="node">
<title>Node2</title>
<g id="a_node3"><a xlink:href="classtracer_1_1_file_printer.html" target="_top" xlink:title="Prints file contents when line information is avaliable in the frame. ">
<polygon fill="none" stroke="#000000" points="0,-56.5 0,-75.5 100,-75.5 100,-56.5 0,-56.5"/>
<text text-anchor="middle" x="50" y="-63.5" font-family="Helvetica,sans-Serif" font-size="10.00" fill="#000000">tracer::FilePrinter</text>
</a>
</g>
</g>
<!-- Node0&#45;&gt;Node2 -->
<g id="edge2" class="edge">
<title>Node0&#45;&gt;Node2</title>
<path fill="none" stroke="#191970" d="M99.197,-105.928C87.1364,-96.1397 72.1286,-83.9595 61.8812,-75.6427"/>
<polygon fill="#191970" stroke="#191970" points="97.0109,-108.6614 106.9811,-112.2455 101.4221,-103.2262 97.0109,-108.6614"/>
</g>
<!-- Node4 -->
<g id="node5" class="node">
<title>Node4</title>
<g id="a_node5"><a xlink:href="classtracer_1_1_system_info_printer.html" target="_top" xlink:title="Prints additional information before the first stack frame. ">
<polygon fill="none" stroke="#000000" points="118.5,-56.5 118.5,-75.5 257.5,-75.5 257.5,-56.5 118.5,-56.5"/>
<text text-anchor="middle" x="188" y="-63.5" font-family="Helvetica,sans-Serif" font-size="10.00" fill="#000000">tracer::SystemInfoPrinter</text>
</a>
</g>
</g>
<!-- Node0&#45;&gt;Node4 -->
<g id="edge4" class="edge">
<title>Node0&#45;&gt;Node4</title>
<path fill="none" stroke="#191970" d="M138.803,-105.928C150.8636,-96.1397 165.8714,-83.9595 176.1188,-75.6427"/>
<polygon fill="#191970" stroke="#191970" points="136.5779,-103.2262 131.0189,-112.2455 140.9891,-108.6614 136.5779,-103.2262"/>
</g>
<!-- Node1 -->
<g id="node2" class="node">
<title>Node1</title>
<g id="a_node2"><a xlink:href="classtracer_1_1_abstract_printer.html" target="_top" xlink:title="Basic class for all printers. ">
<polygon fill="none" stroke="#000000" points="57,-168.5 57,-187.5 181,-187.5 181,-168.5 57,-168.5"/>
<text text-anchor="middle" x="119" y="-175.5" font-family="Helvetica,sans-Serif" font-size="10.00" fill="#000000">tracer::AbstractPrinter</text>
</a>
</g>
</g>
<!-- Node1&#45;&gt;Node0 -->
<g id="edge1" class="edge">
<title>Node1&#45;&gt;Node0</title>
<path fill="none" stroke="#191970" d="M119,-158.1575C119,-149.155 119,-138.9199 119,-131.6427"/>
<polygon fill="#191970" stroke="#191970" points="115.5001,-158.2455 119,-168.2455 122.5001,-158.2456 115.5001,-158.2455"/>
</g>
<!-- Node3 -->
<g id="node4" class="node">
<title>Node3</title>
<g id="a_node4"><a xlink:href="classtracer_1_1_fancy_printer.html" target="_top" xlink:title="Wrapper for both FilePrinter and SystemInfoPrinter. ">
<polygon fill="none" stroke="#000000" points="63.5,-.5 63.5,-19.5 174.5,-19.5 174.5,-.5 63.5,-.5"/>
<text text-anchor="middle" x="119" y="-7.5" font-family="Helvetica,sans-Serif" font-size="10.00" fill="#000000">tracer::FancyPrinter</text>
</a>
</g>
</g>
<!-- Node2&#45;&gt;Node3 -->
<g id="edge3" class="edge">
<title>Node2&#45;&gt;Node3</title>
<path fill="none" stroke="#191970" d="M69.803,-49.928C81.8636,-40.1397 96.8714,-27.9595 107.1188,-19.6427"/>
<polygon fill="#191970" stroke="#191970" points="67.5779,-47.2262 62.0189,-56.2455 71.9891,-52.6614 67.5779,-47.2262"/>
</g>
<!-- Node4&#45;&gt;Node3 -->
<g id="edge5" class="edge">
<title>Node4&#45;&gt;Node3</title>
<path fill="none" stroke="#191970" d="M168.197,-49.928C156.1364,-40.1397 141.1286,-27.9595 130.8812,-19.6427"/>
<polygon fill="#191970" stroke="#191970" points="166.0109,-52.6614 175.9811,-56.2455 170.4221,-47.2262 166.0109,-52.6614"/>
</g>
</g>
</svg>
