<?xml version="1.0" encoding="UTF-8" standalone="no"?>
<!DOCTYPE svg PUBLIC "-//W3C//DTD SVG 1.1//EN"
 "http://www.w3.org/Graphics/SVG/1.1/DTD/svg11.dtd">
<!-- Generated by graphviz version 2.40.1 (20161225.0304)
 -->
<!-- Title: tracer::PrinterContainer::get Pages: 1 -->
<svg width="480pt" height="91pt"
 viewBox="0.00 0.00 480.00 91.00" xmlns="http://www.w3.org/2000/svg" xmlns:xlink="http://www.w3.org/1999/xlink">
<g id="graph0" class="graph" transform="scale(1 1) rotate(0) translate(4 87)">
<title>tracer::PrinterContainer::get</title>
<!-- Node14 -->
<g id="node1" class="node">
<title>Node14</title>
<polygon fill="#bfbfbf" stroke="#000000" points="0,-41.5 0,-60.5 152,-60.5 152,-41.5 0,-41.5"/>
<text text-anchor="middle" x="76" y="-48.5" font-family="Helvetica,sans-Serif" font-size="10.00" fill="#000000">tracer::PrinterContainer::get</text>
</g>
<!-- Node15 -->
<g id="node2" class="node">
<title>Node15</title>
<g id="a_node2"><a xlink:href="tracer_8h.html#a8f6c3c3ee4406ff5525f9ab8511ede94" target="_top" xlink:title="Wrapper for tracer::PrinterContainer::get. ">
<polygon fill="none" stroke="#000000" points="188,-63.5 188,-82.5 323,-82.5 323,-63.5 188,-63.5"/>
<text text-anchor="middle" x="255.5" y="-70.5" font-family="Helvetica,sans-Serif" font-size="10.00" fill="#000000">tr_PrinterContainer__get</text>
</a>
</g>
</g>
<!-- Node14&#45;&gt;Node15 -->
<g id="edge1" class="edge">
<title>Node14&#45;&gt;Node15</title>
<path fill="none" stroke="#191970" d="M162.1793,-61.5624C170.7781,-62.6163 179.4207,-63.6755 187.7906,-64.7014"/>
<polygon fill="#191970" stroke="#191970" points="162.4757,-58.0726 152.1242,-60.33 161.6241,-65.0206 162.4757,-58.0726"/>
</g>
<!-- Node16 -->
<g id="node3" class="node">
<title>Node16</title>
<g id="a_node3"><a xlink:href="classtracer_1_1_tracer_handler.html#a7d109d22f3dd18bebb8bf2ae9122fe7f" target="_top" xlink:title="Returns a pointer to the TracerHandler object. ">
<polygon fill="none" stroke="#000000" points="196,-14 196,-44 315,-44 315,-14 196,-14"/>
<text text-anchor="start" x="204" y="-32" font-family="Helvetica,sans-Serif" font-size="10.00" fill="#000000">tracer::TracerHandler</text>
<text text-anchor="middle" x="255.5" y="-21" font-family="Helvetica,sans-Serif" font-size="10.00" fill="#000000">::getTracer</text>
</a>
</g>
</g>
<!-- Node14&#45;&gt;Node16 -->
<g id="edge2" class="edge">
<title>Node14&#45;&gt;Node16</title>
<path fill="none" stroke="#191970" d="M162.1183,-40.4451C173.5351,-39.0458 185.0303,-37.6369 195.8635,-36.3092"/>
<polygon fill="#191970" stroke="#191970" points="161.6241,-36.9794 152.1242,-41.67 162.4757,-43.9274 161.6241,-36.9794"/>
</g>
<!-- Node17 -->
<g id="node4" class="node">
<title>Node17</title>
<g id="a_node4"><a xlink:href="tracer_8h.html#a974132af1f7d60eb2d36060b1e735f37" target="_top" xlink:title="Runs tracer::TracerHandler::getTracer()&#45;&gt;defaultSetup();. ">
<polygon fill="none" stroke="#000000" points="369.5,-38.5 369.5,-57.5 461.5,-57.5 461.5,-38.5 369.5,-38.5"/>
<text text-anchor="middle" x="415.5" y="-45.5" font-family="Helvetica,sans-Serif" font-size="10.00" fill="#000000">tr_defaultSetup</text>
</a>
</g>
</g>
<!-- Node16&#45;&gt;Node17 -->
<g id="edge3" class="edge">
<title>Node16&#45;&gt;Node17</title>
<path fill="none" stroke="#191970" d="M325.3024,-37.289C340.2195,-39.0604 355.6174,-40.8889 369.3757,-42.5227"/>
<polygon fill="#191970" stroke="#191970" points="325.4211,-33.7786 315.0781,-36.0749 324.5956,-40.7298 325.4211,-33.7786"/>
</g>
<!-- Node18 -->
<g id="node5" class="node">
<title>Node18</title>
<g id="a_node5"><a xlink:href="tracer_8h.html#a4df78184a82c30a8530327e8e977271e" target="_top" xlink:title="Retunrns the handler as a private c struct. ">
<polygon fill="none" stroke="#000000" points="359,-.5 359,-19.5 472,-19.5 472,-.5 359,-.5"/>
<text text-anchor="middle" x="415.5" y="-7.5" font-family="Helvetica,sans-Serif" font-size="10.00" fill="#000000">tr_getTracerHandler</text>
</a>
</g>
</g>
<!-- Node16&#45;&gt;Node18 -->
<g id="edge4" class="edge">
<title>Node16&#45;&gt;Node18</title>
<path fill="none" stroke="#191970" d="M325.2641,-20.7155C336.4669,-19.3852 347.9419,-18.0225 358.7909,-16.7342"/>
<polygon fill="#191970" stroke="#191970" points="324.5956,-17.2702 315.0781,-21.9251 325.4211,-24.2214 324.5956,-17.2702"/>
</g>
</g>
</svg>
