<?xml version="1.0" encoding="UTF-8" standalone="no"?>
<!DOCTYPE svg PUBLIC "-//W3C//DTD SVG 1.1//EN"
 "http://www.w3.org/Graphics/SVG/1.1/DTD/svg11.dtd">
<!-- Generated by graphviz version 2.40.1 (20161225.0304)
 -->
<!-- Title: tracer::FancyPrinter Pages: 1 -->
<svg width="266pt" height="266pt"
 viewBox="0.00 0.00 265.50 266.00" xmlns="http://www.w3.org/2000/svg" xmlns:xlink="http://www.w3.org/1999/xlink">
<g id="graph0" class="graph" transform="scale(1 1) rotate(0) translate(4 262)">
<title>tracer::FancyPrinter</title>
<!-- Node5 -->
<g id="node1" class="node">
<title>Node5</title>
<polygon fill="#bfbfbf" stroke="#000000" points="62.5,-.5 62.5,-19.5 173.5,-19.5 173.5,-.5 62.5,-.5"/>
<text text-anchor="middle" x="118" y="-7.5" font-family="Helvetica,sans-Serif" font-size="10.00" fill="#000000">tracer::FancyPrinter</text>
</g>
<!-- Node6 -->
<g id="node2" class="node">
<title>Node6</title>
<g id="a_node2"><a xlink:href="classtracer_1_1_file_printer.html" target="_top" xlink:title="Prints file contents when line information is avaliable in the frame. ">
<polygon fill="none" stroke="#000000" points="0,-57.5 0,-76.5 100,-76.5 100,-57.5 0,-57.5"/>
<text text-anchor="middle" x="50" y="-64.5" font-family="Helvetica,sans-Serif" font-size="10.00" fill="#000000">tracer::FilePrinter</text>
</a>
</g>
</g>
<!-- Node6&#45;&gt;Node5 -->
<g id="edge1" class="edge">
<title>Node6&#45;&gt;Node5</title>
<path fill="none" stroke="#191970" d="M69.2966,-50.8249C81.3546,-40.7175 96.4686,-28.0484 106.6351,-19.5265"/>
<polygon fill="#191970" stroke="#191970" points="66.9506,-48.2244 61.5353,-57.3307 71.4474,-53.589 66.9506,-48.2244"/>
</g>
<!-- Node7 -->
<g id="node3" class="node">
<title>Node7</title>
<g id="a_node3"><a xlink:href="classtracer_1_1_default_printer.html" target="_top" xlink:title="Gnerates strings from the frame structure. ">
<polygon fill="none" stroke="#000000" points="58.5,-114.5 58.5,-133.5 177.5,-133.5 177.5,-114.5 58.5,-114.5"/>
<text text-anchor="middle" x="118" y="-121.5" font-family="Helvetica,sans-Serif" font-size="10.00" fill="#000000">tracer::DefaultPrinter</text>
</a>
</g>
</g>
<!-- Node7&#45;&gt;Node6 -->
<g id="edge2" class="edge">
<title>Node7&#45;&gt;Node6</title>
<path fill="none" stroke="#191970" d="M98.7034,-107.8249C86.6454,-97.7175 71.5314,-85.0484 61.3649,-76.5265"/>
<polygon fill="#191970" stroke="#191970" points="96.5526,-110.589 106.4647,-114.3307 101.0494,-105.2244 96.5526,-110.589"/>
</g>
<!-- Node10 -->
<g id="node6" class="node">
<title>Node10</title>
<g id="a_node6"><a xlink:href="classtracer_1_1_system_info_printer.html" target="_top" xlink:title="Prints additional information before the first stack frame. ">
<polygon fill="none" stroke="#000000" points="118.5,-57.5 118.5,-76.5 257.5,-76.5 257.5,-57.5 118.5,-57.5"/>
<text text-anchor="middle" x="188" y="-64.5" font-family="Helvetica,sans-Serif" font-size="10.00" fill="#000000">tracer::SystemInfoPrinter</text>
</a>
</g>
</g>
<!-- Node7&#45;&gt;Node10 -->
<g id="edge6" class="edge">
<title>Node7&#45;&gt;Node10</title>
<path fill="none" stroke="#191970" d="M137.8641,-107.8249C150.2768,-97.7175 165.8353,-85.0484 176.3008,-76.5265"/>
<polygon fill="#191970" stroke="#191970" points="135.4189,-105.3024 129.8745,-114.3307 139.8389,-110.7305 135.4189,-105.3024"/>
</g>
<!-- Node8 -->
<g id="node4" class="node">
<title>Node8</title>
<g id="a_node4"><a xlink:href="classtracer_1_1_abstract_printer.html" target="_top" xlink:title="Basic class for all printers. ">
<polygon fill="none" stroke="#000000" points="56,-171.5 56,-190.5 180,-190.5 180,-171.5 56,-171.5"/>
<text text-anchor="middle" x="118" y="-178.5" font-family="Helvetica,sans-Serif" font-size="10.00" fill="#000000">tracer::AbstractPrinter</text>
</a>
</g>
</g>
<!-- Node8&#45;&gt;Node7 -->
<g id="edge3" class="edge">
<title>Node8&#45;&gt;Node7</title>
<path fill="none" stroke="#191970" d="M118,-161.2342C118,-151.8491 118,-141.0651 118,-133.5265"/>
<polygon fill="#191970" stroke="#191970" points="114.5001,-161.3307 118,-171.3307 121.5001,-161.3308 114.5001,-161.3307"/>
</g>
<!-- Node9 -->
<g id="node5" class="node">
<title>Node9</title>
<g id="a_node5"><a xlink:href="classtracer_1_1_tracer.html" target="_top" xlink:title="Backtrace generator. ">
<polygon fill="none" stroke="#000000" points="78,-238.5 78,-257.5 158,-257.5 158,-238.5 78,-238.5"/>
<text text-anchor="middle" x="118" y="-245.5" font-family="Helvetica,sans-Serif" font-size="10.00" fill="#000000">tracer::Tracer</text>
</a>
</g>
</g>
<!-- Node9&#45;&gt;Node8 -->
<g id="edge4" class="edge">
<title>Node9&#45;&gt;Node8</title>
<path fill="none" stroke="#9a32cd" stroke-dasharray="5,2" d="M118,-228.1079C118,-215.714 118,-200.3263 118,-190.5817"/>
<polygon fill="#9a32cd" stroke="#9a32cd" points="114.5001,-228.4005 118,-238.4005 121.5001,-228.4006 114.5001,-228.4005"/>
<text text-anchor="middle" x="132" y="-212" font-family="Helvetica,sans-Serif" font-size="10.00" fill="#000000"> trace</text>
</g>
<!-- Node10&#45;&gt;Node5 -->
<g id="edge5" class="edge">
<title>Node10&#45;&gt;Node5</title>
<path fill="none" stroke="#191970" d="M168.1359,-50.8249C155.7232,-40.7175 140.1647,-28.0484 129.6992,-19.5265"/>
<polygon fill="#191970" stroke="#191970" points="166.1611,-53.7305 176.1255,-57.3307 170.5811,-48.3024 166.1611,-53.7305"/>
</g>
</g>
</svg>
