<?xml version="1.0" encoding="UTF-8" standalone="no"?>
<!DOCTYPE svg PUBLIC "-//W3C//DTD SVG 1.1//EN"
 "http://www.w3.org/Graphics/SVG/1.1/DTD/svg11.dtd">
<!-- Generated by graphviz version 2.40.1 (20161225.0304)
 -->
<!-- Title: tracer::Tracer::trace Pages: 1 -->
<svg width="423pt" height="91pt"
 viewBox="0.00 0.00 423.00 91.00" xmlns="http://www.w3.org/2000/svg" xmlns:xlink="http://www.w3.org/1999/xlink">
<g id="graph0" class="graph" transform="scale(1 1) rotate(0) translate(4 87)">
<title>tracer::Tracer::trace</title>
<!-- Node5 -->
<g id="node1" class="node">
<title>Node5</title>
<polygon fill="#bfbfbf" stroke="#000000" points="0,-41.5 0,-60.5 111,-60.5 111,-41.5 0,-41.5"/>
<text text-anchor="middle" x="55.5" y="-48.5" font-family="Helvetica,sans-Serif" font-size="10.00" fill="#000000">tracer::Tracer::trace</text>
</g>
<!-- Node6 -->
<g id="node2" class="node">
<title>Node6</title>
<g id="a_node2"><a xlink:href="tracer_8h.html#a888ca5cb9059f17addb6428c005bbe8c" target="_top" xlink:title="Wrapper for tracer::Tracer::trace. ">
<polygon fill="none" stroke="#000000" points="159.5,-63.5 159.5,-82.5 253.5,-82.5 253.5,-63.5 159.5,-63.5"/>
<text text-anchor="middle" x="206.5" y="-70.5" font-family="Helvetica,sans-Serif" font-size="10.00" fill="#000000">tr_Tracer__trace</text>
</a>
</g>
</g>
<!-- Node5&#45;&gt;Node6 -->
<g id="edge1" class="edge">
<title>Node5&#45;&gt;Node6</title>
<path fill="none" stroke="#191970" d="M121.4292,-60.6056C134.197,-62.4658 147.3359,-64.3801 159.3535,-66.131"/>
<polygon fill="#191970" stroke="#191970" points="121.698,-57.1079 111.2978,-59.1295 120.6887,-64.0347 121.698,-57.1079"/>
</g>
<!-- Node7 -->
<g id="node3" class="node">
<title>Node7</title>
<g id="a_node3"><a xlink:href="classtracer_1_1_tracer_handler.html#a7d109d22f3dd18bebb8bf2ae9122fe7f" target="_top" xlink:title="Returns a pointer to the TracerHandler object. ">
<polygon fill="none" stroke="#000000" points="147,-14 147,-44 266,-44 266,-14 147,-14"/>
<text text-anchor="start" x="155" y="-32" font-family="Helvetica,sans-Serif" font-size="10.00" fill="#000000">tracer::TracerHandler</text>
<text text-anchor="middle" x="206.5" y="-21" font-family="Helvetica,sans-Serif" font-size="10.00" fill="#000000">::getTracer</text>
</a>
</g>
</g>
<!-- Node5&#45;&gt;Node7 -->
<g id="edge2" class="edge">
<title>Node5&#45;&gt;Node7</title>
<path fill="none" stroke="#191970" d="M121.2114,-41.4262C129.7455,-40.1828 138.4493,-38.9147 146.8767,-37.6868"/>
<polygon fill="#191970" stroke="#191970" points="120.6887,-37.9653 111.2978,-42.8705 121.698,-44.8921 120.6887,-37.9653"/>
</g>
<!-- Node8 -->
<g id="node4" class="node">
<title>Node8</title>
<g id="a_node4"><a xlink:href="tracer_8h.html#a974132af1f7d60eb2d36060b1e735f37" target="_top" xlink:title="Runs tracer::TracerHandler::getTracer()&#45;&gt;defaultSetup();. ">
<polygon fill="none" stroke="#000000" points="312.5,-38.5 312.5,-57.5 404.5,-57.5 404.5,-38.5 312.5,-38.5"/>
<text text-anchor="middle" x="358.5" y="-45.5" font-family="Helvetica,sans-Serif" font-size="10.00" fill="#000000">tr_defaultSetup</text>
</a>
</g>
</g>
<!-- Node7&#45;&gt;Node8 -->
<g id="edge3" class="edge">
<title>Node7&#45;&gt;Node8</title>
<path fill="none" stroke="#191970" d="M276.2868,-37.7233C288.4614,-39.2452 300.8501,-40.7938 312.1919,-42.2115"/>
<polygon fill="#191970" stroke="#191970" points="276.4951,-34.2222 266.1382,-36.4548 275.6268,-41.1682 276.4951,-34.2222"/>
</g>
<!-- Node9 -->
<g id="node5" class="node">
<title>Node9</title>
<g id="a_node5"><a xlink:href="tracer_8h.html#a4df78184a82c30a8530327e8e977271e" target="_top" xlink:title="Retunrns the handler as a private c struct. ">
<polygon fill="none" stroke="#000000" points="302,-.5 302,-19.5 415,-19.5 415,-.5 302,-.5"/>
<text text-anchor="middle" x="358.5" y="-7.5" font-family="Helvetica,sans-Serif" font-size="10.00" fill="#000000">tr_getTracerHandler</text>
</a>
</g>
</g>
<!-- Node7&#45;&gt;Node9 -->
<g id="edge4" class="edge">
<title>Node7&#45;&gt;Node9</title>
<path fill="none" stroke="#191970" d="M276.0645,-20.3044C284.5849,-19.2394 293.2139,-18.1608 301.5191,-17.1226"/>
<polygon fill="#191970" stroke="#191970" points="275.6268,-16.8318 266.1382,-21.5452 276.4951,-23.7778 275.6268,-16.8318"/>
</g>
</g>
</svg>
