<?xml version="1.0" encoding="UTF-8" standalone="no"?>
<!DOCTYPE svg PUBLIC "-//W3C//DTD SVG 1.1//EN"
 "http://www.w3.org/Graphics/SVG/1.1/DTD/svg11.dtd">
<!-- Generated by graphviz version 2.40.1 (20161225.0304)
 -->
<!-- Title: tracer::Tracer::trace Pages: 1 -->
<svg width="297pt" height="88pt"
 viewBox="0.00 0.00 297.00 88.00" xmlns="http://www.w3.org/2000/svg" xmlns:xlink="http://www.w3.org/1999/xlink">
<g id="graph0" class="graph" transform="scale(1 1) rotate(0) translate(4 84)">
<title>tracer::Tracer::trace</title>
<!-- Node2 -->
<g id="node1" class="node">
<title>Node2</title>
<polygon fill="#bfbfbf" stroke="#000000" points="0,-30 0,-49 111,-49 111,-30 0,-30"/>
<text text-anchor="middle" x="55.5" y="-37" font-family="Helvetica,sans-Serif" font-size="10.00" fill="#000000">tracer::Tracer::trace</text>
</g>
<!-- Node3 -->
<g id="node2" class="node">
<title>Node3</title>
<g id="a_node2"><a xlink:href="classtracer_1_1_abstract_tracer.html#a5639ae164714fe080045f22f33f63dec" target="_top" xlink:title="Generates the backtrace. ">
<polygon fill="none" stroke="#000000" points="157.5,-49.5 157.5,-79.5 278.5,-79.5 278.5,-49.5 157.5,-49.5"/>
<text text-anchor="start" x="165.5" y="-67.5" font-family="Helvetica,sans-Serif" font-size="10.00" fill="#000000">tracer::AbstractTracer</text>
<text text-anchor="middle" x="218" y="-56.5" font-family="Helvetica,sans-Serif" font-size="10.00" fill="#000000">::backtrace</text>
</a>
</g>
</g>
<!-- Node2&#45;&gt;Node3 -->
<g id="edge1" class="edge">
<title>Node2&#45;&gt;Node3</title>
<path fill="none" stroke="#191970" d="M111.4233,-48.1036C122.9709,-49.8801 135.277,-51.7734 147.2719,-53.6187"/>
<polygon fill="#191970" stroke="#191970" points="146.8349,-57.0926 157.2509,-55.154 147.8994,-50.174 146.8349,-57.0926"/>
</g>
<!-- Node4 -->
<g id="node3" class="node">
<title>Node4</title>
<g id="a_node3"><a xlink:href="classtracer_1_1_abstract_debug_info.html#a7a851d1aaf189e90888b807bd306da52" target="_top" xlink:title="Generates the debug information. ">
<polygon fill="none" stroke="#000000" points="147,-.5 147,-30.5 289,-30.5 289,-.5 147,-.5"/>
<text text-anchor="start" x="155" y="-18.5" font-family="Helvetica,sans-Serif" font-size="10.00" fill="#000000">tracer::AbstractDebugInfo</text>
<text text-anchor="middle" x="218" y="-7.5" font-family="Helvetica,sans-Serif" font-size="10.00" fill="#000000">::processFrames</text>
</a>
</g>
</g>
<!-- Node2&#45;&gt;Node4 -->
<g id="edge2" class="edge">
<title>Node2&#45;&gt;Node4</title>
<path fill="none" stroke="#191970" d="M111.4233,-31.2406C119.6056,-30.0321 128.1687,-28.7674 136.7321,-27.5026"/>
<polygon fill="#191970" stroke="#191970" points="137.3808,-30.9449 146.7621,-26.0213 136.358,-24.02 137.3808,-30.9449"/>
</g>
</g>
</svg>
