<?xml version="1.0" encoding="UTF-8" standalone="no"?>
<!DOCTYPE svg PUBLIC "-//W3C//DTD SVG 1.1//EN"
 "http://www.w3.org/Graphics/SVG/1.1/DTD/svg11.dtd">
<!-- Generated by graphviz version 2.40.1 (20161225.0304)
 -->
<!-- Title: Graphical Class Hierarchy Pages: 1 -->
<svg width="328pt" height="192pt"
 viewBox="0.00 0.00 328.00 192.00" xmlns="http://www.w3.org/2000/svg" xmlns:xlink="http://www.w3.org/1999/xlink">
<g id="graph0" class="graph" transform="scale(1 1) rotate(0) translate(4 188)">
<title>Graphical Class Hierarchy</title>
<!-- Node0 -->
<g id="node1" class="node">
<title>Node0</title>
<g id="a_node1"><a xlink:href="classtracer_1_1_abstract_debug_info.html" target="_top" xlink:title="Base class for all debug information generators. ">
<polygon fill="none" stroke="#000000" points="0,-88.5 0,-107.5 142,-107.5 142,-88.5 0,-88.5"/>
<text text-anchor="middle" x="71" y="-95.5" font-family="Helvetica,sans-Serif" font-size="10.00" fill="#000000">tracer::AbstractDebugInfo</text>
</a>
</g>
</g>
<!-- Node1 -->
<g id="node2" class="node">
<title>Node1</title>
<g id="a_node2"><a xlink:href="classtracer_1_1_debug_info_b_f_d.html" target="_top" xlink:title="Generates debug information using libbfd. ">
<polygon fill="none" stroke="#000000" points="188.5,-164.5 188.5,-183.5 309.5,-183.5 309.5,-164.5 188.5,-164.5"/>
<text text-anchor="middle" x="249" y="-171.5" font-family="Helvetica,sans-Serif" font-size="10.00" fill="#000000">tracer::DebugInfoBFD</text>
</a>
</g>
</g>
<!-- Node0&#45;&gt;Node1 -->
<g id="edge1" class="edge">
<title>Node0&#45;&gt;Node1</title>
<path fill="none" stroke="#191970" d="M95.0729,-112.8765C116.2769,-125.474 148.3203,-143.301 178,-155 187.1408,-158.6031 197.2062,-161.7576 206.8129,-164.4074"/>
<polygon fill="#191970" stroke="#191970" points="96.787,-109.8231 86.4144,-107.6643 93.1768,-115.8203 96.787,-109.8231"/>
</g>
<!-- Node2 -->
<g id="node3" class="node">
<title>Node2</title>
<g id="a_node3"><a xlink:href="classtracer_1_1_debug_info_dummy.html" target="_top" xlink:title="Dummy debug information &quot;generator&quot;. ">
<polygon fill="none" stroke="#000000" points="179,-126.5 179,-145.5 319,-145.5 319,-126.5 179,-126.5"/>
<text text-anchor="middle" x="249" y="-133.5" font-family="Helvetica,sans-Serif" font-size="10.00" fill="#000000">tracer::DebugInfoDummy</text>
</a>
</g>
</g>
<!-- Node0&#45;&gt;Node2 -->
<g id="edge2" class="edge">
<title>Node0&#45;&gt;Node2</title>
<path fill="none" stroke="#191970" d="M125.7162,-109.681C150.959,-115.0699 180.5452,-121.3861 204.4061,-126.4799"/>
<polygon fill="#191970" stroke="#191970" points="126.4273,-106.254 115.9169,-107.589 124.9658,-113.0997 126.4273,-106.254"/>
</g>
<!-- Node3 -->
<g id="node4" class="node">
<title>Node3</title>
<g id="a_node4"><a xlink:href="classtracer_1_1_debug_info_d_w_f_l.html" target="_top" xlink:title="Debug information generator based on libdwfl. ">
<polygon fill="none" stroke="#000000" points="184.5,-88.5 184.5,-107.5 313.5,-107.5 313.5,-88.5 184.5,-88.5"/>
<text text-anchor="middle" x="249" y="-95.5" font-family="Helvetica,sans-Serif" font-size="10.00" fill="#000000">tracer::DebugInfoDWFL</text>
</a>
</g>
</g>
<!-- Node0&#45;&gt;Node3 -->
<g id="edge3" class="edge">
<title>Node0&#45;&gt;Node3</title>
<path fill="none" stroke="#191970" d="M152.3361,-98C163.0632,-98 173.94,-98 184.3367,-98"/>
<polygon fill="#191970" stroke="#191970" points="152.1177,-94.5001 142.1177,-98 152.1177,-101.5001 152.1177,-94.5001"/>
</g>
<!-- Node4 -->
<g id="node5" class="node">
<title>Node4</title>
<g id="a_node5"><a xlink:href="classtracer_1_1_debug_info_external_fallback.html" target="_top" xlink:title="Uses the addr2line system tool (hopefully) installed on the system. ">
<polygon fill="none" stroke="#000000" points="178,-39 178,-69 320,-69 320,-39 178,-39"/>
<text text-anchor="start" x="186" y="-57" font-family="Helvetica,sans-Serif" font-size="10.00" fill="#000000">tracer::DebugInfoExternal</text>
<text text-anchor="middle" x="249" y="-46" font-family="Helvetica,sans-Serif" font-size="10.00" fill="#000000">Fallback</text>
</a>
</g>
</g>
<!-- Node0&#45;&gt;Node4 -->
<g id="edge4" class="edge">
<title>Node0&#45;&gt;Node4</title>
<path fill="none" stroke="#191970" d="M119.3636,-86.045C140.5381,-80.8108 165.6203,-74.6107 188.0538,-69.0654"/>
<polygon fill="#191970" stroke="#191970" points="118.4912,-82.6552 109.6233,-88.4527 120.1711,-89.4506 118.4912,-82.6552"/>
</g>
<!-- Node5 -->
<g id="node6" class="node">
<title>Node5</title>
<g id="a_node6"><a xlink:href="classtracer_1_1_debug_info_w_i_n32.html" target="_top" xlink:title="Debug indormation based on the WIN32 API. ">
<polygon fill="none" stroke="#000000" points="182,-.5 182,-19.5 316,-19.5 316,-.5 182,-.5"/>
<text text-anchor="middle" x="249" y="-7.5" font-family="Helvetica,sans-Serif" font-size="10.00" fill="#000000">tracer::DebugInfoWIN32</text>
</a>
</g>
</g>
<!-- Node0&#45;&gt;Node5 -->
<g id="edge5" class="edge">
<title>Node0&#45;&gt;Node5</title>
<path fill="none" stroke="#191970" d="M91.5852,-82.3328C112.4065,-67.1257 146,-44.3038 178,-30 187.2361,-25.8715 197.5331,-22.3865 207.3568,-19.5409"/>
<polygon fill="#191970" stroke="#191970" points="89.4348,-79.5701 83.4856,-88.337 93.6034,-85.1935 89.4348,-79.5701"/>
</g>
</g>
</svg>
