<?xml version="1.0" encoding="UTF-8" standalone="no"?>
<!DOCTYPE svg PUBLIC "-//W3C//DTD SVG 1.1//EN"
 "http://www.w3.org/Graphics/SVG/1.1/DTD/svg11.dtd">
<!-- Generated by graphviz version 2.40.1 (20161225.0304)
 -->
<!-- Title: Graphical Class Hierarchy Pages: 1 -->
<svg width="296pt" height="142pt"
 viewBox="0.00 0.00 296.00 142.00" xmlns="http://www.w3.org/2000/svg" xmlns:xlink="http://www.w3.org/1999/xlink">
<g id="graph0" class="graph" transform="scale(1 1) rotate(0) translate(4 138)">
<title>Graphical Class Hierarchy</title>
<!-- Node0 -->
<g id="node1" class="node">
<title>Node0</title>
<g id="a_node1"><a xlink:href="classtracer_1_1_abstract_tracer.html" target="_top" xlink:title="Base class / interface of all tracers. ">
<polygon fill="none" stroke="#000000" points="0,-57.5 0,-76.5 121,-76.5 121,-57.5 0,-57.5"/>
<text text-anchor="middle" x="60.5" y="-64.5" font-family="Helvetica,sans-Serif" font-size="10.00" fill="#000000">tracer::AbstractTracer</text>
</a>
</g>
</g>
<!-- Node1 -->
<g id="node2" class="node">
<title>Node1</title>
<g id="a_node2"><a xlink:href="classtracer_1_1_dummy_tracer.html" target="_top" xlink:title="This tracer does nothing. ">
<polygon fill="none" stroke="#000000" points="163,-114.5 163,-133.5 282,-133.5 282,-114.5 163,-114.5"/>
<text text-anchor="middle" x="222.5" y="-121.5" font-family="Helvetica,sans-Serif" font-size="10.00" fill="#000000">tracer::DummyTracer</text>
</a>
</g>
</g>
<!-- Node0&#45;&gt;Node1 -->
<g id="edge1" class="edge">
<title>Node0&#45;&gt;Node1</title>
<path fill="none" stroke="#191970" d="M92.3919,-80.4202C111.0634,-88.06 135.1876,-97.5596 157,-105 166.7495,-108.3256 177.4372,-111.5852 187.2994,-114.4396"/>
<polygon fill="#191970" stroke="#191970" points="93.4773,-77.0819 82.8982,-76.5041 90.808,-83.553 93.4773,-77.0819"/>
</g>
<!-- Node2 -->
<g id="node3" class="node">
<title>Node2</title>
<g id="a_node3"><a xlink:href="classtracer_1_1_glib_c_tracer.html" target="_top" xlink:title="Tracer based on glibc&#39;s backtrace (execinfo.h) ">
<polygon fill="none" stroke="#000000" points="169,-76.5 169,-95.5 276,-95.5 276,-76.5 169,-76.5"/>
<text text-anchor="middle" x="222.5" y="-83.5" font-family="Helvetica,sans-Serif" font-size="10.00" fill="#000000">tracer::GlibCTracer</text>
</a>
</g>
</g>
<!-- Node0&#45;&gt;Node2 -->
<g id="edge2" class="edge">
<title>Node0&#45;&gt;Node2</title>
<path fill="none" stroke="#191970" d="M131.2888,-75.3024C143.8834,-76.7795 156.8127,-78.2959 168.8323,-79.7056"/>
<polygon fill="#191970" stroke="#191970" points="131.6234,-71.8177 121.2837,-74.129 130.8079,-78.7701 131.6234,-71.8177"/>
</g>
<!-- Node3 -->
<g id="node4" class="node">
<title>Node3</title>
<g id="a_node4"><a xlink:href="classtracer_1_1_lib_unwind_tracer.html" target="_top" xlink:title="Backtrace generator based on libunwind. ">
<polygon fill="none" stroke="#000000" points="157,-38.5 157,-57.5 288,-57.5 288,-38.5 157,-38.5"/>
<text text-anchor="middle" x="222.5" y="-45.5" font-family="Helvetica,sans-Serif" font-size="10.00" fill="#000000">tracer::LibUnwindTracer</text>
</a>
</g>
</g>
<!-- Node0&#45;&gt;Node3 -->
<g id="edge3" class="edge">
<title>Node0&#45;&gt;Node3</title>
<path fill="none" stroke="#191970" d="M131.4501,-58.6787C139.8648,-57.6918 148.4266,-56.6876 156.7644,-55.7097"/>
<polygon fill="#191970" stroke="#191970" points="130.8079,-55.2299 121.2837,-59.871 131.6234,-62.1823 130.8079,-55.2299"/>
</g>
<!-- Node4 -->
<g id="node5" class="node">
<title>Node4</title>
<g id="a_node5"><a xlink:href="classtracer_1_1_win32_tracer.html" target="_top" xlink:title="Backtrace generator for the WIN32 API. ">
<polygon fill="none" stroke="#000000" points="167,-.5 167,-19.5 278,-19.5 278,-.5 167,-.5"/>
<text text-anchor="middle" x="222.5" y="-7.5" font-family="Helvetica,sans-Serif" font-size="10.00" fill="#000000">tracer::Win32Tracer</text>
</a>
</g>
</g>
<!-- Node0&#45;&gt;Node4 -->
<g id="edge4" class="edge">
<title>Node0&#45;&gt;Node4</title>
<path fill="none" stroke="#191970" d="M92.3919,-53.5798C111.0634,-45.94 135.1876,-36.4404 157,-29 166.7495,-25.6744 177.4372,-22.4148 187.2994,-19.5604"/>
<polygon fill="#191970" stroke="#191970" points="90.808,-50.447 82.8982,-57.4959 93.4773,-56.9181 90.808,-50.447"/>
</g>
</g>
</svg>
