<?xml version="1.0" encoding="UTF-8" standalone="no"?>
<!DOCTYPE svg PUBLIC "-//W3C//DTD SVG 1.1//EN"
 "http://www.w3.org/Graphics/SVG/1.1/DTD/svg11.dtd">
<!-- Generated by graphviz version 2.40.1 (20161225.0304)
 -->
<!-- Title: Graphical Class Hierarchy Pages: 1 -->
<svg width="609pt" height="66pt"
 viewBox="0.00 0.00 609.00 66.00" xmlns="http://www.w3.org/2000/svg" xmlns:xlink="http://www.w3.org/1999/xlink">
<g id="graph0" class="graph" transform="scale(1 1) rotate(0) translate(4 62)">
<title>Graphical Class Hierarchy</title>
<!-- Node0 -->
<g id="node1" class="node">
<title>Node0</title>
<g id="a_node1"><a xlink:href="classtracer_1_1_abstract_printer.html" target="_top" xlink:title="Basic class for all printers. ">
<polygon fill="none" stroke="#000000" points="0,-19.5 0,-38.5 124,-38.5 124,-19.5 0,-19.5"/>
<text text-anchor="middle" x="62" y="-26.5" font-family="Helvetica,sans-Serif" font-size="10.00" fill="#000000">tracer::AbstractPrinter</text>
</a>
</g>
</g>
<!-- Node1 -->
<g id="node2" class="node">
<title>Node1</title>
<g id="a_node2"><a xlink:href="classtracer_1_1_default_printer.html" target="_top" xlink:title="Gnerates strings from the frame structure. ">
<polygon fill="none" stroke="#000000" points="160,-19.5 160,-38.5 279,-38.5 279,-19.5 160,-19.5"/>
<text text-anchor="middle" x="219.5" y="-26.5" font-family="Helvetica,sans-Serif" font-size="10.00" fill="#000000">tracer::DefaultPrinter</text>
</a>
</g>
</g>
<!-- Node0&#45;&gt;Node1 -->
<g id="edge1" class="edge">
<title>Node0&#45;&gt;Node1</title>
<path fill="none" stroke="#191970" d="M134.4899,-29C142.9474,-29 151.5017,-29 159.7595,-29"/>
<polygon fill="#191970" stroke="#191970" points="134.2482,-25.5001 124.2482,-29 134.2481,-32.5001 134.2482,-25.5001"/>
</g>
<!-- Node2 -->
<g id="node3" class="node">
<title>Node2</title>
<g id="a_node3"><a xlink:href="classtracer_1_1_file_printer.html" target="_top" xlink:title="Prints file contents when line information is avaliable in the frame. ">
<polygon fill="none" stroke="#000000" points="334.5,-38.5 334.5,-57.5 434.5,-57.5 434.5,-38.5 334.5,-38.5"/>
<text text-anchor="middle" x="384.5" y="-45.5" font-family="Helvetica,sans-Serif" font-size="10.00" fill="#000000">tracer::FilePrinter</text>
</a>
</g>
</g>
<!-- Node1&#45;&gt;Node2 -->
<g id="edge2" class="edge">
<title>Node1&#45;&gt;Node2</title>
<path fill="none" stroke="#191970" d="M289.3889,-37.0478C304.4654,-38.7839 320.1174,-40.5862 334.2664,-42.2155"/>
<polygon fill="#191970" stroke="#191970" points="289.4036,-33.5265 279.0688,-35.8594 288.6027,-40.4805 289.4036,-33.5265"/>
</g>
<!-- Node4 -->
<g id="node5" class="node">
<title>Node4</title>
<g id="a_node5"><a xlink:href="classtracer_1_1_system_info_printer.html" target="_top" xlink:title="Prints additional information before the first stack frame. ">
<polygon fill="none" stroke="#000000" points="315,-.5 315,-19.5 454,-19.5 454,-.5 315,-.5"/>
<text text-anchor="middle" x="384.5" y="-7.5" font-family="Helvetica,sans-Serif" font-size="10.00" fill="#000000">tracer::SystemInfoPrinter</text>
</a>
</g>
</g>
<!-- Node1&#45;&gt;Node4 -->
<g id="edge4" class="edge">
<title>Node1&#45;&gt;Node4</title>
<path fill="none" stroke="#191970" d="M289.0162,-20.9951C297.5845,-20.0085 306.3444,-18.9997 314.9137,-18.013"/>
<polygon fill="#191970" stroke="#191970" points="288.6027,-17.5195 279.0688,-22.1406 289.4036,-24.4735 288.6027,-17.5195"/>
</g>
<!-- Node5 -->
<g id="node4" class="node">
<title>Node5</title>
<g id="a_node4"><a xlink:href="classtracer_1_1_fancy_printer.html" target="_top" xlink:title="Wrapper for both FilePrinter and SystemInfoPrinter. ">
<polygon fill="none" stroke="#000000" points="490,-19.5 490,-38.5 601,-38.5 601,-19.5 490,-19.5"/>
<text text-anchor="middle" x="545.5" y="-26.5" font-family="Helvetica,sans-Serif" font-size="10.00" fill="#000000">tracer::FancyPrinter</text>
</a>
</g>
</g>
<!-- Node2&#45;&gt;Node5 -->
<g id="edge3" class="edge">
<title>Node2&#45;&gt;Node5</title>
<path fill="none" stroke="#191970" d="M444.6358,-40.9032C459.4578,-39.154 475.2657,-37.2885 489.864,-35.5657"/>
<polygon fill="#191970" stroke="#191970" points="444.0797,-37.4445 434.5589,-42.0924 444.9002,-44.3962 444.0797,-37.4445"/>
</g>
<!-- Node4&#45;&gt;Node5 -->
<g id="edge5" class="edge">
<title>Node4&#45;&gt;Node5</title>
<path fill="none" stroke="#191970" d="M464.2719,-19.4141C472.8927,-20.4314 481.5247,-21.4501 489.7723,-22.4234"/>
<polygon fill="#191970" stroke="#191970" points="464.5219,-15.9194 454.1806,-18.2232 463.7014,-22.8711 464.5219,-15.9194"/>
</g>
</g>
</svg>
