<?xml version="1.0" encoding="UTF-8" standalone="no"?>
<!DOCTYPE svg PUBLIC "-//W3C//DTD SVG 1.1//EN"
 "http://www.w3.org/Graphics/SVG/1.1/DTD/svg11.dtd">
<!-- Generated by graphviz version 2.40.1 (20161225.0304)
 -->
<!-- Title: tracer::Frame Pages: 1 -->
<svg width="127pt" height="185pt"
 viewBox="0.00 0.00 127.00 185.00" xmlns="http://www.w3.org/2000/svg" xmlns:xlink="http://www.w3.org/1999/xlink">
<g id="graph0" class="graph" transform="scale(1 1) rotate(0) translate(4 181)">
<title>tracer::Frame</title>
<!-- Node1 -->
<g id="node1" class="node">
<title>Node1</title>
<polygon fill="#bfbfbf" stroke="#000000" points="11.5,-.5 11.5,-19.5 92.5,-19.5 92.5,-.5 11.5,-.5"/>
<text text-anchor="middle" x="52" y="-7.5" font-family="Helvetica,sans-Serif" font-size="10.00" fill="#000000">tracer::Frame</text>
</g>
<!-- Node2 -->
<g id="node2" class="node">
<title>Node2</title>
<g id="a_node2"><a xlink:title="STL class. ">
<polygon fill="none" stroke="#bfbfbf" points="19.5,-89.5 19.5,-108.5 84.5,-108.5 84.5,-89.5 19.5,-89.5"/>
<text text-anchor="middle" x="52" y="-96.5" font-family="Helvetica,sans-Serif" font-size="10.00" fill="#000000">std::string</text>
</a>
</g>
</g>
<!-- Node2&#45;&gt;Node1 -->
<g id="edge1" class="edge">
<title>Node2&#45;&gt;Node1</title>
<path fill="none" stroke="#9a32cd" stroke-dasharray="5,2" d="M52,-79.2379C52,-60.7654 52,-33.957 52,-19.7259"/>
<polygon fill="#9a32cd" stroke="#9a32cd" points="48.5001,-79.4754 52,-89.4754 55.5001,-79.4755 48.5001,-79.4754"/>
<text text-anchor="middle" x="85.5" y="-63" font-family="Helvetica,sans-Serif" font-size="10.00" fill="#000000"> funcName</text>
<text text-anchor="middle" x="85.5" y="-52" font-family="Helvetica,sans-Serif" font-size="10.00" fill="#000000">moduleName</text>
<text text-anchor="middle" x="85.5" y="-41" font-family="Helvetica,sans-Serif" font-size="10.00" fill="#000000">fileName</text>
</g>
<!-- Node3 -->
<g id="node3" class="node">
<title>Node3</title>
<g id="a_node3"><a xlink:title="STL class. ">
<polygon fill="none" stroke="#bfbfbf" points="0,-146.5 0,-176.5 104,-176.5 104,-146.5 0,-146.5"/>
<text text-anchor="start" x="8" y="-164.5" font-family="Helvetica,sans-Serif" font-size="10.00" fill="#000000">std::basic_string&lt;</text>
<text text-anchor="middle" x="52" y="-153.5" font-family="Helvetica,sans-Serif" font-size="10.00" fill="#000000"> char &gt;</text>
</a>
</g>
</g>
<!-- Node3&#45;&gt;Node2 -->
<g id="edge2" class="edge">
<title>Node3&#45;&gt;Node2</title>
<path fill="none" stroke="#191970" d="M52,-136.3498C52,-126.6481 52,-116.1303 52,-108.7356"/>
<polygon fill="#191970" stroke="#191970" points="48.5001,-136.3705 52,-146.3705 55.5001,-136.3705 48.5001,-136.3705"/>
</g>
</g>
</svg>
