<?xml version="1.0" encoding="UTF-8" standalone="no"?>
<!DOCTYPE svg PUBLIC "-//W3C//DTD SVG 1.1//EN"
 "http://www.w3.org/Graphics/SVG/1.1/DTD/svg11.dtd">
<!-- Generated by graphviz version 2.40.1 (20161225.0304)
 -->
<!-- Title: tracer::TracerHandler::Config Pages: 1 -->
<svg width="614pt" height="180pt"
 viewBox="0.00 0.00 614.00 180.00" xmlns="http://www.w3.org/2000/svg" xmlns:xlink="http://www.w3.org/1999/xlink">
<g id="graph0" class="graph" transform="scale(1 1) rotate(0) translate(4 176)">
<title>tracer::TracerHandler::Config</title>
<!-- Node1 -->
<g id="node1" class="node">
<title>Node1</title>
<polygon fill="#bfbfbf" stroke="#000000" points="487,-71 487,-101 606,-101 606,-71 487,-71"/>
<text text-anchor="start" x="495" y="-89" font-family="Helvetica,sans-Serif" font-size="10.00" fill="#000000">tracer::TracerHandler</text>
<text text-anchor="middle" x="546.5" y="-78" font-family="Helvetica,sans-Serif" font-size="10.00" fill="#000000">::Config</text>
</g>
<!-- Node2 -->
<g id="node2" class="node">
<title>Node2</title>
<polygon fill="none" stroke="#bfbfbf" points="141,-152.5 141,-171.5 317,-171.5 317,-152.5 141,-152.5"/>
<text text-anchor="middle" x="229" y="-159.5" font-family="Helvetica,sans-Serif" font-size="10.00" fill="#000000">std::vector&lt; DebuggerEngines &gt;</text>
</g>
<!-- Node2&#45;&gt;Node1 -->
<g id="edge1" class="edge">
<title>Node2&#45;&gt;Node1</title>
<path fill="none" stroke="#9a32cd" stroke-dasharray="5,2" d="M327.3672,-157.4216C371.5581,-153.2109 423.8128,-145.1984 469,-130 489.2375,-123.1933 510.177,-110.9392 525.1809,-101.0886"/>
<polygon fill="#9a32cd" stroke="#9a32cd" points="326.8401,-153.9548 317.1945,-158.338 327.4682,-160.9266 326.8401,-153.9548"/>
<text text-anchor="middle" x="402" y="-159" font-family="Helvetica,sans-Serif" font-size="10.00" fill="#000000"> preferredDebuggerEngines</text>
</g>
<!-- Node3 -->
<g id="node3" class="node">
<title>Node3</title>
<g id="a_node3"><a xlink:href="classtracer_1_1_tracer.html" target="_top" xlink:title="Backtrace generator. ">
<polygon fill="none" stroke="#000000" points="189,-114.5 189,-133.5 269,-133.5 269,-114.5 189,-114.5"/>
<text text-anchor="middle" x="229" y="-121.5" font-family="Helvetica,sans-Serif" font-size="10.00" fill="#000000">tracer::Tracer</text>
</a>
</g>
</g>
<!-- Node3&#45;&gt;Node1 -->
<g id="edge2" class="edge">
<title>Node3&#45;&gt;Node1</title>
<path fill="none" stroke="#9a32cd" stroke-dasharray="5,2" d="M279.3196,-120.5848C327.9962,-116.9496 403.7725,-110.4158 469,-101 474.8325,-100.1581 480.8922,-99.1758 486.9382,-98.124"/>
<polygon fill="#9a32cd" stroke="#9a32cd" points="278.7741,-117.1154 269.0572,-121.3382 279.2866,-124.0966 278.7741,-117.1154"/>
<text text-anchor="middle" x="402" y="-118" font-family="Helvetica,sans-Serif" font-size="10.00" fill="#000000"> callback</text>
</g>
<!-- Node4 -->
<g id="node4" class="node">
<title>Node4</title>
<g id="a_node4"><a xlink:title="STL class. ">
<polygon fill="none" stroke="#bfbfbf" points="196.5,-76.5 196.5,-95.5 261.5,-95.5 261.5,-76.5 196.5,-76.5"/>
<text text-anchor="middle" x="229" y="-83.5" font-family="Helvetica,sans-Serif" font-size="10.00" fill="#000000">std::string</text>
</a>
</g>
</g>
<!-- Node4&#45;&gt;Node1 -->
<g id="edge3" class="edge">
<title>Node4&#45;&gt;Node1</title>
<path fill="none" stroke="#9a32cd" stroke-dasharray="5,2" d="M271.9795,-86C327.4932,-86 424.4018,-86 486.9757,-86"/>
<polygon fill="#9a32cd" stroke="#9a32cd" points="271.7823,-82.5001 261.7822,-86 271.7822,-89.5001 271.7823,-82.5001"/>
<text text-anchor="middle" x="402" y="-89" font-family="Helvetica,sans-Serif" font-size="10.00" fill="#000000"> logFile</text>
</g>
<!-- Node5 -->
<g id="node5" class="node">
<title>Node5</title>
<g id="a_node5"><a xlink:title="STL class. ">
<polygon fill="none" stroke="#bfbfbf" points="0,-71 0,-101 104,-101 104,-71 0,-71"/>
<text text-anchor="start" x="8" y="-89" font-family="Helvetica,sans-Serif" font-size="10.00" fill="#000000">std::basic_string&lt;</text>
<text text-anchor="middle" x="52" y="-78" font-family="Helvetica,sans-Serif" font-size="10.00" fill="#000000"> char &gt;</text>
</a>
</g>
</g>
<!-- Node5&#45;&gt;Node4 -->
<g id="edge4" class="edge">
<title>Node5&#45;&gt;Node4</title>
<path fill="none" stroke="#191970" d="M114.1696,-86C141.8977,-86 173.4196,-86 196.4131,-86"/>
<polygon fill="#191970" stroke="#191970" points="114.1485,-82.5001 104.1485,-86 114.1485,-89.5001 114.1485,-82.5001"/>
</g>
<!-- Node6 -->
<g id="node6" class="node">
<title>Node6</title>
<polygon fill="none" stroke="#bfbfbf" points="177,-38.5 177,-57.5 281,-57.5 281,-38.5 177,-38.5"/>
<text text-anchor="middle" x="229" y="-45.5" font-family="Helvetica,sans-Serif" font-size="10.00" fill="#000000">std::vector&lt; int &gt;</text>
</g>
<!-- Node6&#45;&gt;Node1 -->
<g id="edge5" class="edge">
<title>Node6&#45;&gt;Node1</title>
<path fill="none" stroke="#9a32cd" stroke-dasharray="5,2" d="M291.1792,-52.3181C339.746,-56.0866 408.8572,-62.3182 469,-71 474.8325,-71.8419 480.8922,-72.8242 486.9382,-73.876"/>
<polygon fill="#9a32cd" stroke="#9a32cd" points="291.3755,-48.823 281.138,-51.5514 290.8425,-55.8027 291.3755,-48.823"/>
<text text-anchor="middle" x="402" y="-74" font-family="Helvetica,sans-Serif" font-size="10.00" fill="#000000"> signums</text>
</g>
<!-- Node7 -->
<g id="node7" class="node">
<title>Node7</title>
<polygon fill="none" stroke="#bfbfbf" points="147,-.5 147,-19.5 311,-19.5 311,-.5 147,-.5"/>
<text text-anchor="middle" x="229" y="-7.5" font-family="Helvetica,sans-Serif" font-size="10.00" fill="#000000">std::vector&lt; TraceerEngines &gt;</text>
</g>
<!-- Node7&#45;&gt;Node1 -->
<g id="edge6" class="edge">
<title>Node7&#45;&gt;Node1</title>
<path fill="none" stroke="#9a32cd" stroke-dasharray="5,2" d="M321.1666,-14.0073C366.6106,-18.0488 421.6804,-26.0844 469,-42 489.2375,-48.8067 510.177,-61.0608 525.1809,-70.9114"/>
<polygon fill="#9a32cd" stroke="#9a32cd" points="321.2861,-10.5051 311.0285,-13.1572 320.7011,-17.4806 321.2861,-10.5051"/>
<text text-anchor="middle" x="402" y="-45" font-family="Helvetica,sans-Serif" font-size="10.00" fill="#000000"> preferredTracerEngines</text>
</g>
</g>
</svg>
