<?xml version="1.0" encoding="UTF-8" standalone="no"?>
<!DOCTYPE svg PUBLIC "-//W3C//DTD SVG 1.1//EN"
 "http://www.w3.org/Graphics/SVG/1.1/DTD/svg11.dtd">
<!-- Generated by graphviz version 2.40.1 (20161225.0304)
 -->
<!-- Title: tracer::DefaultPrinter::Config Pages: 1 -->
<svg width="149pt" height="284pt"
 viewBox="0.00 0.00 148.50 284.00" xmlns="http://www.w3.org/2000/svg" xmlns:xlink="http://www.w3.org/1999/xlink">
<g id="graph0" class="graph" transform="scale(1 1) rotate(0) translate(4 280)">
<title>tracer::DefaultPrinter::Config</title>
<!-- Node1 -->
<g id="node1" class="node">
<title>Node1</title>
<polygon fill="#bfbfbf" stroke="#000000" points="0,-.5 0,-30.5 119,-30.5 119,-.5 0,-.5"/>
<text text-anchor="start" x="8" y="-18.5" font-family="Helvetica,sans-Serif" font-size="10.00" fill="#000000">tracer::DefaultPrinter</text>
<text text-anchor="middle" x="59.5" y="-7.5" font-family="Helvetica,sans-Serif" font-size="10.00" fill="#000000">::Config</text>
</g>
<!-- Node2 -->
<g id="node2" class="node">
<title>Node2</title>
<g id="a_node2"><a xlink:title="STL class. ">
<polygon fill="none" stroke="#bfbfbf" points="27,-188.5 27,-207.5 92,-207.5 92,-188.5 27,-188.5"/>
<text text-anchor="middle" x="59.5" y="-195.5" font-family="Helvetica,sans-Serif" font-size="10.00" fill="#000000">std::string</text>
</a>
</g>
</g>
<!-- Node2&#45;&gt;Node1 -->
<g id="edge1" class="edge">
<title>Node2&#45;&gt;Node1</title>
<path fill="none" stroke="#9a32cd" stroke-dasharray="5,2" d="M59.5,-177.7169C59.5,-140.7394 59.5,-63.1719 59.5,-30.5074"/>
<polygon fill="#9a32cd" stroke="#9a32cd" points="56.0001,-178.188 59.5,-188.188 63.0001,-178.188 56.0001,-178.188"/>
<text text-anchor="middle" x="100" y="-162" font-family="Helvetica,sans-Serif" font-size="10.00" fill="#000000"> colorFrameNum</text>
<text text-anchor="middle" x="100" y="-151" font-family="Helvetica,sans-Serif" font-size="10.00" fill="#000000">suffix</text>
<text text-anchor="middle" x="100" y="-140" font-family="Helvetica,sans-Serif" font-size="10.00" fill="#000000">prefix</text>
<text text-anchor="middle" x="100" y="-129" font-family="Helvetica,sans-Serif" font-size="10.00" fill="#000000">colorFuncName</text>
<text text-anchor="middle" x="100" y="-118" font-family="Helvetica,sans-Serif" font-size="10.00" fill="#000000">colorAddress</text>
<text text-anchor="middle" x="100" y="-107" font-family="Helvetica,sans-Serif" font-size="10.00" fill="#000000">colorNotFound</text>
<text text-anchor="middle" x="100" y="-96" font-family="Helvetica,sans-Serif" font-size="10.00" fill="#000000">seper1</text>
<text text-anchor="middle" x="100" y="-85" font-family="Helvetica,sans-Serif" font-size="10.00" fill="#000000">colorModule</text>
<text text-anchor="middle" x="100" y="-74" font-family="Helvetica,sans-Serif" font-size="10.00" fill="#000000">seper2</text>
<text text-anchor="middle" x="100" y="-63" font-family="Helvetica,sans-Serif" font-size="10.00" fill="#000000">colorLineInfo</text>
<text text-anchor="middle" x="100" y="-52" font-family="Helvetica,sans-Serif" font-size="10.00" fill="#000000">...</text>
</g>
<!-- Node3 -->
<g id="node3" class="node">
<title>Node3</title>
<g id="a_node3"><a xlink:title="STL class. ">
<polygon fill="none" stroke="#bfbfbf" points="7.5,-245.5 7.5,-275.5 111.5,-275.5 111.5,-245.5 7.5,-245.5"/>
<text text-anchor="start" x="15.5" y="-263.5" font-family="Helvetica,sans-Serif" font-size="10.00" fill="#000000">std::basic_string&lt;</text>
<text text-anchor="middle" x="59.5" y="-252.5" font-family="Helvetica,sans-Serif" font-size="10.00" fill="#000000"> char &gt;</text>
</a>
</g>
</g>
<!-- Node3&#45;&gt;Node2 -->
<g id="edge2" class="edge">
<title>Node3&#45;&gt;Node2</title>
<path fill="none" stroke="#191970" d="M59.5,-235.3498C59.5,-225.6481 59.5,-215.1303 59.5,-207.7356"/>
<polygon fill="#191970" stroke="#191970" points="56.0001,-235.3705 59.5,-245.3705 63.0001,-235.3705 56.0001,-235.3705"/>
</g>
</g>
</svg>
