<?xml version="1.0" encoding="UTF-8" standalone="no"?>
<!DOCTYPE svg PUBLIC "-//W3C//DTD SVG 1.1//EN"
 "http://www.w3.org/Graphics/SVG/1.1/DTD/svg11.dtd">
<!-- Generated by graphviz version 2.40.1 (20161225.0304)
 -->
<!-- Title: /home/daniel/projects/tracer/src/c&#45;API/tracer.h Pages: 1 -->
<svg width="759pt" height="106pt"
 viewBox="0.00 0.00 759.00 106.00" xmlns="http://www.w3.org/2000/svg" xmlns:xlink="http://www.w3.org/1999/xlink">
<g id="graph0" class="graph" transform="scale(1 1) rotate(0) translate(4 102)">
<title>/home/daniel/projects/tracer/src/c&#45;API/tracer.h</title>
<!-- Node3 -->
<g id="node1" class="node">
<title>Node3</title>
<polygon fill="#bfbfbf" stroke="#000000" points="317.5,-67.5 317.5,-97.5 450.5,-97.5 450.5,-67.5 317.5,-67.5"/>
<text text-anchor="start" x="325.5" y="-85.5" font-family="Helvetica,sans-Serif" font-size="10.00" fill="#000000">/home/daniel/projects</text>
<text text-anchor="middle" x="384" y="-74.5" font-family="Helvetica,sans-Serif" font-size="10.00" fill="#000000">/tracer/src/c&#45;API/tracer.h</text>
</g>
<!-- Node4 -->
<g id="node2" class="node">
<title>Node4</title>
<g id="a_node2"><a xlink:href="c_printer_container_8cpp.html" target="_top" xlink:title="/home/daniel/projects\l/tracer/src/c&#45;API/cPrinterContainer.cpp">
<polygon fill="none" stroke="#000000" points="0,-.5 0,-30.5 200,-30.5 200,-.5 0,-.5"/>
<text text-anchor="start" x="8" y="-18.5" font-family="Helvetica,sans-Serif" font-size="10.00" fill="#000000">/home/daniel/projects</text>
<text text-anchor="middle" x="100" y="-7.5" font-family="Helvetica,sans-Serif" font-size="10.00" fill="#000000">/tracer/src/c&#45;API/cPrinterContainer.cpp</text>
</a>
</g>
</g>
<!-- Node3&#45;&gt;Node4 -->
<g id="edge1" class="edge">
<title>Node3&#45;&gt;Node4</title>
<path fill="none" stroke="#191970" d="M310.4875,-65.1573C265.123,-54.4551 207.4964,-40.8601 164.0131,-30.6017"/>
<polygon fill="#191970" stroke="#191970" points="309.7284,-68.5742 320.2649,-67.4639 311.3357,-61.7612 309.7284,-68.5742"/>
</g>
<!-- Node5 -->
<g id="node3" class="node">
<title>Node5</title>
<g id="a_node3"><a xlink:href="c_printers_8cpp.html" target="_top" xlink:title="/home/daniel/projects\l/tracer/src/c&#45;API/cPrinters.cpp">
<polygon fill="none" stroke="#000000" points="218.5,-.5 218.5,-30.5 377.5,-30.5 377.5,-.5 218.5,-.5"/>
<text text-anchor="start" x="226.5" y="-18.5" font-family="Helvetica,sans-Serif" font-size="10.00" fill="#000000">/home/daniel/projects</text>
<text text-anchor="middle" x="298" y="-7.5" font-family="Helvetica,sans-Serif" font-size="10.00" fill="#000000">/tracer/src/c&#45;API/cPrinters.cpp</text>
</a>
</g>
</g>
<!-- Node3&#45;&gt;Node5 -->
<g id="edge2" class="edge">
<title>Node3&#45;&gt;Node5</title>
<path fill="none" stroke="#191970" d="M356.4855,-61.0643C343.7696,-51.1577 328.9684,-39.6265 317.4375,-30.6432"/>
<polygon fill="#191970" stroke="#191970" points="354.4456,-63.9119 364.4853,-67.2967 358.7477,-58.3899 354.4456,-63.9119"/>
</g>
<!-- Node6 -->
<g id="node4" class="node">
<title>Node6</title>
<g id="a_node4"><a xlink:href="c_tracer_8cpp.html" target="_top" xlink:title="/home/daniel/projects\l/tracer/src/c&#45;API/cTracer.cpp">
<polygon fill="none" stroke="#000000" points="395,-.5 395,-30.5 545,-30.5 545,-.5 395,-.5"/>
<text text-anchor="start" x="403" y="-18.5" font-family="Helvetica,sans-Serif" font-size="10.00" fill="#000000">/home/daniel/projects</text>
<text text-anchor="middle" x="470" y="-7.5" font-family="Helvetica,sans-Serif" font-size="10.00" fill="#000000">/tracer/src/c&#45;API/cTracer.cpp</text>
</a>
</g>
</g>
<!-- Node3&#45;&gt;Node6 -->
<g id="edge3" class="edge">
<title>Node3&#45;&gt;Node6</title>
<path fill="none" stroke="#191970" d="M411.5145,-61.0643C424.2304,-51.1577 439.0316,-39.6265 450.5625,-30.6432"/>
<polygon fill="#191970" stroke="#191970" points="409.2523,-58.3899 403.5147,-67.2967 413.5544,-63.9119 409.2523,-58.3899"/>
</g>
<!-- Node7 -->
<g id="node5" class="node">
<title>Node7</title>
<g id="a_node5"><a xlink:href="c_tracer_handler_8cpp.html" target="_top" xlink:title="/home/daniel/projects\l/tracer/src/c&#45;API/cTracerHandler.cpp">
<polygon fill="none" stroke="#000000" points="563,-.5 563,-30.5 751,-30.5 751,-.5 563,-.5"/>
<text text-anchor="start" x="571" y="-18.5" font-family="Helvetica,sans-Serif" font-size="10.00" fill="#000000">/home/daniel/projects</text>
<text text-anchor="middle" x="657" y="-7.5" font-family="Helvetica,sans-Serif" font-size="10.00" fill="#000000">/tracer/src/c&#45;API/cTracerHandler.cpp</text>
</a>
</g>
</g>
<!-- Node3&#45;&gt;Node7 -->
<g id="edge4" class="edge">
<title>Node3&#45;&gt;Node7</title>
<path fill="none" stroke="#191970" d="M455.2144,-65.0225C498.7369,-54.3411 553.8425,-40.8171 595.4663,-30.6017"/>
<polygon fill="#191970" stroke="#191970" points="454.1441,-61.6812 445.2665,-67.4639 455.8126,-68.4795 454.1441,-61.6812"/>
</g>
</g>
</svg>
