<?xml version="1.0" encoding="UTF-8" standalone="no"?>
<!DOCTYPE svg PUBLIC "-//W3C//DTD SVG 1.1//EN"
 "http://www.w3.org/Graphics/SVG/1.1/DTD/svg11.dtd">
<!-- Generated by graphviz version 2.40.1 (20161225.0304)
 -->
<!-- Title: /home/daniel/projects/tracer/src/c&#45;API/tracerInternal.hpp Pages: 1 -->
<!--zoomable 431 -->
<svg id="main" version="1.1" xmlns="http://www.w3.org/2000/svg" xmlns:xlink="http://www.w3.org/1999/xlink" xml:space="preserve" onload="init(evt)">
<style type="text/css"><![CDATA[
.edge:hover path { stroke: red; }
.edge:hover polygon { stroke: red; fill: red; }
]]></style>
<script type="text/javascript"><![CDATA[
var edges = document.getElementsByTagName('g');
if (edges && edges.length) {
  for (var i=0;i<edges.length;i++) {
    if (edges[i].id.substr(0,4)=='edge') {
      edges[i].setAttribute('class','edge');
    }
  }
}
]]></script>
        <defs>
                <circle id="rim" cx="0" cy="0" r="7"/>
                <circle id="rim2" cx="0" cy="0" r="3.5"/>
                <g id="zoomPlus">
                        <use xlink:href="#rim" fill="#404040">
                                <set attributeName="fill" to="#808080" begin="zoomplus.mouseover" end="zoomplus.mouseout"/>
                        </use>
                        <path d="M-4,0h8M0,-4v8" fill="none" stroke="white" stroke-width="1.5" pointer-events="none"/>
                </g>
                <g id="zoomMin">
                        <use xlink:href="#rim" fill="#404040">
                                <set attributeName="fill" to="#808080" begin="zoomminus.mouseover" end="zoomminus.mouseout"/>
                        </use>
                        <path d="M-4,0h8" fill="none" stroke="white" stroke-width="1.5" pointer-events="none"/>
                </g>
                <g id="dirArrow">
                        <path fill="none" stroke="white" stroke-width="1.5" d="M0,-3.0v7 M-2.5,-0.5L0,-3.0L2.5,-0.5"/>
                </g>
               <g id="resetDef">
                       <use xlink:href="#rim2" fill="#404040">
                               <set attributeName="fill" to="#808080" begin="reset.mouseover" end="reset.mouseout"/>
                       </use>
               </g>
        </defs>

<script type="text/javascript">
var viewWidth = 921;
var viewHeight = 431;
var sectionId = 'dynsection-0';
</script>
<script xlink:href="svgpan.js"/>
<svg id="graph" class="graph">
<g id="viewport">
<title>/home/daniel/projects/tracer/src/c&#45;API/tracerInternal.hpp</title>
<!-- Node0 -->
<g id="node1" class="node">
<title>Node0</title>
<polygon fill="#bfbfbf" stroke="#000000" points="0,-392.5 0,-422.5 183,-422.5 183,-392.5 0,-392.5"/>
<text text-anchor="start" x="8" y="-410.5" font-family="Helvetica,sans-Serif" font-size="10.00" fill="#000000">/home/daniel/projects</text>
<text text-anchor="middle" x="91.5" y="-399.5" font-family="Helvetica,sans-Serif" font-size="10.00" fill="#000000">/tracer/src/c&#45;API/tracerInternal.hpp</text>
</g>
<!-- Node1 -->
<g id="node2" class="node">
<title>Node1</title>
<polygon fill="none" stroke="#bfbfbf" points="358,-.5 358,-19.5 431,-19.5 431,-.5 358,-.5"/>
<text text-anchor="middle" x="394.5" y="-7.5" font-family="Helvetica,sans-Serif" font-size="10.00" fill="#000000">defines.hpp</text>
</g>
<!-- Node0&#45;&gt;Node1 -->
<g id="edge1" class="edge">
<title>Node0&#45;&gt;Node1</title>
<path fill="none" stroke="#191970" d="M82.8206,-392.4732C71.0563,-370.6504 51.5,-328.5726 51.5,-290 51.5,-290 51.5,-290 51.5,-122 51.5,-80.5164 80.6086,-74.9713 117.5,-56 156.8285,-35.7754 279.5484,-21.1125 347.7002,-14.2867"/>
<polygon fill="#191970" stroke="#191970" points="348.1368,-17.7608 357.7457,-13.2978 347.4509,-10.7944 348.1368,-17.7608"/>
</g>
<!-- Node2 -->
<g id="node3" class="node">
<title>Node2</title>
<g id="a_node3"><a xlink:href="_tracer_handler_8hpp.html" target="_top" xlink:title="TracerHandler.hpp">
<polygon fill="none" stroke="#000000" points="101.5,-336.5 101.5,-355.5 205.5,-355.5 205.5,-336.5 101.5,-336.5"/>
<text text-anchor="middle" x="153.5" y="-343.5" font-family="Helvetica,sans-Serif" font-size="10.00" fill="#000000">TracerHandler.hpp</text>
</a>
</g>
</g>
<!-- Node0&#45;&gt;Node2 -->
<g id="edge2" class="edge">
<title>Node0&#45;&gt;Node2</title>
<path fill="none" stroke="#191970" d="M106.8258,-392.2977C115.7907,-383.4052 127.1288,-372.1586 136.3851,-362.9769"/>
<polygon fill="#191970" stroke="#191970" points="138.9382,-365.3742 143.573,-355.8469 134.0085,-360.4045 138.9382,-365.3742"/>
</g>
<!-- Node2&#45;&gt;Node1 -->
<g id="edge3" class="edge">
<title>Node2&#45;&gt;Node1</title>
<path fill="none" stroke="#191970" d="M141.0813,-336.3196C130.9335,-327.7851 116.9334,-314.4813 108.5,-300 93.1385,-273.6224 89.5,-264.5246 89.5,-234 89.5,-234 89.5,-234 89.5,-122 89.5,-76.2481 127.2709,-75.8341 168.5,-56 226.3658,-28.1625 300.4228,-17.1504 347.6763,-12.8077"/>
<polygon fill="#191970" stroke="#191970" points="348.2535,-16.2712 357.9191,-11.9324 347.6574,-9.2966 348.2535,-16.2712"/>
</g>
<!-- Node3 -->
<g id="node4" class="node">
<title>Node3</title>
<g id="a_node4"><a xlink:href="_printer_container_8hpp.html" target="_top" xlink:title="PrinterContainer.hpp">
<polygon fill="none" stroke="#000000" points="117.5,-280.5 117.5,-299.5 233.5,-299.5 233.5,-280.5 117.5,-280.5"/>
<text text-anchor="middle" x="175.5" y="-287.5" font-family="Helvetica,sans-Serif" font-size="10.00" fill="#000000">PrinterContainer.hpp</text>
</a>
</g>
</g>
<!-- Node2&#45;&gt;Node3 -->
<g id="edge4" class="edge">
<title>Node2&#45;&gt;Node3</title>
<path fill="none" stroke="#191970" d="M157.3321,-336.2455C160.2659,-328.7776 164.4047,-318.2427 167.991,-309.1137"/>
<polygon fill="#191970" stroke="#191970" points="171.3129,-310.23 171.7118,-299.6427 164.7976,-307.6704 171.3129,-310.23"/>
</g>
<!-- Node11 -->
<g id="node12" class="node">
<title>Node11</title>
<g id="a_node12"><a xlink:href="_tracer_8hpp.html" target="_top" xlink:title="Tracer.hpp">
<polygon fill="none" stroke="#000000" points="644.5,-168.5 644.5,-187.5 710.5,-187.5 710.5,-168.5 644.5,-168.5"/>
<text text-anchor="middle" x="677.5" y="-175.5" font-family="Helvetica,sans-Serif" font-size="10.00" fill="#000000">Tracer.hpp</text>
</a>
</g>
</g>
<!-- Node2&#45;&gt;Node11 -->
<g id="edge19" class="edge">
<title>Node2&#45;&gt;Node11</title>
<path fill="none" stroke="#191970" d="M183.1739,-336.4862C272.2366,-307.9318 537.2946,-222.9514 638.0427,-190.6504"/>
<polygon fill="#191970" stroke="#191970" points="639.3736,-193.8993 647.8276,-187.5133 637.2365,-187.2335 639.3736,-193.8993"/>
</g>
<!-- Node3&#45;&gt;Node1 -->
<g id="edge5" class="edge">
<title>Node3&#45;&gt;Node1</title>
<path fill="none" stroke="#191970" d="M168.2098,-280.4077C154.782,-261.7535 127.5,-218.829 127.5,-178 127.5,-178 127.5,-178 127.5,-122 127.5,-74.7346 271.5817,-36.4724 348.0613,-19.4919"/>
<polygon fill="#191970" stroke="#191970" points="348.9123,-22.8886 357.9346,-17.3345 347.418,-16.05 348.9123,-22.8886"/>
</g>
<!-- Node4 -->
<g id="node5" class="node">
<title>Node4</title>
<g id="a_node5"><a xlink:href="_fancy_printer_8hpp.html" target="_top" xlink:title="FancyPrinter.hpp">
<polygon fill="none" stroke="#000000" points="203,-224.5 203,-243.5 300,-243.5 300,-224.5 203,-224.5"/>
<text text-anchor="middle" x="251.5" y="-231.5" font-family="Helvetica,sans-Serif" font-size="10.00" fill="#000000">FancyPrinter.hpp</text>
</a>
</g>
</g>
<!-- Node3&#45;&gt;Node4 -->
<g id="edge6" class="edge">
<title>Node3&#45;&gt;Node4</title>
<path fill="none" stroke="#191970" d="M188.7382,-280.2455C200.181,-271.814 216.9296,-259.4729 230.2475,-249.6598"/>
<polygon fill="#191970" stroke="#191970" points="232.4391,-252.3924 238.4135,-243.6427 228.2867,-246.757 232.4391,-252.3924"/>
</g>
<!-- Node4&#45;&gt;Node1 -->
<g id="edge7" class="edge">
<title>Node4&#45;&gt;Node1</title>
<path fill="none" stroke="#191970" d="M244.0218,-224.366C237.5057,-215.4461 228.3604,-201.5526 223.5,-188 203.2854,-131.6338 203.2198,-92.7473 250.5,-56 278.7051,-34.0783 317.6257,-22.4638 347.8936,-16.3931"/>
<polygon fill="#191970" stroke="#191970" points="348.6128,-19.8193 357.7986,-14.54 347.3255,-12.9387 348.6128,-19.8193"/>
</g>
<!-- Node5 -->
<g id="node6" class="node">
<title>Node5</title>
<g id="a_node6"><a xlink:href="_file_printer_8hpp.html" target="_top" xlink:title="FilePrinter.hpp">
<polygon fill="none" stroke="#000000" points="232.5,-168.5 232.5,-187.5 318.5,-187.5 318.5,-168.5 232.5,-168.5"/>
<text text-anchor="middle" x="275.5" y="-175.5" font-family="Helvetica,sans-Serif" font-size="10.00" fill="#000000">FilePrinter.hpp</text>
</a>
</g>
</g>
<!-- Node4&#45;&gt;Node5 -->
<g id="edge8" class="edge">
<title>Node4&#45;&gt;Node5</title>
<path fill="none" stroke="#191970" d="M255.6805,-224.2455C258.881,-216.7776 263.396,-206.2427 267.3084,-197.1137"/>
<polygon fill="#191970" stroke="#191970" points="270.6452,-198.2129 271.3674,-187.6427 264.2112,-195.4554 270.6452,-198.2129"/>
</g>
<!-- Node9 -->
<g id="node10" class="node">
<title>Node9</title>
<g id="a_node10"><a xlink:href="_system_info_printer_8hpp.html" target="_top" xlink:title="SystemInfoPrinter.hpp">
<polygon fill="none" stroke="#000000" points="415,-168.5 415,-187.5 540,-187.5 540,-168.5 415,-168.5"/>
<text text-anchor="middle" x="477.5" y="-175.5" font-family="Helvetica,sans-Serif" font-size="10.00" fill="#000000">SystemInfoPrinter.hpp</text>
</a>
</g>
</g>
<!-- Node4&#45;&gt;Node9 -->
<g id="edge15" class="edge">
<title>Node4&#45;&gt;Node9</title>
<path fill="none" stroke="#191970" d="M290.094,-224.4369C328.5284,-214.9133 387.636,-200.2672 429.171,-189.9753"/>
<polygon fill="#191970" stroke="#191970" points="430.2006,-193.3261 439.0652,-187.5237 428.5169,-186.5316 430.2006,-193.3261"/>
</g>
<!-- Node5&#45;&gt;Node1 -->
<g id="edge9" class="edge">
<title>Node5&#45;&gt;Node1</title>
<path fill="none" stroke="#191970" d="M258.0851,-168.4395C238.2153,-156.2069 209.9898,-133.9633 222.5,-112 249.4631,-64.6625 307.9967,-37.0333 349.2666,-22.7374"/>
<polygon fill="#191970" stroke="#191970" points="350.4513,-26.0319 358.8342,-19.553 348.2406,-19.3902 350.4513,-26.0319"/>
</g>
<!-- Node6 -->
<g id="node7" class="node">
<title>Node6</title>
<g id="a_node7"><a xlink:href="_default_printer_8hpp.html" target="_top" xlink:title="DefaultPrinter.hpp">
<polygon fill="none" stroke="#000000" points="386,-112.5 386,-131.5 491,-131.5 491,-112.5 386,-112.5"/>
<text text-anchor="middle" x="438.5" y="-119.5" font-family="Helvetica,sans-Serif" font-size="10.00" fill="#000000">DefaultPrinter.hpp</text>
</a>
</g>
</g>
<!-- Node5&#45;&gt;Node6 -->
<g id="edge10" class="edge">
<title>Node5&#45;&gt;Node6</title>
<path fill="none" stroke="#191970" d="M303.5207,-168.3733C330.5078,-159.1016 371.5017,-145.0178 401.2311,-134.804"/>
<polygon fill="#191970" stroke="#191970" points="402.5248,-138.0605 410.8449,-131.5011 400.2503,-131.4403 402.5248,-138.0605"/>
</g>
<!-- Node8 -->
<g id="node9" class="node">
<title>Node8</title>
<polygon fill="none" stroke="#bfbfbf" points="231.5,-112.5 231.5,-131.5 367.5,-131.5 367.5,-112.5 231.5,-112.5"/>
<text text-anchor="middle" x="299.5" y="-119.5" font-family="Helvetica,sans-Serif" font-size="10.00" fill="#000000">experimental/filesystem</text>
</g>
<!-- Node5&#45;&gt;Node8 -->
<g id="edge14" class="edge">
<title>Node5&#45;&gt;Node8</title>
<path fill="none" stroke="#191970" d="M279.6805,-168.2455C282.881,-160.7776 287.396,-150.2427 291.3084,-141.1137"/>
<polygon fill="#191970" stroke="#191970" points="294.6452,-142.2129 295.3674,-131.6427 288.2112,-139.4554 294.6452,-142.2129"/>
</g>
<!-- Node6&#45;&gt;Node1 -->
<g id="edge11" class="edge">
<title>Node6&#45;&gt;Node1</title>
<path fill="none" stroke="#191970" d="M414.7141,-112.4178C399.6331,-104.9442 381.3538,-92.9629 372.5,-76 364.5081,-60.6885 372.3093,-41.889 380.7533,-28.2759"/>
<polygon fill="#191970" stroke="#191970" points="383.7954,-30.0263 386.5158,-19.7866 378.0036,-26.0949 383.7954,-30.0263"/>
</g>
<!-- Node7 -->
<g id="node8" class="node">
<title>Node7</title>
<g id="a_node8"><a xlink:href="_abstract_printer_8hpp.html" target="_top" xlink:title="AbstractPrinter.hpp">
<polygon fill="none" stroke="#000000" points="381.5,-56.5 381.5,-75.5 491.5,-75.5 491.5,-56.5 381.5,-56.5"/>
<text text-anchor="middle" x="436.5" y="-63.5" font-family="Helvetica,sans-Serif" font-size="10.00" fill="#000000">AbstractPrinter.hpp</text>
</a>
</g>
</g>
<!-- Node6&#45;&gt;Node7 -->
<g id="edge12" class="edge">
<title>Node6&#45;&gt;Node7</title>
<path fill="none" stroke="#191970" d="M438.1516,-112.2455C437.8907,-104.9382 437.5248,-94.6944 437.2037,-85.7046"/>
<polygon fill="#191970" stroke="#191970" points="440.6992,-85.5113 436.8444,-75.6427 433.7036,-85.7613 440.6992,-85.5113"/>
</g>
<!-- Node7&#45;&gt;Node1 -->
<g id="edge13" class="edge">
<title>Node7&#45;&gt;Node1</title>
<path fill="none" stroke="#191970" d="M429.1842,-56.2455C423.2821,-48.3761 414.8258,-37.101 407.7406,-27.6542"/>
<polygon fill="#191970" stroke="#191970" points="410.5321,-25.5427 401.732,-19.6427 404.932,-29.7427 410.5321,-25.5427"/>
</g>
<!-- Node9&#45;&gt;Node1 -->
<g id="edge16" class="edge">
<title>Node9&#45;&gt;Node1</title>
<path fill="none" stroke="#191970" d="M483.7151,-168.2143C496.8081,-146.2311 524.1483,-92.0416 500.5,-56 487.2344,-35.7823 462.9604,-24.4054 440.9858,-18.0262"/>
<polygon fill="#191970" stroke="#191970" points="441.6598,-14.5847 431.099,-15.4331 439.8839,-21.3556 441.6598,-14.5847"/>
</g>
<!-- Node9&#45;&gt;Node6 -->
<g id="edge17" class="edge">
<title>Node9&#45;&gt;Node6</title>
<path fill="none" stroke="#191970" d="M470.7067,-168.2455C465.2822,-160.4564 457.5339,-149.3308 450.9967,-139.9439"/>
<polygon fill="#191970" stroke="#191970" points="453.8025,-137.8485 445.2154,-131.6427 448.0583,-141.849 453.8025,-137.8485"/>
</g>
<!-- Node10 -->
<g id="node11" class="node">
<title>Node10</title>
<polygon fill="none" stroke="#bfbfbf" points="548,-112.5 548,-131.5 603,-131.5 603,-112.5 548,-112.5"/>
<text text-anchor="middle" x="575.5" y="-119.5" font-family="Helvetica,sans-Serif" font-size="10.00" fill="#000000">signal.h</text>
</g>
<!-- Node9&#45;&gt;Node10 -->
<g id="edge18" class="edge">
<title>Node9&#45;&gt;Node10</title>
<path fill="none" stroke="#191970" d="M494.5703,-168.2455C509.747,-159.5731 532.1621,-146.7645 549.5563,-136.825"/>
<polygon fill="#191970" stroke="#191970" points="551.6794,-139.643 558.6253,-131.6427 548.2064,-133.5653 551.6794,-139.643"/>
</g>
<!-- Node11&#45;&gt;Node1 -->
<g id="edge20" class="edge">
<title>Node11&#45;&gt;Node1</title>
<path fill="none" stroke="#191970" d="M669.1803,-168.3012C657.2539,-154.7363 634.221,-129.7689 611.5,-112 573.4939,-82.2774 561.9741,-76.9262 518.5,-56 491.315,-42.9146 459.3694,-31.1434 434.7118,-22.7846"/>
<polygon fill="#191970" stroke="#191970" points="435.5602,-19.378 424.9665,-19.5295 433.3425,-26.0174 435.5602,-19.378"/>
</g>
<!-- Node12 -->
<g id="node13" class="node">
<title>Node12</title>
<g id="a_node13"><a xlink:href="_abstract_debug_info_8hpp.html" target="_top" xlink:title="AbstractDebugInfo.hpp">
<polygon fill="none" stroke="#000000" points="659.5,-112.5 659.5,-131.5 787.5,-131.5 787.5,-112.5 659.5,-112.5"/>
<text text-anchor="middle" x="723.5" y="-119.5" font-family="Helvetica,sans-Serif" font-size="10.00" fill="#000000">AbstractDebugInfo.hpp</text>
</a>
</g>
</g>
<!-- Node11&#45;&gt;Node12 -->
<g id="edge21" class="edge">
<title>Node11&#45;&gt;Node12</title>
<path fill="none" stroke="#191970" d="M685.5126,-168.2455C691.9768,-160.3761 701.2385,-149.101 708.9983,-139.6542"/>
<polygon fill="#191970" stroke="#191970" points="711.9364,-141.5916 715.5792,-131.6427 706.5273,-137.1484 711.9364,-141.5916"/>
</g>
<!-- Node14 -->
<g id="node15" class="node">
<title>Node14</title>
<g id="a_node15"><a xlink:href="_abstract_tracer_8hpp.html" target="_top" xlink:title="AbstractTracer.hpp">
<polygon fill="none" stroke="#000000" points="806,-112.5 806,-131.5 913,-131.5 913,-112.5 806,-112.5"/>
<text text-anchor="middle" x="859.5" y="-119.5" font-family="Helvetica,sans-Serif" font-size="10.00" fill="#000000">AbstractTracer.hpp</text>
</a>
</g>
</g>
<!-- Node11&#45;&gt;Node14 -->
<g id="edge25" class="edge">
<title>Node11&#45;&gt;Node14</title>
<path fill="none" stroke="#191970" d="M708.7869,-168.3733C739.1818,-159.021 785.4893,-144.7725 818.75,-134.5385"/>
<polygon fill="#191970" stroke="#191970" points="820.0929,-137.7873 828.6214,-131.5011 818.0342,-131.0968 820.0929,-137.7873"/>
</g>
<!-- Node12&#45;&gt;Node1 -->
<g id="edge22" class="edge">
<title>Node12&#45;&gt;Node1</title>
<path fill="none" stroke="#191970" d="M715.0315,-112.1039C701.7966,-97.3382 674.6856,-69.8027 645.5,-56 610.0287,-39.2246 503.4692,-23.6402 441.1835,-15.6305"/>
<polygon fill="#191970" stroke="#191970" points="441.574,-12.152 431.2127,-14.3643 440.6921,-19.0963 441.574,-12.152"/>
</g>
<!-- Node13 -->
<g id="node14" class="node">
<title>Node13</title>
<g id="a_node14"><a xlink:href="_frame_8hpp.html" target="_top" xlink:title="Frame.hpp">
<polygon fill="none" stroke="#000000" points="697.5,-56.5 697.5,-75.5 765.5,-75.5 765.5,-56.5 697.5,-56.5"/>
<text text-anchor="middle" x="731.5" y="-63.5" font-family="Helvetica,sans-Serif" font-size="10.00" fill="#000000">Frame.hpp</text>
</a>
</g>
</g>
<!-- Node12&#45;&gt;Node13 -->
<g id="edge23" class="edge">
<title>Node12&#45;&gt;Node13</title>
<path fill="none" stroke="#191970" d="M724.8935,-112.2455C725.9374,-104.9382 727.4008,-94.6944 728.6851,-85.7046"/>
<polygon fill="#191970" stroke="#191970" points="732.173,-86.0372 730.1225,-75.6427 725.2434,-85.0472 732.173,-86.0372"/>
</g>
<!-- Node13&#45;&gt;Node1 -->
<g id="edge24" class="edge">
<title>Node13&#45;&gt;Node1</title>
<path fill="none" stroke="#191970" d="M697.4508,-58.6979C692.7705,-57.7552 688.021,-56.8303 683.5,-56 598.3546,-40.3635 498.5202,-25.1632 441.2727,-16.7457"/>
<polygon fill="#191970" stroke="#191970" points="441.4939,-13.2408 431.0921,-15.2544 440.4792,-20.1669 441.4939,-13.2408"/>
</g>
<!-- Node14&#45;&gt;Node1 -->
<g id="edge26" class="edge">
<title>Node14&#45;&gt;Node1</title>
<path fill="none" stroke="#191970" d="M850.6553,-112.3787C836.2936,-97.4536 806.2911,-69.0808 774.5,-56 715.1503,-31.5799 529.0429,-17.8236 441.2365,-12.5408"/>
<polygon fill="#191970" stroke="#191970" points="441.2197,-9.0338 431.0308,-11.9384 440.8072,-16.0217 441.2197,-9.0338"/>
</g>
<!-- Node14&#45;&gt;Node13 -->
<g id="edge27" class="edge">
<title>Node14&#45;&gt;Node13</title>
<path fill="none" stroke="#191970" d="M837.496,-112.3733C816.8565,-103.3435 785.7842,-89.7494 762.6111,-79.6111"/>
<polygon fill="#191970" stroke="#191970" points="763.7813,-76.3028 753.2169,-75.5011 760.9755,-82.7159 763.7813,-76.3028"/>
</g>
</g>
</svg>
        <g id="navigator" transform="translate(0 0)" fill="#404254">
                <rect fill="#f2f5e9" fill-opacity="0.5" stroke="#606060" stroke-width=".5" x="0" y="0" width="60" height="60"/>
                <use id="zoomplus" xlink:href="#zoomPlus" x="17" y="9" onmousedown="handleZoom(evt,'in')"/>
                <use id="zoomminus" xlink:href="#zoomMin" x="42" y="9" onmousedown="handleZoom(evt,'out')"/>
                <use id="reset" xlink:href="#resetDef" x="30" y="36" onmousedown="handleReset()"/>
                <g id="arrowUp" xlink:href="#dirArrow" transform="translate(30 24)" onmousedown="handlePan(0,-1)">
                  <use xlink:href="#rim" fill="#404040">
                        <set attributeName="fill" to="#808080" begin="arrowUp.mouseover" end="arrowUp.mouseout"/>
                  </use>
                  <path fill="none" stroke="white" stroke-width="1.5" d="M0,-3.0v7 M-2.5,-0.5L0,-3.0L2.5,-0.5"/>
                </g>
                <g id="arrowRight" xlink:href="#dirArrow" transform="rotate(90) translate(36 -43)" onmousedown="handlePan(1,0)">
                  <use xlink:href="#rim" fill="#404040">
                        <set attributeName="fill" to="#808080" begin="arrowRight.mouseover" end="arrowRight.mouseout"/>
                  </use>
                  <path fill="none" stroke="white" stroke-width="1.5" d="M0,-3.0v7 M-2.5,-0.5L0,-3.0L2.5,-0.5"/>
                </g>
                <g id="arrowDown" xlink:href="#dirArrow" transform="rotate(180) translate(-30 -48)" onmousedown="handlePan(0,1)">
                  <use xlink:href="#rim" fill="#404040">
                        <set attributeName="fill" to="#808080" begin="arrowDown.mouseover" end="arrowDown.mouseout"/>
                  </use>
                  <path fill="none" stroke="white" stroke-width="1.5" d="M0,-3.0v7 M-2.5,-0.5L0,-3.0L2.5,-0.5"/>
                </g>
                <g id="arrowLeft" xlink:href="#dirArrow" transform="rotate(270) translate(-36 17)" onmousedown="handlePan(-1,0)">
                  <use xlink:href="#rim" fill="#404040">
                        <set attributeName="fill" to="#808080" begin="arrowLeft.mouseover" end="arrowLeft.mouseout"/>
                  </use>
                  <path fill="none" stroke="white" stroke-width="1.5" d="M0,-3.0v7 M-2.5,-0.5L0,-3.0L2.5,-0.5"/>
                </g>
        </g>
        <svg viewBox="0 0 15 15" width="100%" height="30px" preserveAspectRatio="xMaxYMin meet">
         <g id="arrow_out" transform="scale(0.3 0.3)">
          <a xlink:href="tracer_internal_8hpp__incl_org.svg" target="_base">
           <rect id="button" ry="5" rx="5" y="6" x="6" height="38" width="38"
                fill="#f2f5e9" fill-opacity="0.5" stroke="#606060" stroke-width="1.0"/>
           <path id="arrow"
             d="M 11.500037,31.436501 C 11.940474,20.09759 22.043105,11.32322 32.158766,21.979434 L 37.068811,17.246167 C 37.068811,17.246167 37.088388,32 37.088388,32 L 22.160133,31.978069 C 22.160133,31.978069 26.997745,27.140456 26.997745,27.140456 C 18.528582,18.264221 13.291696,25.230495 11.500037,31.436501 z"
             style="fill:#404040;"/>
          </a>
         </g>
        </svg>
</svg>
